%TF.GenerationSoftware,KiCad,Pcbnew,9.0.1*%
%TF.CreationDate,2025-04-10T10:55:45+02:00*%
%TF.ProjectId,mainboard_pcb,6d61696e-626f-4617-9264-5f7063622e6b,rev?*%
%TF.SameCoordinates,Original*%
%TF.FileFunction,Drillmap*%
%TF.FilePolarity,Positive*%
%FSLAX45Y45*%
G04 Gerber Fmt 4.5, Leading zero omitted, Abs format (unit mm)*
G04 Created by KiCad (PCBNEW 9.0.1) date 2025-04-10 10:55:45*
%MOMM*%
%LPD*%
G01*
G04 APERTURE LIST*
%ADD10C,0.050000*%
%ADD11C,0.200000*%
%ADD12C,0.100000*%
%ADD13C,0.119000*%
%ADD14C,0.130000*%
G04 APERTURE END LIST*
D10*
X21900000Y-11150000D02*
X10800000Y-11150000D01*
X10300000Y-4500000D02*
G75*
G02*
X10800000Y-4000000I500000J0D01*
G01*
X22400000Y-4500000D02*
X22400000Y-10650000D01*
X10800000Y-4000000D02*
X21900000Y-4000000D01*
X10300000Y-10650000D02*
X10300000Y-4500000D01*
X10800000Y-11150000D02*
G75*
G02*
X10300000Y-10650000I0J500000D01*
G01*
X22400000Y-10650000D02*
G75*
G02*
X21900000Y-11150000I-500000J0D01*
G01*
X21900000Y-4000000D02*
G75*
G02*
X22400000Y-4500000I0J-500000D01*
G01*
D11*
D12*
X11115000Y-4961000D02*
X11185000Y-5031000D01*
X11185000Y-4961000D02*
X11115000Y-5031000D01*
X11115000Y-5469000D02*
X11185000Y-5539000D01*
X11185000Y-5469000D02*
X11115000Y-5539000D01*
X11115000Y-5911000D02*
X11185000Y-5981000D01*
X11185000Y-5911000D02*
X11115000Y-5981000D01*
X11115000Y-6419000D02*
X11185000Y-6489000D01*
X11185000Y-6419000D02*
X11115000Y-6489000D01*
X11365000Y-4961000D02*
X11435000Y-5031000D01*
X11435000Y-4961000D02*
X11365000Y-5031000D01*
X11365000Y-5469000D02*
X11435000Y-5539000D01*
X11435000Y-5469000D02*
X11365000Y-5539000D01*
X11365000Y-5911000D02*
X11435000Y-5981000D01*
X11435000Y-5911000D02*
X11365000Y-5981000D01*
X11365000Y-6419000D02*
X11435000Y-6489000D01*
X11435000Y-6419000D02*
X11365000Y-6489000D01*
X15843516Y-8100425D02*
X15913516Y-8170425D01*
X15913516Y-8100425D02*
X15843516Y-8170425D01*
X15843866Y-8344362D02*
X15913866Y-8414362D01*
X15913866Y-8344362D02*
X15843866Y-8414362D01*
X16351516Y-8100425D02*
X16421516Y-8170425D01*
X16421516Y-8100425D02*
X16351516Y-8170425D01*
X16351866Y-8344362D02*
X16421866Y-8414362D01*
X16421866Y-8344362D02*
X16351866Y-8414362D01*
X17225000Y-6763500D02*
X17295000Y-6833500D01*
X17295000Y-6763500D02*
X17225000Y-6833500D01*
X17225000Y-7013500D02*
X17295000Y-7083500D01*
X17295000Y-7013500D02*
X17225000Y-7083500D01*
X17733000Y-6763500D02*
X17803000Y-6833500D01*
X17803000Y-6763500D02*
X17733000Y-6833500D01*
X17733000Y-7013500D02*
X17803000Y-7083500D01*
X17803000Y-7013500D02*
X17733000Y-7083500D01*
X18235000Y-8099000D02*
X18305000Y-8169000D01*
X18305000Y-8099000D02*
X18235000Y-8169000D01*
X18235000Y-8349000D02*
X18305000Y-8419000D01*
X18305000Y-8349000D02*
X18235000Y-8419000D01*
X18743000Y-8099000D02*
X18813000Y-8169000D01*
X18813000Y-8099000D02*
X18743000Y-8169000D01*
X18743000Y-8349000D02*
X18813000Y-8419000D01*
X18813000Y-8349000D02*
X18743000Y-8419000D01*
X19686000Y-6763500D02*
X19756000Y-6833500D01*
X19756000Y-6763500D02*
X19686000Y-6833500D01*
X19686000Y-7013500D02*
X19756000Y-7083500D01*
X19756000Y-7013500D02*
X19686000Y-7083500D01*
X20194000Y-6763500D02*
X20264000Y-6833500D01*
X20264000Y-6763500D02*
X20194000Y-6833500D01*
X20194000Y-7013500D02*
X20264000Y-7083500D01*
X20264000Y-7013500D02*
X20194000Y-7083500D01*
X20515000Y-5207000D02*
X20585000Y-5277000D01*
X20585000Y-5207000D02*
X20515000Y-5277000D01*
X20515000Y-5715000D02*
X20585000Y-5785000D01*
X20585000Y-5715000D02*
X20515000Y-5785000D01*
X20515000Y-6211000D02*
X20585000Y-6281000D01*
X20585000Y-6211000D02*
X20515000Y-6281000D01*
X20515000Y-6719000D02*
X20585000Y-6789000D01*
X20585000Y-6719000D02*
X20515000Y-6789000D01*
X20515000Y-8119000D02*
X20585000Y-8189000D01*
X20585000Y-8119000D02*
X20515000Y-8189000D01*
X20515000Y-8627000D02*
X20585000Y-8697000D01*
X20585000Y-8627000D02*
X20515000Y-8697000D01*
X20515000Y-9119000D02*
X20585000Y-9189000D01*
X20585000Y-9119000D02*
X20515000Y-9189000D01*
X20515000Y-9627000D02*
X20585000Y-9697000D01*
X20585000Y-9627000D02*
X20515000Y-9697000D01*
X20765000Y-5457000D02*
X20835000Y-5527000D01*
X20835000Y-5457000D02*
X20765000Y-5527000D01*
X20765000Y-5965000D02*
X20835000Y-6035000D01*
X20835000Y-5965000D02*
X20765000Y-6035000D01*
X20765000Y-6457000D02*
X20835000Y-6527000D01*
X20835000Y-6457000D02*
X20765000Y-6527000D01*
X20765000Y-6965000D02*
X20835000Y-7035000D01*
X20835000Y-6965000D02*
X20765000Y-7035000D01*
X20765000Y-7869000D02*
X20835000Y-7939000D01*
X20835000Y-7869000D02*
X20765000Y-7939000D01*
X20765000Y-8377000D02*
X20835000Y-8447000D01*
X20835000Y-8377000D02*
X20765000Y-8447000D01*
X20765000Y-8869000D02*
X20835000Y-8939000D01*
X20835000Y-8869000D02*
X20765000Y-8939000D01*
X20765000Y-9377000D02*
X20835000Y-9447000D01*
X20835000Y-9377000D02*
X20765000Y-9447000D01*
X15640000Y-9900000D02*
G75*
G02*
X15560000Y-9900000I-40000J0D01*
G01*
X15560000Y-9900000D02*
G75*
G02*
X15640000Y-9900000I40000J0D01*
G01*
X15640000Y-10400000D02*
G75*
G02*
X15560000Y-10400000I-40000J0D01*
G01*
X15560000Y-10400000D02*
G75*
G02*
X15640000Y-10400000I40000J0D01*
G01*
X15962000Y-8650000D02*
G75*
G02*
X15882000Y-8650000I-40000J0D01*
G01*
X15882000Y-8650000D02*
G75*
G02*
X15962000Y-8650000I40000J0D01*
G01*
X15962000Y-9920000D02*
G75*
G02*
X15882000Y-9920000I-40000J0D01*
G01*
X15882000Y-9920000D02*
G75*
G02*
X15962000Y-9920000I40000J0D01*
G01*
X15965000Y-5262500D02*
G75*
G02*
X15885000Y-5262500I-40000J0D01*
G01*
X15885000Y-5262500D02*
G75*
G02*
X15965000Y-5262500I40000J0D01*
G01*
X15965000Y-6532500D02*
G75*
G02*
X15885000Y-6532500I-40000J0D01*
G01*
X15885000Y-6532500D02*
G75*
G02*
X15965000Y-6532500I40000J0D01*
G01*
X16065000Y-4662500D02*
G75*
G02*
X15985000Y-4662500I-40000J0D01*
G01*
X15985000Y-4662500D02*
G75*
G02*
X16065000Y-4662500I40000J0D01*
G01*
X16216000Y-8650000D02*
G75*
G02*
X16136000Y-8650000I-40000J0D01*
G01*
X16136000Y-8650000D02*
G75*
G02*
X16216000Y-8650000I40000J0D01*
G01*
X16216000Y-9920000D02*
G75*
G02*
X16136000Y-9920000I-40000J0D01*
G01*
X16136000Y-9920000D02*
G75*
G02*
X16216000Y-9920000I40000J0D01*
G01*
X16219000Y-5262500D02*
G75*
G02*
X16139000Y-5262500I-40000J0D01*
G01*
X16139000Y-5262500D02*
G75*
G02*
X16219000Y-5262500I40000J0D01*
G01*
X16219000Y-6532500D02*
G75*
G02*
X16139000Y-6532500I-40000J0D01*
G01*
X16139000Y-6532500D02*
G75*
G02*
X16219000Y-6532500I40000J0D01*
G01*
X16415000Y-4662500D02*
G75*
G02*
X16335000Y-4662500I-40000J0D01*
G01*
X16335000Y-4662500D02*
G75*
G02*
X16415000Y-4662500I40000J0D01*
G01*
X16470000Y-8650000D02*
G75*
G02*
X16390000Y-8650000I-40000J0D01*
G01*
X16390000Y-8650000D02*
G75*
G02*
X16470000Y-8650000I40000J0D01*
G01*
X16470000Y-9920000D02*
G75*
G02*
X16390000Y-9920000I-40000J0D01*
G01*
X16390000Y-9920000D02*
G75*
G02*
X16470000Y-9920000I40000J0D01*
G01*
X16473000Y-5262500D02*
G75*
G02*
X16393000Y-5262500I-40000J0D01*
G01*
X16393000Y-5262500D02*
G75*
G02*
X16473000Y-5262500I40000J0D01*
G01*
X16473000Y-6532500D02*
G75*
G02*
X16393000Y-6532500I-40000J0D01*
G01*
X16393000Y-6532500D02*
G75*
G02*
X16473000Y-6532500I40000J0D01*
G01*
X16724000Y-8650000D02*
G75*
G02*
X16644000Y-8650000I-40000J0D01*
G01*
X16644000Y-8650000D02*
G75*
G02*
X16724000Y-8650000I40000J0D01*
G01*
X16724000Y-9920000D02*
G75*
G02*
X16644000Y-9920000I-40000J0D01*
G01*
X16644000Y-9920000D02*
G75*
G02*
X16724000Y-9920000I40000J0D01*
G01*
X16727000Y-5262500D02*
G75*
G02*
X16647000Y-5262500I-40000J0D01*
G01*
X16647000Y-5262500D02*
G75*
G02*
X16727000Y-5262500I40000J0D01*
G01*
X16727000Y-6532500D02*
G75*
G02*
X16647000Y-6532500I-40000J0D01*
G01*
X16647000Y-6532500D02*
G75*
G02*
X16727000Y-6532500I40000J0D01*
G01*
X16978000Y-8650000D02*
G75*
G02*
X16898000Y-8650000I-40000J0D01*
G01*
X16898000Y-8650000D02*
G75*
G02*
X16978000Y-8650000I40000J0D01*
G01*
X16978000Y-9920000D02*
G75*
G02*
X16898000Y-9920000I-40000J0D01*
G01*
X16898000Y-9920000D02*
G75*
G02*
X16978000Y-9920000I40000J0D01*
G01*
X16981000Y-5262500D02*
G75*
G02*
X16901000Y-5262500I-40000J0D01*
G01*
X16901000Y-5262500D02*
G75*
G02*
X16981000Y-5262500I40000J0D01*
G01*
X16981000Y-6532500D02*
G75*
G02*
X16901000Y-6532500I-40000J0D01*
G01*
X16901000Y-6532500D02*
G75*
G02*
X16981000Y-6532500I40000J0D01*
G01*
X17232000Y-8650000D02*
G75*
G02*
X17152000Y-8650000I-40000J0D01*
G01*
X17152000Y-8650000D02*
G75*
G02*
X17232000Y-8650000I40000J0D01*
G01*
X17232000Y-9920000D02*
G75*
G02*
X17152000Y-9920000I-40000J0D01*
G01*
X17152000Y-9920000D02*
G75*
G02*
X17232000Y-9920000I40000J0D01*
G01*
X17235000Y-5262500D02*
G75*
G02*
X17155000Y-5262500I-40000J0D01*
G01*
X17155000Y-5262500D02*
G75*
G02*
X17235000Y-5262500I40000J0D01*
G01*
X17235000Y-6532500D02*
G75*
G02*
X17155000Y-6532500I-40000J0D01*
G01*
X17155000Y-6532500D02*
G75*
G02*
X17235000Y-6532500I40000J0D01*
G01*
X17264000Y-10534000D02*
G75*
G02*
X17184000Y-10534000I-40000J0D01*
G01*
X17184000Y-10534000D02*
G75*
G02*
X17264000Y-10534000I40000J0D01*
G01*
X17486000Y-8650000D02*
G75*
G02*
X17406000Y-8650000I-40000J0D01*
G01*
X17406000Y-8650000D02*
G75*
G02*
X17486000Y-8650000I40000J0D01*
G01*
X17486000Y-9920000D02*
G75*
G02*
X17406000Y-9920000I-40000J0D01*
G01*
X17406000Y-9920000D02*
G75*
G02*
X17486000Y-9920000I40000J0D01*
G01*
X17489000Y-5262500D02*
G75*
G02*
X17409000Y-5262500I-40000J0D01*
G01*
X17409000Y-5262500D02*
G75*
G02*
X17489000Y-5262500I40000J0D01*
G01*
X17489000Y-6532500D02*
G75*
G02*
X17409000Y-6532500I-40000J0D01*
G01*
X17409000Y-6532500D02*
G75*
G02*
X17489000Y-6532500I40000J0D01*
G01*
X17614000Y-10534000D02*
G75*
G02*
X17534000Y-10534000I-40000J0D01*
G01*
X17534000Y-10534000D02*
G75*
G02*
X17614000Y-10534000I40000J0D01*
G01*
X17740000Y-8650000D02*
G75*
G02*
X17660000Y-8650000I-40000J0D01*
G01*
X17660000Y-8650000D02*
G75*
G02*
X17740000Y-8650000I40000J0D01*
G01*
X17740000Y-9920000D02*
G75*
G02*
X17660000Y-9920000I-40000J0D01*
G01*
X17660000Y-9920000D02*
G75*
G02*
X17740000Y-9920000I40000J0D01*
G01*
X17743000Y-5262500D02*
G75*
G02*
X17663000Y-5262500I-40000J0D01*
G01*
X17663000Y-5262500D02*
G75*
G02*
X17743000Y-5262500I40000J0D01*
G01*
X17743000Y-6532500D02*
G75*
G02*
X17663000Y-6532500I-40000J0D01*
G01*
X17663000Y-6532500D02*
G75*
G02*
X17743000Y-6532500I40000J0D01*
G01*
X18040000Y-9750000D02*
G75*
G02*
X17960000Y-9750000I-40000J0D01*
G01*
X17960000Y-9750000D02*
G75*
G02*
X18040000Y-9750000I40000J0D01*
G01*
X18040000Y-10250000D02*
G75*
G02*
X17960000Y-10250000I-40000J0D01*
G01*
X17960000Y-10250000D02*
G75*
G02*
X18040000Y-10250000I40000J0D01*
G01*
X18090000Y-4700000D02*
G75*
G02*
X18010000Y-4700000I-40000J0D01*
G01*
X18010000Y-4700000D02*
G75*
G02*
X18090000Y-4700000I40000J0D01*
G01*
X18090000Y-5200000D02*
G75*
G02*
X18010000Y-5200000I-40000J0D01*
G01*
X18010000Y-5200000D02*
G75*
G02*
X18090000Y-5200000I40000J0D01*
G01*
X18386000Y-8650000D02*
G75*
G02*
X18306000Y-8650000I-40000J0D01*
G01*
X18306000Y-8650000D02*
G75*
G02*
X18386000Y-8650000I40000J0D01*
G01*
X18386000Y-9920000D02*
G75*
G02*
X18306000Y-9920000I-40000J0D01*
G01*
X18306000Y-9920000D02*
G75*
G02*
X18386000Y-9920000I40000J0D01*
G01*
X18426000Y-5262500D02*
G75*
G02*
X18346000Y-5262500I-40000J0D01*
G01*
X18346000Y-5262500D02*
G75*
G02*
X18426000Y-5262500I40000J0D01*
G01*
X18426000Y-6532500D02*
G75*
G02*
X18346000Y-6532500I-40000J0D01*
G01*
X18346000Y-6532500D02*
G75*
G02*
X18426000Y-6532500I40000J0D01*
G01*
X18490000Y-4648500D02*
G75*
G02*
X18410000Y-4648500I-40000J0D01*
G01*
X18410000Y-4648500D02*
G75*
G02*
X18490000Y-4648500I40000J0D01*
G01*
X18640000Y-8650000D02*
G75*
G02*
X18560000Y-8650000I-40000J0D01*
G01*
X18560000Y-8650000D02*
G75*
G02*
X18640000Y-8650000I40000J0D01*
G01*
X18640000Y-9920000D02*
G75*
G02*
X18560000Y-9920000I-40000J0D01*
G01*
X18560000Y-9920000D02*
G75*
G02*
X18640000Y-9920000I40000J0D01*
G01*
X18680000Y-5262500D02*
G75*
G02*
X18600000Y-5262500I-40000J0D01*
G01*
X18600000Y-5262500D02*
G75*
G02*
X18680000Y-5262500I40000J0D01*
G01*
X18680000Y-6532500D02*
G75*
G02*
X18600000Y-6532500I-40000J0D01*
G01*
X18600000Y-6532500D02*
G75*
G02*
X18680000Y-6532500I40000J0D01*
G01*
X18840000Y-4648500D02*
G75*
G02*
X18760000Y-4648500I-40000J0D01*
G01*
X18760000Y-4648500D02*
G75*
G02*
X18840000Y-4648500I40000J0D01*
G01*
X18894000Y-8650000D02*
G75*
G02*
X18814000Y-8650000I-40000J0D01*
G01*
X18814000Y-8650000D02*
G75*
G02*
X18894000Y-8650000I40000J0D01*
G01*
X18894000Y-9920000D02*
G75*
G02*
X18814000Y-9920000I-40000J0D01*
G01*
X18814000Y-9920000D02*
G75*
G02*
X18894000Y-9920000I40000J0D01*
G01*
X18934000Y-5262500D02*
G75*
G02*
X18854000Y-5262500I-40000J0D01*
G01*
X18854000Y-5262500D02*
G75*
G02*
X18934000Y-5262500I40000J0D01*
G01*
X18934000Y-6532500D02*
G75*
G02*
X18854000Y-6532500I-40000J0D01*
G01*
X18854000Y-6532500D02*
G75*
G02*
X18934000Y-6532500I40000J0D01*
G01*
X19148000Y-8650000D02*
G75*
G02*
X19068000Y-8650000I-40000J0D01*
G01*
X19068000Y-8650000D02*
G75*
G02*
X19148000Y-8650000I40000J0D01*
G01*
X19148000Y-9920000D02*
G75*
G02*
X19068000Y-9920000I-40000J0D01*
G01*
X19068000Y-9920000D02*
G75*
G02*
X19148000Y-9920000I40000J0D01*
G01*
X19188000Y-5262500D02*
G75*
G02*
X19108000Y-5262500I-40000J0D01*
G01*
X19108000Y-5262500D02*
G75*
G02*
X19188000Y-5262500I40000J0D01*
G01*
X19188000Y-6532500D02*
G75*
G02*
X19108000Y-6532500I-40000J0D01*
G01*
X19108000Y-6532500D02*
G75*
G02*
X19188000Y-6532500I40000J0D01*
G01*
X19402000Y-8650000D02*
G75*
G02*
X19322000Y-8650000I-40000J0D01*
G01*
X19322000Y-8650000D02*
G75*
G02*
X19402000Y-8650000I40000J0D01*
G01*
X19402000Y-9920000D02*
G75*
G02*
X19322000Y-9920000I-40000J0D01*
G01*
X19322000Y-9920000D02*
G75*
G02*
X19402000Y-9920000I40000J0D01*
G01*
X19442000Y-5262500D02*
G75*
G02*
X19362000Y-5262500I-40000J0D01*
G01*
X19362000Y-5262500D02*
G75*
G02*
X19442000Y-5262500I40000J0D01*
G01*
X19442000Y-6532500D02*
G75*
G02*
X19362000Y-6532500I-40000J0D01*
G01*
X19362000Y-6532500D02*
G75*
G02*
X19442000Y-6532500I40000J0D01*
G01*
X19656000Y-8650000D02*
G75*
G02*
X19576000Y-8650000I-40000J0D01*
G01*
X19576000Y-8650000D02*
G75*
G02*
X19656000Y-8650000I40000J0D01*
G01*
X19656000Y-9920000D02*
G75*
G02*
X19576000Y-9920000I-40000J0D01*
G01*
X19576000Y-9920000D02*
G75*
G02*
X19656000Y-9920000I40000J0D01*
G01*
X19696000Y-5262500D02*
G75*
G02*
X19616000Y-5262500I-40000J0D01*
G01*
X19616000Y-5262500D02*
G75*
G02*
X19696000Y-5262500I40000J0D01*
G01*
X19696000Y-6532500D02*
G75*
G02*
X19616000Y-6532500I-40000J0D01*
G01*
X19616000Y-6532500D02*
G75*
G02*
X19696000Y-6532500I40000J0D01*
G01*
X19725000Y-10534000D02*
G75*
G02*
X19645000Y-10534000I-40000J0D01*
G01*
X19645000Y-10534000D02*
G75*
G02*
X19725000Y-10534000I40000J0D01*
G01*
X19910000Y-8650000D02*
G75*
G02*
X19830000Y-8650000I-40000J0D01*
G01*
X19830000Y-8650000D02*
G75*
G02*
X19910000Y-8650000I40000J0D01*
G01*
X19910000Y-9920000D02*
G75*
G02*
X19830000Y-9920000I-40000J0D01*
G01*
X19830000Y-9920000D02*
G75*
G02*
X19910000Y-9920000I40000J0D01*
G01*
X19950000Y-5262500D02*
G75*
G02*
X19870000Y-5262500I-40000J0D01*
G01*
X19870000Y-5262500D02*
G75*
G02*
X19950000Y-5262500I40000J0D01*
G01*
X19950000Y-6532500D02*
G75*
G02*
X19870000Y-6532500I-40000J0D01*
G01*
X19870000Y-6532500D02*
G75*
G02*
X19950000Y-6532500I40000J0D01*
G01*
X20075000Y-10534000D02*
G75*
G02*
X19995000Y-10534000I-40000J0D01*
G01*
X19995000Y-10534000D02*
G75*
G02*
X20075000Y-10534000I40000J0D01*
G01*
X20164000Y-8650000D02*
G75*
G02*
X20084000Y-8650000I-40000J0D01*
G01*
X20084000Y-8650000D02*
G75*
G02*
X20164000Y-8650000I40000J0D01*
G01*
X20164000Y-9920000D02*
G75*
G02*
X20084000Y-9920000I-40000J0D01*
G01*
X20084000Y-9920000D02*
G75*
G02*
X20164000Y-9920000I40000J0D01*
G01*
X20204000Y-5262500D02*
G75*
G02*
X20124000Y-5262500I-40000J0D01*
G01*
X20124000Y-5262500D02*
G75*
G02*
X20204000Y-5262500I40000J0D01*
G01*
X20204000Y-6532500D02*
G75*
G02*
X20124000Y-6532500I-40000J0D01*
G01*
X20124000Y-6532500D02*
G75*
G02*
X20204000Y-6532500I40000J0D01*
G01*
X20490000Y-5000000D02*
G75*
G02*
X20410000Y-5000000I-40000J0D01*
G01*
X20410000Y-5000000D02*
G75*
G02*
X20490000Y-5000000I40000J0D01*
G01*
X20990000Y-5000000D02*
G75*
G02*
X20910000Y-5000000I-40000J0D01*
G01*
X20910000Y-5000000D02*
G75*
G02*
X20990000Y-5000000I40000J0D01*
G01*
X21140000Y-5746000D02*
G75*
G02*
X21060000Y-5746000I-40000J0D01*
G01*
X21060000Y-5746000D02*
G75*
G02*
X21140000Y-5746000I40000J0D01*
G01*
X21140000Y-6000000D02*
G75*
G02*
X21060000Y-6000000I-40000J0D01*
G01*
X21060000Y-6000000D02*
G75*
G02*
X21140000Y-6000000I40000J0D01*
G01*
X21140000Y-6254000D02*
G75*
G02*
X21060000Y-6254000I-40000J0D01*
G01*
X21060000Y-6254000D02*
G75*
G02*
X21140000Y-6254000I40000J0D01*
G01*
X21140000Y-6508000D02*
G75*
G02*
X21060000Y-6508000I-40000J0D01*
G01*
X21060000Y-6508000D02*
G75*
G02*
X21140000Y-6508000I40000J0D01*
G01*
X21140000Y-8396000D02*
G75*
G02*
X21060000Y-8396000I-40000J0D01*
G01*
X21060000Y-8396000D02*
G75*
G02*
X21140000Y-8396000I40000J0D01*
G01*
X21140000Y-8650000D02*
G75*
G02*
X21060000Y-8650000I-40000J0D01*
G01*
X21060000Y-8650000D02*
G75*
G02*
X21140000Y-8650000I40000J0D01*
G01*
X21140000Y-8904000D02*
G75*
G02*
X21060000Y-8904000I-40000J0D01*
G01*
X21060000Y-8904000D02*
G75*
G02*
X21140000Y-8904000I40000J0D01*
G01*
X21140000Y-9158000D02*
G75*
G02*
X21060000Y-9158000I-40000J0D01*
G01*
X21060000Y-9158000D02*
G75*
G02*
X21140000Y-9158000I40000J0D01*
G01*
X21902000Y-5746000D02*
G75*
G02*
X21822000Y-5746000I-40000J0D01*
G01*
X21822000Y-5746000D02*
G75*
G02*
X21902000Y-5746000I40000J0D01*
G01*
X21902000Y-6000000D02*
G75*
G02*
X21822000Y-6000000I-40000J0D01*
G01*
X21822000Y-6000000D02*
G75*
G02*
X21902000Y-6000000I40000J0D01*
G01*
X21902000Y-6254000D02*
G75*
G02*
X21822000Y-6254000I-40000J0D01*
G01*
X21822000Y-6254000D02*
G75*
G02*
X21902000Y-6254000I40000J0D01*
G01*
X21902000Y-6508000D02*
G75*
G02*
X21822000Y-6508000I-40000J0D01*
G01*
X21822000Y-6508000D02*
G75*
G02*
X21902000Y-6508000I40000J0D01*
G01*
X21902000Y-8396000D02*
G75*
G02*
X21822000Y-8396000I-40000J0D01*
G01*
X21822000Y-8396000D02*
G75*
G02*
X21902000Y-8396000I40000J0D01*
G01*
X21902000Y-8650000D02*
G75*
G02*
X21822000Y-8650000I-40000J0D01*
G01*
X21822000Y-8650000D02*
G75*
G02*
X21902000Y-8650000I40000J0D01*
G01*
X21902000Y-8904000D02*
G75*
G02*
X21822000Y-8904000I-40000J0D01*
G01*
X21822000Y-8904000D02*
G75*
G02*
X21902000Y-8904000I40000J0D01*
G01*
X21902000Y-9158000D02*
G75*
G02*
X21822000Y-9158000I-40000J0D01*
G01*
X21822000Y-9158000D02*
G75*
G02*
X21902000Y-9158000I40000J0D01*
G01*
X16164000Y-6776500D02*
X16164000Y-6866500D01*
X16119000Y-6821500D02*
X16209000Y-6821500D01*
X16164000Y-7030500D02*
X16164000Y-7120500D01*
X16119000Y-7075500D02*
X16209000Y-7075500D01*
X16614000Y-6776500D02*
X16614000Y-6866500D01*
X16569000Y-6821500D02*
X16659000Y-6821500D01*
X16614000Y-7030500D02*
X16614000Y-7120500D01*
X16569000Y-7075500D02*
X16659000Y-7075500D01*
X17009000Y-8062000D02*
X17009000Y-8152000D01*
X16964000Y-8107000D02*
X17054000Y-8107000D01*
X17009000Y-8316000D02*
X17009000Y-8406000D01*
X16964000Y-8361000D02*
X17054000Y-8361000D01*
X17459000Y-8062000D02*
X17459000Y-8152000D01*
X17414000Y-8107000D02*
X17504000Y-8107000D01*
X17459000Y-8316000D02*
X17459000Y-8406000D01*
X17414000Y-8361000D02*
X17504000Y-8361000D01*
X18675000Y-6776500D02*
X18675000Y-6866500D01*
X18630000Y-6821500D02*
X18720000Y-6821500D01*
X18675000Y-7030500D02*
X18675000Y-7120500D01*
X18630000Y-7075500D02*
X18720000Y-7075500D01*
X19125000Y-6776500D02*
X19125000Y-6866500D01*
X19080000Y-6821500D02*
X19170000Y-6821500D01*
X19125000Y-7030500D02*
X19125000Y-7120500D01*
X19080000Y-7075500D02*
X19170000Y-7075500D01*
X19424000Y-8062000D02*
X19424000Y-8152000D01*
X19379000Y-8107000D02*
X19469000Y-8107000D01*
X19424000Y-8316000D02*
X19424000Y-8406000D01*
X19379000Y-8361000D02*
X19469000Y-8361000D01*
X19874000Y-8062000D02*
X19874000Y-8152000D01*
X19829000Y-8107000D02*
X19919000Y-8107000D01*
X19874000Y-8316000D02*
X19874000Y-8406000D01*
X19829000Y-8361000D02*
X19919000Y-8361000D01*
X11765356Y-4657356D02*
X11765356Y-4586644D01*
X11694644Y-4586644D01*
X11694644Y-4657356D01*
X11765356Y-4657356D01*
X11765356Y-4911356D02*
X11765356Y-4840644D01*
X11694644Y-4840644D01*
X11694644Y-4911356D01*
X11765356Y-4911356D01*
X11765356Y-5165356D02*
X11765356Y-5094644D01*
X11694644Y-5094644D01*
X11694644Y-5165356D01*
X11765356Y-5165356D01*
X11765356Y-5419356D02*
X11765356Y-5348644D01*
X11694644Y-5348644D01*
X11694644Y-5419356D01*
X11765356Y-5419356D01*
X11765356Y-5673356D02*
X11765356Y-5602644D01*
X11694644Y-5602644D01*
X11694644Y-5673356D01*
X11765356Y-5673356D01*
X11765356Y-5927356D02*
X11765356Y-5856644D01*
X11694644Y-5856644D01*
X11694644Y-5927356D01*
X11765356Y-5927356D01*
X11765356Y-6181356D02*
X11765356Y-6110644D01*
X11694644Y-6110644D01*
X11694644Y-6181356D01*
X11765356Y-6181356D01*
X11765356Y-6435356D02*
X11765356Y-6364644D01*
X11694644Y-6364644D01*
X11694644Y-6435356D01*
X11765356Y-6435356D01*
X11765356Y-6689356D02*
X11765356Y-6618644D01*
X11694644Y-6618644D01*
X11694644Y-6689356D01*
X11765356Y-6689356D01*
X11765356Y-6943356D02*
X11765356Y-6872644D01*
X11694644Y-6872644D01*
X11694644Y-6943356D01*
X11765356Y-6943356D01*
X11765356Y-7197356D02*
X11765356Y-7126644D01*
X11694644Y-7126644D01*
X11694644Y-7197356D01*
X11765356Y-7197356D01*
X11765356Y-7451356D02*
X11765356Y-7380644D01*
X11694644Y-7380644D01*
X11694644Y-7451356D01*
X11765356Y-7451356D01*
X11765356Y-7705356D02*
X11765356Y-7634644D01*
X11694644Y-7634644D01*
X11694644Y-7705356D01*
X11765356Y-7705356D01*
X11765356Y-7959356D02*
X11765356Y-7888644D01*
X11694644Y-7888644D01*
X11694644Y-7959356D01*
X11765356Y-7959356D01*
X11765356Y-8213356D02*
X11765356Y-8142644D01*
X11694644Y-8142644D01*
X11694644Y-8213356D01*
X11765356Y-8213356D01*
X11919356Y-9785356D02*
X11919356Y-9714644D01*
X11848644Y-9714644D01*
X11848644Y-9785356D01*
X11919356Y-9785356D01*
X12173356Y-9785356D02*
X12173356Y-9714644D01*
X12102644Y-9714644D01*
X12102644Y-9785356D01*
X12173356Y-9785356D01*
X12265356Y-4657356D02*
X12265356Y-4586644D01*
X12194644Y-4586644D01*
X12194644Y-4657356D01*
X12265356Y-4657356D01*
X12265356Y-4911356D02*
X12265356Y-4840644D01*
X12194644Y-4840644D01*
X12194644Y-4911356D01*
X12265356Y-4911356D01*
X12265356Y-5165356D02*
X12265356Y-5094644D01*
X12194644Y-5094644D01*
X12194644Y-5165356D01*
X12265356Y-5165356D01*
X12265356Y-5419356D02*
X12265356Y-5348644D01*
X12194644Y-5348644D01*
X12194644Y-5419356D01*
X12265356Y-5419356D01*
X12265356Y-5673356D02*
X12265356Y-5602644D01*
X12194644Y-5602644D01*
X12194644Y-5673356D01*
X12265356Y-5673356D01*
X12265356Y-5927356D02*
X12265356Y-5856644D01*
X12194644Y-5856644D01*
X12194644Y-5927356D01*
X12265356Y-5927356D01*
X12265356Y-6181356D02*
X12265356Y-6110644D01*
X12194644Y-6110644D01*
X12194644Y-6181356D01*
X12265356Y-6181356D01*
X12265356Y-6435356D02*
X12265356Y-6364644D01*
X12194644Y-6364644D01*
X12194644Y-6435356D01*
X12265356Y-6435356D01*
X12265356Y-6689356D02*
X12265356Y-6618644D01*
X12194644Y-6618644D01*
X12194644Y-6689356D01*
X12265356Y-6689356D01*
X12265356Y-6943356D02*
X12265356Y-6872644D01*
X12194644Y-6872644D01*
X12194644Y-6943356D01*
X12265356Y-6943356D01*
X12265356Y-7197356D02*
X12265356Y-7126644D01*
X12194644Y-7126644D01*
X12194644Y-7197356D01*
X12265356Y-7197356D01*
X12265356Y-7451356D02*
X12265356Y-7380644D01*
X12194644Y-7380644D01*
X12194644Y-7451356D01*
X12265356Y-7451356D01*
X12265356Y-7705356D02*
X12265356Y-7634644D01*
X12194644Y-7634644D01*
X12194644Y-7705356D01*
X12265356Y-7705356D01*
X12265356Y-7959356D02*
X12265356Y-7888644D01*
X12194644Y-7888644D01*
X12194644Y-7959356D01*
X12265356Y-7959356D01*
X12265356Y-8213356D02*
X12265356Y-8142644D01*
X12194644Y-8142644D01*
X12194644Y-8213356D01*
X12265356Y-8213356D01*
X12427356Y-9785356D02*
X12427356Y-9714644D01*
X12356644Y-9714644D01*
X12356644Y-9785356D01*
X12427356Y-9785356D01*
X12681356Y-9785356D02*
X12681356Y-9714644D01*
X12610644Y-9714644D01*
X12610644Y-9785356D01*
X12681356Y-9785356D01*
X12935356Y-9785356D02*
X12935356Y-9714644D01*
X12864644Y-9714644D01*
X12864644Y-9785356D01*
X12935356Y-9785356D01*
X13189356Y-9785356D02*
X13189356Y-9714644D01*
X13118644Y-9714644D01*
X13118644Y-9785356D01*
X13189356Y-9785356D01*
X14805356Y-4657356D02*
X14805356Y-4586644D01*
X14734644Y-4586644D01*
X14734644Y-4657356D01*
X14805356Y-4657356D01*
X14805356Y-4911356D02*
X14805356Y-4840644D01*
X14734644Y-4840644D01*
X14734644Y-4911356D01*
X14805356Y-4911356D01*
X14805356Y-5165356D02*
X14805356Y-5094644D01*
X14734644Y-5094644D01*
X14734644Y-5165356D01*
X14805356Y-5165356D01*
X14805356Y-5419356D02*
X14805356Y-5348644D01*
X14734644Y-5348644D01*
X14734644Y-5419356D01*
X14805356Y-5419356D01*
X14805356Y-5673356D02*
X14805356Y-5602644D01*
X14734644Y-5602644D01*
X14734644Y-5673356D01*
X14805356Y-5673356D01*
X14805356Y-5927356D02*
X14805356Y-5856644D01*
X14734644Y-5856644D01*
X14734644Y-5927356D01*
X14805356Y-5927356D01*
X14805356Y-6181356D02*
X14805356Y-6110644D01*
X14734644Y-6110644D01*
X14734644Y-6181356D01*
X14805356Y-6181356D01*
X14805356Y-6435356D02*
X14805356Y-6364644D01*
X14734644Y-6364644D01*
X14734644Y-6435356D01*
X14805356Y-6435356D01*
X14805356Y-6689356D02*
X14805356Y-6618644D01*
X14734644Y-6618644D01*
X14734644Y-6689356D01*
X14805356Y-6689356D01*
X14805356Y-6943356D02*
X14805356Y-6872644D01*
X14734644Y-6872644D01*
X14734644Y-6943356D01*
X14805356Y-6943356D01*
X14805356Y-7197356D02*
X14805356Y-7126644D01*
X14734644Y-7126644D01*
X14734644Y-7197356D01*
X14805356Y-7197356D01*
X14805356Y-7451356D02*
X14805356Y-7380644D01*
X14734644Y-7380644D01*
X14734644Y-7451356D01*
X14805356Y-7451356D01*
X14805356Y-7705356D02*
X14805356Y-7634644D01*
X14734644Y-7634644D01*
X14734644Y-7705356D01*
X14805356Y-7705356D01*
X14805356Y-7959356D02*
X14805356Y-7888644D01*
X14734644Y-7888644D01*
X14734644Y-7959356D01*
X14805356Y-7959356D01*
X14805356Y-8213356D02*
X14805356Y-8142644D01*
X14734644Y-8142644D01*
X14734644Y-8213356D01*
X14805356Y-8213356D01*
X15315356Y-4657356D02*
X15315356Y-4586644D01*
X15244644Y-4586644D01*
X15244644Y-4657356D01*
X15315356Y-4657356D01*
X15315356Y-4911356D02*
X15315356Y-4840644D01*
X15244644Y-4840644D01*
X15244644Y-4911356D01*
X15315356Y-4911356D01*
X15315356Y-5165356D02*
X15315356Y-5094644D01*
X15244644Y-5094644D01*
X15244644Y-5165356D01*
X15315356Y-5165356D01*
X15315356Y-5419356D02*
X15315356Y-5348644D01*
X15244644Y-5348644D01*
X15244644Y-5419356D01*
X15315356Y-5419356D01*
X15315356Y-5673356D02*
X15315356Y-5602644D01*
X15244644Y-5602644D01*
X15244644Y-5673356D01*
X15315356Y-5673356D01*
X15315356Y-5927356D02*
X15315356Y-5856644D01*
X15244644Y-5856644D01*
X15244644Y-5927356D01*
X15315356Y-5927356D01*
X15315356Y-6181356D02*
X15315356Y-6110644D01*
X15244644Y-6110644D01*
X15244644Y-6181356D01*
X15315356Y-6181356D01*
X15315356Y-6435356D02*
X15315356Y-6364644D01*
X15244644Y-6364644D01*
X15244644Y-6435356D01*
X15315356Y-6435356D01*
X15315356Y-6689356D02*
X15315356Y-6618644D01*
X15244644Y-6618644D01*
X15244644Y-6689356D01*
X15315356Y-6689356D01*
X15315356Y-6943356D02*
X15315356Y-6872644D01*
X15244644Y-6872644D01*
X15244644Y-6943356D01*
X15315356Y-6943356D01*
X15315356Y-7197356D02*
X15315356Y-7126644D01*
X15244644Y-7126644D01*
X15244644Y-7197356D01*
X15315356Y-7197356D01*
X15315356Y-7451356D02*
X15315356Y-7380644D01*
X15244644Y-7380644D01*
X15244644Y-7451356D01*
X15315356Y-7451356D01*
X15315356Y-7705356D02*
X15315356Y-7634644D01*
X15244644Y-7634644D01*
X15244644Y-7705356D01*
X15315356Y-7705356D01*
X15315356Y-7959356D02*
X15315356Y-7888644D01*
X15244644Y-7888644D01*
X15244644Y-7959356D01*
X15315356Y-7959356D01*
X15315356Y-8213356D02*
X15315356Y-8142644D01*
X15244644Y-8142644D01*
X15244644Y-8213356D01*
X15315356Y-8213356D01*
D13*
X11050000Y-7059500D02*
X11109500Y-7000000D01*
X11050000Y-6940500D01*
X10990500Y-7000000D01*
X11050000Y-7059500D01*
X11050000Y-7313500D02*
X11109500Y-7254000D01*
X11050000Y-7194500D01*
X10990500Y-7254000D01*
X11050000Y-7313500D01*
X11050000Y-7709500D02*
X11109500Y-7650000D01*
X11050000Y-7590500D01*
X10990500Y-7650000D01*
X11050000Y-7709500D01*
X11050000Y-7963500D02*
X11109500Y-7904000D01*
X11050000Y-7844500D01*
X10990500Y-7904000D01*
X11050000Y-7963500D01*
X11050000Y-8359500D02*
X11109500Y-8300000D01*
X11050000Y-8240500D01*
X10990500Y-8300000D01*
X11050000Y-8359500D01*
X11050000Y-8613500D02*
X11109500Y-8554000D01*
X11050000Y-8494500D01*
X10990500Y-8554000D01*
X11050000Y-8613500D01*
X11050000Y-9009500D02*
X11109500Y-8950000D01*
X11050000Y-8890500D01*
X10990500Y-8950000D01*
X11050000Y-9009500D01*
X11050000Y-9263500D02*
X11109500Y-9204000D01*
X11050000Y-9144500D01*
X10990500Y-9204000D01*
X11050000Y-9263500D01*
X16019000Y-10482200D02*
X16078500Y-10422700D01*
X16019000Y-10363200D01*
X15959500Y-10422700D01*
X16019000Y-10482200D01*
X16273000Y-10482200D02*
X16332500Y-10422700D01*
X16273000Y-10363200D01*
X16213500Y-10422700D01*
X16273000Y-10482200D01*
X16527000Y-10482200D02*
X16586500Y-10422700D01*
X16527000Y-10363200D01*
X16467500Y-10422700D01*
X16527000Y-10482200D01*
X16781000Y-10482200D02*
X16840500Y-10422700D01*
X16781000Y-10363200D01*
X16721500Y-10422700D01*
X16781000Y-10482200D01*
X16842000Y-4822000D02*
X16901500Y-4762500D01*
X16842000Y-4703000D01*
X16782500Y-4762500D01*
X16842000Y-4822000D01*
X17096000Y-4822000D02*
X17155500Y-4762500D01*
X17096000Y-4703000D01*
X17036500Y-4762500D01*
X17096000Y-4822000D01*
X17350000Y-4822000D02*
X17409500Y-4762500D01*
X17350000Y-4703000D01*
X17290500Y-4762500D01*
X17350000Y-4822000D01*
X17604000Y-4822000D02*
X17663500Y-4762500D01*
X17604000Y-4703000D01*
X17544500Y-4762500D01*
X17604000Y-4822000D01*
X18492000Y-10479500D02*
X18551500Y-10420000D01*
X18492000Y-10360500D01*
X18432500Y-10420000D01*
X18492000Y-10479500D01*
X18746000Y-10479500D02*
X18805500Y-10420000D01*
X18746000Y-10360500D01*
X18686500Y-10420000D01*
X18746000Y-10479500D01*
X19000000Y-10479500D02*
X19059500Y-10420000D01*
X19000000Y-10360500D01*
X18940500Y-10420000D01*
X19000000Y-10479500D01*
X19242000Y-4822000D02*
X19301500Y-4762500D01*
X19242000Y-4703000D01*
X19182500Y-4762500D01*
X19242000Y-4822000D01*
X19254000Y-10479500D02*
X19313500Y-10420000D01*
X19254000Y-10360500D01*
X19194500Y-10420000D01*
X19254000Y-10479500D01*
X19496000Y-4822000D02*
X19555500Y-4762500D01*
X19496000Y-4703000D01*
X19436500Y-4762500D01*
X19496000Y-4822000D01*
X19750000Y-4822000D02*
X19809500Y-4762500D01*
X19750000Y-4703000D01*
X19690500Y-4762500D01*
X19750000Y-4822000D01*
X20004000Y-4822000D02*
X20063500Y-4762500D01*
X20004000Y-4703000D01*
X19944500Y-4762500D01*
X20004000Y-4822000D01*
D14*
X21552250Y-9785000D02*
X21682250Y-9915000D01*
X21682250Y-9785000D02*
X21552250Y-9915000D01*
X21682250Y-9850000D02*
G75*
G02*
X21552250Y-9850000I-65000J0D01*
G01*
X21552250Y-9850000D02*
G75*
G02*
X21682250Y-9850000I65000J0D01*
G01*
X21552250Y-10285000D02*
X21682250Y-10415000D01*
X21682250Y-10285000D02*
X21552250Y-10415000D01*
X21682250Y-10350000D02*
G75*
G02*
X21552250Y-10350000I-65000J0D01*
G01*
X21552250Y-10350000D02*
G75*
G02*
X21682250Y-10350000I65000J0D01*
G01*
X21585000Y-7135000D02*
X21715000Y-7265000D01*
X21715000Y-7135000D02*
X21585000Y-7265000D01*
X21715000Y-7200000D02*
G75*
G02*
X21585000Y-7200000I-65000J0D01*
G01*
X21585000Y-7200000D02*
G75*
G02*
X21715000Y-7200000I65000J0D01*
G01*
X21585000Y-7635000D02*
X21715000Y-7765000D01*
X21715000Y-7635000D02*
X21585000Y-7765000D01*
X21715000Y-7700000D02*
G75*
G02*
X21585000Y-7700000I-65000J0D01*
G01*
X21585000Y-7700000D02*
G75*
G02*
X21715000Y-7700000I65000J0D01*
G01*
X21602250Y-4585000D02*
X21732250Y-4715000D01*
X21732250Y-4585000D02*
X21602250Y-4715000D01*
X21732250Y-4650000D02*
G75*
G02*
X21602250Y-4650000I-65000J0D01*
G01*
X21602250Y-4650000D02*
G75*
G02*
X21732250Y-4650000I65000J0D01*
G01*
X21602250Y-5085000D02*
X21732250Y-5215000D01*
X21732250Y-5085000D02*
X21602250Y-5215000D01*
X21732250Y-5150000D02*
G75*
G02*
X21602250Y-5150000I-65000J0D01*
G01*
X21602250Y-5150000D02*
G75*
G02*
X21732250Y-5150000I65000J0D01*
G01*
D11*
X10558277Y-11463984D02*
X10558277Y-11263984D01*
X10558277Y-11263984D02*
X10605896Y-11263984D01*
X10605896Y-11263984D02*
X10634467Y-11273508D01*
X10634467Y-11273508D02*
X10653515Y-11292555D01*
X10653515Y-11292555D02*
X10663039Y-11311603D01*
X10663039Y-11311603D02*
X10672563Y-11349698D01*
X10672563Y-11349698D02*
X10672563Y-11378269D01*
X10672563Y-11378269D02*
X10663039Y-11416365D01*
X10663039Y-11416365D02*
X10653515Y-11435412D01*
X10653515Y-11435412D02*
X10634467Y-11454460D01*
X10634467Y-11454460D02*
X10605896Y-11463984D01*
X10605896Y-11463984D02*
X10558277Y-11463984D01*
X10758277Y-11463984D02*
X10758277Y-11330650D01*
X10758277Y-11368746D02*
X10767801Y-11349698D01*
X10767801Y-11349698D02*
X10777324Y-11340174D01*
X10777324Y-11340174D02*
X10796372Y-11330650D01*
X10796372Y-11330650D02*
X10815420Y-11330650D01*
X10882086Y-11463984D02*
X10882086Y-11330650D01*
X10882086Y-11263984D02*
X10872563Y-11273508D01*
X10872563Y-11273508D02*
X10882086Y-11283031D01*
X10882086Y-11283031D02*
X10891610Y-11273508D01*
X10891610Y-11273508D02*
X10882086Y-11263984D01*
X10882086Y-11263984D02*
X10882086Y-11283031D01*
X11005896Y-11463984D02*
X10986848Y-11454460D01*
X10986848Y-11454460D02*
X10977324Y-11435412D01*
X10977324Y-11435412D02*
X10977324Y-11263984D01*
X11110658Y-11463984D02*
X11091610Y-11454460D01*
X11091610Y-11454460D02*
X11082086Y-11435412D01*
X11082086Y-11435412D02*
X11082086Y-11263984D01*
X11339229Y-11463984D02*
X11339229Y-11263984D01*
X11339229Y-11263984D02*
X11405896Y-11406841D01*
X11405896Y-11406841D02*
X11472562Y-11263984D01*
X11472562Y-11263984D02*
X11472562Y-11463984D01*
X11653515Y-11463984D02*
X11653515Y-11359222D01*
X11653515Y-11359222D02*
X11643991Y-11340174D01*
X11643991Y-11340174D02*
X11624943Y-11330650D01*
X11624943Y-11330650D02*
X11586848Y-11330650D01*
X11586848Y-11330650D02*
X11567801Y-11340174D01*
X11653515Y-11454460D02*
X11634467Y-11463984D01*
X11634467Y-11463984D02*
X11586848Y-11463984D01*
X11586848Y-11463984D02*
X11567801Y-11454460D01*
X11567801Y-11454460D02*
X11558277Y-11435412D01*
X11558277Y-11435412D02*
X11558277Y-11416365D01*
X11558277Y-11416365D02*
X11567801Y-11397317D01*
X11567801Y-11397317D02*
X11586848Y-11387793D01*
X11586848Y-11387793D02*
X11634467Y-11387793D01*
X11634467Y-11387793D02*
X11653515Y-11378269D01*
X11748753Y-11330650D02*
X11748753Y-11530650D01*
X11748753Y-11340174D02*
X11767801Y-11330650D01*
X11767801Y-11330650D02*
X11805896Y-11330650D01*
X11805896Y-11330650D02*
X11824943Y-11340174D01*
X11824943Y-11340174D02*
X11834467Y-11349698D01*
X11834467Y-11349698D02*
X11843991Y-11368746D01*
X11843991Y-11368746D02*
X11843991Y-11425888D01*
X11843991Y-11425888D02*
X11834467Y-11444936D01*
X11834467Y-11444936D02*
X11824943Y-11454460D01*
X11824943Y-11454460D02*
X11805896Y-11463984D01*
X11805896Y-11463984D02*
X11767801Y-11463984D01*
X11767801Y-11463984D02*
X11748753Y-11454460D01*
X11929705Y-11444936D02*
X11939229Y-11454460D01*
X11939229Y-11454460D02*
X11929705Y-11463984D01*
X11929705Y-11463984D02*
X11920182Y-11454460D01*
X11920182Y-11454460D02*
X11929705Y-11444936D01*
X11929705Y-11444936D02*
X11929705Y-11463984D01*
X11929705Y-11340174D02*
X11939229Y-11349698D01*
X11939229Y-11349698D02*
X11929705Y-11359222D01*
X11929705Y-11359222D02*
X11920182Y-11349698D01*
X11920182Y-11349698D02*
X11929705Y-11340174D01*
X11929705Y-11340174D02*
X11929705Y-11359222D01*
D12*
X10227500Y-11757500D02*
X10297500Y-11827500D01*
X10297500Y-11757500D02*
X10227500Y-11827500D01*
D11*
X10596372Y-11683984D02*
X10615420Y-11683984D01*
X10615420Y-11683984D02*
X10634467Y-11693508D01*
X10634467Y-11693508D02*
X10643991Y-11703031D01*
X10643991Y-11703031D02*
X10653515Y-11722079D01*
X10653515Y-11722079D02*
X10663039Y-11760174D01*
X10663039Y-11760174D02*
X10663039Y-11807793D01*
X10663039Y-11807793D02*
X10653515Y-11845888D01*
X10653515Y-11845888D02*
X10643991Y-11864936D01*
X10643991Y-11864936D02*
X10634467Y-11874460D01*
X10634467Y-11874460D02*
X10615420Y-11883984D01*
X10615420Y-11883984D02*
X10596372Y-11883984D01*
X10596372Y-11883984D02*
X10577324Y-11874460D01*
X10577324Y-11874460D02*
X10567801Y-11864936D01*
X10567801Y-11864936D02*
X10558277Y-11845888D01*
X10558277Y-11845888D02*
X10548753Y-11807793D01*
X10548753Y-11807793D02*
X10548753Y-11760174D01*
X10548753Y-11760174D02*
X10558277Y-11722079D01*
X10558277Y-11722079D02*
X10567801Y-11703031D01*
X10567801Y-11703031D02*
X10577324Y-11693508D01*
X10577324Y-11693508D02*
X10596372Y-11683984D01*
X10748753Y-11864936D02*
X10758277Y-11874460D01*
X10758277Y-11874460D02*
X10748753Y-11883984D01*
X10748753Y-11883984D02*
X10739229Y-11874460D01*
X10739229Y-11874460D02*
X10748753Y-11864936D01*
X10748753Y-11864936D02*
X10748753Y-11883984D01*
X10824944Y-11683984D02*
X10958277Y-11683984D01*
X10958277Y-11683984D02*
X10872563Y-11883984D01*
X11072563Y-11683984D02*
X11091610Y-11683984D01*
X11091610Y-11683984D02*
X11110658Y-11693508D01*
X11110658Y-11693508D02*
X11120182Y-11703031D01*
X11120182Y-11703031D02*
X11129705Y-11722079D01*
X11129705Y-11722079D02*
X11139229Y-11760174D01*
X11139229Y-11760174D02*
X11139229Y-11807793D01*
X11139229Y-11807793D02*
X11129705Y-11845888D01*
X11129705Y-11845888D02*
X11120182Y-11864936D01*
X11120182Y-11864936D02*
X11110658Y-11874460D01*
X11110658Y-11874460D02*
X11091610Y-11883984D01*
X11091610Y-11883984D02*
X11072563Y-11883984D01*
X11072563Y-11883984D02*
X11053515Y-11874460D01*
X11053515Y-11874460D02*
X11043991Y-11864936D01*
X11043991Y-11864936D02*
X11034467Y-11845888D01*
X11034467Y-11845888D02*
X11024944Y-11807793D01*
X11024944Y-11807793D02*
X11024944Y-11760174D01*
X11024944Y-11760174D02*
X11034467Y-11722079D01*
X11034467Y-11722079D02*
X11043991Y-11703031D01*
X11043991Y-11703031D02*
X11053515Y-11693508D01*
X11053515Y-11693508D02*
X11072563Y-11683984D01*
X11263039Y-11683984D02*
X11282086Y-11683984D01*
X11282086Y-11683984D02*
X11301134Y-11693508D01*
X11301134Y-11693508D02*
X11310658Y-11703031D01*
X11310658Y-11703031D02*
X11320182Y-11722079D01*
X11320182Y-11722079D02*
X11329705Y-11760174D01*
X11329705Y-11760174D02*
X11329705Y-11807793D01*
X11329705Y-11807793D02*
X11320182Y-11845888D01*
X11320182Y-11845888D02*
X11310658Y-11864936D01*
X11310658Y-11864936D02*
X11301134Y-11874460D01*
X11301134Y-11874460D02*
X11282086Y-11883984D01*
X11282086Y-11883984D02*
X11263039Y-11883984D01*
X11263039Y-11883984D02*
X11243991Y-11874460D01*
X11243991Y-11874460D02*
X11234467Y-11864936D01*
X11234467Y-11864936D02*
X11224943Y-11845888D01*
X11224943Y-11845888D02*
X11215420Y-11807793D01*
X11215420Y-11807793D02*
X11215420Y-11760174D01*
X11215420Y-11760174D02*
X11224943Y-11722079D01*
X11224943Y-11722079D02*
X11234467Y-11703031D01*
X11234467Y-11703031D02*
X11243991Y-11693508D01*
X11243991Y-11693508D02*
X11263039Y-11683984D01*
X11415420Y-11883984D02*
X11415420Y-11750650D01*
X11415420Y-11769698D02*
X11424943Y-11760174D01*
X11424943Y-11760174D02*
X11443991Y-11750650D01*
X11443991Y-11750650D02*
X11472563Y-11750650D01*
X11472563Y-11750650D02*
X11491610Y-11760174D01*
X11491610Y-11760174D02*
X11501134Y-11779222D01*
X11501134Y-11779222D02*
X11501134Y-11883984D01*
X11501134Y-11779222D02*
X11510658Y-11760174D01*
X11510658Y-11760174D02*
X11529705Y-11750650D01*
X11529705Y-11750650D02*
X11558277Y-11750650D01*
X11558277Y-11750650D02*
X11577324Y-11760174D01*
X11577324Y-11760174D02*
X11586848Y-11779222D01*
X11586848Y-11779222D02*
X11586848Y-11883984D01*
X11682086Y-11883984D02*
X11682086Y-11750650D01*
X11682086Y-11769698D02*
X11691610Y-11760174D01*
X11691610Y-11760174D02*
X11710658Y-11750650D01*
X11710658Y-11750650D02*
X11739229Y-11750650D01*
X11739229Y-11750650D02*
X11758277Y-11760174D01*
X11758277Y-11760174D02*
X11767801Y-11779222D01*
X11767801Y-11779222D02*
X11767801Y-11883984D01*
X11767801Y-11779222D02*
X11777324Y-11760174D01*
X11777324Y-11760174D02*
X11796372Y-11750650D01*
X11796372Y-11750650D02*
X11824943Y-11750650D01*
X11824943Y-11750650D02*
X11843991Y-11760174D01*
X11843991Y-11760174D02*
X11853515Y-11779222D01*
X11853515Y-11779222D02*
X11853515Y-11883984D01*
X12243991Y-11674460D02*
X12072563Y-11931603D01*
X12501134Y-11683984D02*
X12520182Y-11683984D01*
X12520182Y-11683984D02*
X12539229Y-11693508D01*
X12539229Y-11693508D02*
X12548753Y-11703031D01*
X12548753Y-11703031D02*
X12558277Y-11722079D01*
X12558277Y-11722079D02*
X12567801Y-11760174D01*
X12567801Y-11760174D02*
X12567801Y-11807793D01*
X12567801Y-11807793D02*
X12558277Y-11845888D01*
X12558277Y-11845888D02*
X12548753Y-11864936D01*
X12548753Y-11864936D02*
X12539229Y-11874460D01*
X12539229Y-11874460D02*
X12520182Y-11883984D01*
X12520182Y-11883984D02*
X12501134Y-11883984D01*
X12501134Y-11883984D02*
X12482086Y-11874460D01*
X12482086Y-11874460D02*
X12472563Y-11864936D01*
X12472563Y-11864936D02*
X12463039Y-11845888D01*
X12463039Y-11845888D02*
X12453515Y-11807793D01*
X12453515Y-11807793D02*
X12453515Y-11760174D01*
X12453515Y-11760174D02*
X12463039Y-11722079D01*
X12463039Y-11722079D02*
X12472563Y-11703031D01*
X12472563Y-11703031D02*
X12482086Y-11693508D01*
X12482086Y-11693508D02*
X12501134Y-11683984D01*
X12653515Y-11864936D02*
X12663039Y-11874460D01*
X12663039Y-11874460D02*
X12653515Y-11883984D01*
X12653515Y-11883984D02*
X12643991Y-11874460D01*
X12643991Y-11874460D02*
X12653515Y-11864936D01*
X12653515Y-11864936D02*
X12653515Y-11883984D01*
X12786848Y-11683984D02*
X12805896Y-11683984D01*
X12805896Y-11683984D02*
X12824944Y-11693508D01*
X12824944Y-11693508D02*
X12834467Y-11703031D01*
X12834467Y-11703031D02*
X12843991Y-11722079D01*
X12843991Y-11722079D02*
X12853515Y-11760174D01*
X12853515Y-11760174D02*
X12853515Y-11807793D01*
X12853515Y-11807793D02*
X12843991Y-11845888D01*
X12843991Y-11845888D02*
X12834467Y-11864936D01*
X12834467Y-11864936D02*
X12824944Y-11874460D01*
X12824944Y-11874460D02*
X12805896Y-11883984D01*
X12805896Y-11883984D02*
X12786848Y-11883984D01*
X12786848Y-11883984D02*
X12767801Y-11874460D01*
X12767801Y-11874460D02*
X12758277Y-11864936D01*
X12758277Y-11864936D02*
X12748753Y-11845888D01*
X12748753Y-11845888D02*
X12739229Y-11807793D01*
X12739229Y-11807793D02*
X12739229Y-11760174D01*
X12739229Y-11760174D02*
X12748753Y-11722079D01*
X12748753Y-11722079D02*
X12758277Y-11703031D01*
X12758277Y-11703031D02*
X12767801Y-11693508D01*
X12767801Y-11693508D02*
X12786848Y-11683984D01*
X12929706Y-11703031D02*
X12939229Y-11693508D01*
X12939229Y-11693508D02*
X12958277Y-11683984D01*
X12958277Y-11683984D02*
X13005896Y-11683984D01*
X13005896Y-11683984D02*
X13024944Y-11693508D01*
X13024944Y-11693508D02*
X13034467Y-11703031D01*
X13034467Y-11703031D02*
X13043991Y-11722079D01*
X13043991Y-11722079D02*
X13043991Y-11741127D01*
X13043991Y-11741127D02*
X13034467Y-11769698D01*
X13034467Y-11769698D02*
X12920182Y-11883984D01*
X12920182Y-11883984D02*
X13043991Y-11883984D01*
X13110658Y-11683984D02*
X13243991Y-11683984D01*
X13243991Y-11683984D02*
X13158277Y-11883984D01*
X13405896Y-11683984D02*
X13367801Y-11683984D01*
X13367801Y-11683984D02*
X13348753Y-11693508D01*
X13348753Y-11693508D02*
X13339229Y-11703031D01*
X13339229Y-11703031D02*
X13320182Y-11731603D01*
X13320182Y-11731603D02*
X13310658Y-11769698D01*
X13310658Y-11769698D02*
X13310658Y-11845888D01*
X13310658Y-11845888D02*
X13320182Y-11864936D01*
X13320182Y-11864936D02*
X13329706Y-11874460D01*
X13329706Y-11874460D02*
X13348753Y-11883984D01*
X13348753Y-11883984D02*
X13386848Y-11883984D01*
X13386848Y-11883984D02*
X13405896Y-11874460D01*
X13405896Y-11874460D02*
X13415420Y-11864936D01*
X13415420Y-11864936D02*
X13424944Y-11845888D01*
X13424944Y-11845888D02*
X13424944Y-11798269D01*
X13424944Y-11798269D02*
X13415420Y-11779222D01*
X13415420Y-11779222D02*
X13405896Y-11769698D01*
X13405896Y-11769698D02*
X13386848Y-11760174D01*
X13386848Y-11760174D02*
X13348753Y-11760174D01*
X13348753Y-11760174D02*
X13329706Y-11769698D01*
X13329706Y-11769698D02*
X13320182Y-11779222D01*
X13320182Y-11779222D02*
X13310658Y-11798269D01*
X13501134Y-11683984D02*
X13501134Y-11722079D01*
X13577325Y-11683984D02*
X13577325Y-11722079D01*
X13872563Y-11960174D02*
X13863039Y-11950650D01*
X13863039Y-11950650D02*
X13843991Y-11922079D01*
X13843991Y-11922079D02*
X13834468Y-11903031D01*
X13834468Y-11903031D02*
X13824944Y-11874460D01*
X13824944Y-11874460D02*
X13815420Y-11826841D01*
X13815420Y-11826841D02*
X13815420Y-11788746D01*
X13815420Y-11788746D02*
X13824944Y-11741127D01*
X13824944Y-11741127D02*
X13834468Y-11712555D01*
X13834468Y-11712555D02*
X13843991Y-11693508D01*
X13843991Y-11693508D02*
X13863039Y-11664936D01*
X13863039Y-11664936D02*
X13872563Y-11655412D01*
X14034468Y-11750650D02*
X14034468Y-11883984D01*
X13986848Y-11674460D02*
X13939229Y-11817317D01*
X13939229Y-11817317D02*
X14063039Y-11817317D01*
X14177325Y-11683984D02*
X14196372Y-11683984D01*
X14196372Y-11683984D02*
X14215420Y-11693508D01*
X14215420Y-11693508D02*
X14224944Y-11703031D01*
X14224944Y-11703031D02*
X14234468Y-11722079D01*
X14234468Y-11722079D02*
X14243991Y-11760174D01*
X14243991Y-11760174D02*
X14243991Y-11807793D01*
X14243991Y-11807793D02*
X14234468Y-11845888D01*
X14234468Y-11845888D02*
X14224944Y-11864936D01*
X14224944Y-11864936D02*
X14215420Y-11874460D01*
X14215420Y-11874460D02*
X14196372Y-11883984D01*
X14196372Y-11883984D02*
X14177325Y-11883984D01*
X14177325Y-11883984D02*
X14158277Y-11874460D01*
X14158277Y-11874460D02*
X14148753Y-11864936D01*
X14148753Y-11864936D02*
X14139229Y-11845888D01*
X14139229Y-11845888D02*
X14129706Y-11807793D01*
X14129706Y-11807793D02*
X14129706Y-11760174D01*
X14129706Y-11760174D02*
X14139229Y-11722079D01*
X14139229Y-11722079D02*
X14148753Y-11703031D01*
X14148753Y-11703031D02*
X14158277Y-11693508D01*
X14158277Y-11693508D02*
X14177325Y-11683984D01*
X14482087Y-11883984D02*
X14482087Y-11683984D01*
X14567801Y-11883984D02*
X14567801Y-11779222D01*
X14567801Y-11779222D02*
X14558277Y-11760174D01*
X14558277Y-11760174D02*
X14539230Y-11750650D01*
X14539230Y-11750650D02*
X14510658Y-11750650D01*
X14510658Y-11750650D02*
X14491610Y-11760174D01*
X14491610Y-11760174D02*
X14482087Y-11769698D01*
X14691610Y-11883984D02*
X14672563Y-11874460D01*
X14672563Y-11874460D02*
X14663039Y-11864936D01*
X14663039Y-11864936D02*
X14653515Y-11845888D01*
X14653515Y-11845888D02*
X14653515Y-11788746D01*
X14653515Y-11788746D02*
X14663039Y-11769698D01*
X14663039Y-11769698D02*
X14672563Y-11760174D01*
X14672563Y-11760174D02*
X14691610Y-11750650D01*
X14691610Y-11750650D02*
X14720182Y-11750650D01*
X14720182Y-11750650D02*
X14739230Y-11760174D01*
X14739230Y-11760174D02*
X14748753Y-11769698D01*
X14748753Y-11769698D02*
X14758277Y-11788746D01*
X14758277Y-11788746D02*
X14758277Y-11845888D01*
X14758277Y-11845888D02*
X14748753Y-11864936D01*
X14748753Y-11864936D02*
X14739230Y-11874460D01*
X14739230Y-11874460D02*
X14720182Y-11883984D01*
X14720182Y-11883984D02*
X14691610Y-11883984D01*
X14872563Y-11883984D02*
X14853515Y-11874460D01*
X14853515Y-11874460D02*
X14843991Y-11855412D01*
X14843991Y-11855412D02*
X14843991Y-11683984D01*
X15024944Y-11874460D02*
X15005896Y-11883984D01*
X15005896Y-11883984D02*
X14967801Y-11883984D01*
X14967801Y-11883984D02*
X14948753Y-11874460D01*
X14948753Y-11874460D02*
X14939230Y-11855412D01*
X14939230Y-11855412D02*
X14939230Y-11779222D01*
X14939230Y-11779222D02*
X14948753Y-11760174D01*
X14948753Y-11760174D02*
X14967801Y-11750650D01*
X14967801Y-11750650D02*
X15005896Y-11750650D01*
X15005896Y-11750650D02*
X15024944Y-11760174D01*
X15024944Y-11760174D02*
X15034468Y-11779222D01*
X15034468Y-11779222D02*
X15034468Y-11798269D01*
X15034468Y-11798269D02*
X14939230Y-11817317D01*
X15110658Y-11874460D02*
X15129706Y-11883984D01*
X15129706Y-11883984D02*
X15167801Y-11883984D01*
X15167801Y-11883984D02*
X15186849Y-11874460D01*
X15186849Y-11874460D02*
X15196372Y-11855412D01*
X15196372Y-11855412D02*
X15196372Y-11845888D01*
X15196372Y-11845888D02*
X15186849Y-11826841D01*
X15186849Y-11826841D02*
X15167801Y-11817317D01*
X15167801Y-11817317D02*
X15139230Y-11817317D01*
X15139230Y-11817317D02*
X15120182Y-11807793D01*
X15120182Y-11807793D02*
X15110658Y-11788746D01*
X15110658Y-11788746D02*
X15110658Y-11779222D01*
X15110658Y-11779222D02*
X15120182Y-11760174D01*
X15120182Y-11760174D02*
X15139230Y-11750650D01*
X15139230Y-11750650D02*
X15167801Y-11750650D01*
X15167801Y-11750650D02*
X15186849Y-11760174D01*
X15263039Y-11960174D02*
X15272563Y-11950650D01*
X15272563Y-11950650D02*
X15291611Y-11922079D01*
X15291611Y-11922079D02*
X15301134Y-11903031D01*
X15301134Y-11903031D02*
X15310658Y-11874460D01*
X15310658Y-11874460D02*
X15320182Y-11826841D01*
X15320182Y-11826841D02*
X15320182Y-11788746D01*
X15320182Y-11788746D02*
X15310658Y-11741127D01*
X15310658Y-11741127D02*
X15301134Y-11712555D01*
X15301134Y-11712555D02*
X15291611Y-11693508D01*
X15291611Y-11693508D02*
X15272563Y-11664936D01*
X15272563Y-11664936D02*
X15263039Y-11655412D01*
D12*
X10297500Y-12056500D02*
G75*
G02*
X10217500Y-12056500I-40000J0D01*
G01*
X10217500Y-12056500D02*
G75*
G02*
X10297500Y-12056500I40000J0D01*
G01*
D11*
X10596372Y-11947984D02*
X10615420Y-11947984D01*
X10615420Y-11947984D02*
X10634467Y-11957508D01*
X10634467Y-11957508D02*
X10643991Y-11967031D01*
X10643991Y-11967031D02*
X10653515Y-11986079D01*
X10653515Y-11986079D02*
X10663039Y-12024174D01*
X10663039Y-12024174D02*
X10663039Y-12071793D01*
X10663039Y-12071793D02*
X10653515Y-12109888D01*
X10653515Y-12109888D02*
X10643991Y-12128936D01*
X10643991Y-12128936D02*
X10634467Y-12138460D01*
X10634467Y-12138460D02*
X10615420Y-12147984D01*
X10615420Y-12147984D02*
X10596372Y-12147984D01*
X10596372Y-12147984D02*
X10577324Y-12138460D01*
X10577324Y-12138460D02*
X10567801Y-12128936D01*
X10567801Y-12128936D02*
X10558277Y-12109888D01*
X10558277Y-12109888D02*
X10548753Y-12071793D01*
X10548753Y-12071793D02*
X10548753Y-12024174D01*
X10548753Y-12024174D02*
X10558277Y-11986079D01*
X10558277Y-11986079D02*
X10567801Y-11967031D01*
X10567801Y-11967031D02*
X10577324Y-11957508D01*
X10577324Y-11957508D02*
X10596372Y-11947984D01*
X10748753Y-12128936D02*
X10758277Y-12138460D01*
X10758277Y-12138460D02*
X10748753Y-12147984D01*
X10748753Y-12147984D02*
X10739229Y-12138460D01*
X10739229Y-12138460D02*
X10748753Y-12128936D01*
X10748753Y-12128936D02*
X10748753Y-12147984D01*
X10872563Y-12033698D02*
X10853515Y-12024174D01*
X10853515Y-12024174D02*
X10843991Y-12014650D01*
X10843991Y-12014650D02*
X10834467Y-11995603D01*
X10834467Y-11995603D02*
X10834467Y-11986079D01*
X10834467Y-11986079D02*
X10843991Y-11967031D01*
X10843991Y-11967031D02*
X10853515Y-11957508D01*
X10853515Y-11957508D02*
X10872563Y-11947984D01*
X10872563Y-11947984D02*
X10910658Y-11947984D01*
X10910658Y-11947984D02*
X10929705Y-11957508D01*
X10929705Y-11957508D02*
X10939229Y-11967031D01*
X10939229Y-11967031D02*
X10948753Y-11986079D01*
X10948753Y-11986079D02*
X10948753Y-11995603D01*
X10948753Y-11995603D02*
X10939229Y-12014650D01*
X10939229Y-12014650D02*
X10929705Y-12024174D01*
X10929705Y-12024174D02*
X10910658Y-12033698D01*
X10910658Y-12033698D02*
X10872563Y-12033698D01*
X10872563Y-12033698D02*
X10853515Y-12043222D01*
X10853515Y-12043222D02*
X10843991Y-12052746D01*
X10843991Y-12052746D02*
X10834467Y-12071793D01*
X10834467Y-12071793D02*
X10834467Y-12109888D01*
X10834467Y-12109888D02*
X10843991Y-12128936D01*
X10843991Y-12128936D02*
X10853515Y-12138460D01*
X10853515Y-12138460D02*
X10872563Y-12147984D01*
X10872563Y-12147984D02*
X10910658Y-12147984D01*
X10910658Y-12147984D02*
X10929705Y-12138460D01*
X10929705Y-12138460D02*
X10939229Y-12128936D01*
X10939229Y-12128936D02*
X10948753Y-12109888D01*
X10948753Y-12109888D02*
X10948753Y-12071793D01*
X10948753Y-12071793D02*
X10939229Y-12052746D01*
X10939229Y-12052746D02*
X10929705Y-12043222D01*
X10929705Y-12043222D02*
X10910658Y-12033698D01*
X11072563Y-11947984D02*
X11091610Y-11947984D01*
X11091610Y-11947984D02*
X11110658Y-11957508D01*
X11110658Y-11957508D02*
X11120182Y-11967031D01*
X11120182Y-11967031D02*
X11129705Y-11986079D01*
X11129705Y-11986079D02*
X11139229Y-12024174D01*
X11139229Y-12024174D02*
X11139229Y-12071793D01*
X11139229Y-12071793D02*
X11129705Y-12109888D01*
X11129705Y-12109888D02*
X11120182Y-12128936D01*
X11120182Y-12128936D02*
X11110658Y-12138460D01*
X11110658Y-12138460D02*
X11091610Y-12147984D01*
X11091610Y-12147984D02*
X11072563Y-12147984D01*
X11072563Y-12147984D02*
X11053515Y-12138460D01*
X11053515Y-12138460D02*
X11043991Y-12128936D01*
X11043991Y-12128936D02*
X11034467Y-12109888D01*
X11034467Y-12109888D02*
X11024944Y-12071793D01*
X11024944Y-12071793D02*
X11024944Y-12024174D01*
X11024944Y-12024174D02*
X11034467Y-11986079D01*
X11034467Y-11986079D02*
X11043991Y-11967031D01*
X11043991Y-11967031D02*
X11053515Y-11957508D01*
X11053515Y-11957508D02*
X11072563Y-11947984D01*
X11263039Y-11947984D02*
X11282086Y-11947984D01*
X11282086Y-11947984D02*
X11301134Y-11957508D01*
X11301134Y-11957508D02*
X11310658Y-11967031D01*
X11310658Y-11967031D02*
X11320182Y-11986079D01*
X11320182Y-11986079D02*
X11329705Y-12024174D01*
X11329705Y-12024174D02*
X11329705Y-12071793D01*
X11329705Y-12071793D02*
X11320182Y-12109888D01*
X11320182Y-12109888D02*
X11310658Y-12128936D01*
X11310658Y-12128936D02*
X11301134Y-12138460D01*
X11301134Y-12138460D02*
X11282086Y-12147984D01*
X11282086Y-12147984D02*
X11263039Y-12147984D01*
X11263039Y-12147984D02*
X11243991Y-12138460D01*
X11243991Y-12138460D02*
X11234467Y-12128936D01*
X11234467Y-12128936D02*
X11224943Y-12109888D01*
X11224943Y-12109888D02*
X11215420Y-12071793D01*
X11215420Y-12071793D02*
X11215420Y-12024174D01*
X11215420Y-12024174D02*
X11224943Y-11986079D01*
X11224943Y-11986079D02*
X11234467Y-11967031D01*
X11234467Y-11967031D02*
X11243991Y-11957508D01*
X11243991Y-11957508D02*
X11263039Y-11947984D01*
X11415420Y-12147984D02*
X11415420Y-12014650D01*
X11415420Y-12033698D02*
X11424943Y-12024174D01*
X11424943Y-12024174D02*
X11443991Y-12014650D01*
X11443991Y-12014650D02*
X11472563Y-12014650D01*
X11472563Y-12014650D02*
X11491610Y-12024174D01*
X11491610Y-12024174D02*
X11501134Y-12043222D01*
X11501134Y-12043222D02*
X11501134Y-12147984D01*
X11501134Y-12043222D02*
X11510658Y-12024174D01*
X11510658Y-12024174D02*
X11529705Y-12014650D01*
X11529705Y-12014650D02*
X11558277Y-12014650D01*
X11558277Y-12014650D02*
X11577324Y-12024174D01*
X11577324Y-12024174D02*
X11586848Y-12043222D01*
X11586848Y-12043222D02*
X11586848Y-12147984D01*
X11682086Y-12147984D02*
X11682086Y-12014650D01*
X11682086Y-12033698D02*
X11691610Y-12024174D01*
X11691610Y-12024174D02*
X11710658Y-12014650D01*
X11710658Y-12014650D02*
X11739229Y-12014650D01*
X11739229Y-12014650D02*
X11758277Y-12024174D01*
X11758277Y-12024174D02*
X11767801Y-12043222D01*
X11767801Y-12043222D02*
X11767801Y-12147984D01*
X11767801Y-12043222D02*
X11777324Y-12024174D01*
X11777324Y-12024174D02*
X11796372Y-12014650D01*
X11796372Y-12014650D02*
X11824943Y-12014650D01*
X11824943Y-12014650D02*
X11843991Y-12024174D01*
X11843991Y-12024174D02*
X11853515Y-12043222D01*
X11853515Y-12043222D02*
X11853515Y-12147984D01*
X12243991Y-11938460D02*
X12072563Y-12195603D01*
X12501134Y-11947984D02*
X12520182Y-11947984D01*
X12520182Y-11947984D02*
X12539229Y-11957508D01*
X12539229Y-11957508D02*
X12548753Y-11967031D01*
X12548753Y-11967031D02*
X12558277Y-11986079D01*
X12558277Y-11986079D02*
X12567801Y-12024174D01*
X12567801Y-12024174D02*
X12567801Y-12071793D01*
X12567801Y-12071793D02*
X12558277Y-12109888D01*
X12558277Y-12109888D02*
X12548753Y-12128936D01*
X12548753Y-12128936D02*
X12539229Y-12138460D01*
X12539229Y-12138460D02*
X12520182Y-12147984D01*
X12520182Y-12147984D02*
X12501134Y-12147984D01*
X12501134Y-12147984D02*
X12482086Y-12138460D01*
X12482086Y-12138460D02*
X12472563Y-12128936D01*
X12472563Y-12128936D02*
X12463039Y-12109888D01*
X12463039Y-12109888D02*
X12453515Y-12071793D01*
X12453515Y-12071793D02*
X12453515Y-12024174D01*
X12453515Y-12024174D02*
X12463039Y-11986079D01*
X12463039Y-11986079D02*
X12472563Y-11967031D01*
X12472563Y-11967031D02*
X12482086Y-11957508D01*
X12482086Y-11957508D02*
X12501134Y-11947984D01*
X12653515Y-12128936D02*
X12663039Y-12138460D01*
X12663039Y-12138460D02*
X12653515Y-12147984D01*
X12653515Y-12147984D02*
X12643991Y-12138460D01*
X12643991Y-12138460D02*
X12653515Y-12128936D01*
X12653515Y-12128936D02*
X12653515Y-12147984D01*
X12786848Y-11947984D02*
X12805896Y-11947984D01*
X12805896Y-11947984D02*
X12824944Y-11957508D01*
X12824944Y-11957508D02*
X12834467Y-11967031D01*
X12834467Y-11967031D02*
X12843991Y-11986079D01*
X12843991Y-11986079D02*
X12853515Y-12024174D01*
X12853515Y-12024174D02*
X12853515Y-12071793D01*
X12853515Y-12071793D02*
X12843991Y-12109888D01*
X12843991Y-12109888D02*
X12834467Y-12128936D01*
X12834467Y-12128936D02*
X12824944Y-12138460D01*
X12824944Y-12138460D02*
X12805896Y-12147984D01*
X12805896Y-12147984D02*
X12786848Y-12147984D01*
X12786848Y-12147984D02*
X12767801Y-12138460D01*
X12767801Y-12138460D02*
X12758277Y-12128936D01*
X12758277Y-12128936D02*
X12748753Y-12109888D01*
X12748753Y-12109888D02*
X12739229Y-12071793D01*
X12739229Y-12071793D02*
X12739229Y-12024174D01*
X12739229Y-12024174D02*
X12748753Y-11986079D01*
X12748753Y-11986079D02*
X12758277Y-11967031D01*
X12758277Y-11967031D02*
X12767801Y-11957508D01*
X12767801Y-11957508D02*
X12786848Y-11947984D01*
X12920182Y-11947984D02*
X13043991Y-11947984D01*
X13043991Y-11947984D02*
X12977325Y-12024174D01*
X12977325Y-12024174D02*
X13005896Y-12024174D01*
X13005896Y-12024174D02*
X13024944Y-12033698D01*
X13024944Y-12033698D02*
X13034467Y-12043222D01*
X13034467Y-12043222D02*
X13043991Y-12062269D01*
X13043991Y-12062269D02*
X13043991Y-12109888D01*
X13043991Y-12109888D02*
X13034467Y-12128936D01*
X13034467Y-12128936D02*
X13024944Y-12138460D01*
X13024944Y-12138460D02*
X13005896Y-12147984D01*
X13005896Y-12147984D02*
X12948753Y-12147984D01*
X12948753Y-12147984D02*
X12929706Y-12138460D01*
X12929706Y-12138460D02*
X12920182Y-12128936D01*
X13234467Y-12147984D02*
X13120182Y-12147984D01*
X13177325Y-12147984D02*
X13177325Y-11947984D01*
X13177325Y-11947984D02*
X13158277Y-11976555D01*
X13158277Y-11976555D02*
X13139229Y-11995603D01*
X13139229Y-11995603D02*
X13120182Y-12005127D01*
X13415420Y-11947984D02*
X13320182Y-11947984D01*
X13320182Y-11947984D02*
X13310658Y-12043222D01*
X13310658Y-12043222D02*
X13320182Y-12033698D01*
X13320182Y-12033698D02*
X13339229Y-12024174D01*
X13339229Y-12024174D02*
X13386848Y-12024174D01*
X13386848Y-12024174D02*
X13405896Y-12033698D01*
X13405896Y-12033698D02*
X13415420Y-12043222D01*
X13415420Y-12043222D02*
X13424944Y-12062269D01*
X13424944Y-12062269D02*
X13424944Y-12109888D01*
X13424944Y-12109888D02*
X13415420Y-12128936D01*
X13415420Y-12128936D02*
X13405896Y-12138460D01*
X13405896Y-12138460D02*
X13386848Y-12147984D01*
X13386848Y-12147984D02*
X13339229Y-12147984D01*
X13339229Y-12147984D02*
X13320182Y-12138460D01*
X13320182Y-12138460D02*
X13310658Y-12128936D01*
X13501134Y-11947984D02*
X13501134Y-11986079D01*
X13577325Y-11947984D02*
X13577325Y-11986079D01*
X13872563Y-12224174D02*
X13863039Y-12214650D01*
X13863039Y-12214650D02*
X13843991Y-12186079D01*
X13843991Y-12186079D02*
X13834468Y-12167031D01*
X13834468Y-12167031D02*
X13824944Y-12138460D01*
X13824944Y-12138460D02*
X13815420Y-12090841D01*
X13815420Y-12090841D02*
X13815420Y-12052746D01*
X13815420Y-12052746D02*
X13824944Y-12005127D01*
X13824944Y-12005127D02*
X13834468Y-11976555D01*
X13834468Y-11976555D02*
X13843991Y-11957508D01*
X13843991Y-11957508D02*
X13863039Y-11928936D01*
X13863039Y-11928936D02*
X13872563Y-11919412D01*
X13958277Y-12147984D02*
X13996372Y-12147984D01*
X13996372Y-12147984D02*
X14015420Y-12138460D01*
X14015420Y-12138460D02*
X14024944Y-12128936D01*
X14024944Y-12128936D02*
X14043991Y-12100365D01*
X14043991Y-12100365D02*
X14053515Y-12062269D01*
X14053515Y-12062269D02*
X14053515Y-11986079D01*
X14053515Y-11986079D02*
X14043991Y-11967031D01*
X14043991Y-11967031D02*
X14034468Y-11957508D01*
X14034468Y-11957508D02*
X14015420Y-11947984D01*
X14015420Y-11947984D02*
X13977325Y-11947984D01*
X13977325Y-11947984D02*
X13958277Y-11957508D01*
X13958277Y-11957508D02*
X13948753Y-11967031D01*
X13948753Y-11967031D02*
X13939229Y-11986079D01*
X13939229Y-11986079D02*
X13939229Y-12033698D01*
X13939229Y-12033698D02*
X13948753Y-12052746D01*
X13948753Y-12052746D02*
X13958277Y-12062269D01*
X13958277Y-12062269D02*
X13977325Y-12071793D01*
X13977325Y-12071793D02*
X14015420Y-12071793D01*
X14015420Y-12071793D02*
X14034468Y-12062269D01*
X14034468Y-12062269D02*
X14043991Y-12052746D01*
X14043991Y-12052746D02*
X14053515Y-12033698D01*
X14224944Y-11947984D02*
X14186848Y-11947984D01*
X14186848Y-11947984D02*
X14167801Y-11957508D01*
X14167801Y-11957508D02*
X14158277Y-11967031D01*
X14158277Y-11967031D02*
X14139229Y-11995603D01*
X14139229Y-11995603D02*
X14129706Y-12033698D01*
X14129706Y-12033698D02*
X14129706Y-12109888D01*
X14129706Y-12109888D02*
X14139229Y-12128936D01*
X14139229Y-12128936D02*
X14148753Y-12138460D01*
X14148753Y-12138460D02*
X14167801Y-12147984D01*
X14167801Y-12147984D02*
X14205896Y-12147984D01*
X14205896Y-12147984D02*
X14224944Y-12138460D01*
X14224944Y-12138460D02*
X14234468Y-12128936D01*
X14234468Y-12128936D02*
X14243991Y-12109888D01*
X14243991Y-12109888D02*
X14243991Y-12062269D01*
X14243991Y-12062269D02*
X14234468Y-12043222D01*
X14234468Y-12043222D02*
X14224944Y-12033698D01*
X14224944Y-12033698D02*
X14205896Y-12024174D01*
X14205896Y-12024174D02*
X14167801Y-12024174D01*
X14167801Y-12024174D02*
X14148753Y-12033698D01*
X14148753Y-12033698D02*
X14139229Y-12043222D01*
X14139229Y-12043222D02*
X14129706Y-12062269D01*
X14482087Y-12147984D02*
X14482087Y-11947984D01*
X14567801Y-12147984D02*
X14567801Y-12043222D01*
X14567801Y-12043222D02*
X14558277Y-12024174D01*
X14558277Y-12024174D02*
X14539230Y-12014650D01*
X14539230Y-12014650D02*
X14510658Y-12014650D01*
X14510658Y-12014650D02*
X14491610Y-12024174D01*
X14491610Y-12024174D02*
X14482087Y-12033698D01*
X14691610Y-12147984D02*
X14672563Y-12138460D01*
X14672563Y-12138460D02*
X14663039Y-12128936D01*
X14663039Y-12128936D02*
X14653515Y-12109888D01*
X14653515Y-12109888D02*
X14653515Y-12052746D01*
X14653515Y-12052746D02*
X14663039Y-12033698D01*
X14663039Y-12033698D02*
X14672563Y-12024174D01*
X14672563Y-12024174D02*
X14691610Y-12014650D01*
X14691610Y-12014650D02*
X14720182Y-12014650D01*
X14720182Y-12014650D02*
X14739230Y-12024174D01*
X14739230Y-12024174D02*
X14748753Y-12033698D01*
X14748753Y-12033698D02*
X14758277Y-12052746D01*
X14758277Y-12052746D02*
X14758277Y-12109888D01*
X14758277Y-12109888D02*
X14748753Y-12128936D01*
X14748753Y-12128936D02*
X14739230Y-12138460D01*
X14739230Y-12138460D02*
X14720182Y-12147984D01*
X14720182Y-12147984D02*
X14691610Y-12147984D01*
X14872563Y-12147984D02*
X14853515Y-12138460D01*
X14853515Y-12138460D02*
X14843991Y-12119412D01*
X14843991Y-12119412D02*
X14843991Y-11947984D01*
X15024944Y-12138460D02*
X15005896Y-12147984D01*
X15005896Y-12147984D02*
X14967801Y-12147984D01*
X14967801Y-12147984D02*
X14948753Y-12138460D01*
X14948753Y-12138460D02*
X14939230Y-12119412D01*
X14939230Y-12119412D02*
X14939230Y-12043222D01*
X14939230Y-12043222D02*
X14948753Y-12024174D01*
X14948753Y-12024174D02*
X14967801Y-12014650D01*
X14967801Y-12014650D02*
X15005896Y-12014650D01*
X15005896Y-12014650D02*
X15024944Y-12024174D01*
X15024944Y-12024174D02*
X15034468Y-12043222D01*
X15034468Y-12043222D02*
X15034468Y-12062269D01*
X15034468Y-12062269D02*
X14939230Y-12081317D01*
X15110658Y-12138460D02*
X15129706Y-12147984D01*
X15129706Y-12147984D02*
X15167801Y-12147984D01*
X15167801Y-12147984D02*
X15186849Y-12138460D01*
X15186849Y-12138460D02*
X15196372Y-12119412D01*
X15196372Y-12119412D02*
X15196372Y-12109888D01*
X15196372Y-12109888D02*
X15186849Y-12090841D01*
X15186849Y-12090841D02*
X15167801Y-12081317D01*
X15167801Y-12081317D02*
X15139230Y-12081317D01*
X15139230Y-12081317D02*
X15120182Y-12071793D01*
X15120182Y-12071793D02*
X15110658Y-12052746D01*
X15110658Y-12052746D02*
X15110658Y-12043222D01*
X15110658Y-12043222D02*
X15120182Y-12024174D01*
X15120182Y-12024174D02*
X15139230Y-12014650D01*
X15139230Y-12014650D02*
X15167801Y-12014650D01*
X15167801Y-12014650D02*
X15186849Y-12024174D01*
X15263039Y-12224174D02*
X15272563Y-12214650D01*
X15272563Y-12214650D02*
X15291611Y-12186079D01*
X15291611Y-12186079D02*
X15301134Y-12167031D01*
X15301134Y-12167031D02*
X15310658Y-12138460D01*
X15310658Y-12138460D02*
X15320182Y-12090841D01*
X15320182Y-12090841D02*
X15320182Y-12052746D01*
X15320182Y-12052746D02*
X15310658Y-12005127D01*
X15310658Y-12005127D02*
X15301134Y-11976555D01*
X15301134Y-11976555D02*
X15291611Y-11957508D01*
X15291611Y-11957508D02*
X15272563Y-11928936D01*
X15272563Y-11928936D02*
X15263039Y-11919412D01*
D12*
X10252500Y-12275500D02*
X10252500Y-12365500D01*
X10207500Y-12320500D02*
X10297500Y-12320500D01*
D11*
X10596372Y-12211984D02*
X10615420Y-12211984D01*
X10615420Y-12211984D02*
X10634467Y-12221508D01*
X10634467Y-12221508D02*
X10643991Y-12231031D01*
X10643991Y-12231031D02*
X10653515Y-12250079D01*
X10653515Y-12250079D02*
X10663039Y-12288174D01*
X10663039Y-12288174D02*
X10663039Y-12335793D01*
X10663039Y-12335793D02*
X10653515Y-12373888D01*
X10653515Y-12373888D02*
X10643991Y-12392936D01*
X10643991Y-12392936D02*
X10634467Y-12402460D01*
X10634467Y-12402460D02*
X10615420Y-12411984D01*
X10615420Y-12411984D02*
X10596372Y-12411984D01*
X10596372Y-12411984D02*
X10577324Y-12402460D01*
X10577324Y-12402460D02*
X10567801Y-12392936D01*
X10567801Y-12392936D02*
X10558277Y-12373888D01*
X10558277Y-12373888D02*
X10548753Y-12335793D01*
X10548753Y-12335793D02*
X10548753Y-12288174D01*
X10548753Y-12288174D02*
X10558277Y-12250079D01*
X10558277Y-12250079D02*
X10567801Y-12231031D01*
X10567801Y-12231031D02*
X10577324Y-12221508D01*
X10577324Y-12221508D02*
X10596372Y-12211984D01*
X10748753Y-12392936D02*
X10758277Y-12402460D01*
X10758277Y-12402460D02*
X10748753Y-12411984D01*
X10748753Y-12411984D02*
X10739229Y-12402460D01*
X10739229Y-12402460D02*
X10748753Y-12392936D01*
X10748753Y-12392936D02*
X10748753Y-12411984D01*
X10853515Y-12411984D02*
X10891610Y-12411984D01*
X10891610Y-12411984D02*
X10910658Y-12402460D01*
X10910658Y-12402460D02*
X10920182Y-12392936D01*
X10920182Y-12392936D02*
X10939229Y-12364365D01*
X10939229Y-12364365D02*
X10948753Y-12326269D01*
X10948753Y-12326269D02*
X10948753Y-12250079D01*
X10948753Y-12250079D02*
X10939229Y-12231031D01*
X10939229Y-12231031D02*
X10929705Y-12221508D01*
X10929705Y-12221508D02*
X10910658Y-12211984D01*
X10910658Y-12211984D02*
X10872563Y-12211984D01*
X10872563Y-12211984D02*
X10853515Y-12221508D01*
X10853515Y-12221508D02*
X10843991Y-12231031D01*
X10843991Y-12231031D02*
X10834467Y-12250079D01*
X10834467Y-12250079D02*
X10834467Y-12297698D01*
X10834467Y-12297698D02*
X10843991Y-12316746D01*
X10843991Y-12316746D02*
X10853515Y-12326269D01*
X10853515Y-12326269D02*
X10872563Y-12335793D01*
X10872563Y-12335793D02*
X10910658Y-12335793D01*
X10910658Y-12335793D02*
X10929705Y-12326269D01*
X10929705Y-12326269D02*
X10939229Y-12316746D01*
X10939229Y-12316746D02*
X10948753Y-12297698D01*
X11072563Y-12211984D02*
X11091610Y-12211984D01*
X11091610Y-12211984D02*
X11110658Y-12221508D01*
X11110658Y-12221508D02*
X11120182Y-12231031D01*
X11120182Y-12231031D02*
X11129705Y-12250079D01*
X11129705Y-12250079D02*
X11139229Y-12288174D01*
X11139229Y-12288174D02*
X11139229Y-12335793D01*
X11139229Y-12335793D02*
X11129705Y-12373888D01*
X11129705Y-12373888D02*
X11120182Y-12392936D01*
X11120182Y-12392936D02*
X11110658Y-12402460D01*
X11110658Y-12402460D02*
X11091610Y-12411984D01*
X11091610Y-12411984D02*
X11072563Y-12411984D01*
X11072563Y-12411984D02*
X11053515Y-12402460D01*
X11053515Y-12402460D02*
X11043991Y-12392936D01*
X11043991Y-12392936D02*
X11034467Y-12373888D01*
X11034467Y-12373888D02*
X11024944Y-12335793D01*
X11024944Y-12335793D02*
X11024944Y-12288174D01*
X11024944Y-12288174D02*
X11034467Y-12250079D01*
X11034467Y-12250079D02*
X11043991Y-12231031D01*
X11043991Y-12231031D02*
X11053515Y-12221508D01*
X11053515Y-12221508D02*
X11072563Y-12211984D01*
X11263039Y-12211984D02*
X11282086Y-12211984D01*
X11282086Y-12211984D02*
X11301134Y-12221508D01*
X11301134Y-12221508D02*
X11310658Y-12231031D01*
X11310658Y-12231031D02*
X11320182Y-12250079D01*
X11320182Y-12250079D02*
X11329705Y-12288174D01*
X11329705Y-12288174D02*
X11329705Y-12335793D01*
X11329705Y-12335793D02*
X11320182Y-12373888D01*
X11320182Y-12373888D02*
X11310658Y-12392936D01*
X11310658Y-12392936D02*
X11301134Y-12402460D01*
X11301134Y-12402460D02*
X11282086Y-12411984D01*
X11282086Y-12411984D02*
X11263039Y-12411984D01*
X11263039Y-12411984D02*
X11243991Y-12402460D01*
X11243991Y-12402460D02*
X11234467Y-12392936D01*
X11234467Y-12392936D02*
X11224943Y-12373888D01*
X11224943Y-12373888D02*
X11215420Y-12335793D01*
X11215420Y-12335793D02*
X11215420Y-12288174D01*
X11215420Y-12288174D02*
X11224943Y-12250079D01*
X11224943Y-12250079D02*
X11234467Y-12231031D01*
X11234467Y-12231031D02*
X11243991Y-12221508D01*
X11243991Y-12221508D02*
X11263039Y-12211984D01*
X11415420Y-12411984D02*
X11415420Y-12278650D01*
X11415420Y-12297698D02*
X11424943Y-12288174D01*
X11424943Y-12288174D02*
X11443991Y-12278650D01*
X11443991Y-12278650D02*
X11472563Y-12278650D01*
X11472563Y-12278650D02*
X11491610Y-12288174D01*
X11491610Y-12288174D02*
X11501134Y-12307222D01*
X11501134Y-12307222D02*
X11501134Y-12411984D01*
X11501134Y-12307222D02*
X11510658Y-12288174D01*
X11510658Y-12288174D02*
X11529705Y-12278650D01*
X11529705Y-12278650D02*
X11558277Y-12278650D01*
X11558277Y-12278650D02*
X11577324Y-12288174D01*
X11577324Y-12288174D02*
X11586848Y-12307222D01*
X11586848Y-12307222D02*
X11586848Y-12411984D01*
X11682086Y-12411984D02*
X11682086Y-12278650D01*
X11682086Y-12297698D02*
X11691610Y-12288174D01*
X11691610Y-12288174D02*
X11710658Y-12278650D01*
X11710658Y-12278650D02*
X11739229Y-12278650D01*
X11739229Y-12278650D02*
X11758277Y-12288174D01*
X11758277Y-12288174D02*
X11767801Y-12307222D01*
X11767801Y-12307222D02*
X11767801Y-12411984D01*
X11767801Y-12307222D02*
X11777324Y-12288174D01*
X11777324Y-12288174D02*
X11796372Y-12278650D01*
X11796372Y-12278650D02*
X11824943Y-12278650D01*
X11824943Y-12278650D02*
X11843991Y-12288174D01*
X11843991Y-12288174D02*
X11853515Y-12307222D01*
X11853515Y-12307222D02*
X11853515Y-12411984D01*
X12243991Y-12202460D02*
X12072563Y-12459603D01*
X12501134Y-12211984D02*
X12520182Y-12211984D01*
X12520182Y-12211984D02*
X12539229Y-12221508D01*
X12539229Y-12221508D02*
X12548753Y-12231031D01*
X12548753Y-12231031D02*
X12558277Y-12250079D01*
X12558277Y-12250079D02*
X12567801Y-12288174D01*
X12567801Y-12288174D02*
X12567801Y-12335793D01*
X12567801Y-12335793D02*
X12558277Y-12373888D01*
X12558277Y-12373888D02*
X12548753Y-12392936D01*
X12548753Y-12392936D02*
X12539229Y-12402460D01*
X12539229Y-12402460D02*
X12520182Y-12411984D01*
X12520182Y-12411984D02*
X12501134Y-12411984D01*
X12501134Y-12411984D02*
X12482086Y-12402460D01*
X12482086Y-12402460D02*
X12472563Y-12392936D01*
X12472563Y-12392936D02*
X12463039Y-12373888D01*
X12463039Y-12373888D02*
X12453515Y-12335793D01*
X12453515Y-12335793D02*
X12453515Y-12288174D01*
X12453515Y-12288174D02*
X12463039Y-12250079D01*
X12463039Y-12250079D02*
X12472563Y-12231031D01*
X12472563Y-12231031D02*
X12482086Y-12221508D01*
X12482086Y-12221508D02*
X12501134Y-12211984D01*
X12653515Y-12392936D02*
X12663039Y-12402460D01*
X12663039Y-12402460D02*
X12653515Y-12411984D01*
X12653515Y-12411984D02*
X12643991Y-12402460D01*
X12643991Y-12402460D02*
X12653515Y-12392936D01*
X12653515Y-12392936D02*
X12653515Y-12411984D01*
X12786848Y-12211984D02*
X12805896Y-12211984D01*
X12805896Y-12211984D02*
X12824944Y-12221508D01*
X12824944Y-12221508D02*
X12834467Y-12231031D01*
X12834467Y-12231031D02*
X12843991Y-12250079D01*
X12843991Y-12250079D02*
X12853515Y-12288174D01*
X12853515Y-12288174D02*
X12853515Y-12335793D01*
X12853515Y-12335793D02*
X12843991Y-12373888D01*
X12843991Y-12373888D02*
X12834467Y-12392936D01*
X12834467Y-12392936D02*
X12824944Y-12402460D01*
X12824944Y-12402460D02*
X12805896Y-12411984D01*
X12805896Y-12411984D02*
X12786848Y-12411984D01*
X12786848Y-12411984D02*
X12767801Y-12402460D01*
X12767801Y-12402460D02*
X12758277Y-12392936D01*
X12758277Y-12392936D02*
X12748753Y-12373888D01*
X12748753Y-12373888D02*
X12739229Y-12335793D01*
X12739229Y-12335793D02*
X12739229Y-12288174D01*
X12739229Y-12288174D02*
X12748753Y-12250079D01*
X12748753Y-12250079D02*
X12758277Y-12231031D01*
X12758277Y-12231031D02*
X12767801Y-12221508D01*
X12767801Y-12221508D02*
X12786848Y-12211984D01*
X12920182Y-12211984D02*
X13043991Y-12211984D01*
X13043991Y-12211984D02*
X12977325Y-12288174D01*
X12977325Y-12288174D02*
X13005896Y-12288174D01*
X13005896Y-12288174D02*
X13024944Y-12297698D01*
X13024944Y-12297698D02*
X13034467Y-12307222D01*
X13034467Y-12307222D02*
X13043991Y-12326269D01*
X13043991Y-12326269D02*
X13043991Y-12373888D01*
X13043991Y-12373888D02*
X13034467Y-12392936D01*
X13034467Y-12392936D02*
X13024944Y-12402460D01*
X13024944Y-12402460D02*
X13005896Y-12411984D01*
X13005896Y-12411984D02*
X12948753Y-12411984D01*
X12948753Y-12411984D02*
X12929706Y-12402460D01*
X12929706Y-12402460D02*
X12920182Y-12392936D01*
X13224944Y-12211984D02*
X13129706Y-12211984D01*
X13129706Y-12211984D02*
X13120182Y-12307222D01*
X13120182Y-12307222D02*
X13129706Y-12297698D01*
X13129706Y-12297698D02*
X13148753Y-12288174D01*
X13148753Y-12288174D02*
X13196372Y-12288174D01*
X13196372Y-12288174D02*
X13215420Y-12297698D01*
X13215420Y-12297698D02*
X13224944Y-12307222D01*
X13224944Y-12307222D02*
X13234467Y-12326269D01*
X13234467Y-12326269D02*
X13234467Y-12373888D01*
X13234467Y-12373888D02*
X13224944Y-12392936D01*
X13224944Y-12392936D02*
X13215420Y-12402460D01*
X13215420Y-12402460D02*
X13196372Y-12411984D01*
X13196372Y-12411984D02*
X13148753Y-12411984D01*
X13148753Y-12411984D02*
X13129706Y-12402460D01*
X13129706Y-12402460D02*
X13120182Y-12392936D01*
X13405896Y-12278650D02*
X13405896Y-12411984D01*
X13358277Y-12202460D02*
X13310658Y-12345317D01*
X13310658Y-12345317D02*
X13434467Y-12345317D01*
X13501134Y-12211984D02*
X13501134Y-12250079D01*
X13577325Y-12211984D02*
X13577325Y-12250079D01*
X13872563Y-12488174D02*
X13863039Y-12478650D01*
X13863039Y-12478650D02*
X13843991Y-12450079D01*
X13843991Y-12450079D02*
X13834468Y-12431031D01*
X13834468Y-12431031D02*
X13824944Y-12402460D01*
X13824944Y-12402460D02*
X13815420Y-12354841D01*
X13815420Y-12354841D02*
X13815420Y-12316746D01*
X13815420Y-12316746D02*
X13824944Y-12269127D01*
X13824944Y-12269127D02*
X13834468Y-12240555D01*
X13834468Y-12240555D02*
X13843991Y-12221508D01*
X13843991Y-12221508D02*
X13863039Y-12192936D01*
X13863039Y-12192936D02*
X13872563Y-12183412D01*
X14053515Y-12411984D02*
X13939229Y-12411984D01*
X13996372Y-12411984D02*
X13996372Y-12211984D01*
X13996372Y-12211984D02*
X13977325Y-12240555D01*
X13977325Y-12240555D02*
X13958277Y-12259603D01*
X13958277Y-12259603D02*
X13939229Y-12269127D01*
X14224944Y-12211984D02*
X14186848Y-12211984D01*
X14186848Y-12211984D02*
X14167801Y-12221508D01*
X14167801Y-12221508D02*
X14158277Y-12231031D01*
X14158277Y-12231031D02*
X14139229Y-12259603D01*
X14139229Y-12259603D02*
X14129706Y-12297698D01*
X14129706Y-12297698D02*
X14129706Y-12373888D01*
X14129706Y-12373888D02*
X14139229Y-12392936D01*
X14139229Y-12392936D02*
X14148753Y-12402460D01*
X14148753Y-12402460D02*
X14167801Y-12411984D01*
X14167801Y-12411984D02*
X14205896Y-12411984D01*
X14205896Y-12411984D02*
X14224944Y-12402460D01*
X14224944Y-12402460D02*
X14234468Y-12392936D01*
X14234468Y-12392936D02*
X14243991Y-12373888D01*
X14243991Y-12373888D02*
X14243991Y-12326269D01*
X14243991Y-12326269D02*
X14234468Y-12307222D01*
X14234468Y-12307222D02*
X14224944Y-12297698D01*
X14224944Y-12297698D02*
X14205896Y-12288174D01*
X14205896Y-12288174D02*
X14167801Y-12288174D01*
X14167801Y-12288174D02*
X14148753Y-12297698D01*
X14148753Y-12297698D02*
X14139229Y-12307222D01*
X14139229Y-12307222D02*
X14129706Y-12326269D01*
X14482087Y-12411984D02*
X14482087Y-12211984D01*
X14567801Y-12411984D02*
X14567801Y-12307222D01*
X14567801Y-12307222D02*
X14558277Y-12288174D01*
X14558277Y-12288174D02*
X14539230Y-12278650D01*
X14539230Y-12278650D02*
X14510658Y-12278650D01*
X14510658Y-12278650D02*
X14491610Y-12288174D01*
X14491610Y-12288174D02*
X14482087Y-12297698D01*
X14691610Y-12411984D02*
X14672563Y-12402460D01*
X14672563Y-12402460D02*
X14663039Y-12392936D01*
X14663039Y-12392936D02*
X14653515Y-12373888D01*
X14653515Y-12373888D02*
X14653515Y-12316746D01*
X14653515Y-12316746D02*
X14663039Y-12297698D01*
X14663039Y-12297698D02*
X14672563Y-12288174D01*
X14672563Y-12288174D02*
X14691610Y-12278650D01*
X14691610Y-12278650D02*
X14720182Y-12278650D01*
X14720182Y-12278650D02*
X14739230Y-12288174D01*
X14739230Y-12288174D02*
X14748753Y-12297698D01*
X14748753Y-12297698D02*
X14758277Y-12316746D01*
X14758277Y-12316746D02*
X14758277Y-12373888D01*
X14758277Y-12373888D02*
X14748753Y-12392936D01*
X14748753Y-12392936D02*
X14739230Y-12402460D01*
X14739230Y-12402460D02*
X14720182Y-12411984D01*
X14720182Y-12411984D02*
X14691610Y-12411984D01*
X14872563Y-12411984D02*
X14853515Y-12402460D01*
X14853515Y-12402460D02*
X14843991Y-12383412D01*
X14843991Y-12383412D02*
X14843991Y-12211984D01*
X15024944Y-12402460D02*
X15005896Y-12411984D01*
X15005896Y-12411984D02*
X14967801Y-12411984D01*
X14967801Y-12411984D02*
X14948753Y-12402460D01*
X14948753Y-12402460D02*
X14939230Y-12383412D01*
X14939230Y-12383412D02*
X14939230Y-12307222D01*
X14939230Y-12307222D02*
X14948753Y-12288174D01*
X14948753Y-12288174D02*
X14967801Y-12278650D01*
X14967801Y-12278650D02*
X15005896Y-12278650D01*
X15005896Y-12278650D02*
X15024944Y-12288174D01*
X15024944Y-12288174D02*
X15034468Y-12307222D01*
X15034468Y-12307222D02*
X15034468Y-12326269D01*
X15034468Y-12326269D02*
X14939230Y-12345317D01*
X15110658Y-12402460D02*
X15129706Y-12411984D01*
X15129706Y-12411984D02*
X15167801Y-12411984D01*
X15167801Y-12411984D02*
X15186849Y-12402460D01*
X15186849Y-12402460D02*
X15196372Y-12383412D01*
X15196372Y-12383412D02*
X15196372Y-12373888D01*
X15196372Y-12373888D02*
X15186849Y-12354841D01*
X15186849Y-12354841D02*
X15167801Y-12345317D01*
X15167801Y-12345317D02*
X15139230Y-12345317D01*
X15139230Y-12345317D02*
X15120182Y-12335793D01*
X15120182Y-12335793D02*
X15110658Y-12316746D01*
X15110658Y-12316746D02*
X15110658Y-12307222D01*
X15110658Y-12307222D02*
X15120182Y-12288174D01*
X15120182Y-12288174D02*
X15139230Y-12278650D01*
X15139230Y-12278650D02*
X15167801Y-12278650D01*
X15167801Y-12278650D02*
X15186849Y-12288174D01*
X15263039Y-12488174D02*
X15272563Y-12478650D01*
X15272563Y-12478650D02*
X15291611Y-12450079D01*
X15291611Y-12450079D02*
X15301134Y-12431031D01*
X15301134Y-12431031D02*
X15310658Y-12402460D01*
X15310658Y-12402460D02*
X15320182Y-12354841D01*
X15320182Y-12354841D02*
X15320182Y-12316746D01*
X15320182Y-12316746D02*
X15310658Y-12269127D01*
X15310658Y-12269127D02*
X15301134Y-12240555D01*
X15301134Y-12240555D02*
X15291611Y-12221508D01*
X15291611Y-12221508D02*
X15272563Y-12192936D01*
X15272563Y-12192936D02*
X15263039Y-12183412D01*
D12*
X10282856Y-12619856D02*
X10282856Y-12549144D01*
X10212144Y-12549144D01*
X10212144Y-12619856D01*
X10282856Y-12619856D01*
D11*
X10663039Y-12675984D02*
X10548753Y-12675984D01*
X10605896Y-12675984D02*
X10605896Y-12475984D01*
X10605896Y-12475984D02*
X10586848Y-12504555D01*
X10586848Y-12504555D02*
X10567801Y-12523603D01*
X10567801Y-12523603D02*
X10548753Y-12533127D01*
X10748753Y-12656936D02*
X10758277Y-12666460D01*
X10758277Y-12666460D02*
X10748753Y-12675984D01*
X10748753Y-12675984D02*
X10739229Y-12666460D01*
X10739229Y-12666460D02*
X10748753Y-12656936D01*
X10748753Y-12656936D02*
X10748753Y-12675984D01*
X10882086Y-12475984D02*
X10901134Y-12475984D01*
X10901134Y-12475984D02*
X10920182Y-12485508D01*
X10920182Y-12485508D02*
X10929705Y-12495031D01*
X10929705Y-12495031D02*
X10939229Y-12514079D01*
X10939229Y-12514079D02*
X10948753Y-12552174D01*
X10948753Y-12552174D02*
X10948753Y-12599793D01*
X10948753Y-12599793D02*
X10939229Y-12637888D01*
X10939229Y-12637888D02*
X10929705Y-12656936D01*
X10929705Y-12656936D02*
X10920182Y-12666460D01*
X10920182Y-12666460D02*
X10901134Y-12675984D01*
X10901134Y-12675984D02*
X10882086Y-12675984D01*
X10882086Y-12675984D02*
X10863039Y-12666460D01*
X10863039Y-12666460D02*
X10853515Y-12656936D01*
X10853515Y-12656936D02*
X10843991Y-12637888D01*
X10843991Y-12637888D02*
X10834467Y-12599793D01*
X10834467Y-12599793D02*
X10834467Y-12552174D01*
X10834467Y-12552174D02*
X10843991Y-12514079D01*
X10843991Y-12514079D02*
X10853515Y-12495031D01*
X10853515Y-12495031D02*
X10863039Y-12485508D01*
X10863039Y-12485508D02*
X10882086Y-12475984D01*
X11072563Y-12475984D02*
X11091610Y-12475984D01*
X11091610Y-12475984D02*
X11110658Y-12485508D01*
X11110658Y-12485508D02*
X11120182Y-12495031D01*
X11120182Y-12495031D02*
X11129705Y-12514079D01*
X11129705Y-12514079D02*
X11139229Y-12552174D01*
X11139229Y-12552174D02*
X11139229Y-12599793D01*
X11139229Y-12599793D02*
X11129705Y-12637888D01*
X11129705Y-12637888D02*
X11120182Y-12656936D01*
X11120182Y-12656936D02*
X11110658Y-12666460D01*
X11110658Y-12666460D02*
X11091610Y-12675984D01*
X11091610Y-12675984D02*
X11072563Y-12675984D01*
X11072563Y-12675984D02*
X11053515Y-12666460D01*
X11053515Y-12666460D02*
X11043991Y-12656936D01*
X11043991Y-12656936D02*
X11034467Y-12637888D01*
X11034467Y-12637888D02*
X11024944Y-12599793D01*
X11024944Y-12599793D02*
X11024944Y-12552174D01*
X11024944Y-12552174D02*
X11034467Y-12514079D01*
X11034467Y-12514079D02*
X11043991Y-12495031D01*
X11043991Y-12495031D02*
X11053515Y-12485508D01*
X11053515Y-12485508D02*
X11072563Y-12475984D01*
X11263039Y-12475984D02*
X11282086Y-12475984D01*
X11282086Y-12475984D02*
X11301134Y-12485508D01*
X11301134Y-12485508D02*
X11310658Y-12495031D01*
X11310658Y-12495031D02*
X11320182Y-12514079D01*
X11320182Y-12514079D02*
X11329705Y-12552174D01*
X11329705Y-12552174D02*
X11329705Y-12599793D01*
X11329705Y-12599793D02*
X11320182Y-12637888D01*
X11320182Y-12637888D02*
X11310658Y-12656936D01*
X11310658Y-12656936D02*
X11301134Y-12666460D01*
X11301134Y-12666460D02*
X11282086Y-12675984D01*
X11282086Y-12675984D02*
X11263039Y-12675984D01*
X11263039Y-12675984D02*
X11243991Y-12666460D01*
X11243991Y-12666460D02*
X11234467Y-12656936D01*
X11234467Y-12656936D02*
X11224943Y-12637888D01*
X11224943Y-12637888D02*
X11215420Y-12599793D01*
X11215420Y-12599793D02*
X11215420Y-12552174D01*
X11215420Y-12552174D02*
X11224943Y-12514079D01*
X11224943Y-12514079D02*
X11234467Y-12495031D01*
X11234467Y-12495031D02*
X11243991Y-12485508D01*
X11243991Y-12485508D02*
X11263039Y-12475984D01*
X11415420Y-12675984D02*
X11415420Y-12542650D01*
X11415420Y-12561698D02*
X11424943Y-12552174D01*
X11424943Y-12552174D02*
X11443991Y-12542650D01*
X11443991Y-12542650D02*
X11472563Y-12542650D01*
X11472563Y-12542650D02*
X11491610Y-12552174D01*
X11491610Y-12552174D02*
X11501134Y-12571222D01*
X11501134Y-12571222D02*
X11501134Y-12675984D01*
X11501134Y-12571222D02*
X11510658Y-12552174D01*
X11510658Y-12552174D02*
X11529705Y-12542650D01*
X11529705Y-12542650D02*
X11558277Y-12542650D01*
X11558277Y-12542650D02*
X11577324Y-12552174D01*
X11577324Y-12552174D02*
X11586848Y-12571222D01*
X11586848Y-12571222D02*
X11586848Y-12675984D01*
X11682086Y-12675984D02*
X11682086Y-12542650D01*
X11682086Y-12561698D02*
X11691610Y-12552174D01*
X11691610Y-12552174D02*
X11710658Y-12542650D01*
X11710658Y-12542650D02*
X11739229Y-12542650D01*
X11739229Y-12542650D02*
X11758277Y-12552174D01*
X11758277Y-12552174D02*
X11767801Y-12571222D01*
X11767801Y-12571222D02*
X11767801Y-12675984D01*
X11767801Y-12571222D02*
X11777324Y-12552174D01*
X11777324Y-12552174D02*
X11796372Y-12542650D01*
X11796372Y-12542650D02*
X11824943Y-12542650D01*
X11824943Y-12542650D02*
X11843991Y-12552174D01*
X11843991Y-12552174D02*
X11853515Y-12571222D01*
X11853515Y-12571222D02*
X11853515Y-12675984D01*
X12243991Y-12466460D02*
X12072563Y-12723603D01*
X12501134Y-12475984D02*
X12520182Y-12475984D01*
X12520182Y-12475984D02*
X12539229Y-12485508D01*
X12539229Y-12485508D02*
X12548753Y-12495031D01*
X12548753Y-12495031D02*
X12558277Y-12514079D01*
X12558277Y-12514079D02*
X12567801Y-12552174D01*
X12567801Y-12552174D02*
X12567801Y-12599793D01*
X12567801Y-12599793D02*
X12558277Y-12637888D01*
X12558277Y-12637888D02*
X12548753Y-12656936D01*
X12548753Y-12656936D02*
X12539229Y-12666460D01*
X12539229Y-12666460D02*
X12520182Y-12675984D01*
X12520182Y-12675984D02*
X12501134Y-12675984D01*
X12501134Y-12675984D02*
X12482086Y-12666460D01*
X12482086Y-12666460D02*
X12472563Y-12656936D01*
X12472563Y-12656936D02*
X12463039Y-12637888D01*
X12463039Y-12637888D02*
X12453515Y-12599793D01*
X12453515Y-12599793D02*
X12453515Y-12552174D01*
X12453515Y-12552174D02*
X12463039Y-12514079D01*
X12463039Y-12514079D02*
X12472563Y-12495031D01*
X12472563Y-12495031D02*
X12482086Y-12485508D01*
X12482086Y-12485508D02*
X12501134Y-12475984D01*
X12653515Y-12656936D02*
X12663039Y-12666460D01*
X12663039Y-12666460D02*
X12653515Y-12675984D01*
X12653515Y-12675984D02*
X12643991Y-12666460D01*
X12643991Y-12666460D02*
X12653515Y-12656936D01*
X12653515Y-12656936D02*
X12653515Y-12675984D01*
X12786848Y-12475984D02*
X12805896Y-12475984D01*
X12805896Y-12475984D02*
X12824944Y-12485508D01*
X12824944Y-12485508D02*
X12834467Y-12495031D01*
X12834467Y-12495031D02*
X12843991Y-12514079D01*
X12843991Y-12514079D02*
X12853515Y-12552174D01*
X12853515Y-12552174D02*
X12853515Y-12599793D01*
X12853515Y-12599793D02*
X12843991Y-12637888D01*
X12843991Y-12637888D02*
X12834467Y-12656936D01*
X12834467Y-12656936D02*
X12824944Y-12666460D01*
X12824944Y-12666460D02*
X12805896Y-12675984D01*
X12805896Y-12675984D02*
X12786848Y-12675984D01*
X12786848Y-12675984D02*
X12767801Y-12666460D01*
X12767801Y-12666460D02*
X12758277Y-12656936D01*
X12758277Y-12656936D02*
X12748753Y-12637888D01*
X12748753Y-12637888D02*
X12739229Y-12599793D01*
X12739229Y-12599793D02*
X12739229Y-12552174D01*
X12739229Y-12552174D02*
X12748753Y-12514079D01*
X12748753Y-12514079D02*
X12758277Y-12495031D01*
X12758277Y-12495031D02*
X12767801Y-12485508D01*
X12767801Y-12485508D02*
X12786848Y-12475984D01*
X12920182Y-12475984D02*
X13043991Y-12475984D01*
X13043991Y-12475984D02*
X12977325Y-12552174D01*
X12977325Y-12552174D02*
X13005896Y-12552174D01*
X13005896Y-12552174D02*
X13024944Y-12561698D01*
X13024944Y-12561698D02*
X13034467Y-12571222D01*
X13034467Y-12571222D02*
X13043991Y-12590269D01*
X13043991Y-12590269D02*
X13043991Y-12637888D01*
X13043991Y-12637888D02*
X13034467Y-12656936D01*
X13034467Y-12656936D02*
X13024944Y-12666460D01*
X13024944Y-12666460D02*
X13005896Y-12675984D01*
X13005896Y-12675984D02*
X12948753Y-12675984D01*
X12948753Y-12675984D02*
X12929706Y-12666460D01*
X12929706Y-12666460D02*
X12920182Y-12656936D01*
X13139229Y-12675984D02*
X13177325Y-12675984D01*
X13177325Y-12675984D02*
X13196372Y-12666460D01*
X13196372Y-12666460D02*
X13205896Y-12656936D01*
X13205896Y-12656936D02*
X13224944Y-12628365D01*
X13224944Y-12628365D02*
X13234467Y-12590269D01*
X13234467Y-12590269D02*
X13234467Y-12514079D01*
X13234467Y-12514079D02*
X13224944Y-12495031D01*
X13224944Y-12495031D02*
X13215420Y-12485508D01*
X13215420Y-12485508D02*
X13196372Y-12475984D01*
X13196372Y-12475984D02*
X13158277Y-12475984D01*
X13158277Y-12475984D02*
X13139229Y-12485508D01*
X13139229Y-12485508D02*
X13129706Y-12495031D01*
X13129706Y-12495031D02*
X13120182Y-12514079D01*
X13120182Y-12514079D02*
X13120182Y-12561698D01*
X13120182Y-12561698D02*
X13129706Y-12580746D01*
X13129706Y-12580746D02*
X13139229Y-12590269D01*
X13139229Y-12590269D02*
X13158277Y-12599793D01*
X13158277Y-12599793D02*
X13196372Y-12599793D01*
X13196372Y-12599793D02*
X13215420Y-12590269D01*
X13215420Y-12590269D02*
X13224944Y-12580746D01*
X13224944Y-12580746D02*
X13234467Y-12561698D01*
X13405896Y-12542650D02*
X13405896Y-12675984D01*
X13358277Y-12466460D02*
X13310658Y-12609317D01*
X13310658Y-12609317D02*
X13434467Y-12609317D01*
X13501134Y-12475984D02*
X13501134Y-12514079D01*
X13577325Y-12475984D02*
X13577325Y-12514079D01*
X13872563Y-12752174D02*
X13863039Y-12742650D01*
X13863039Y-12742650D02*
X13843991Y-12714079D01*
X13843991Y-12714079D02*
X13834468Y-12695031D01*
X13834468Y-12695031D02*
X13824944Y-12666460D01*
X13824944Y-12666460D02*
X13815420Y-12618841D01*
X13815420Y-12618841D02*
X13815420Y-12580746D01*
X13815420Y-12580746D02*
X13824944Y-12533127D01*
X13824944Y-12533127D02*
X13834468Y-12504555D01*
X13834468Y-12504555D02*
X13843991Y-12485508D01*
X13843991Y-12485508D02*
X13863039Y-12456936D01*
X13863039Y-12456936D02*
X13872563Y-12447412D01*
X14034468Y-12475984D02*
X13996372Y-12475984D01*
X13996372Y-12475984D02*
X13977325Y-12485508D01*
X13977325Y-12485508D02*
X13967801Y-12495031D01*
X13967801Y-12495031D02*
X13948753Y-12523603D01*
X13948753Y-12523603D02*
X13939229Y-12561698D01*
X13939229Y-12561698D02*
X13939229Y-12637888D01*
X13939229Y-12637888D02*
X13948753Y-12656936D01*
X13948753Y-12656936D02*
X13958277Y-12666460D01*
X13958277Y-12666460D02*
X13977325Y-12675984D01*
X13977325Y-12675984D02*
X14015420Y-12675984D01*
X14015420Y-12675984D02*
X14034468Y-12666460D01*
X14034468Y-12666460D02*
X14043991Y-12656936D01*
X14043991Y-12656936D02*
X14053515Y-12637888D01*
X14053515Y-12637888D02*
X14053515Y-12590269D01*
X14053515Y-12590269D02*
X14043991Y-12571222D01*
X14043991Y-12571222D02*
X14034468Y-12561698D01*
X14034468Y-12561698D02*
X14015420Y-12552174D01*
X14015420Y-12552174D02*
X13977325Y-12552174D01*
X13977325Y-12552174D02*
X13958277Y-12561698D01*
X13958277Y-12561698D02*
X13948753Y-12571222D01*
X13948753Y-12571222D02*
X13939229Y-12590269D01*
X14224944Y-12475984D02*
X14186848Y-12475984D01*
X14186848Y-12475984D02*
X14167801Y-12485508D01*
X14167801Y-12485508D02*
X14158277Y-12495031D01*
X14158277Y-12495031D02*
X14139229Y-12523603D01*
X14139229Y-12523603D02*
X14129706Y-12561698D01*
X14129706Y-12561698D02*
X14129706Y-12637888D01*
X14129706Y-12637888D02*
X14139229Y-12656936D01*
X14139229Y-12656936D02*
X14148753Y-12666460D01*
X14148753Y-12666460D02*
X14167801Y-12675984D01*
X14167801Y-12675984D02*
X14205896Y-12675984D01*
X14205896Y-12675984D02*
X14224944Y-12666460D01*
X14224944Y-12666460D02*
X14234468Y-12656936D01*
X14234468Y-12656936D02*
X14243991Y-12637888D01*
X14243991Y-12637888D02*
X14243991Y-12590269D01*
X14243991Y-12590269D02*
X14234468Y-12571222D01*
X14234468Y-12571222D02*
X14224944Y-12561698D01*
X14224944Y-12561698D02*
X14205896Y-12552174D01*
X14205896Y-12552174D02*
X14167801Y-12552174D01*
X14167801Y-12552174D02*
X14148753Y-12561698D01*
X14148753Y-12561698D02*
X14139229Y-12571222D01*
X14139229Y-12571222D02*
X14129706Y-12590269D01*
X14482087Y-12675984D02*
X14482087Y-12475984D01*
X14567801Y-12675984D02*
X14567801Y-12571222D01*
X14567801Y-12571222D02*
X14558277Y-12552174D01*
X14558277Y-12552174D02*
X14539230Y-12542650D01*
X14539230Y-12542650D02*
X14510658Y-12542650D01*
X14510658Y-12542650D02*
X14491610Y-12552174D01*
X14491610Y-12552174D02*
X14482087Y-12561698D01*
X14691610Y-12675984D02*
X14672563Y-12666460D01*
X14672563Y-12666460D02*
X14663039Y-12656936D01*
X14663039Y-12656936D02*
X14653515Y-12637888D01*
X14653515Y-12637888D02*
X14653515Y-12580746D01*
X14653515Y-12580746D02*
X14663039Y-12561698D01*
X14663039Y-12561698D02*
X14672563Y-12552174D01*
X14672563Y-12552174D02*
X14691610Y-12542650D01*
X14691610Y-12542650D02*
X14720182Y-12542650D01*
X14720182Y-12542650D02*
X14739230Y-12552174D01*
X14739230Y-12552174D02*
X14748753Y-12561698D01*
X14748753Y-12561698D02*
X14758277Y-12580746D01*
X14758277Y-12580746D02*
X14758277Y-12637888D01*
X14758277Y-12637888D02*
X14748753Y-12656936D01*
X14748753Y-12656936D02*
X14739230Y-12666460D01*
X14739230Y-12666460D02*
X14720182Y-12675984D01*
X14720182Y-12675984D02*
X14691610Y-12675984D01*
X14872563Y-12675984D02*
X14853515Y-12666460D01*
X14853515Y-12666460D02*
X14843991Y-12647412D01*
X14843991Y-12647412D02*
X14843991Y-12475984D01*
X15024944Y-12666460D02*
X15005896Y-12675984D01*
X15005896Y-12675984D02*
X14967801Y-12675984D01*
X14967801Y-12675984D02*
X14948753Y-12666460D01*
X14948753Y-12666460D02*
X14939230Y-12647412D01*
X14939230Y-12647412D02*
X14939230Y-12571222D01*
X14939230Y-12571222D02*
X14948753Y-12552174D01*
X14948753Y-12552174D02*
X14967801Y-12542650D01*
X14967801Y-12542650D02*
X15005896Y-12542650D01*
X15005896Y-12542650D02*
X15024944Y-12552174D01*
X15024944Y-12552174D02*
X15034468Y-12571222D01*
X15034468Y-12571222D02*
X15034468Y-12590269D01*
X15034468Y-12590269D02*
X14939230Y-12609317D01*
X15110658Y-12666460D02*
X15129706Y-12675984D01*
X15129706Y-12675984D02*
X15167801Y-12675984D01*
X15167801Y-12675984D02*
X15186849Y-12666460D01*
X15186849Y-12666460D02*
X15196372Y-12647412D01*
X15196372Y-12647412D02*
X15196372Y-12637888D01*
X15196372Y-12637888D02*
X15186849Y-12618841D01*
X15186849Y-12618841D02*
X15167801Y-12609317D01*
X15167801Y-12609317D02*
X15139230Y-12609317D01*
X15139230Y-12609317D02*
X15120182Y-12599793D01*
X15120182Y-12599793D02*
X15110658Y-12580746D01*
X15110658Y-12580746D02*
X15110658Y-12571222D01*
X15110658Y-12571222D02*
X15120182Y-12552174D01*
X15120182Y-12552174D02*
X15139230Y-12542650D01*
X15139230Y-12542650D02*
X15167801Y-12542650D01*
X15167801Y-12542650D02*
X15186849Y-12552174D01*
X15263039Y-12752174D02*
X15272563Y-12742650D01*
X15272563Y-12742650D02*
X15291611Y-12714079D01*
X15291611Y-12714079D02*
X15301134Y-12695031D01*
X15301134Y-12695031D02*
X15310658Y-12666460D01*
X15310658Y-12666460D02*
X15320182Y-12618841D01*
X15320182Y-12618841D02*
X15320182Y-12580746D01*
X15320182Y-12580746D02*
X15310658Y-12533127D01*
X15310658Y-12533127D02*
X15301134Y-12504555D01*
X15301134Y-12504555D02*
X15291611Y-12485508D01*
X15291611Y-12485508D02*
X15272563Y-12456936D01*
X15272563Y-12456936D02*
X15263039Y-12447412D01*
D13*
X10238000Y-12908000D02*
X10297500Y-12848500D01*
X10238000Y-12789000D01*
X10178500Y-12848500D01*
X10238000Y-12908000D01*
D11*
X10663039Y-12939984D02*
X10548753Y-12939984D01*
X10605896Y-12939984D02*
X10605896Y-12739984D01*
X10605896Y-12739984D02*
X10586848Y-12768555D01*
X10586848Y-12768555D02*
X10567801Y-12787603D01*
X10567801Y-12787603D02*
X10548753Y-12797127D01*
X10748753Y-12920936D02*
X10758277Y-12930460D01*
X10758277Y-12930460D02*
X10748753Y-12939984D01*
X10748753Y-12939984D02*
X10739229Y-12930460D01*
X10739229Y-12930460D02*
X10748753Y-12920936D01*
X10748753Y-12920936D02*
X10748753Y-12939984D01*
X10948753Y-12939984D02*
X10834467Y-12939984D01*
X10891610Y-12939984D02*
X10891610Y-12739984D01*
X10891610Y-12739984D02*
X10872563Y-12768555D01*
X10872563Y-12768555D02*
X10853515Y-12787603D01*
X10853515Y-12787603D02*
X10834467Y-12797127D01*
X11043991Y-12939984D02*
X11082086Y-12939984D01*
X11082086Y-12939984D02*
X11101134Y-12930460D01*
X11101134Y-12930460D02*
X11110658Y-12920936D01*
X11110658Y-12920936D02*
X11129705Y-12892365D01*
X11129705Y-12892365D02*
X11139229Y-12854269D01*
X11139229Y-12854269D02*
X11139229Y-12778079D01*
X11139229Y-12778079D02*
X11129705Y-12759031D01*
X11129705Y-12759031D02*
X11120182Y-12749508D01*
X11120182Y-12749508D02*
X11101134Y-12739984D01*
X11101134Y-12739984D02*
X11063039Y-12739984D01*
X11063039Y-12739984D02*
X11043991Y-12749508D01*
X11043991Y-12749508D02*
X11034467Y-12759031D01*
X11034467Y-12759031D02*
X11024944Y-12778079D01*
X11024944Y-12778079D02*
X11024944Y-12825698D01*
X11024944Y-12825698D02*
X11034467Y-12844746D01*
X11034467Y-12844746D02*
X11043991Y-12854269D01*
X11043991Y-12854269D02*
X11063039Y-12863793D01*
X11063039Y-12863793D02*
X11101134Y-12863793D01*
X11101134Y-12863793D02*
X11120182Y-12854269D01*
X11120182Y-12854269D02*
X11129705Y-12844746D01*
X11129705Y-12844746D02*
X11139229Y-12825698D01*
X11263039Y-12739984D02*
X11282086Y-12739984D01*
X11282086Y-12739984D02*
X11301134Y-12749508D01*
X11301134Y-12749508D02*
X11310658Y-12759031D01*
X11310658Y-12759031D02*
X11320182Y-12778079D01*
X11320182Y-12778079D02*
X11329705Y-12816174D01*
X11329705Y-12816174D02*
X11329705Y-12863793D01*
X11329705Y-12863793D02*
X11320182Y-12901888D01*
X11320182Y-12901888D02*
X11310658Y-12920936D01*
X11310658Y-12920936D02*
X11301134Y-12930460D01*
X11301134Y-12930460D02*
X11282086Y-12939984D01*
X11282086Y-12939984D02*
X11263039Y-12939984D01*
X11263039Y-12939984D02*
X11243991Y-12930460D01*
X11243991Y-12930460D02*
X11234467Y-12920936D01*
X11234467Y-12920936D02*
X11224943Y-12901888D01*
X11224943Y-12901888D02*
X11215420Y-12863793D01*
X11215420Y-12863793D02*
X11215420Y-12816174D01*
X11215420Y-12816174D02*
X11224943Y-12778079D01*
X11224943Y-12778079D02*
X11234467Y-12759031D01*
X11234467Y-12759031D02*
X11243991Y-12749508D01*
X11243991Y-12749508D02*
X11263039Y-12739984D01*
X11415420Y-12939984D02*
X11415420Y-12806650D01*
X11415420Y-12825698D02*
X11424943Y-12816174D01*
X11424943Y-12816174D02*
X11443991Y-12806650D01*
X11443991Y-12806650D02*
X11472563Y-12806650D01*
X11472563Y-12806650D02*
X11491610Y-12816174D01*
X11491610Y-12816174D02*
X11501134Y-12835222D01*
X11501134Y-12835222D02*
X11501134Y-12939984D01*
X11501134Y-12835222D02*
X11510658Y-12816174D01*
X11510658Y-12816174D02*
X11529705Y-12806650D01*
X11529705Y-12806650D02*
X11558277Y-12806650D01*
X11558277Y-12806650D02*
X11577324Y-12816174D01*
X11577324Y-12816174D02*
X11586848Y-12835222D01*
X11586848Y-12835222D02*
X11586848Y-12939984D01*
X11682086Y-12939984D02*
X11682086Y-12806650D01*
X11682086Y-12825698D02*
X11691610Y-12816174D01*
X11691610Y-12816174D02*
X11710658Y-12806650D01*
X11710658Y-12806650D02*
X11739229Y-12806650D01*
X11739229Y-12806650D02*
X11758277Y-12816174D01*
X11758277Y-12816174D02*
X11767801Y-12835222D01*
X11767801Y-12835222D02*
X11767801Y-12939984D01*
X11767801Y-12835222D02*
X11777324Y-12816174D01*
X11777324Y-12816174D02*
X11796372Y-12806650D01*
X11796372Y-12806650D02*
X11824943Y-12806650D01*
X11824943Y-12806650D02*
X11843991Y-12816174D01*
X11843991Y-12816174D02*
X11853515Y-12835222D01*
X11853515Y-12835222D02*
X11853515Y-12939984D01*
X12243991Y-12730460D02*
X12072563Y-12987603D01*
X12501134Y-12739984D02*
X12520182Y-12739984D01*
X12520182Y-12739984D02*
X12539229Y-12749508D01*
X12539229Y-12749508D02*
X12548753Y-12759031D01*
X12548753Y-12759031D02*
X12558277Y-12778079D01*
X12558277Y-12778079D02*
X12567801Y-12816174D01*
X12567801Y-12816174D02*
X12567801Y-12863793D01*
X12567801Y-12863793D02*
X12558277Y-12901888D01*
X12558277Y-12901888D02*
X12548753Y-12920936D01*
X12548753Y-12920936D02*
X12539229Y-12930460D01*
X12539229Y-12930460D02*
X12520182Y-12939984D01*
X12520182Y-12939984D02*
X12501134Y-12939984D01*
X12501134Y-12939984D02*
X12482086Y-12930460D01*
X12482086Y-12930460D02*
X12472563Y-12920936D01*
X12472563Y-12920936D02*
X12463039Y-12901888D01*
X12463039Y-12901888D02*
X12453515Y-12863793D01*
X12453515Y-12863793D02*
X12453515Y-12816174D01*
X12453515Y-12816174D02*
X12463039Y-12778079D01*
X12463039Y-12778079D02*
X12472563Y-12759031D01*
X12472563Y-12759031D02*
X12482086Y-12749508D01*
X12482086Y-12749508D02*
X12501134Y-12739984D01*
X12653515Y-12920936D02*
X12663039Y-12930460D01*
X12663039Y-12930460D02*
X12653515Y-12939984D01*
X12653515Y-12939984D02*
X12643991Y-12930460D01*
X12643991Y-12930460D02*
X12653515Y-12920936D01*
X12653515Y-12920936D02*
X12653515Y-12939984D01*
X12786848Y-12739984D02*
X12805896Y-12739984D01*
X12805896Y-12739984D02*
X12824944Y-12749508D01*
X12824944Y-12749508D02*
X12834467Y-12759031D01*
X12834467Y-12759031D02*
X12843991Y-12778079D01*
X12843991Y-12778079D02*
X12853515Y-12816174D01*
X12853515Y-12816174D02*
X12853515Y-12863793D01*
X12853515Y-12863793D02*
X12843991Y-12901888D01*
X12843991Y-12901888D02*
X12834467Y-12920936D01*
X12834467Y-12920936D02*
X12824944Y-12930460D01*
X12824944Y-12930460D02*
X12805896Y-12939984D01*
X12805896Y-12939984D02*
X12786848Y-12939984D01*
X12786848Y-12939984D02*
X12767801Y-12930460D01*
X12767801Y-12930460D02*
X12758277Y-12920936D01*
X12758277Y-12920936D02*
X12748753Y-12901888D01*
X12748753Y-12901888D02*
X12739229Y-12863793D01*
X12739229Y-12863793D02*
X12739229Y-12816174D01*
X12739229Y-12816174D02*
X12748753Y-12778079D01*
X12748753Y-12778079D02*
X12758277Y-12759031D01*
X12758277Y-12759031D02*
X12767801Y-12749508D01*
X12767801Y-12749508D02*
X12786848Y-12739984D01*
X13024944Y-12806650D02*
X13024944Y-12939984D01*
X12977325Y-12730460D02*
X12929706Y-12873317D01*
X12929706Y-12873317D02*
X13053515Y-12873317D01*
X13215420Y-12739984D02*
X13177325Y-12739984D01*
X13177325Y-12739984D02*
X13158277Y-12749508D01*
X13158277Y-12749508D02*
X13148753Y-12759031D01*
X13148753Y-12759031D02*
X13129706Y-12787603D01*
X13129706Y-12787603D02*
X13120182Y-12825698D01*
X13120182Y-12825698D02*
X13120182Y-12901888D01*
X13120182Y-12901888D02*
X13129706Y-12920936D01*
X13129706Y-12920936D02*
X13139229Y-12930460D01*
X13139229Y-12930460D02*
X13158277Y-12939984D01*
X13158277Y-12939984D02*
X13196372Y-12939984D01*
X13196372Y-12939984D02*
X13215420Y-12930460D01*
X13215420Y-12930460D02*
X13224944Y-12920936D01*
X13224944Y-12920936D02*
X13234467Y-12901888D01*
X13234467Y-12901888D02*
X13234467Y-12854269D01*
X13234467Y-12854269D02*
X13224944Y-12835222D01*
X13224944Y-12835222D02*
X13215420Y-12825698D01*
X13215420Y-12825698D02*
X13196372Y-12816174D01*
X13196372Y-12816174D02*
X13158277Y-12816174D01*
X13158277Y-12816174D02*
X13139229Y-12825698D01*
X13139229Y-12825698D02*
X13129706Y-12835222D01*
X13129706Y-12835222D02*
X13120182Y-12854269D01*
X13329706Y-12939984D02*
X13367801Y-12939984D01*
X13367801Y-12939984D02*
X13386848Y-12930460D01*
X13386848Y-12930460D02*
X13396372Y-12920936D01*
X13396372Y-12920936D02*
X13415420Y-12892365D01*
X13415420Y-12892365D02*
X13424944Y-12854269D01*
X13424944Y-12854269D02*
X13424944Y-12778079D01*
X13424944Y-12778079D02*
X13415420Y-12759031D01*
X13415420Y-12759031D02*
X13405896Y-12749508D01*
X13405896Y-12749508D02*
X13386848Y-12739984D01*
X13386848Y-12739984D02*
X13348753Y-12739984D01*
X13348753Y-12739984D02*
X13329706Y-12749508D01*
X13329706Y-12749508D02*
X13320182Y-12759031D01*
X13320182Y-12759031D02*
X13310658Y-12778079D01*
X13310658Y-12778079D02*
X13310658Y-12825698D01*
X13310658Y-12825698D02*
X13320182Y-12844746D01*
X13320182Y-12844746D02*
X13329706Y-12854269D01*
X13329706Y-12854269D02*
X13348753Y-12863793D01*
X13348753Y-12863793D02*
X13386848Y-12863793D01*
X13386848Y-12863793D02*
X13405896Y-12854269D01*
X13405896Y-12854269D02*
X13415420Y-12844746D01*
X13415420Y-12844746D02*
X13424944Y-12825698D01*
X13501134Y-12739984D02*
X13501134Y-12778079D01*
X13577325Y-12739984D02*
X13577325Y-12778079D01*
X13872563Y-13016174D02*
X13863039Y-13006650D01*
X13863039Y-13006650D02*
X13843991Y-12978079D01*
X13843991Y-12978079D02*
X13834468Y-12959031D01*
X13834468Y-12959031D02*
X13824944Y-12930460D01*
X13824944Y-12930460D02*
X13815420Y-12882841D01*
X13815420Y-12882841D02*
X13815420Y-12844746D01*
X13815420Y-12844746D02*
X13824944Y-12797127D01*
X13824944Y-12797127D02*
X13834468Y-12768555D01*
X13834468Y-12768555D02*
X13843991Y-12749508D01*
X13843991Y-12749508D02*
X13863039Y-12720936D01*
X13863039Y-12720936D02*
X13872563Y-12711412D01*
X13939229Y-12759031D02*
X13948753Y-12749508D01*
X13948753Y-12749508D02*
X13967801Y-12739984D01*
X13967801Y-12739984D02*
X14015420Y-12739984D01*
X14015420Y-12739984D02*
X14034468Y-12749508D01*
X14034468Y-12749508D02*
X14043991Y-12759031D01*
X14043991Y-12759031D02*
X14053515Y-12778079D01*
X14053515Y-12778079D02*
X14053515Y-12797127D01*
X14053515Y-12797127D02*
X14043991Y-12825698D01*
X14043991Y-12825698D02*
X13929706Y-12939984D01*
X13929706Y-12939984D02*
X14053515Y-12939984D01*
X14224944Y-12806650D02*
X14224944Y-12939984D01*
X14177325Y-12730460D02*
X14129706Y-12873317D01*
X14129706Y-12873317D02*
X14253515Y-12873317D01*
X14482087Y-12939984D02*
X14482087Y-12739984D01*
X14567801Y-12939984D02*
X14567801Y-12835222D01*
X14567801Y-12835222D02*
X14558277Y-12816174D01*
X14558277Y-12816174D02*
X14539230Y-12806650D01*
X14539230Y-12806650D02*
X14510658Y-12806650D01*
X14510658Y-12806650D02*
X14491610Y-12816174D01*
X14491610Y-12816174D02*
X14482087Y-12825698D01*
X14691610Y-12939984D02*
X14672563Y-12930460D01*
X14672563Y-12930460D02*
X14663039Y-12920936D01*
X14663039Y-12920936D02*
X14653515Y-12901888D01*
X14653515Y-12901888D02*
X14653515Y-12844746D01*
X14653515Y-12844746D02*
X14663039Y-12825698D01*
X14663039Y-12825698D02*
X14672563Y-12816174D01*
X14672563Y-12816174D02*
X14691610Y-12806650D01*
X14691610Y-12806650D02*
X14720182Y-12806650D01*
X14720182Y-12806650D02*
X14739230Y-12816174D01*
X14739230Y-12816174D02*
X14748753Y-12825698D01*
X14748753Y-12825698D02*
X14758277Y-12844746D01*
X14758277Y-12844746D02*
X14758277Y-12901888D01*
X14758277Y-12901888D02*
X14748753Y-12920936D01*
X14748753Y-12920936D02*
X14739230Y-12930460D01*
X14739230Y-12930460D02*
X14720182Y-12939984D01*
X14720182Y-12939984D02*
X14691610Y-12939984D01*
X14872563Y-12939984D02*
X14853515Y-12930460D01*
X14853515Y-12930460D02*
X14843991Y-12911412D01*
X14843991Y-12911412D02*
X14843991Y-12739984D01*
X15024944Y-12930460D02*
X15005896Y-12939984D01*
X15005896Y-12939984D02*
X14967801Y-12939984D01*
X14967801Y-12939984D02*
X14948753Y-12930460D01*
X14948753Y-12930460D02*
X14939230Y-12911412D01*
X14939230Y-12911412D02*
X14939230Y-12835222D01*
X14939230Y-12835222D02*
X14948753Y-12816174D01*
X14948753Y-12816174D02*
X14967801Y-12806650D01*
X14967801Y-12806650D02*
X15005896Y-12806650D01*
X15005896Y-12806650D02*
X15024944Y-12816174D01*
X15024944Y-12816174D02*
X15034468Y-12835222D01*
X15034468Y-12835222D02*
X15034468Y-12854269D01*
X15034468Y-12854269D02*
X14939230Y-12873317D01*
X15110658Y-12930460D02*
X15129706Y-12939984D01*
X15129706Y-12939984D02*
X15167801Y-12939984D01*
X15167801Y-12939984D02*
X15186849Y-12930460D01*
X15186849Y-12930460D02*
X15196372Y-12911412D01*
X15196372Y-12911412D02*
X15196372Y-12901888D01*
X15196372Y-12901888D02*
X15186849Y-12882841D01*
X15186849Y-12882841D02*
X15167801Y-12873317D01*
X15167801Y-12873317D02*
X15139230Y-12873317D01*
X15139230Y-12873317D02*
X15120182Y-12863793D01*
X15120182Y-12863793D02*
X15110658Y-12844746D01*
X15110658Y-12844746D02*
X15110658Y-12835222D01*
X15110658Y-12835222D02*
X15120182Y-12816174D01*
X15120182Y-12816174D02*
X15139230Y-12806650D01*
X15139230Y-12806650D02*
X15167801Y-12806650D01*
X15167801Y-12806650D02*
X15186849Y-12816174D01*
X15263039Y-13016174D02*
X15272563Y-13006650D01*
X15272563Y-13006650D02*
X15291611Y-12978079D01*
X15291611Y-12978079D02*
X15301134Y-12959031D01*
X15301134Y-12959031D02*
X15310658Y-12930460D01*
X15310658Y-12930460D02*
X15320182Y-12882841D01*
X15320182Y-12882841D02*
X15320182Y-12844746D01*
X15320182Y-12844746D02*
X15310658Y-12797127D01*
X15310658Y-12797127D02*
X15301134Y-12768555D01*
X15301134Y-12768555D02*
X15291611Y-12749508D01*
X15291611Y-12749508D02*
X15272563Y-12720936D01*
X15272563Y-12720936D02*
X15263039Y-12711412D01*
D14*
X10167500Y-13047500D02*
X10297500Y-13177500D01*
X10297500Y-13047500D02*
X10167500Y-13177500D01*
X10297500Y-13112500D02*
G75*
G02*
X10167500Y-13112500I-65000J0D01*
G01*
X10167500Y-13112500D02*
G75*
G02*
X10297500Y-13112500I65000J0D01*
G01*
D11*
X10663039Y-13203984D02*
X10548753Y-13203984D01*
X10605896Y-13203984D02*
X10605896Y-13003984D01*
X10605896Y-13003984D02*
X10586848Y-13032555D01*
X10586848Y-13032555D02*
X10567801Y-13051603D01*
X10567801Y-13051603D02*
X10548753Y-13061127D01*
X10748753Y-13184936D02*
X10758277Y-13194460D01*
X10758277Y-13194460D02*
X10748753Y-13203984D01*
X10748753Y-13203984D02*
X10739229Y-13194460D01*
X10739229Y-13194460D02*
X10748753Y-13184936D01*
X10748753Y-13184936D02*
X10748753Y-13203984D01*
X10824944Y-13003984D02*
X10948753Y-13003984D01*
X10948753Y-13003984D02*
X10882086Y-13080174D01*
X10882086Y-13080174D02*
X10910658Y-13080174D01*
X10910658Y-13080174D02*
X10929705Y-13089698D01*
X10929705Y-13089698D02*
X10939229Y-13099222D01*
X10939229Y-13099222D02*
X10948753Y-13118269D01*
X10948753Y-13118269D02*
X10948753Y-13165888D01*
X10948753Y-13165888D02*
X10939229Y-13184936D01*
X10939229Y-13184936D02*
X10929705Y-13194460D01*
X10929705Y-13194460D02*
X10910658Y-13203984D01*
X10910658Y-13203984D02*
X10853515Y-13203984D01*
X10853515Y-13203984D02*
X10834467Y-13194460D01*
X10834467Y-13194460D02*
X10824944Y-13184936D01*
X11072563Y-13003984D02*
X11091610Y-13003984D01*
X11091610Y-13003984D02*
X11110658Y-13013508D01*
X11110658Y-13013508D02*
X11120182Y-13023031D01*
X11120182Y-13023031D02*
X11129705Y-13042079D01*
X11129705Y-13042079D02*
X11139229Y-13080174D01*
X11139229Y-13080174D02*
X11139229Y-13127793D01*
X11139229Y-13127793D02*
X11129705Y-13165888D01*
X11129705Y-13165888D02*
X11120182Y-13184936D01*
X11120182Y-13184936D02*
X11110658Y-13194460D01*
X11110658Y-13194460D02*
X11091610Y-13203984D01*
X11091610Y-13203984D02*
X11072563Y-13203984D01*
X11072563Y-13203984D02*
X11053515Y-13194460D01*
X11053515Y-13194460D02*
X11043991Y-13184936D01*
X11043991Y-13184936D02*
X11034467Y-13165888D01*
X11034467Y-13165888D02*
X11024944Y-13127793D01*
X11024944Y-13127793D02*
X11024944Y-13080174D01*
X11024944Y-13080174D02*
X11034467Y-13042079D01*
X11034467Y-13042079D02*
X11043991Y-13023031D01*
X11043991Y-13023031D02*
X11053515Y-13013508D01*
X11053515Y-13013508D02*
X11072563Y-13003984D01*
X11263039Y-13003984D02*
X11282086Y-13003984D01*
X11282086Y-13003984D02*
X11301134Y-13013508D01*
X11301134Y-13013508D02*
X11310658Y-13023031D01*
X11310658Y-13023031D02*
X11320182Y-13042079D01*
X11320182Y-13042079D02*
X11329705Y-13080174D01*
X11329705Y-13080174D02*
X11329705Y-13127793D01*
X11329705Y-13127793D02*
X11320182Y-13165888D01*
X11320182Y-13165888D02*
X11310658Y-13184936D01*
X11310658Y-13184936D02*
X11301134Y-13194460D01*
X11301134Y-13194460D02*
X11282086Y-13203984D01*
X11282086Y-13203984D02*
X11263039Y-13203984D01*
X11263039Y-13203984D02*
X11243991Y-13194460D01*
X11243991Y-13194460D02*
X11234467Y-13184936D01*
X11234467Y-13184936D02*
X11224943Y-13165888D01*
X11224943Y-13165888D02*
X11215420Y-13127793D01*
X11215420Y-13127793D02*
X11215420Y-13080174D01*
X11215420Y-13080174D02*
X11224943Y-13042079D01*
X11224943Y-13042079D02*
X11234467Y-13023031D01*
X11234467Y-13023031D02*
X11243991Y-13013508D01*
X11243991Y-13013508D02*
X11263039Y-13003984D01*
X11415420Y-13203984D02*
X11415420Y-13070650D01*
X11415420Y-13089698D02*
X11424943Y-13080174D01*
X11424943Y-13080174D02*
X11443991Y-13070650D01*
X11443991Y-13070650D02*
X11472563Y-13070650D01*
X11472563Y-13070650D02*
X11491610Y-13080174D01*
X11491610Y-13080174D02*
X11501134Y-13099222D01*
X11501134Y-13099222D02*
X11501134Y-13203984D01*
X11501134Y-13099222D02*
X11510658Y-13080174D01*
X11510658Y-13080174D02*
X11529705Y-13070650D01*
X11529705Y-13070650D02*
X11558277Y-13070650D01*
X11558277Y-13070650D02*
X11577324Y-13080174D01*
X11577324Y-13080174D02*
X11586848Y-13099222D01*
X11586848Y-13099222D02*
X11586848Y-13203984D01*
X11682086Y-13203984D02*
X11682086Y-13070650D01*
X11682086Y-13089698D02*
X11691610Y-13080174D01*
X11691610Y-13080174D02*
X11710658Y-13070650D01*
X11710658Y-13070650D02*
X11739229Y-13070650D01*
X11739229Y-13070650D02*
X11758277Y-13080174D01*
X11758277Y-13080174D02*
X11767801Y-13099222D01*
X11767801Y-13099222D02*
X11767801Y-13203984D01*
X11767801Y-13099222D02*
X11777324Y-13080174D01*
X11777324Y-13080174D02*
X11796372Y-13070650D01*
X11796372Y-13070650D02*
X11824943Y-13070650D01*
X11824943Y-13070650D02*
X11843991Y-13080174D01*
X11843991Y-13080174D02*
X11853515Y-13099222D01*
X11853515Y-13099222D02*
X11853515Y-13203984D01*
X12243991Y-12994460D02*
X12072563Y-13251603D01*
X12501134Y-13003984D02*
X12520182Y-13003984D01*
X12520182Y-13003984D02*
X12539229Y-13013508D01*
X12539229Y-13013508D02*
X12548753Y-13023031D01*
X12548753Y-13023031D02*
X12558277Y-13042079D01*
X12558277Y-13042079D02*
X12567801Y-13080174D01*
X12567801Y-13080174D02*
X12567801Y-13127793D01*
X12567801Y-13127793D02*
X12558277Y-13165888D01*
X12558277Y-13165888D02*
X12548753Y-13184936D01*
X12548753Y-13184936D02*
X12539229Y-13194460D01*
X12539229Y-13194460D02*
X12520182Y-13203984D01*
X12520182Y-13203984D02*
X12501134Y-13203984D01*
X12501134Y-13203984D02*
X12482086Y-13194460D01*
X12482086Y-13194460D02*
X12472563Y-13184936D01*
X12472563Y-13184936D02*
X12463039Y-13165888D01*
X12463039Y-13165888D02*
X12453515Y-13127793D01*
X12453515Y-13127793D02*
X12453515Y-13080174D01*
X12453515Y-13080174D02*
X12463039Y-13042079D01*
X12463039Y-13042079D02*
X12472563Y-13023031D01*
X12472563Y-13023031D02*
X12482086Y-13013508D01*
X12482086Y-13013508D02*
X12501134Y-13003984D01*
X12653515Y-13184936D02*
X12663039Y-13194460D01*
X12663039Y-13194460D02*
X12653515Y-13203984D01*
X12653515Y-13203984D02*
X12643991Y-13194460D01*
X12643991Y-13194460D02*
X12653515Y-13184936D01*
X12653515Y-13184936D02*
X12653515Y-13203984D01*
X12786848Y-13003984D02*
X12805896Y-13003984D01*
X12805896Y-13003984D02*
X12824944Y-13013508D01*
X12824944Y-13013508D02*
X12834467Y-13023031D01*
X12834467Y-13023031D02*
X12843991Y-13042079D01*
X12843991Y-13042079D02*
X12853515Y-13080174D01*
X12853515Y-13080174D02*
X12853515Y-13127793D01*
X12853515Y-13127793D02*
X12843991Y-13165888D01*
X12843991Y-13165888D02*
X12834467Y-13184936D01*
X12834467Y-13184936D02*
X12824944Y-13194460D01*
X12824944Y-13194460D02*
X12805896Y-13203984D01*
X12805896Y-13203984D02*
X12786848Y-13203984D01*
X12786848Y-13203984D02*
X12767801Y-13194460D01*
X12767801Y-13194460D02*
X12758277Y-13184936D01*
X12758277Y-13184936D02*
X12748753Y-13165888D01*
X12748753Y-13165888D02*
X12739229Y-13127793D01*
X12739229Y-13127793D02*
X12739229Y-13080174D01*
X12739229Y-13080174D02*
X12748753Y-13042079D01*
X12748753Y-13042079D02*
X12758277Y-13023031D01*
X12758277Y-13023031D02*
X12767801Y-13013508D01*
X12767801Y-13013508D02*
X12786848Y-13003984D01*
X13034467Y-13003984D02*
X12939229Y-13003984D01*
X12939229Y-13003984D02*
X12929706Y-13099222D01*
X12929706Y-13099222D02*
X12939229Y-13089698D01*
X12939229Y-13089698D02*
X12958277Y-13080174D01*
X12958277Y-13080174D02*
X13005896Y-13080174D01*
X13005896Y-13080174D02*
X13024944Y-13089698D01*
X13024944Y-13089698D02*
X13034467Y-13099222D01*
X13034467Y-13099222D02*
X13043991Y-13118269D01*
X13043991Y-13118269D02*
X13043991Y-13165888D01*
X13043991Y-13165888D02*
X13034467Y-13184936D01*
X13034467Y-13184936D02*
X13024944Y-13194460D01*
X13024944Y-13194460D02*
X13005896Y-13203984D01*
X13005896Y-13203984D02*
X12958277Y-13203984D01*
X12958277Y-13203984D02*
X12939229Y-13194460D01*
X12939229Y-13194460D02*
X12929706Y-13184936D01*
X13234467Y-13203984D02*
X13120182Y-13203984D01*
X13177325Y-13203984D02*
X13177325Y-13003984D01*
X13177325Y-13003984D02*
X13158277Y-13032555D01*
X13158277Y-13032555D02*
X13139229Y-13051603D01*
X13139229Y-13051603D02*
X13120182Y-13061127D01*
X13310658Y-13023031D02*
X13320182Y-13013508D01*
X13320182Y-13013508D02*
X13339229Y-13003984D01*
X13339229Y-13003984D02*
X13386848Y-13003984D01*
X13386848Y-13003984D02*
X13405896Y-13013508D01*
X13405896Y-13013508D02*
X13415420Y-13023031D01*
X13415420Y-13023031D02*
X13424944Y-13042079D01*
X13424944Y-13042079D02*
X13424944Y-13061127D01*
X13424944Y-13061127D02*
X13415420Y-13089698D01*
X13415420Y-13089698D02*
X13301134Y-13203984D01*
X13301134Y-13203984D02*
X13424944Y-13203984D01*
X13501134Y-13003984D02*
X13501134Y-13042079D01*
X13577325Y-13003984D02*
X13577325Y-13042079D01*
X13872563Y-13280174D02*
X13863039Y-13270650D01*
X13863039Y-13270650D02*
X13843991Y-13242079D01*
X13843991Y-13242079D02*
X13834468Y-13223031D01*
X13834468Y-13223031D02*
X13824944Y-13194460D01*
X13824944Y-13194460D02*
X13815420Y-13146841D01*
X13815420Y-13146841D02*
X13815420Y-13108746D01*
X13815420Y-13108746D02*
X13824944Y-13061127D01*
X13824944Y-13061127D02*
X13834468Y-13032555D01*
X13834468Y-13032555D02*
X13843991Y-13013508D01*
X13843991Y-13013508D02*
X13863039Y-12984936D01*
X13863039Y-12984936D02*
X13872563Y-12975412D01*
X14034468Y-13003984D02*
X13996372Y-13003984D01*
X13996372Y-13003984D02*
X13977325Y-13013508D01*
X13977325Y-13013508D02*
X13967801Y-13023031D01*
X13967801Y-13023031D02*
X13948753Y-13051603D01*
X13948753Y-13051603D02*
X13939229Y-13089698D01*
X13939229Y-13089698D02*
X13939229Y-13165888D01*
X13939229Y-13165888D02*
X13948753Y-13184936D01*
X13948753Y-13184936D02*
X13958277Y-13194460D01*
X13958277Y-13194460D02*
X13977325Y-13203984D01*
X13977325Y-13203984D02*
X14015420Y-13203984D01*
X14015420Y-13203984D02*
X14034468Y-13194460D01*
X14034468Y-13194460D02*
X14043991Y-13184936D01*
X14043991Y-13184936D02*
X14053515Y-13165888D01*
X14053515Y-13165888D02*
X14053515Y-13118269D01*
X14053515Y-13118269D02*
X14043991Y-13099222D01*
X14043991Y-13099222D02*
X14034468Y-13089698D01*
X14034468Y-13089698D02*
X14015420Y-13080174D01*
X14015420Y-13080174D02*
X13977325Y-13080174D01*
X13977325Y-13080174D02*
X13958277Y-13089698D01*
X13958277Y-13089698D02*
X13948753Y-13099222D01*
X13948753Y-13099222D02*
X13939229Y-13118269D01*
X14291610Y-13203984D02*
X14291610Y-13003984D01*
X14377325Y-13203984D02*
X14377325Y-13099222D01*
X14377325Y-13099222D02*
X14367801Y-13080174D01*
X14367801Y-13080174D02*
X14348753Y-13070650D01*
X14348753Y-13070650D02*
X14320182Y-13070650D01*
X14320182Y-13070650D02*
X14301134Y-13080174D01*
X14301134Y-13080174D02*
X14291610Y-13089698D01*
X14501134Y-13203984D02*
X14482087Y-13194460D01*
X14482087Y-13194460D02*
X14472563Y-13184936D01*
X14472563Y-13184936D02*
X14463039Y-13165888D01*
X14463039Y-13165888D02*
X14463039Y-13108746D01*
X14463039Y-13108746D02*
X14472563Y-13089698D01*
X14472563Y-13089698D02*
X14482087Y-13080174D01*
X14482087Y-13080174D02*
X14501134Y-13070650D01*
X14501134Y-13070650D02*
X14529706Y-13070650D01*
X14529706Y-13070650D02*
X14548753Y-13080174D01*
X14548753Y-13080174D02*
X14558277Y-13089698D01*
X14558277Y-13089698D02*
X14567801Y-13108746D01*
X14567801Y-13108746D02*
X14567801Y-13165888D01*
X14567801Y-13165888D02*
X14558277Y-13184936D01*
X14558277Y-13184936D02*
X14548753Y-13194460D01*
X14548753Y-13194460D02*
X14529706Y-13203984D01*
X14529706Y-13203984D02*
X14501134Y-13203984D01*
X14682087Y-13203984D02*
X14663039Y-13194460D01*
X14663039Y-13194460D02*
X14653515Y-13175412D01*
X14653515Y-13175412D02*
X14653515Y-13003984D01*
X14834468Y-13194460D02*
X14815420Y-13203984D01*
X14815420Y-13203984D02*
X14777325Y-13203984D01*
X14777325Y-13203984D02*
X14758277Y-13194460D01*
X14758277Y-13194460D02*
X14748753Y-13175412D01*
X14748753Y-13175412D02*
X14748753Y-13099222D01*
X14748753Y-13099222D02*
X14758277Y-13080174D01*
X14758277Y-13080174D02*
X14777325Y-13070650D01*
X14777325Y-13070650D02*
X14815420Y-13070650D01*
X14815420Y-13070650D02*
X14834468Y-13080174D01*
X14834468Y-13080174D02*
X14843991Y-13099222D01*
X14843991Y-13099222D02*
X14843991Y-13118269D01*
X14843991Y-13118269D02*
X14748753Y-13137317D01*
X14920182Y-13194460D02*
X14939230Y-13203984D01*
X14939230Y-13203984D02*
X14977325Y-13203984D01*
X14977325Y-13203984D02*
X14996372Y-13194460D01*
X14996372Y-13194460D02*
X15005896Y-13175412D01*
X15005896Y-13175412D02*
X15005896Y-13165888D01*
X15005896Y-13165888D02*
X14996372Y-13146841D01*
X14996372Y-13146841D02*
X14977325Y-13137317D01*
X14977325Y-13137317D02*
X14948753Y-13137317D01*
X14948753Y-13137317D02*
X14929706Y-13127793D01*
X14929706Y-13127793D02*
X14920182Y-13108746D01*
X14920182Y-13108746D02*
X14920182Y-13099222D01*
X14920182Y-13099222D02*
X14929706Y-13080174D01*
X14929706Y-13080174D02*
X14948753Y-13070650D01*
X14948753Y-13070650D02*
X14977325Y-13070650D01*
X14977325Y-13070650D02*
X14996372Y-13080174D01*
X15072563Y-13280174D02*
X15082087Y-13270650D01*
X15082087Y-13270650D02*
X15101134Y-13242079D01*
X15101134Y-13242079D02*
X15110658Y-13223031D01*
X15110658Y-13223031D02*
X15120182Y-13194460D01*
X15120182Y-13194460D02*
X15129706Y-13146841D01*
X15129706Y-13146841D02*
X15129706Y-13108746D01*
X15129706Y-13108746D02*
X15120182Y-13061127D01*
X15120182Y-13061127D02*
X15110658Y-13032555D01*
X15110658Y-13032555D02*
X15101134Y-13013508D01*
X15101134Y-13013508D02*
X15082087Y-12984936D01*
X15082087Y-12984936D02*
X15072563Y-12975412D01*
M02*
