%TF.GenerationSoftware,KiCad,Pcbnew,9.0.1*%
%TF.CreationDate,2025-04-10T10:54:34+02:00*%
%TF.ProjectId,mainboard_pcb,6d61696e-626f-4617-9264-5f7063622e6b,rev?*%
%TF.SameCoordinates,Original*%
%TF.FileFunction,Soldermask,Bot*%
%TF.FilePolarity,Negative*%
%FSLAX46Y46*%
G04 Gerber Fmt 4.6, Leading zero omitted, Abs format (unit mm)*
G04 Created by KiCad (PCBNEW 9.0.1) date 2025-04-10 10:54:34*
%MOMM*%
%LPD*%
G01*
G04 APERTURE LIST*
G04 Aperture macros list*
%AMRoundRect*
0 Rectangle with rounded corners*
0 $1 Rounding radius*
0 $2 $3 $4 $5 $6 $7 $8 $9 X,Y pos of 4 corners*
0 Add a 4 corners polygon primitive as box body*
4,1,4,$2,$3,$4,$5,$6,$7,$8,$9,$2,$3,0*
0 Add four circle primitives for the rounded corners*
1,1,$1+$1,$2,$3*
1,1,$1+$1,$4,$5*
1,1,$1+$1,$6,$7*
1,1,$1+$1,$8,$9*
0 Add four rect primitives between the rounded corners*
20,1,$1+$1,$2,$3,$4,$5,0*
20,1,$1+$1,$4,$5,$6,$7,0*
20,1,$1+$1,$6,$7,$8,$9,0*
20,1,$1+$1,$8,$9,$2,$3,0*%
G04 Aperture macros list end*
%ADD10C,3.200000*%
%ADD11R,1.800000X1.800000*%
%ADD12C,1.800000*%
%ADD13C,1.400000*%
%ADD14O,1.400000X1.400000*%
%ADD15R,1.600000X1.600000*%
%ADD16O,1.600000X1.600000*%
%ADD17RoundRect,0.250000X0.550000X0.550000X-0.550000X0.550000X-0.550000X-0.550000X0.550000X-0.550000X0*%
%ADD18C,1.600000*%
%ADD19RoundRect,0.250000X1.050000X-1.050000X1.050000X1.050000X-1.050000X1.050000X-1.050000X-1.050000X0*%
%ADD20C,2.600000*%
%ADD21RoundRect,0.250000X-0.845000X0.620000X-0.845000X-0.620000X0.845000X-0.620000X0.845000X0.620000X0*%
%ADD22O,2.190000X1.740000*%
%ADD23R,1.700000X1.700000*%
%ADD24C,1.700000*%
%ADD25RoundRect,0.250000X0.620000X0.845000X-0.620000X0.845000X-0.620000X-0.845000X0.620000X-0.845000X0*%
%ADD26O,1.740000X2.190000*%
%ADD27RoundRect,0.250000X-0.620000X-0.845000X0.620000X-0.845000X0.620000X0.845000X-0.620000X0.845000X0*%
G04 APERTURE END LIST*
D10*
%TO.C,H4*%
X108000000Y-106500000D03*
%TD*%
D11*
%TO.C,D7*%
X161640000Y-68215000D03*
D12*
X161640000Y-70755000D03*
%TD*%
D13*
%TO.C,R18*%
X205500000Y-52420000D03*
D14*
X205500000Y-57500000D03*
%TD*%
D13*
%TO.C,R20*%
X208000000Y-84120000D03*
D14*
X208000000Y-79040000D03*
%TD*%
D13*
%TO.C,R16*%
X208000000Y-64920000D03*
D14*
X208000000Y-70000000D03*
%TD*%
D15*
%TO.C,A1*%
X201240000Y-86500000D03*
D16*
X198700000Y-86500000D03*
X196160000Y-86500000D03*
X193620000Y-86500000D03*
X191080000Y-86500000D03*
X188540000Y-86500000D03*
X186000000Y-86500000D03*
X183460000Y-86500000D03*
X183460000Y-99200000D03*
X186000000Y-99200000D03*
X188540000Y-99200000D03*
X191080000Y-99200000D03*
X193620000Y-99200000D03*
X196160000Y-99200000D03*
X198700000Y-99200000D03*
X201240000Y-99200000D03*
%TD*%
D11*
%TO.C,D6*%
X194240000Y-81070000D03*
D12*
X194240000Y-83610000D03*
%TD*%
D13*
%TO.C,R10*%
X163868664Y-83793616D03*
D14*
X158788664Y-83793616D03*
%TD*%
D11*
%TO.C,D2*%
X191250000Y-70755000D03*
D12*
X191250000Y-68215000D03*
%TD*%
D13*
%TO.C,R17*%
X205500000Y-62460000D03*
D14*
X205500000Y-67540000D03*
%TD*%
D13*
%TO.C,R8*%
X197210000Y-67985000D03*
D14*
X202290000Y-67985000D03*
%TD*%
D17*
%TO.C,SW1*%
X218620000Y-65080000D03*
D18*
X218620000Y-62540000D03*
X218620000Y-60000000D03*
X218620000Y-57460000D03*
X211000000Y-57460000D03*
X211000000Y-60000000D03*
X211000000Y-62540000D03*
X211000000Y-65080000D03*
%TD*%
D13*
%TO.C,R14*%
X172600000Y-67985000D03*
D14*
X177680000Y-67985000D03*
%TD*%
D11*
%TO.C,D1*%
X186750000Y-68215000D03*
D12*
X186750000Y-70755000D03*
%TD*%
D19*
%TO.C,J3*%
X216172500Y-103500000D03*
D20*
X216172500Y-98500000D03*
%TD*%
D21*
%TO.C,J8*%
X110500000Y-83000000D03*
D22*
X110500000Y-85540000D03*
%TD*%
D11*
%TO.C,D5*%
X198740000Y-83610000D03*
D12*
X198740000Y-81070000D03*
%TD*%
D23*
%TO.C,J13*%
X117300000Y-46220000D03*
D24*
X117300000Y-48760000D03*
X117300000Y-51300000D03*
X117300000Y-53840000D03*
X117300000Y-56380000D03*
X117300000Y-58920000D03*
X117300000Y-61460000D03*
X117300000Y-64000000D03*
X117300000Y-66540000D03*
X117300000Y-69080000D03*
X117300000Y-71620000D03*
X117300000Y-74160000D03*
X117300000Y-76700000D03*
X117300000Y-79240000D03*
X117300000Y-81780000D03*
%TD*%
D18*
%TO.C,C8*%
X156000000Y-104000000D03*
X156000000Y-99000000D03*
%TD*%
D21*
%TO.C,J9*%
X110500000Y-76500000D03*
D22*
X110500000Y-79040000D03*
%TD*%
D11*
%TO.C,D3*%
X174590000Y-83610000D03*
D12*
X174590000Y-81070000D03*
%TD*%
D13*
%TO.C,R13*%
X172600000Y-70485000D03*
D14*
X177680000Y-70485000D03*
%TD*%
D11*
%TO.C,D8*%
X166140000Y-70755000D03*
D12*
X166140000Y-68215000D03*
%TD*%
D18*
%TO.C,C4*%
X200350000Y-105340000D03*
X196850000Y-105340000D03*
%TD*%
%TO.C,C6*%
X160250000Y-46625000D03*
X163750000Y-46625000D03*
%TD*%
%TO.C,C2*%
X180500000Y-47000000D03*
X180500000Y-52000000D03*
%TD*%
D11*
%TO.C,D4*%
X170090000Y-81070000D03*
D12*
X170090000Y-83610000D03*
%TD*%
D13*
%TO.C,R12*%
X187780000Y-83840000D03*
D14*
X182700000Y-83840000D03*
%TD*%
D25*
%TO.C,J5*%
X167810000Y-104227001D03*
D26*
X165270000Y-104227001D03*
X162730000Y-104227001D03*
X160190000Y-104227001D03*
%TD*%
D21*
%TO.C,J10*%
X110500000Y-70000000D03*
D22*
X110500000Y-72540000D03*
%TD*%
D15*
%TO.C,A4*%
X159250000Y-65325000D03*
D16*
X161790000Y-65325000D03*
X164330000Y-65325000D03*
X166870000Y-65325000D03*
X169410000Y-65325000D03*
X171950000Y-65325000D03*
X174490000Y-65325000D03*
X177030000Y-65325000D03*
X177030000Y-52625000D03*
X174490000Y-52625000D03*
X171950000Y-52625000D03*
X169410000Y-52625000D03*
X166870000Y-52625000D03*
X164330000Y-52625000D03*
X161790000Y-52625000D03*
X159250000Y-52625000D03*
%TD*%
D17*
%TO.C,SW2*%
X218620000Y-91580000D03*
D18*
X218620000Y-89040000D03*
X218620000Y-86500000D03*
X218620000Y-83960000D03*
X211000000Y-83960000D03*
X211000000Y-86500000D03*
X211000000Y-89040000D03*
X211000000Y-91580000D03*
%TD*%
D13*
%TO.C,R11*%
X187780000Y-81340000D03*
D14*
X182700000Y-81340000D03*
%TD*%
D23*
%TO.C,U1*%
X122300000Y-46220000D03*
D24*
X122300000Y-48760000D03*
X122300000Y-51300000D03*
X122300000Y-53840000D03*
X122300000Y-56380000D03*
X122300000Y-58920000D03*
X122300000Y-61460000D03*
X122300000Y-64000000D03*
X122300000Y-66540000D03*
X122300000Y-69080000D03*
X122300000Y-71620000D03*
X122300000Y-74160000D03*
X122300000Y-76700000D03*
X122300000Y-79240000D03*
X122300000Y-81780000D03*
X147700000Y-81780000D03*
X147700000Y-79240000D03*
X147700000Y-76700000D03*
X147700000Y-74160000D03*
X147700000Y-71620000D03*
X147700000Y-69080000D03*
X147700000Y-66540000D03*
X147700000Y-64000000D03*
X147700000Y-61460000D03*
X147700000Y-58920000D03*
X147700000Y-56380000D03*
X147700000Y-53840000D03*
X147700000Y-51300000D03*
X147700000Y-48760000D03*
D23*
X147700000Y-46220000D03*
%TD*%
D21*
%TO.C,J7*%
X110500000Y-89500000D03*
D22*
X110500000Y-92040000D03*
%TD*%
D18*
%TO.C,C9*%
X209500000Y-50000000D03*
X204500000Y-50000000D03*
%TD*%
D15*
%TO.C,A2*%
X183860000Y-65325000D03*
D16*
X186400000Y-65325000D03*
X188940000Y-65325000D03*
X191480000Y-65325000D03*
X194020000Y-65325000D03*
X196560000Y-65325000D03*
X199100000Y-65325000D03*
X201640000Y-65325000D03*
X201640000Y-52625000D03*
X199100000Y-52625000D03*
X196560000Y-52625000D03*
X194020000Y-52625000D03*
X191480000Y-52625000D03*
X188940000Y-52625000D03*
X186400000Y-52625000D03*
X183860000Y-52625000D03*
%TD*%
D23*
%TO.C,J12*%
X152800000Y-46220000D03*
D24*
X152800000Y-48760000D03*
X152800000Y-51300000D03*
X152800000Y-53840000D03*
X152800000Y-56380000D03*
X152800000Y-58920000D03*
X152800000Y-61460000D03*
X152800000Y-64000000D03*
X152800000Y-66540000D03*
X152800000Y-69080000D03*
X152800000Y-71620000D03*
X152800000Y-74160000D03*
X152800000Y-76700000D03*
X152800000Y-79240000D03*
X152800000Y-81780000D03*
%TD*%
D13*
%TO.C,R19*%
X208000000Y-54920000D03*
D14*
X208000000Y-60000000D03*
%TD*%
D13*
%TO.C,R3*%
X111500000Y-55040000D03*
D14*
X111500000Y-49960000D03*
%TD*%
D13*
%TO.C,R21*%
X205500000Y-86620000D03*
D14*
X205500000Y-81540000D03*
%TD*%
D25*
%TO.C,J4*%
X192540000Y-104200000D03*
D26*
X190000000Y-104200000D03*
X187460000Y-104200000D03*
X184920000Y-104200000D03*
%TD*%
D13*
%TO.C,R9*%
X163865164Y-81354252D03*
D14*
X158785164Y-81354252D03*
%TD*%
D10*
%TO.C,H2*%
X206500000Y-45000000D03*
%TD*%
D13*
%TO.C,R7*%
X197210000Y-70485000D03*
D14*
X202290000Y-70485000D03*
%TD*%
D23*
%TO.C,J11*%
X131540000Y-97500000D03*
D18*
X129000000Y-97500000D03*
X126460000Y-97500000D03*
X123920000Y-97500000D03*
X121380000Y-97500000D03*
X118840000Y-97500000D03*
%TD*%
D10*
%TO.C,H3*%
X108000000Y-45000000D03*
%TD*%
D27*
%TO.C,J2*%
X192420000Y-47625000D03*
D26*
X194960000Y-47625000D03*
X197500000Y-47625000D03*
X200040000Y-47625000D03*
%TD*%
D13*
%TO.C,R23*%
X205500000Y-96620000D03*
D14*
X205500000Y-91540000D03*
%TD*%
D18*
%TO.C,C3*%
X184500000Y-46485000D03*
X188000000Y-46485000D03*
%TD*%
D13*
%TO.C,R4*%
X114000000Y-55040000D03*
D14*
X114000000Y-49960000D03*
%TD*%
D13*
%TO.C,R5*%
X111500000Y-64540000D03*
D14*
X111500000Y-59460000D03*
%TD*%
D13*
%TO.C,R22*%
X208000000Y-94120000D03*
D14*
X208000000Y-89040000D03*
%TD*%
D18*
%TO.C,C5*%
X175740000Y-105340000D03*
X172240000Y-105340000D03*
%TD*%
%TO.C,C7*%
X180000000Y-102500000D03*
X180000000Y-97500000D03*
%TD*%
D19*
%TO.C,J14*%
X216500000Y-77000000D03*
D20*
X216500000Y-72000000D03*
%TD*%
D10*
%TO.C,H1*%
X206500000Y-106500000D03*
%TD*%
D15*
%TO.C,A3*%
X177000000Y-86500000D03*
D16*
X174460000Y-86500000D03*
X171920000Y-86500000D03*
X169380000Y-86500000D03*
X166840000Y-86500000D03*
X164300000Y-86500000D03*
X161760000Y-86500000D03*
X159220000Y-86500000D03*
X159220000Y-99200000D03*
X161760000Y-99200000D03*
X164300000Y-99200000D03*
X166840000Y-99200000D03*
X169380000Y-99200000D03*
X171920000Y-99200000D03*
X174460000Y-99200000D03*
X177000000Y-99200000D03*
%TD*%
D19*
%TO.C,J1*%
X216672500Y-51500000D03*
D20*
X216672500Y-46500000D03*
%TD*%
D13*
%TO.C,R6*%
X114000000Y-64540000D03*
D14*
X114000000Y-59460000D03*
%TD*%
D27*
%TO.C,J6*%
X168420000Y-47625000D03*
D26*
X170960000Y-47625000D03*
X173500000Y-47625000D03*
X176040000Y-47625000D03*
%TD*%
M02*
