%TF.GenerationSoftware,KiCad,Pcbnew,9.0.1*%
%TF.CreationDate,2025-04-10T10:54:34+02:00*%
%TF.ProjectId,mainboard_pcb,6d61696e-626f-4617-9264-5f7063622e6b,rev?*%
%TF.SameCoordinates,Original*%
%TF.FileFunction,Copper,L1,Top*%
%TF.FilePolarity,Positive*%
%FSLAX46Y46*%
G04 Gerber Fmt 4.6, Leading zero omitted, Abs format (unit mm)*
G04 Created by KiCad (PCBNEW 9.0.1) date 2025-04-10 10:54:34*
%MOMM*%
%LPD*%
G01*
G04 APERTURE LIST*
G04 Aperture macros list*
%AMRoundRect*
0 Rectangle with rounded corners*
0 $1 Rounding radius*
0 $2 $3 $4 $5 $6 $7 $8 $9 X,Y pos of 4 corners*
0 Add a 4 corners polygon primitive as box body*
4,1,4,$2,$3,$4,$5,$6,$7,$8,$9,$2,$3,0*
0 Add four circle primitives for the rounded corners*
1,1,$1+$1,$2,$3*
1,1,$1+$1,$4,$5*
1,1,$1+$1,$6,$7*
1,1,$1+$1,$8,$9*
0 Add four rect primitives between the rounded corners*
20,1,$1+$1,$2,$3,$4,$5,0*
20,1,$1+$1,$4,$5,$6,$7,0*
20,1,$1+$1,$6,$7,$8,$9,0*
20,1,$1+$1,$8,$9,$2,$3,0*%
G04 Aperture macros list end*
%TA.AperFunction,ComponentPad*%
%ADD10R,1.800000X1.800000*%
%TD*%
%TA.AperFunction,ComponentPad*%
%ADD11C,1.800000*%
%TD*%
%TA.AperFunction,ComponentPad*%
%ADD12C,1.400000*%
%TD*%
%TA.AperFunction,ComponentPad*%
%ADD13O,1.400000X1.400000*%
%TD*%
%TA.AperFunction,ComponentPad*%
%ADD14R,1.600000X1.600000*%
%TD*%
%TA.AperFunction,ComponentPad*%
%ADD15O,1.600000X1.600000*%
%TD*%
%TA.AperFunction,ComponentPad*%
%ADD16RoundRect,0.250000X0.550000X0.550000X-0.550000X0.550000X-0.550000X-0.550000X0.550000X-0.550000X0*%
%TD*%
%TA.AperFunction,ComponentPad*%
%ADD17C,1.600000*%
%TD*%
%TA.AperFunction,ComponentPad*%
%ADD18RoundRect,0.250000X1.050000X-1.050000X1.050000X1.050000X-1.050000X1.050000X-1.050000X-1.050000X0*%
%TD*%
%TA.AperFunction,ComponentPad*%
%ADD19C,2.600000*%
%TD*%
%TA.AperFunction,ComponentPad*%
%ADD20RoundRect,0.250000X-0.845000X0.620000X-0.845000X-0.620000X0.845000X-0.620000X0.845000X0.620000X0*%
%TD*%
%TA.AperFunction,ComponentPad*%
%ADD21O,2.190000X1.740000*%
%TD*%
%TA.AperFunction,ComponentPad*%
%ADD22R,1.700000X1.700000*%
%TD*%
%TA.AperFunction,ComponentPad*%
%ADD23C,1.700000*%
%TD*%
%TA.AperFunction,ComponentPad*%
%ADD24RoundRect,0.250000X0.620000X0.845000X-0.620000X0.845000X-0.620000X-0.845000X0.620000X-0.845000X0*%
%TD*%
%TA.AperFunction,ComponentPad*%
%ADD25O,1.740000X2.190000*%
%TD*%
%TA.AperFunction,ComponentPad*%
%ADD26RoundRect,0.250000X-0.620000X-0.845000X0.620000X-0.845000X0.620000X0.845000X-0.620000X0.845000X0*%
%TD*%
%TA.AperFunction,Conductor*%
%ADD27C,0.400000*%
%TD*%
%TA.AperFunction,Conductor*%
%ADD28C,0.500000*%
%TD*%
%TA.AperFunction,Conductor*%
%ADD29C,1.000000*%
%TD*%
%TA.AperFunction,Conductor*%
%ADD30C,1.300000*%
%TD*%
%TA.AperFunction,Conductor*%
%ADD31C,2.000000*%
%TD*%
G04 APERTURE END LIST*
D10*
%TO.P,D7,1,K*%
%TO.N,GND*%
X161640000Y-68215000D03*
D11*
%TO.P,D7,2,A*%
%TO.N,Net-(D7-A)*%
X161640000Y-70755000D03*
%TD*%
D12*
%TO.P,R18,1*%
%TO.N,GND*%
X205500000Y-52420000D03*
D13*
%TO.P,R18,2*%
%TO.N,Net-(A4-MS1)*%
X205500000Y-57500000D03*
%TD*%
D12*
%TO.P,R20,1*%
%TO.N,Net-(A1-MS1)*%
X208000000Y-84120000D03*
D13*
%TO.P,R20,2*%
%TO.N,GND*%
X208000000Y-79040000D03*
%TD*%
D12*
%TO.P,R16,1*%
%TO.N,Net-(A2-MS2)*%
X208000000Y-64920000D03*
D13*
%TO.P,R16,2*%
%TO.N,GND*%
X208000000Y-70000000D03*
%TD*%
D14*
%TO.P,A1,1,~{EN}*%
%TO.N,ENABLE_N*%
X201240000Y-86500000D03*
D15*
%TO.P,A1,2,MS1*%
%TO.N,Net-(A1-MS1)*%
X198700000Y-86500000D03*
%TO.P,A1,3,MS2*%
%TO.N,Net-(A1-MS2)*%
X196160000Y-86500000D03*
%TO.P,A1,4,UART_1*%
%TO.N,unconnected-(A1-UART_1-Pad4)*%
X193620000Y-86500000D03*
%TO.P,A1,5,UART_2*%
%TO.N,unconnected-(A1-UART_2-Pad5)*%
X191080000Y-86500000D03*
%TO.P,A1,6,CLK*%
%TO.N,GND*%
X188540000Y-86500000D03*
%TO.P,A1,7,STEP*%
%TO.N,MY1_STEP*%
X186000000Y-86500000D03*
%TO.P,A1,8,DIR*%
%TO.N,MY1_DIR*%
X183460000Y-86500000D03*
%TO.P,A1,9,GND*%
%TO.N,GND*%
X183460000Y-99200000D03*
%TO.P,A1,10,VDD*%
%TO.N,+3.3V*%
X186000000Y-99200000D03*
%TO.P,A1,11,2B*%
%TO.N,Net-(A1-2B)*%
X188540000Y-99200000D03*
%TO.P,A1,12,1B*%
%TO.N,Net-(A1-1B)*%
X191080000Y-99200000D03*
%TO.P,A1,13,1A*%
%TO.N,Net-(A1-1A)*%
X193620000Y-99200000D03*
%TO.P,A1,14,2A*%
%TO.N,Net-(A1-2A)*%
X196160000Y-99200000D03*
%TO.P,A1,15,GND*%
%TO.N,GND*%
X198700000Y-99200000D03*
%TO.P,A1,16,VMOT*%
%TO.N,+12V*%
X201240000Y-99200000D03*
%TD*%
D10*
%TO.P,D6,1,K*%
%TO.N,GND*%
X194240000Y-81070000D03*
D11*
%TO.P,D6,2,A*%
%TO.N,Net-(D6-A)*%
X194240000Y-83610000D03*
%TD*%
D12*
%TO.P,R10,1*%
%TO.N,Net-(D4-A)*%
X163868664Y-83793616D03*
D13*
%TO.P,R10,2*%
%TO.N,MX_DIR*%
X158788664Y-83793616D03*
%TD*%
D10*
%TO.P,D2,1,K*%
%TO.N,GND*%
X191250000Y-70755000D03*
D11*
%TO.P,D2,2,A*%
%TO.N,Net-(D2-A)*%
X191250000Y-68215000D03*
%TD*%
D12*
%TO.P,R17,1*%
%TO.N,Net-(A2-MS1)*%
X205500000Y-62460000D03*
D13*
%TO.P,R17,2*%
%TO.N,GND*%
X205500000Y-67540000D03*
%TD*%
D12*
%TO.P,R8,1*%
%TO.N,Net-(D2-A)*%
X197210000Y-67985000D03*
D13*
%TO.P,R8,2*%
%TO.N,MY0_DIR*%
X202290000Y-67985000D03*
%TD*%
D16*
%TO.P,SW1,1*%
%TO.N,+3.3V*%
X218620000Y-65080000D03*
D17*
%TO.P,SW1,2*%
X218620000Y-62540000D03*
%TO.P,SW1,3*%
X218620000Y-60000000D03*
%TO.P,SW1,4*%
X218620000Y-57460000D03*
%TO.P,SW1,5*%
%TO.N,Net-(A4-MS1)*%
X211000000Y-57460000D03*
%TO.P,SW1,6*%
%TO.N,Net-(A4-MS2)*%
X211000000Y-60000000D03*
%TO.P,SW1,7*%
%TO.N,Net-(A2-MS1)*%
X211000000Y-62540000D03*
%TO.P,SW1,8*%
%TO.N,Net-(A2-MS2)*%
X211000000Y-65080000D03*
%TD*%
D12*
%TO.P,R14,1*%
%TO.N,Net-(D8-A)*%
X172600000Y-67985000D03*
D13*
%TO.P,R14,2*%
%TO.N,MZ_DIR*%
X177680000Y-67985000D03*
%TD*%
D10*
%TO.P,D1,1,K*%
%TO.N,GND*%
X186750000Y-68215000D03*
D11*
%TO.P,D1,2,A*%
%TO.N,Net-(D1-A)*%
X186750000Y-70755000D03*
%TD*%
D18*
%TO.P,J3,1,Pin_1*%
%TO.N,GND*%
X216172500Y-103500000D03*
D19*
%TO.P,J3,2,Pin_2*%
%TO.N,+12V*%
X216172500Y-98500000D03*
%TD*%
D20*
%TO.P,J8,1,Pin_1*%
%TO.N,+3.3V*%
X110500000Y-83000000D03*
D21*
%TO.P,J8,2,Pin_2*%
%TO.N,Net-(J13-Pin_3)*%
X110500000Y-85540000D03*
%TD*%
D10*
%TO.P,D5,1,K*%
%TO.N,GND*%
X198740000Y-83610000D03*
D11*
%TO.P,D5,2,A*%
%TO.N,Net-(D5-A)*%
X198740000Y-81070000D03*
%TD*%
D22*
%TO.P,J13,1,Pin_1*%
%TO.N,Net-(J13-Pin_1)*%
X117300000Y-46220000D03*
D23*
%TO.P,J13,2,Pin_2*%
%TO.N,Net-(J13-Pin_2)*%
X117300000Y-48760000D03*
%TO.P,J13,3,Pin_3*%
%TO.N,Net-(J13-Pin_3)*%
X117300000Y-51300000D03*
%TO.P,J13,4,Pin_4*%
%TO.N,Net-(J13-Pin_4)*%
X117300000Y-53840000D03*
%TO.P,J13,5,Pin_5*%
%TO.N,Net-(J10-Pin_2)*%
X117300000Y-56380000D03*
%TO.P,J13,6,Pin_6*%
%TO.N,MY0_DIR*%
X117300000Y-58920000D03*
%TO.P,J13,7,Pin_7*%
%TO.N,MY1_STEP*%
X117300000Y-61460000D03*
%TO.P,J13,8,Pin_8*%
%TO.N,MY1_DIR*%
X117300000Y-64000000D03*
%TO.P,J13,9,Pin_9*%
%TO.N,MX_STEP*%
X117300000Y-66540000D03*
%TO.P,J13,10,Pin_10*%
%TO.N,MX_DIR*%
X117300000Y-69080000D03*
%TO.P,J13,11,Pin_11*%
%TO.N,SD_CLK*%
X117300000Y-71620000D03*
%TO.P,J13,12,Pin_12*%
%TO.N,SD_MISO*%
X117300000Y-74160000D03*
%TO.P,J13,13,Pin_13*%
%TO.N,SD_MOSI*%
X117300000Y-76700000D03*
%TO.P,J13,14,Pin_14*%
%TO.N,GND*%
X117300000Y-79240000D03*
%TO.P,J13,15,Pin_15*%
%TO.N,+3.3V*%
X117300000Y-81780000D03*
%TD*%
D17*
%TO.P,C8,1*%
%TO.N,GND*%
X156000000Y-104000000D03*
%TO.P,C8,2*%
%TO.N,+3.3V*%
X156000000Y-99000000D03*
%TD*%
D20*
%TO.P,J9,1,Pin_1*%
%TO.N,+3.3V*%
X110500000Y-76500000D03*
D21*
%TO.P,J9,2,Pin_2*%
%TO.N,Net-(J13-Pin_4)*%
X110500000Y-79040000D03*
%TD*%
D10*
%TO.P,D3,1,K*%
%TO.N,GND*%
X174590000Y-83610000D03*
D11*
%TO.P,D3,2,A*%
%TO.N,Net-(D3-A)*%
X174590000Y-81070000D03*
%TD*%
D12*
%TO.P,R13,1*%
%TO.N,Net-(D7-A)*%
X172600000Y-70485000D03*
D13*
%TO.P,R13,2*%
%TO.N,MZ_STEP*%
X177680000Y-70485000D03*
%TD*%
D10*
%TO.P,D8,1,K*%
%TO.N,GND*%
X166140000Y-70755000D03*
D11*
%TO.P,D8,2,A*%
%TO.N,Net-(D8-A)*%
X166140000Y-68215000D03*
%TD*%
D17*
%TO.P,C4,1*%
%TO.N,+12V*%
X200350000Y-105340000D03*
%TO.P,C4,2*%
%TO.N,GND*%
X196850000Y-105340000D03*
%TD*%
%TO.P,C6,1*%
%TO.N,+12V*%
X160250000Y-46625000D03*
%TO.P,C6,2*%
%TO.N,GND*%
X163750000Y-46625000D03*
%TD*%
%TO.P,C2,1*%
%TO.N,GND*%
X180500000Y-47000000D03*
%TO.P,C2,2*%
%TO.N,+3.3V*%
X180500000Y-52000000D03*
%TD*%
D10*
%TO.P,D4,1,K*%
%TO.N,GND*%
X170090000Y-81070000D03*
D11*
%TO.P,D4,2,A*%
%TO.N,Net-(D4-A)*%
X170090000Y-83610000D03*
%TD*%
D12*
%TO.P,R12,1*%
%TO.N,Net-(D6-A)*%
X187780000Y-83840000D03*
D13*
%TO.P,R12,2*%
%TO.N,MY1_DIR*%
X182700000Y-83840000D03*
%TD*%
D24*
%TO.P,J5,1,Pin_1*%
%TO.N,Net-(A3-2A)*%
X167810000Y-104227001D03*
D25*
%TO.P,J5,2,Pin_2*%
%TO.N,Net-(A3-1A)*%
X165270000Y-104227001D03*
%TO.P,J5,3,Pin_3*%
%TO.N,Net-(A3-1B)*%
X162730000Y-104227001D03*
%TO.P,J5,4,Pin_4*%
%TO.N,Net-(A3-2B)*%
X160190000Y-104227001D03*
%TD*%
D20*
%TO.P,J10,1,Pin_1*%
%TO.N,+3.3V*%
X110500000Y-70000000D03*
D21*
%TO.P,J10,2,Pin_2*%
%TO.N,Net-(J10-Pin_2)*%
X110500000Y-72540000D03*
%TD*%
D14*
%TO.P,A4,1,~{EN}*%
%TO.N,ENABLE_N*%
X159250000Y-65325000D03*
D15*
%TO.P,A4,2,MS1*%
%TO.N,Net-(A4-MS1)*%
X161790000Y-65325000D03*
%TO.P,A4,3,MS2*%
%TO.N,Net-(A4-MS2)*%
X164330000Y-65325000D03*
%TO.P,A4,4,UART_1*%
%TO.N,unconnected-(A4-UART_1-Pad4)*%
X166870000Y-65325000D03*
%TO.P,A4,5,UART_2*%
%TO.N,unconnected-(A4-UART_2-Pad5)*%
X169410000Y-65325000D03*
%TO.P,A4,6,CLK*%
%TO.N,GND*%
X171950000Y-65325000D03*
%TO.P,A4,7,STEP*%
%TO.N,MZ_STEP*%
X174490000Y-65325000D03*
%TO.P,A4,8,DIR*%
%TO.N,MZ_DIR*%
X177030000Y-65325000D03*
%TO.P,A4,9,GND*%
%TO.N,GND*%
X177030000Y-52625000D03*
%TO.P,A4,10,VDD*%
%TO.N,+3.3V*%
X174490000Y-52625000D03*
%TO.P,A4,11,2B*%
%TO.N,Net-(A4-2B)*%
X171950000Y-52625000D03*
%TO.P,A4,12,1B*%
%TO.N,Net-(A4-1B)*%
X169410000Y-52625000D03*
%TO.P,A4,13,1A*%
%TO.N,Net-(A4-1A)*%
X166870000Y-52625000D03*
%TO.P,A4,14,2A*%
%TO.N,Net-(A4-2A)*%
X164330000Y-52625000D03*
%TO.P,A4,15,GND*%
%TO.N,GND*%
X161790000Y-52625000D03*
%TO.P,A4,16,VMOT*%
%TO.N,+12V*%
X159250000Y-52625000D03*
%TD*%
D16*
%TO.P,SW2,1*%
%TO.N,+3.3V*%
X218620000Y-91580000D03*
D17*
%TO.P,SW2,2*%
X218620000Y-89040000D03*
%TO.P,SW2,3*%
X218620000Y-86500000D03*
%TO.P,SW2,4*%
X218620000Y-83960000D03*
%TO.P,SW2,5*%
%TO.N,Net-(A1-MS1)*%
X211000000Y-83960000D03*
%TO.P,SW2,6*%
%TO.N,Net-(A1-MS2)*%
X211000000Y-86500000D03*
%TO.P,SW2,7*%
%TO.N,Net-(A3-MS1)*%
X211000000Y-89040000D03*
%TO.P,SW2,8*%
%TO.N,Net-(A3-MS2)*%
X211000000Y-91580000D03*
%TD*%
D12*
%TO.P,R11,1*%
%TO.N,Net-(D5-A)*%
X187780000Y-81340000D03*
D13*
%TO.P,R11,2*%
%TO.N,MY1_STEP*%
X182700000Y-81340000D03*
%TD*%
D22*
%TO.P,U1,1,EN*%
%TO.N,Net-(J13-Pin_1)*%
X122300000Y-46220000D03*
D23*
%TO.P,U1,2,VP/D36*%
%TO.N,Net-(J13-Pin_2)*%
X122300000Y-48760000D03*
%TO.P,U1,3,VN/D39*%
%TO.N,Net-(J13-Pin_3)*%
X122300000Y-51300000D03*
%TO.P,U1,4,D34*%
%TO.N,Net-(J13-Pin_4)*%
X122300000Y-53840000D03*
%TO.P,U1,5,D35*%
%TO.N,Net-(J10-Pin_2)*%
X122300000Y-56380000D03*
%TO.P,U1,6,D32*%
%TO.N,MY0_DIR*%
X122300000Y-58920000D03*
%TO.P,U1,7,D33*%
%TO.N,MY1_STEP*%
X122300000Y-61460000D03*
%TO.P,U1,8,D25*%
%TO.N,MY1_DIR*%
X122300000Y-64000000D03*
%TO.P,U1,9,D26*%
%TO.N,MX_STEP*%
X122300000Y-66540000D03*
%TO.P,U1,10,D27*%
%TO.N,MX_DIR*%
X122300000Y-69080000D03*
%TO.P,U1,11,D14*%
%TO.N,SD_CLK*%
X122300000Y-71620000D03*
%TO.P,U1,12,D12*%
%TO.N,SD_MISO*%
X122300000Y-74160000D03*
%TO.P,U1,13,D13*%
%TO.N,SD_MOSI*%
X122300000Y-76700000D03*
%TO.P,U1,14,GND*%
%TO.N,GND*%
X122300000Y-79240000D03*
%TO.P,U1,15,VIN*%
%TO.N,+3.3V*%
X122300000Y-81780000D03*
%TO.P,U1,16,3V3*%
%TO.N,Net-(J12-Pin_15)*%
X147700000Y-81780000D03*
%TO.P,U1,17,GND*%
%TO.N,GND*%
X147700000Y-79240000D03*
%TO.P,U1,18,D15*%
%TO.N,SD_CS*%
X147700000Y-76700000D03*
%TO.P,U1,19,D2*%
%TO.N,Net-(J12-Pin_12)*%
X147700000Y-74160000D03*
%TO.P,U1,20,D4*%
%TO.N,Net-(J12-Pin_11)*%
X147700000Y-71620000D03*
%TO.P,U1,21,RX2*%
%TO.N,Net-(J12-Pin_10)*%
X147700000Y-69080000D03*
%TO.P,U1,22,TX2*%
%TO.N,Net-(J12-Pin_9)*%
X147700000Y-66540000D03*
%TO.P,U1,23,D5*%
%TO.N,MY0_STEP*%
X147700000Y-64000000D03*
%TO.P,U1,24,D18*%
%TO.N,MZ_DIR*%
X147700000Y-61460000D03*
%TO.P,U1,25,D19*%
%TO.N,MZ_STEP*%
X147700000Y-58920000D03*
%TO.P,U1,26,D21*%
%TO.N,ENABLE_N*%
X147700000Y-56380000D03*
%TO.P,U1,27,RX0*%
%TO.N,Net-(J12-Pin_4)*%
X147700000Y-53840000D03*
%TO.P,U1,28,TX0*%
%TO.N,Net-(J12-Pin_3)*%
X147700000Y-51300000D03*
%TO.P,U1,29,D22*%
%TO.N,Net-(J12-Pin_2)*%
X147700000Y-48760000D03*
D22*
%TO.P,U1,30,D23*%
%TO.N,Net-(J12-Pin_1)*%
X147700000Y-46220000D03*
%TD*%
D20*
%TO.P,J7,1,Pin_1*%
%TO.N,+3.3V*%
X110500000Y-89500000D03*
D21*
%TO.P,J7,2,Pin_2*%
%TO.N,Net-(J13-Pin_2)*%
X110500000Y-92040000D03*
%TD*%
D17*
%TO.P,C9,1*%
%TO.N,GND*%
X209500000Y-50000000D03*
%TO.P,C9,2*%
%TO.N,+3.3V*%
X204500000Y-50000000D03*
%TD*%
D14*
%TO.P,A2,1,~{EN}*%
%TO.N,ENABLE_N*%
X183860000Y-65325000D03*
D15*
%TO.P,A2,2,MS1*%
%TO.N,Net-(A2-MS1)*%
X186400000Y-65325000D03*
%TO.P,A2,3,MS2*%
%TO.N,Net-(A2-MS2)*%
X188940000Y-65325000D03*
%TO.P,A2,4,UART_1*%
%TO.N,unconnected-(A2-UART_1-Pad4)*%
X191480000Y-65325000D03*
%TO.P,A2,5,UART_2*%
%TO.N,unconnected-(A2-UART_2-Pad5)*%
X194020000Y-65325000D03*
%TO.P,A2,6,CLK*%
%TO.N,GND*%
X196560000Y-65325000D03*
%TO.P,A2,7,STEP*%
%TO.N,MY0_STEP*%
X199100000Y-65325000D03*
%TO.P,A2,8,DIR*%
%TO.N,MY0_DIR*%
X201640000Y-65325000D03*
%TO.P,A2,9,GND*%
%TO.N,GND*%
X201640000Y-52625000D03*
%TO.P,A2,10,VDD*%
%TO.N,+3.3V*%
X199100000Y-52625000D03*
%TO.P,A2,11,2B*%
%TO.N,Net-(A2-2B)*%
X196560000Y-52625000D03*
%TO.P,A2,12,1B*%
%TO.N,Net-(A2-1B)*%
X194020000Y-52625000D03*
%TO.P,A2,13,1A*%
%TO.N,Net-(A2-1A)*%
X191480000Y-52625000D03*
%TO.P,A2,14,2A*%
%TO.N,Net-(A2-2A)*%
X188940000Y-52625000D03*
%TO.P,A2,15,GND*%
%TO.N,GND*%
X186400000Y-52625000D03*
%TO.P,A2,16,VMOT*%
%TO.N,+12V*%
X183860000Y-52625000D03*
%TD*%
D22*
%TO.P,J12,1,Pin_1*%
%TO.N,Net-(J12-Pin_1)*%
X152800000Y-46220000D03*
D23*
%TO.P,J12,2,Pin_2*%
%TO.N,Net-(J12-Pin_2)*%
X152800000Y-48760000D03*
%TO.P,J12,3,Pin_3*%
%TO.N,Net-(J12-Pin_3)*%
X152800000Y-51300000D03*
%TO.P,J12,4,Pin_4*%
%TO.N,Net-(J12-Pin_4)*%
X152800000Y-53840000D03*
%TO.P,J12,5,Pin_5*%
%TO.N,ENABLE_N*%
X152800000Y-56380000D03*
%TO.P,J12,6,Pin_6*%
%TO.N,MZ_STEP*%
X152800000Y-58920000D03*
%TO.P,J12,7,Pin_7*%
%TO.N,MZ_DIR*%
X152800000Y-61460000D03*
%TO.P,J12,8,Pin_8*%
%TO.N,MY0_STEP*%
X152800000Y-64000000D03*
%TO.P,J12,9,Pin_9*%
%TO.N,Net-(J12-Pin_9)*%
X152800000Y-66540000D03*
%TO.P,J12,10,Pin_10*%
%TO.N,Net-(J12-Pin_10)*%
X152800000Y-69080000D03*
%TO.P,J12,11,Pin_11*%
%TO.N,Net-(J12-Pin_11)*%
X152800000Y-71620000D03*
%TO.P,J12,12,Pin_12*%
%TO.N,Net-(J12-Pin_12)*%
X152800000Y-74160000D03*
%TO.P,J12,13,Pin_13*%
%TO.N,SD_CS*%
X152800000Y-76700000D03*
%TO.P,J12,14,Pin_14*%
%TO.N,GND*%
X152800000Y-79240000D03*
%TO.P,J12,15,Pin_15*%
%TO.N,Net-(J12-Pin_15)*%
X152800000Y-81780000D03*
%TD*%
D12*
%TO.P,R19,1*%
%TO.N,GND*%
X208000000Y-54920000D03*
D13*
%TO.P,R19,2*%
%TO.N,Net-(A4-MS2)*%
X208000000Y-60000000D03*
%TD*%
D12*
%TO.P,R3,1*%
%TO.N,GND*%
X111500000Y-55040000D03*
D13*
%TO.P,R3,2*%
%TO.N,Net-(J13-Pin_2)*%
X111500000Y-49960000D03*
%TD*%
D12*
%TO.P,R21,1*%
%TO.N,Net-(A1-MS2)*%
X205500000Y-86620000D03*
D13*
%TO.P,R21,2*%
%TO.N,GND*%
X205500000Y-81540000D03*
%TD*%
D24*
%TO.P,J4,1,Pin_1*%
%TO.N,Net-(A1-2A)*%
X192540000Y-104200000D03*
D25*
%TO.P,J4,2,Pin_2*%
%TO.N,Net-(A1-1A)*%
X190000000Y-104200000D03*
%TO.P,J4,3,Pin_3*%
%TO.N,Net-(A1-1B)*%
X187460000Y-104200000D03*
%TO.P,J4,4,Pin_4*%
%TO.N,Net-(A1-2B)*%
X184920000Y-104200000D03*
%TD*%
D12*
%TO.P,R9,1*%
%TO.N,Net-(D3-A)*%
X163865164Y-81354252D03*
D13*
%TO.P,R9,2*%
%TO.N,MX_STEP*%
X158785164Y-81354252D03*
%TD*%
D12*
%TO.P,R7,1*%
%TO.N,Net-(D1-A)*%
X197210000Y-70485000D03*
D13*
%TO.P,R7,2*%
%TO.N,MY0_STEP*%
X202290000Y-70485000D03*
%TD*%
D22*
%TO.P,J11,1,Pin_1*%
%TO.N,GND*%
X131540000Y-97500000D03*
D17*
%TO.P,J11,2,Pin_2*%
%TO.N,+3.3V*%
X129000000Y-97500000D03*
%TO.P,J11,3,Pin_3*%
%TO.N,SD_MISO*%
X126460000Y-97500000D03*
%TO.P,J11,4,Pin_4*%
%TO.N,SD_MOSI*%
X123920000Y-97500000D03*
%TO.P,J11,5,Pin_5*%
%TO.N,SD_CLK*%
X121380000Y-97500000D03*
%TO.P,J11,6,Pin_6*%
%TO.N,SD_CS*%
X118840000Y-97500000D03*
%TD*%
D26*
%TO.P,J2,1,Pin_1*%
%TO.N,Net-(A2-2A)*%
X192420000Y-47625000D03*
D25*
%TO.P,J2,2,Pin_2*%
%TO.N,Net-(A2-1A)*%
X194960000Y-47625000D03*
%TO.P,J2,3,Pin_3*%
%TO.N,Net-(A2-1B)*%
X197500000Y-47625000D03*
%TO.P,J2,4,Pin_4*%
%TO.N,Net-(A2-2B)*%
X200040000Y-47625000D03*
%TD*%
D12*
%TO.P,R23,1*%
%TO.N,GND*%
X205500000Y-96620000D03*
D13*
%TO.P,R23,2*%
%TO.N,Net-(A3-MS2)*%
X205500000Y-91540000D03*
%TD*%
D17*
%TO.P,C3,1*%
%TO.N,+12V*%
X184500000Y-46485000D03*
%TO.P,C3,2*%
%TO.N,GND*%
X188000000Y-46485000D03*
%TD*%
D12*
%TO.P,R4,1*%
%TO.N,GND*%
X114000000Y-55040000D03*
D13*
%TO.P,R4,2*%
%TO.N,Net-(J13-Pin_3)*%
X114000000Y-49960000D03*
%TD*%
D12*
%TO.P,R5,1*%
%TO.N,GND*%
X111500000Y-64540000D03*
D13*
%TO.P,R5,2*%
%TO.N,Net-(J13-Pin_4)*%
X111500000Y-59460000D03*
%TD*%
D12*
%TO.P,R22,1*%
%TO.N,GND*%
X208000000Y-94120000D03*
D13*
%TO.P,R22,2*%
%TO.N,Net-(A3-MS1)*%
X208000000Y-89040000D03*
%TD*%
D17*
%TO.P,C5,1*%
%TO.N,+12V*%
X175740000Y-105340000D03*
%TO.P,C5,2*%
%TO.N,GND*%
X172240000Y-105340000D03*
%TD*%
%TO.P,C7,1*%
%TO.N,GND*%
X180000000Y-102500000D03*
%TO.P,C7,2*%
%TO.N,+3.3V*%
X180000000Y-97500000D03*
%TD*%
D18*
%TO.P,J14,1,Pin_1*%
%TO.N,GND*%
X216500000Y-77000000D03*
D19*
%TO.P,J14,2,Pin_2*%
%TO.N,+3.3V*%
X216500000Y-72000000D03*
%TD*%
D14*
%TO.P,A3,1,~{EN}*%
%TO.N,ENABLE_N*%
X177000000Y-86500000D03*
D15*
%TO.P,A3,2,MS1*%
%TO.N,Net-(A3-MS1)*%
X174460000Y-86500000D03*
%TO.P,A3,3,MS2*%
%TO.N,Net-(A3-MS2)*%
X171920000Y-86500000D03*
%TO.P,A3,4,UART_1*%
%TO.N,unconnected-(A3-UART_1-Pad4)*%
X169380000Y-86500000D03*
%TO.P,A3,5,UART_2*%
%TO.N,unconnected-(A3-UART_2-Pad5)*%
X166840000Y-86500000D03*
%TO.P,A3,6,CLK*%
%TO.N,GND*%
X164300000Y-86500000D03*
%TO.P,A3,7,STEP*%
%TO.N,MX_STEP*%
X161760000Y-86500000D03*
%TO.P,A3,8,DIR*%
%TO.N,MX_DIR*%
X159220000Y-86500000D03*
%TO.P,A3,9,GND*%
%TO.N,GND*%
X159220000Y-99200000D03*
%TO.P,A3,10,VDD*%
%TO.N,+3.3V*%
X161760000Y-99200000D03*
%TO.P,A3,11,2B*%
%TO.N,Net-(A3-2B)*%
X164300000Y-99200000D03*
%TO.P,A3,12,1B*%
%TO.N,Net-(A3-1B)*%
X166840000Y-99200000D03*
%TO.P,A3,13,1A*%
%TO.N,Net-(A3-1A)*%
X169380000Y-99200000D03*
%TO.P,A3,14,2A*%
%TO.N,Net-(A3-2A)*%
X171920000Y-99200000D03*
%TO.P,A3,15,GND*%
%TO.N,GND*%
X174460000Y-99200000D03*
%TO.P,A3,16,VMOT*%
%TO.N,+12V*%
X177000000Y-99200000D03*
%TD*%
D18*
%TO.P,J1,1,Pin_1*%
%TO.N,GND*%
X216672500Y-51500000D03*
D19*
%TO.P,J1,2,Pin_2*%
%TO.N,+12V*%
X216672500Y-46500000D03*
%TD*%
D12*
%TO.P,R6,1*%
%TO.N,GND*%
X114000000Y-64540000D03*
D13*
%TO.P,R6,2*%
%TO.N,Net-(J10-Pin_2)*%
X114000000Y-59460000D03*
%TD*%
D26*
%TO.P,J6,1,Pin_1*%
%TO.N,Net-(A4-2A)*%
X168420000Y-47625000D03*
D25*
%TO.P,J6,2,Pin_2*%
%TO.N,Net-(A4-1A)*%
X170960000Y-47625000D03*
%TO.P,J6,3,Pin_3*%
%TO.N,Net-(A4-1B)*%
X173500000Y-47625000D03*
%TO.P,J6,4,Pin_4*%
%TO.N,Net-(A4-2B)*%
X176040000Y-47625000D03*
%TD*%
D27*
%TO.N,ENABLE_N*%
X183860000Y-65325000D02*
X185244273Y-66709273D01*
X197386818Y-66709273D02*
X197849000Y-66247091D01*
X197849000Y-66247091D02*
X197849000Y-64478909D01*
X197849000Y-64478909D02*
X198827909Y-63500000D01*
X185244273Y-66709273D02*
X197386818Y-66709273D01*
X198827909Y-63500000D02*
X202042091Y-63500000D01*
X204000000Y-65457909D02*
X204000000Y-67851818D01*
X202042091Y-63500000D02*
X204000000Y-65457909D01*
X204000000Y-67851818D02*
X205000000Y-68851818D01*
X205000000Y-68851818D02*
X205000000Y-78500000D01*
D28*
%TO.N,Net-(A2-MS2)*%
X188940000Y-65325000D02*
X191765000Y-62500000D01*
X191765000Y-62500000D02*
X202500000Y-62500000D01*
X204920000Y-64920000D02*
X208000000Y-64920000D01*
X202500000Y-62500000D02*
X204920000Y-64920000D01*
%TO.N,Net-(A2-MS1)*%
X186400000Y-65325000D02*
X190225000Y-61500000D01*
X190225000Y-61500000D02*
X204540000Y-61500000D01*
X204540000Y-61500000D02*
X205500000Y-62460000D01*
D29*
%TO.N,+3.3V*%
X163500000Y-97500000D02*
X184300000Y-97500000D01*
X184300000Y-97500000D02*
X185300000Y-96500000D01*
X185300000Y-96500000D02*
X201610000Y-96500000D01*
X201610000Y-96500000D02*
X203610000Y-98500000D01*
X203610000Y-98500000D02*
X208500000Y-98500000D01*
X208500000Y-98500000D02*
X213500000Y-93500000D01*
D30*
%TO.N,+12V*%
X177000000Y-99200000D02*
X177000000Y-105000000D01*
X176660000Y-105340000D02*
X177000000Y-105000000D01*
X175740000Y-105340000D02*
X176660000Y-105340000D01*
X177000000Y-105000000D02*
X177000000Y-106600000D01*
X177000000Y-106600000D02*
X178400000Y-108000000D01*
X159250000Y-52625000D02*
X159250000Y-47625000D01*
X159250000Y-47625000D02*
X160250000Y-46625000D01*
X183860000Y-52625000D02*
X183860000Y-47125000D01*
X183860000Y-47125000D02*
X184500000Y-46485000D01*
D31*
X160250000Y-46625000D02*
X163375000Y-43500000D01*
X163375000Y-43500000D02*
X187485000Y-43500000D01*
X187485000Y-43500000D02*
X188985000Y-42000000D01*
X216672500Y-46500000D02*
X212172500Y-42000000D01*
X212172500Y-42000000D02*
X188985000Y-42000000D01*
X188985000Y-42000000D02*
X184500000Y-46485000D01*
X216672500Y-46500000D02*
X222000000Y-51827500D01*
X222000000Y-92672500D02*
X216172500Y-98500000D01*
X222000000Y-51827500D02*
X222000000Y-92672500D01*
X216172500Y-98500000D02*
X212500000Y-98500000D01*
X212500000Y-98500000D02*
X210000000Y-101000000D01*
X210000000Y-101000000D02*
X204690000Y-101000000D01*
X204690000Y-101000000D02*
X200350000Y-105340000D01*
D30*
%TO.N,Net-(A1-2A)*%
X192540000Y-104200000D02*
X192540000Y-102820000D01*
X192540000Y-102820000D02*
X196160000Y-99200000D01*
%TO.N,Net-(A1-1A)*%
X190000000Y-104200000D02*
X190000000Y-102820000D01*
X190000000Y-102820000D02*
X193620000Y-99200000D01*
%TO.N,Net-(A1-1B)*%
X187460000Y-104200000D02*
X187460000Y-102820000D01*
X187460000Y-102820000D02*
X191080000Y-99200000D01*
%TO.N,Net-(A1-2B)*%
X184920000Y-104200000D02*
X184920000Y-102820000D01*
X184920000Y-102820000D02*
X188540000Y-99200000D01*
%TO.N,Net-(A3-2A)*%
X167810000Y-104227001D02*
X167810000Y-103310000D01*
X167810000Y-103310000D02*
X171920000Y-99200000D01*
%TO.N,Net-(A3-1A)*%
X165270000Y-104227001D02*
X165270000Y-103310000D01*
X165270000Y-103310000D02*
X169380000Y-99200000D01*
%TO.N,Net-(A3-1B)*%
X162730000Y-104227001D02*
X162730000Y-103310000D01*
X162730000Y-103310000D02*
X166840000Y-99200000D01*
%TO.N,Net-(A3-2B)*%
X160190000Y-104227001D02*
X160190000Y-103310000D01*
X160190000Y-103310000D02*
X164300000Y-99200000D01*
%TO.N,Net-(A2-2B)*%
X196560000Y-52625000D02*
X200040000Y-49145000D01*
X200040000Y-49145000D02*
X200040000Y-47625000D01*
%TO.N,Net-(A2-1B)*%
X194020000Y-52625000D02*
X197500000Y-49145000D01*
X197500000Y-49145000D02*
X197500000Y-47625000D01*
%TO.N,Net-(A2-1A)*%
X191480000Y-52625000D02*
X194960000Y-49145000D01*
X194960000Y-49145000D02*
X194960000Y-47625000D01*
%TO.N,Net-(A2-2A)*%
X188940000Y-52625000D02*
X188940000Y-51105000D01*
X188940000Y-51105000D02*
X192420000Y-47625000D01*
%TO.N,Net-(A4-2B)*%
X171950000Y-52625000D02*
X176040000Y-48535000D01*
X176040000Y-48535000D02*
X176040000Y-47625000D01*
%TO.N,Net-(A4-1B)*%
X169410000Y-52625000D02*
X173500000Y-48535000D01*
X173500000Y-48535000D02*
X173500000Y-47625000D01*
%TO.N,Net-(A4-1A)*%
X166870000Y-52625000D02*
X170960000Y-48535000D01*
X170960000Y-48535000D02*
X170960000Y-47625000D01*
%TO.N,Net-(A4-2A)*%
X164330000Y-52625000D02*
X164330000Y-51715000D01*
X164330000Y-51715000D02*
X168420000Y-47625000D01*
D29*
%TO.N,Net-(A4-1A)*%
X166946844Y-52625000D02*
X166870000Y-52625000D01*
D28*
%TO.N,GND*%
X147700000Y-79240000D02*
X152800000Y-79240000D01*
X117300000Y-79240000D02*
X122300000Y-79240000D01*
D31*
%TO.N,+12V*%
X201240000Y-99200000D02*
X201240000Y-104450000D01*
X178400000Y-108000000D02*
X197690000Y-108000000D01*
D29*
X201240000Y-104450000D02*
X200350000Y-105340000D01*
D31*
X197690000Y-108000000D02*
X200350000Y-105340000D01*
D27*
%TO.N,ENABLE_N*%
X192351680Y-85351680D02*
X192351680Y-87648320D01*
X212500000Y-83500000D02*
X211500000Y-82500000D01*
X212500000Y-84500000D02*
X212500000Y-83500000D01*
X211789000Y-85211000D02*
X212500000Y-84500000D01*
D28*
X159250000Y-60830000D02*
X154800000Y-56380000D01*
D27*
X192000000Y-88000000D02*
X178500000Y-88000000D01*
D28*
X159250000Y-65325000D02*
X160501000Y-66576000D01*
D27*
X192118859Y-85118859D02*
X192351680Y-85351680D01*
D28*
X174272909Y-63000000D02*
X181535000Y-63000000D01*
X173239000Y-64033909D02*
X174272909Y-63000000D01*
X181535000Y-63000000D02*
X183860000Y-65325000D01*
D27*
X186000000Y-80996120D02*
X186000000Y-84000000D01*
X187118859Y-85118859D02*
X192118859Y-85118859D01*
D28*
X147700000Y-56380000D02*
X152800000Y-56380000D01*
D27*
X209000000Y-82500000D02*
X205000000Y-78500000D01*
X209500000Y-85211000D02*
X211789000Y-85211000D01*
X201240000Y-86500000D02*
X202271000Y-85469000D01*
X209242000Y-85469000D02*
X209500000Y-85211000D01*
D28*
X160501000Y-66576000D02*
X172506182Y-66576000D01*
D27*
X202271000Y-85469000D02*
X209242000Y-85469000D01*
X211500000Y-82500000D02*
X209000000Y-82500000D01*
X192351680Y-87648320D02*
X192000000Y-88000000D01*
X188496120Y-78500000D02*
X186000000Y-80996120D01*
X205000000Y-78500000D02*
X188496120Y-78500000D01*
D28*
X173239000Y-65843182D02*
X173239000Y-64033909D01*
X154800000Y-56380000D02*
X152800000Y-56380000D01*
X159250000Y-65325000D02*
X159250000Y-60830000D01*
X172506182Y-66576000D02*
X173239000Y-65843182D01*
X159155000Y-65420000D02*
X159250000Y-65325000D01*
D27*
X178500000Y-88000000D02*
X177000000Y-86500000D01*
X186000000Y-84000000D02*
X187118859Y-85118859D01*
D29*
%TO.N,+3.3V*%
X215420000Y-91580000D02*
X213500000Y-93500000D01*
X157500000Y-97500000D02*
X138020000Y-97500000D01*
D28*
X110500000Y-89500000D02*
X113000000Y-87000000D01*
X181515000Y-55500000D02*
X180500000Y-55500000D01*
D29*
X206500000Y-50000000D02*
X204500000Y-50000000D01*
D28*
X130000000Y-100000000D02*
X135520000Y-100000000D01*
X108750000Y-74750000D02*
X110500000Y-76500000D01*
D29*
X157500000Y-97500000D02*
X156000000Y-99000000D01*
X217870000Y-55485000D02*
X211985000Y-55485000D01*
D28*
X161540000Y-99200000D02*
X163240000Y-97500000D01*
D29*
X218620000Y-91580000D02*
X215420000Y-91580000D01*
D28*
X113000000Y-87000000D02*
X120129000Y-94129000D01*
X135520000Y-100000000D02*
X138020000Y-97500000D01*
X174490000Y-52625000D02*
X177365000Y-55500000D01*
D29*
X211985000Y-55485000D02*
X206500000Y-50000000D01*
D28*
X129000000Y-97500000D02*
X129000000Y-99000000D01*
D29*
X214000000Y-74500000D02*
X216500000Y-72000000D01*
X218620000Y-57460000D02*
X218620000Y-56235000D01*
X204500000Y-50000000D02*
X201725000Y-50000000D01*
D28*
X113000000Y-85500000D02*
X110500000Y-83000000D01*
X112500000Y-81000000D02*
X110500000Y-83000000D01*
D29*
X218620000Y-69880000D02*
X216500000Y-72000000D01*
D28*
X108750000Y-71750000D02*
X108750000Y-74750000D01*
X117300000Y-81780000D02*
X122300000Y-81780000D01*
X218620000Y-91580000D02*
X218620000Y-83960000D01*
X113000000Y-87000000D02*
X113000000Y-85500000D01*
X196225000Y-55500000D02*
X199100000Y-52625000D01*
D29*
X218620000Y-65080000D02*
X218620000Y-69880000D01*
X214000000Y-93000000D02*
X214000000Y-74500000D01*
X218620000Y-57460000D02*
X218620000Y-65080000D01*
D28*
X112500000Y-78500000D02*
X112500000Y-81000000D01*
X184300000Y-97500000D02*
X186000000Y-99200000D01*
X120129000Y-94129000D02*
X120129000Y-98879000D01*
D29*
X213500000Y-93500000D02*
X214000000Y-93000000D01*
D28*
X120129000Y-98879000D02*
X121250000Y-100000000D01*
X110500000Y-70000000D02*
X108750000Y-71750000D01*
D29*
X201725000Y-50000000D02*
X199100000Y-52625000D01*
D28*
X163240000Y-97500000D02*
X163500000Y-97500000D01*
X177365000Y-55500000D02*
X180500000Y-55500000D01*
X180500000Y-52000000D02*
X180500000Y-55500000D01*
D29*
X138020000Y-97500000D02*
X122300000Y-81780000D01*
X218620000Y-56235000D02*
X217870000Y-55485000D01*
D28*
X129000000Y-99000000D02*
X130000000Y-100000000D01*
X181515000Y-55500000D02*
X196225000Y-55500000D01*
X121250000Y-100000000D02*
X130000000Y-100000000D01*
D29*
X163500000Y-97500000D02*
X157500000Y-97500000D01*
D28*
X110500000Y-76500000D02*
X112500000Y-78500000D01*
%TO.N,MY0_STEP*%
X155500000Y-70491364D02*
X160508636Y-75500000D01*
X153600000Y-64000000D02*
X155500000Y-65900000D01*
X202290000Y-70485000D02*
X199100000Y-67295000D01*
X197275000Y-75500000D02*
X202290000Y-70485000D01*
X155500000Y-65900000D02*
X155500000Y-70491364D01*
X152800000Y-64000000D02*
X153600000Y-64000000D01*
X160508636Y-75500000D02*
X197275000Y-75500000D01*
X199100000Y-67295000D02*
X199100000Y-65325000D01*
X152800000Y-64000000D02*
X147700000Y-64000000D01*
%TO.N,Net-(A1-MS1)*%
X198700000Y-86500000D02*
X201080000Y-84120000D01*
X201080000Y-84120000D02*
X208000000Y-84120000D01*
X208000000Y-84120000D02*
X210840000Y-84120000D01*
X210840000Y-84120000D02*
X211000000Y-83960000D01*
D29*
%TO.N,Net-(A1-1A)*%
X193620000Y-99200000D02*
X193503156Y-99200000D01*
D28*
%TO.N,MY0_DIR*%
X199250000Y-76485000D02*
X158015000Y-76485000D01*
X158015000Y-76485000D02*
X154500000Y-80000000D01*
X154000000Y-84000000D02*
X147380000Y-84000000D01*
X154500000Y-83500000D02*
X154000000Y-84000000D01*
X203750000Y-71985000D02*
X199250000Y-76485000D01*
X203750000Y-69445000D02*
X203750000Y-71985000D01*
X154500000Y-80000000D02*
X154500000Y-83500000D01*
X202290000Y-67985000D02*
X203750000Y-69445000D01*
X147380000Y-84000000D02*
X122300000Y-58920000D01*
X122300000Y-58920000D02*
X117300000Y-58920000D01*
X201640000Y-67335000D02*
X202290000Y-67985000D01*
X201640000Y-65325000D02*
X201640000Y-67335000D01*
%TO.N,Net-(D1-A)*%
X188480000Y-72485000D02*
X186750000Y-70755000D01*
X195210000Y-72485000D02*
X188480000Y-72485000D01*
X197210000Y-70485000D02*
X195210000Y-72485000D01*
%TO.N,Net-(D2-A)*%
X191480000Y-67985000D02*
X191250000Y-68215000D01*
X197210000Y-67985000D02*
X191480000Y-67985000D01*
%TO.N,Net-(J10-Pin_2)*%
X110500000Y-72540000D02*
X115500000Y-67540000D01*
X117300000Y-56380000D02*
X122300000Y-56380000D01*
X114220000Y-59460000D02*
X117300000Y-56380000D01*
X114000000Y-59460000D02*
X114220000Y-59460000D01*
X115500000Y-67540000D02*
X115500000Y-60960000D01*
X115500000Y-60960000D02*
X114000000Y-59460000D01*
D29*
%TO.N,Net-(A1-1B)*%
X191080000Y-99200000D02*
X191080000Y-99360000D01*
%TO.N,Net-(A1-2B)*%
X188540000Y-99200000D02*
X188540000Y-99360000D01*
D28*
%TO.N,MY1_DIR*%
X183460000Y-84600000D02*
X182700000Y-83840000D01*
X144300000Y-86000000D02*
X122300000Y-64000000D01*
X182700000Y-83840000D02*
X181090000Y-83840000D01*
X181090000Y-83840000D02*
X175605000Y-78355000D01*
X122300000Y-64000000D02*
X117300000Y-64000000D01*
X175605000Y-78355000D02*
X158990000Y-78355000D01*
X183460000Y-86500000D02*
X183460000Y-84600000D01*
X156500000Y-84500000D02*
X155000000Y-86000000D01*
X155000000Y-86000000D02*
X144300000Y-86000000D01*
X156500000Y-80845000D02*
X156500000Y-84500000D01*
X158990000Y-78355000D02*
X156500000Y-80845000D01*
D29*
%TO.N,Net-(A2-2B)*%
X196560000Y-52625000D02*
X196560000Y-52440000D01*
%TO.N,Net-(A2-1A)*%
X191480000Y-52625000D02*
X191480000Y-52520000D01*
X191480000Y-52625000D02*
X191556844Y-52625000D01*
D28*
%TO.N,Net-(A2-MS1)*%
X210920000Y-62460000D02*
X211000000Y-62540000D01*
X205500000Y-62460000D02*
X210920000Y-62460000D01*
%TO.N,MY1_STEP*%
X117300000Y-61460000D02*
X122300000Y-61460000D01*
X184500000Y-83140000D02*
X184500000Y-85000000D01*
X158490000Y-77355000D02*
X155500000Y-80345000D01*
X154500000Y-85000000D02*
X145840000Y-85000000D01*
X177105000Y-77355000D02*
X158490000Y-77355000D01*
X182700000Y-81340000D02*
X184500000Y-83140000D01*
X186000000Y-86500000D02*
X184500000Y-85000000D01*
X181090000Y-81340000D02*
X177105000Y-77355000D01*
X155500000Y-84000000D02*
X154500000Y-85000000D01*
X155500000Y-80345000D02*
X155500000Y-84000000D01*
X181090000Y-81340000D02*
X182700000Y-81340000D01*
X145840000Y-85000000D02*
X122300000Y-61460000D01*
D29*
%TO.N,Net-(A2-1B)*%
X194020000Y-52625000D02*
X194020000Y-52427500D01*
D28*
%TO.N,Net-(A2-MS2)*%
X210840000Y-64920000D02*
X211000000Y-65080000D01*
X208000000Y-64920000D02*
X210840000Y-64920000D01*
D29*
%TO.N,Net-(A3-1A)*%
X169300000Y-99200000D02*
X169380000Y-99200000D01*
D28*
%TO.N,MX_DIR*%
X157720000Y-88000000D02*
X141220000Y-88000000D01*
X159220000Y-86500000D02*
X157720000Y-88000000D01*
X122300000Y-69080000D02*
X117300000Y-69080000D01*
X159220000Y-84224952D02*
X158788664Y-83793616D01*
X141220000Y-88000000D02*
X122300000Y-69080000D01*
X159220000Y-86500000D02*
X159220000Y-84224952D01*
%TO.N,MX_STEP*%
X158785164Y-81354252D02*
X157500000Y-82639416D01*
X155500000Y-87000000D02*
X142760000Y-87000000D01*
X157500000Y-85000000D02*
X155500000Y-87000000D01*
X161760000Y-86500000D02*
X161760000Y-84329088D01*
X161760000Y-84329088D02*
X158785164Y-81354252D01*
X142760000Y-87000000D02*
X122300000Y-66540000D01*
X117300000Y-66540000D02*
X122300000Y-66540000D01*
X157500000Y-82639416D02*
X157500000Y-85000000D01*
%TO.N,Net-(A4-MS2)*%
X169655000Y-60000000D02*
X208000000Y-60000000D01*
X164330000Y-65325000D02*
X169655000Y-60000000D01*
X208000000Y-60000000D02*
X211000000Y-60000000D01*
%TO.N,MZ_STEP*%
X157500000Y-61620000D02*
X154800000Y-58920000D01*
X157500000Y-69500000D02*
X157500000Y-61620000D01*
X154800000Y-58920000D02*
X152800000Y-58920000D01*
X152800000Y-58920000D02*
X147700000Y-58920000D01*
X161485000Y-73485000D02*
X157500000Y-69500000D01*
X174680000Y-73485000D02*
X161485000Y-73485000D01*
X174490000Y-67295000D02*
X177680000Y-70485000D01*
X174490000Y-65325000D02*
X174490000Y-67295000D01*
X177680000Y-70485000D02*
X174680000Y-73485000D01*
%TO.N,Net-(A4-MS1)*%
X210960000Y-57500000D02*
X211000000Y-57460000D01*
X205500000Y-57500000D02*
X169615000Y-57500000D01*
X169615000Y-57500000D02*
X161790000Y-65325000D01*
X205500000Y-57500000D02*
X210960000Y-57500000D01*
D29*
%TO.N,Net-(A4-1B)*%
X169410000Y-52625000D02*
X169410000Y-52425000D01*
%TO.N,Net-(A4-2B)*%
X171950000Y-52625000D02*
X171950000Y-52425000D01*
D28*
%TO.N,MZ_DIR*%
X156500000Y-70000000D02*
X156500000Y-63160000D01*
X147700000Y-61460000D02*
X152800000Y-61460000D01*
X156500000Y-63160000D02*
X154800000Y-61460000D01*
X177680000Y-67985000D02*
X179140000Y-69445000D01*
X177030000Y-67335000D02*
X177680000Y-67985000D01*
X179140000Y-69445000D02*
X179140000Y-71568880D01*
X176223880Y-74485000D02*
X160985000Y-74485000D01*
X160985000Y-74485000D02*
X156500000Y-70000000D01*
X177030000Y-65325000D02*
X177030000Y-67335000D01*
X154800000Y-61460000D02*
X152800000Y-61460000D01*
X179140000Y-71568880D02*
X176223880Y-74485000D01*
%TO.N,Net-(D3-A)*%
X165879416Y-79340000D02*
X163865164Y-81354252D01*
X172860000Y-79340000D02*
X165879416Y-79340000D01*
X174590000Y-81070000D02*
X172860000Y-79340000D01*
%TO.N,Net-(D4-A)*%
X163868664Y-83793616D02*
X169906384Y-83793616D01*
X169446384Y-83793616D02*
X169630000Y-83610000D01*
%TO.N,Net-(D5-A)*%
X197010000Y-79340000D02*
X189780000Y-79340000D01*
X198740000Y-81070000D02*
X197010000Y-79340000D01*
X189780000Y-79340000D02*
X187780000Y-81340000D01*
%TO.N,Net-(D6-A)*%
X187780000Y-83840000D02*
X194010000Y-83840000D01*
X194010000Y-83840000D02*
X194240000Y-83610000D01*
%TO.N,Net-(D7-A)*%
X170600000Y-72485000D02*
X172600000Y-70485000D01*
X163370000Y-72485000D02*
X170600000Y-72485000D01*
X161640000Y-70755000D02*
X163370000Y-72485000D01*
%TO.N,Net-(D8-A)*%
X172370000Y-68215000D02*
X172600000Y-67985000D01*
X166140000Y-68215000D02*
X172370000Y-68215000D01*
%TO.N,Net-(J13-Pin_2)*%
X105799000Y-87339000D02*
X110500000Y-92040000D01*
X111500000Y-49960000D02*
X105799000Y-55661000D01*
X111500000Y-49960000D02*
X113460000Y-48000000D01*
X113460000Y-48000000D02*
X116540000Y-48000000D01*
X116540000Y-48000000D02*
X117300000Y-48760000D01*
X122300000Y-48760000D02*
X117300000Y-48760000D01*
X105799000Y-55661000D02*
X105799000Y-87339000D01*
%TO.N,Net-(J13-Pin_4)*%
X111680000Y-59460000D02*
X111500000Y-59460000D01*
X107750000Y-63210000D02*
X111500000Y-59460000D01*
X122300000Y-53840000D02*
X117300000Y-53840000D01*
X110500000Y-79040000D02*
X107750000Y-76290000D01*
X107750000Y-76290000D02*
X107750000Y-63210000D01*
X117300000Y-53840000D02*
X111680000Y-59460000D01*
%TO.N,Net-(J13-Pin_3)*%
X115960000Y-49960000D02*
X117300000Y-51300000D01*
X106750000Y-81790000D02*
X110500000Y-85540000D01*
X114000000Y-49960000D02*
X115960000Y-49960000D01*
X117300000Y-51300000D02*
X117300000Y-51700000D01*
X117300000Y-51300000D02*
X122300000Y-51300000D01*
X114000000Y-49960000D02*
X106750000Y-57210000D01*
X106750000Y-57210000D02*
X106750000Y-81790000D01*
%TO.N,Net-(J12-Pin_1)*%
X147700000Y-46220000D02*
X152800000Y-46220000D01*
%TO.N,Net-(J12-Pin_12)*%
X152800000Y-74160000D02*
X147700000Y-74160000D01*
%TO.N,SD_CS*%
X114500000Y-44500000D02*
X123500000Y-44500000D01*
X123500000Y-44500000D02*
X124000000Y-45000000D01*
X142700000Y-76700000D02*
X147700000Y-76700000D01*
X113866824Y-97500000D02*
X104750000Y-88383176D01*
X124000000Y-58000000D02*
X142700000Y-76700000D01*
X104750000Y-54250000D02*
X114500000Y-44500000D01*
X124000000Y-45000000D02*
X124000000Y-58000000D01*
X118840000Y-97500000D02*
X113866824Y-97500000D01*
X147700000Y-76700000D02*
X152800000Y-76700000D01*
X104750000Y-88383176D02*
X104750000Y-54250000D01*
%TO.N,Net-(J12-Pin_10)*%
X152800000Y-69080000D02*
X147700000Y-69080000D01*
%TO.N,Net-(J12-Pin_11)*%
X147700000Y-71620000D02*
X152800000Y-71620000D01*
%TO.N,SD_MOSI*%
X123920000Y-91920000D02*
X123920000Y-97500000D01*
X116000000Y-84000000D02*
X123920000Y-91920000D01*
X117300000Y-76700000D02*
X122300000Y-76700000D01*
X122300000Y-76800000D02*
X122300000Y-76700000D01*
X117300000Y-76700000D02*
X116000000Y-78000000D01*
X116000000Y-78000000D02*
X116000000Y-84000000D01*
%TO.N,Net-(J12-Pin_3)*%
X147700000Y-51300000D02*
X152800000Y-51300000D01*
%TO.N,Net-(J12-Pin_4)*%
X152800000Y-53840000D02*
X147700000Y-53840000D01*
%TO.N,Net-(J12-Pin_2)*%
X152800000Y-48760000D02*
X147700000Y-48760000D01*
%TO.N,Net-(J12-Pin_15)*%
X147700000Y-81780000D02*
X152800000Y-81780000D01*
%TO.N,Net-(J12-Pin_9)*%
X147700000Y-66540000D02*
X152800000Y-66540000D01*
%TO.N,Net-(J13-Pin_1)*%
X117300000Y-46220000D02*
X122300000Y-46220000D01*
%TO.N,SD_MISO*%
X123500000Y-99000000D02*
X124960000Y-99000000D01*
X117300000Y-74160000D02*
X122300000Y-74160000D01*
X122300000Y-74160000D02*
X122300000Y-74300000D01*
X115000000Y-84500000D02*
X122650811Y-92150811D01*
X122650811Y-98150811D02*
X123500000Y-99000000D01*
X117300000Y-74160000D02*
X115000000Y-76460000D01*
X115000000Y-76460000D02*
X115000000Y-84500000D01*
X124960000Y-99000000D02*
X126460000Y-97500000D01*
X122650811Y-92150811D02*
X122650811Y-98150811D01*
%TO.N,SD_CLK*%
X121380000Y-92380000D02*
X121380000Y-97500000D01*
X114000000Y-85000000D02*
X121380000Y-92380000D01*
X114000000Y-74920000D02*
X114000000Y-85000000D01*
X117300000Y-71620000D02*
X122300000Y-71620000D01*
X117300000Y-71620000D02*
X114000000Y-74920000D01*
%TO.N,Net-(A1-MS2)*%
X196160000Y-86500000D02*
X197776396Y-88116396D01*
X204003604Y-88116396D02*
X205500000Y-86620000D01*
X197776396Y-88116396D02*
X204003604Y-88116396D01*
X210880000Y-86620000D02*
X211000000Y-86500000D01*
X205500000Y-86620000D02*
X210880000Y-86620000D01*
%TO.N,Net-(A3-MS1)*%
X177000000Y-89040000D02*
X208000000Y-89040000D01*
X174460000Y-86500000D02*
X177000000Y-89040000D01*
X208000000Y-89040000D02*
X211000000Y-89040000D01*
%TO.N,Net-(A3-MS2)*%
X171920000Y-86500000D02*
X176960000Y-91540000D01*
X210960000Y-91540000D02*
X211000000Y-91580000D01*
X176960000Y-91540000D02*
X205500000Y-91540000D01*
X205500000Y-91540000D02*
X210960000Y-91540000D01*
%TD*%
M02*
