%TF.GenerationSoftware,KiCad,Pcbnew,9.0.1*%
%TF.CreationDate,2025-04-10T10:54:34+02:00*%
%TF.ProjectId,mainboard_pcb,6d61696e-626f-4617-9264-5f7063622e6b,rev?*%
%TF.SameCoordinates,Original*%
%TF.FileFunction,Legend,Top*%
%TF.FilePolarity,Positive*%
%FSLAX46Y46*%
G04 Gerber Fmt 4.6, Leading zero omitted, Abs format (unit mm)*
G04 Created by KiCad (PCBNEW 9.0.1) date 2025-04-10 10:54:34*
%MOMM*%
%LPD*%
G01*
G04 APERTURE LIST*
G04 Aperture macros list*
%AMRoundRect*
0 Rectangle with rounded corners*
0 $1 Rounding radius*
0 $2 $3 $4 $5 $6 $7 $8 $9 X,Y pos of 4 corners*
0 Add a 4 corners polygon primitive as box body*
4,1,4,$2,$3,$4,$5,$6,$7,$8,$9,$2,$3,0*
0 Add four circle primitives for the rounded corners*
1,1,$1+$1,$2,$3*
1,1,$1+$1,$4,$5*
1,1,$1+$1,$6,$7*
1,1,$1+$1,$8,$9*
0 Add four rect primitives between the rounded corners*
20,1,$1+$1,$2,$3,$4,$5,0*
20,1,$1+$1,$4,$5,$6,$7,0*
20,1,$1+$1,$6,$7,$8,$9,0*
20,1,$1+$1,$8,$9,$2,$3,0*%
G04 Aperture macros list end*
%ADD10C,0.250000*%
%ADD11C,0.150000*%
%ADD12C,0.100000*%
%ADD13C,0.120000*%
%ADD14C,3.200000*%
%ADD15R,1.800000X1.800000*%
%ADD16C,1.800000*%
%ADD17C,1.400000*%
%ADD18O,1.400000X1.400000*%
%ADD19R,1.600000X1.600000*%
%ADD20O,1.600000X1.600000*%
%ADD21RoundRect,0.250000X0.550000X0.550000X-0.550000X0.550000X-0.550000X-0.550000X0.550000X-0.550000X0*%
%ADD22C,1.600000*%
%ADD23RoundRect,0.250000X1.050000X-1.050000X1.050000X1.050000X-1.050000X1.050000X-1.050000X-1.050000X0*%
%ADD24C,2.600000*%
%ADD25RoundRect,0.250000X-0.845000X0.620000X-0.845000X-0.620000X0.845000X-0.620000X0.845000X0.620000X0*%
%ADD26O,2.190000X1.740000*%
%ADD27R,1.700000X1.700000*%
%ADD28C,1.700000*%
%ADD29RoundRect,0.250000X0.620000X0.845000X-0.620000X0.845000X-0.620000X-0.845000X0.620000X-0.845000X0*%
%ADD30O,1.740000X2.190000*%
%ADD31RoundRect,0.250000X-0.620000X-0.845000X0.620000X-0.845000X0.620000X0.845000X-0.620000X0.845000X0*%
G04 APERTURE END LIST*
D10*
X113640663Y-104992238D02*
X113640663Y-102992238D01*
X113640663Y-102992238D02*
X114402568Y-102992238D01*
X114402568Y-102992238D02*
X114593044Y-103087476D01*
X114593044Y-103087476D02*
X114688282Y-103182714D01*
X114688282Y-103182714D02*
X114783520Y-103373190D01*
X114783520Y-103373190D02*
X114783520Y-103658904D01*
X114783520Y-103658904D02*
X114688282Y-103849380D01*
X114688282Y-103849380D02*
X114593044Y-103944619D01*
X114593044Y-103944619D02*
X114402568Y-104039857D01*
X114402568Y-104039857D02*
X113640663Y-104039857D01*
X115640663Y-104992238D02*
X115640663Y-102992238D01*
X115640663Y-102992238D02*
X116402568Y-102992238D01*
X116402568Y-102992238D02*
X116593044Y-103087476D01*
X116593044Y-103087476D02*
X116688282Y-103182714D01*
X116688282Y-103182714D02*
X116783520Y-103373190D01*
X116783520Y-103373190D02*
X116783520Y-103658904D01*
X116783520Y-103658904D02*
X116688282Y-103849380D01*
X116688282Y-103849380D02*
X116593044Y-103944619D01*
X116593044Y-103944619D02*
X116402568Y-104039857D01*
X116402568Y-104039857D02*
X115640663Y-104039857D01*
X118783520Y-104992238D02*
X118116853Y-104039857D01*
X117640663Y-104992238D02*
X117640663Y-102992238D01*
X117640663Y-102992238D02*
X118402568Y-102992238D01*
X118402568Y-102992238D02*
X118593044Y-103087476D01*
X118593044Y-103087476D02*
X118688282Y-103182714D01*
X118688282Y-103182714D02*
X118783520Y-103373190D01*
X118783520Y-103373190D02*
X118783520Y-103658904D01*
X118783520Y-103658904D02*
X118688282Y-103849380D01*
X118688282Y-103849380D02*
X118593044Y-103944619D01*
X118593044Y-103944619D02*
X118402568Y-104039857D01*
X118402568Y-104039857D02*
X117640663Y-104039857D01*
X119450187Y-102992238D02*
X120688282Y-102992238D01*
X120688282Y-102992238D02*
X120021615Y-103754142D01*
X120021615Y-103754142D02*
X120307330Y-103754142D01*
X120307330Y-103754142D02*
X120497806Y-103849380D01*
X120497806Y-103849380D02*
X120593044Y-103944619D01*
X120593044Y-103944619D02*
X120688282Y-104135095D01*
X120688282Y-104135095D02*
X120688282Y-104611285D01*
X120688282Y-104611285D02*
X120593044Y-104801761D01*
X120593044Y-104801761D02*
X120497806Y-104897000D01*
X120497806Y-104897000D02*
X120307330Y-104992238D01*
X120307330Y-104992238D02*
X119735901Y-104992238D01*
X119735901Y-104992238D02*
X119545425Y-104897000D01*
X119545425Y-104897000D02*
X119450187Y-104801761D01*
X123069235Y-104992238D02*
X123069235Y-102992238D01*
X123069235Y-102992238D02*
X123735902Y-104420809D01*
X123735902Y-104420809D02*
X124402568Y-102992238D01*
X124402568Y-102992238D02*
X124402568Y-104992238D01*
X126212092Y-104992238D02*
X126212092Y-103944619D01*
X126212092Y-103944619D02*
X126116854Y-103754142D01*
X126116854Y-103754142D02*
X125926378Y-103658904D01*
X125926378Y-103658904D02*
X125545425Y-103658904D01*
X125545425Y-103658904D02*
X125354949Y-103754142D01*
X126212092Y-104897000D02*
X126021616Y-104992238D01*
X126021616Y-104992238D02*
X125545425Y-104992238D01*
X125545425Y-104992238D02*
X125354949Y-104897000D01*
X125354949Y-104897000D02*
X125259711Y-104706523D01*
X125259711Y-104706523D02*
X125259711Y-104516047D01*
X125259711Y-104516047D02*
X125354949Y-104325571D01*
X125354949Y-104325571D02*
X125545425Y-104230333D01*
X125545425Y-104230333D02*
X126021616Y-104230333D01*
X126021616Y-104230333D02*
X126212092Y-104135095D01*
X127164473Y-104992238D02*
X127164473Y-103658904D01*
X127164473Y-102992238D02*
X127069235Y-103087476D01*
X127069235Y-103087476D02*
X127164473Y-103182714D01*
X127164473Y-103182714D02*
X127259711Y-103087476D01*
X127259711Y-103087476D02*
X127164473Y-102992238D01*
X127164473Y-102992238D02*
X127164473Y-103182714D01*
X128116854Y-103658904D02*
X128116854Y-104992238D01*
X128116854Y-103849380D02*
X128212092Y-103754142D01*
X128212092Y-103754142D02*
X128402568Y-103658904D01*
X128402568Y-103658904D02*
X128688283Y-103658904D01*
X128688283Y-103658904D02*
X128878759Y-103754142D01*
X128878759Y-103754142D02*
X128973997Y-103944619D01*
X128973997Y-103944619D02*
X128973997Y-104992238D01*
X129926378Y-104992238D02*
X129926378Y-102992238D01*
X129926378Y-103754142D02*
X130116854Y-103658904D01*
X130116854Y-103658904D02*
X130497807Y-103658904D01*
X130497807Y-103658904D02*
X130688283Y-103754142D01*
X130688283Y-103754142D02*
X130783521Y-103849380D01*
X130783521Y-103849380D02*
X130878759Y-104039857D01*
X130878759Y-104039857D02*
X130878759Y-104611285D01*
X130878759Y-104611285D02*
X130783521Y-104801761D01*
X130783521Y-104801761D02*
X130688283Y-104897000D01*
X130688283Y-104897000D02*
X130497807Y-104992238D01*
X130497807Y-104992238D02*
X130116854Y-104992238D01*
X130116854Y-104992238D02*
X129926378Y-104897000D01*
X132021616Y-104992238D02*
X131831140Y-104897000D01*
X131831140Y-104897000D02*
X131735902Y-104801761D01*
X131735902Y-104801761D02*
X131640664Y-104611285D01*
X131640664Y-104611285D02*
X131640664Y-104039857D01*
X131640664Y-104039857D02*
X131735902Y-103849380D01*
X131735902Y-103849380D02*
X131831140Y-103754142D01*
X131831140Y-103754142D02*
X132021616Y-103658904D01*
X132021616Y-103658904D02*
X132307331Y-103658904D01*
X132307331Y-103658904D02*
X132497807Y-103754142D01*
X132497807Y-103754142D02*
X132593045Y-103849380D01*
X132593045Y-103849380D02*
X132688283Y-104039857D01*
X132688283Y-104039857D02*
X132688283Y-104611285D01*
X132688283Y-104611285D02*
X132593045Y-104801761D01*
X132593045Y-104801761D02*
X132497807Y-104897000D01*
X132497807Y-104897000D02*
X132307331Y-104992238D01*
X132307331Y-104992238D02*
X132021616Y-104992238D01*
X134402569Y-104992238D02*
X134402569Y-103944619D01*
X134402569Y-103944619D02*
X134307331Y-103754142D01*
X134307331Y-103754142D02*
X134116855Y-103658904D01*
X134116855Y-103658904D02*
X133735902Y-103658904D01*
X133735902Y-103658904D02*
X133545426Y-103754142D01*
X134402569Y-104897000D02*
X134212093Y-104992238D01*
X134212093Y-104992238D02*
X133735902Y-104992238D01*
X133735902Y-104992238D02*
X133545426Y-104897000D01*
X133545426Y-104897000D02*
X133450188Y-104706523D01*
X133450188Y-104706523D02*
X133450188Y-104516047D01*
X133450188Y-104516047D02*
X133545426Y-104325571D01*
X133545426Y-104325571D02*
X133735902Y-104230333D01*
X133735902Y-104230333D02*
X134212093Y-104230333D01*
X134212093Y-104230333D02*
X134402569Y-104135095D01*
X135354950Y-104992238D02*
X135354950Y-103658904D01*
X135354950Y-104039857D02*
X135450188Y-103849380D01*
X135450188Y-103849380D02*
X135545426Y-103754142D01*
X135545426Y-103754142D02*
X135735902Y-103658904D01*
X135735902Y-103658904D02*
X135926379Y-103658904D01*
X137450188Y-104992238D02*
X137450188Y-102992238D01*
X137450188Y-104897000D02*
X137259712Y-104992238D01*
X137259712Y-104992238D02*
X136878759Y-104992238D01*
X136878759Y-104992238D02*
X136688283Y-104897000D01*
X136688283Y-104897000D02*
X136593045Y-104801761D01*
X136593045Y-104801761D02*
X136497807Y-104611285D01*
X136497807Y-104611285D02*
X136497807Y-104039857D01*
X136497807Y-104039857D02*
X136593045Y-103849380D01*
X136593045Y-103849380D02*
X136688283Y-103754142D01*
X136688283Y-103754142D02*
X136878759Y-103658904D01*
X136878759Y-103658904D02*
X137259712Y-103658904D01*
X137259712Y-103658904D02*
X137450188Y-103754142D01*
X141069236Y-104992238D02*
X140402569Y-104039857D01*
X139926379Y-104992238D02*
X139926379Y-102992238D01*
X139926379Y-102992238D02*
X140688284Y-102992238D01*
X140688284Y-102992238D02*
X140878760Y-103087476D01*
X140878760Y-103087476D02*
X140973998Y-103182714D01*
X140973998Y-103182714D02*
X141069236Y-103373190D01*
X141069236Y-103373190D02*
X141069236Y-103658904D01*
X141069236Y-103658904D02*
X140973998Y-103849380D01*
X140973998Y-103849380D02*
X140878760Y-103944619D01*
X140878760Y-103944619D02*
X140688284Y-104039857D01*
X140688284Y-104039857D02*
X139926379Y-104039857D01*
X142688284Y-104897000D02*
X142497808Y-104992238D01*
X142497808Y-104992238D02*
X142116855Y-104992238D01*
X142116855Y-104992238D02*
X141926379Y-104897000D01*
X141926379Y-104897000D02*
X141831141Y-104706523D01*
X141831141Y-104706523D02*
X141831141Y-103944619D01*
X141831141Y-103944619D02*
X141926379Y-103754142D01*
X141926379Y-103754142D02*
X142116855Y-103658904D01*
X142116855Y-103658904D02*
X142497808Y-103658904D01*
X142497808Y-103658904D02*
X142688284Y-103754142D01*
X142688284Y-103754142D02*
X142783522Y-103944619D01*
X142783522Y-103944619D02*
X142783522Y-104135095D01*
X142783522Y-104135095D02*
X141831141Y-104325571D01*
X143450189Y-103658904D02*
X143926379Y-104992238D01*
X143926379Y-104992238D02*
X144402570Y-103658904D01*
X145164475Y-104801761D02*
X145259713Y-104897000D01*
X145259713Y-104897000D02*
X145164475Y-104992238D01*
X145164475Y-104992238D02*
X145069237Y-104897000D01*
X145069237Y-104897000D02*
X145164475Y-104801761D01*
X145164475Y-104801761D02*
X145164475Y-104992238D01*
X147450190Y-102992238D02*
X148688285Y-102992238D01*
X148688285Y-102992238D02*
X148021618Y-103754142D01*
X148021618Y-103754142D02*
X148307333Y-103754142D01*
X148307333Y-103754142D02*
X148497809Y-103849380D01*
X148497809Y-103849380D02*
X148593047Y-103944619D01*
X148593047Y-103944619D02*
X148688285Y-104135095D01*
X148688285Y-104135095D02*
X148688285Y-104611285D01*
X148688285Y-104611285D02*
X148593047Y-104801761D01*
X148593047Y-104801761D02*
X148497809Y-104897000D01*
X148497809Y-104897000D02*
X148307333Y-104992238D01*
X148307333Y-104992238D02*
X147735904Y-104992238D01*
X147735904Y-104992238D02*
X147545428Y-104897000D01*
X147545428Y-104897000D02*
X147450190Y-104801761D01*
X149545428Y-104801761D02*
X149640666Y-104897000D01*
X149640666Y-104897000D02*
X149545428Y-104992238D01*
X149545428Y-104992238D02*
X149450190Y-104897000D01*
X149450190Y-104897000D02*
X149545428Y-104801761D01*
X149545428Y-104801761D02*
X149545428Y-104992238D01*
X151545428Y-104992238D02*
X150402571Y-104992238D01*
X150973999Y-104992238D02*
X150973999Y-102992238D01*
X150973999Y-102992238D02*
X150783523Y-103277952D01*
X150783523Y-103277952D02*
X150593047Y-103468428D01*
X150593047Y-103468428D02*
X150402571Y-103563666D01*
X113735901Y-107340809D02*
X113878758Y-107388428D01*
X113878758Y-107388428D02*
X113926377Y-107436047D01*
X113926377Y-107436047D02*
X113973996Y-107531285D01*
X113973996Y-107531285D02*
X113973996Y-107674142D01*
X113973996Y-107674142D02*
X113926377Y-107769380D01*
X113926377Y-107769380D02*
X113878758Y-107817000D01*
X113878758Y-107817000D02*
X113783520Y-107864619D01*
X113783520Y-107864619D02*
X113402568Y-107864619D01*
X113402568Y-107864619D02*
X113402568Y-106864619D01*
X113402568Y-106864619D02*
X113735901Y-106864619D01*
X113735901Y-106864619D02*
X113831139Y-106912238D01*
X113831139Y-106912238D02*
X113878758Y-106959857D01*
X113878758Y-106959857D02*
X113926377Y-107055095D01*
X113926377Y-107055095D02*
X113926377Y-107150333D01*
X113926377Y-107150333D02*
X113878758Y-107245571D01*
X113878758Y-107245571D02*
X113831139Y-107293190D01*
X113831139Y-107293190D02*
X113735901Y-107340809D01*
X113735901Y-107340809D02*
X113402568Y-107340809D01*
X114545425Y-107864619D02*
X114450187Y-107817000D01*
X114450187Y-107817000D02*
X114402568Y-107721761D01*
X114402568Y-107721761D02*
X114402568Y-106864619D01*
X115354949Y-107197952D02*
X115354949Y-107864619D01*
X114926378Y-107197952D02*
X114926378Y-107721761D01*
X114926378Y-107721761D02*
X114973997Y-107817000D01*
X114973997Y-107817000D02*
X115069235Y-107864619D01*
X115069235Y-107864619D02*
X115212092Y-107864619D01*
X115212092Y-107864619D02*
X115307330Y-107817000D01*
X115307330Y-107817000D02*
X115354949Y-107769380D01*
X116212092Y-107817000D02*
X116116854Y-107864619D01*
X116116854Y-107864619D02*
X115926378Y-107864619D01*
X115926378Y-107864619D02*
X115831140Y-107817000D01*
X115831140Y-107817000D02*
X115783521Y-107721761D01*
X115783521Y-107721761D02*
X115783521Y-107340809D01*
X115783521Y-107340809D02*
X115831140Y-107245571D01*
X115831140Y-107245571D02*
X115926378Y-107197952D01*
X115926378Y-107197952D02*
X116116854Y-107197952D01*
X116116854Y-107197952D02*
X116212092Y-107245571D01*
X116212092Y-107245571D02*
X116259711Y-107340809D01*
X116259711Y-107340809D02*
X116259711Y-107436047D01*
X116259711Y-107436047D02*
X115783521Y-107531285D01*
X117307331Y-106864619D02*
X117878759Y-106864619D01*
X117593045Y-107864619D02*
X117593045Y-106864619D01*
X118212093Y-107864619D02*
X118212093Y-107197952D01*
X118212093Y-107388428D02*
X118259712Y-107293190D01*
X118259712Y-107293190D02*
X118307331Y-107245571D01*
X118307331Y-107245571D02*
X118402569Y-107197952D01*
X118402569Y-107197952D02*
X118497807Y-107197952D01*
X119259712Y-107864619D02*
X119259712Y-107340809D01*
X119259712Y-107340809D02*
X119212093Y-107245571D01*
X119212093Y-107245571D02*
X119116855Y-107197952D01*
X119116855Y-107197952D02*
X118926379Y-107197952D01*
X118926379Y-107197952D02*
X118831141Y-107245571D01*
X119259712Y-107817000D02*
X119164474Y-107864619D01*
X119164474Y-107864619D02*
X118926379Y-107864619D01*
X118926379Y-107864619D02*
X118831141Y-107817000D01*
X118831141Y-107817000D02*
X118783522Y-107721761D01*
X118783522Y-107721761D02*
X118783522Y-107626523D01*
X118783522Y-107626523D02*
X118831141Y-107531285D01*
X118831141Y-107531285D02*
X118926379Y-107483666D01*
X118926379Y-107483666D02*
X119164474Y-107483666D01*
X119164474Y-107483666D02*
X119259712Y-107436047D01*
X120164474Y-107817000D02*
X120069236Y-107864619D01*
X120069236Y-107864619D02*
X119878760Y-107864619D01*
X119878760Y-107864619D02*
X119783522Y-107817000D01*
X119783522Y-107817000D02*
X119735903Y-107769380D01*
X119735903Y-107769380D02*
X119688284Y-107674142D01*
X119688284Y-107674142D02*
X119688284Y-107388428D01*
X119688284Y-107388428D02*
X119735903Y-107293190D01*
X119735903Y-107293190D02*
X119783522Y-107245571D01*
X119783522Y-107245571D02*
X119878760Y-107197952D01*
X119878760Y-107197952D02*
X120069236Y-107197952D01*
X120069236Y-107197952D02*
X120164474Y-107245571D01*
X120973998Y-107817000D02*
X120878760Y-107864619D01*
X120878760Y-107864619D02*
X120688284Y-107864619D01*
X120688284Y-107864619D02*
X120593046Y-107817000D01*
X120593046Y-107817000D02*
X120545427Y-107721761D01*
X120545427Y-107721761D02*
X120545427Y-107340809D01*
X120545427Y-107340809D02*
X120593046Y-107245571D01*
X120593046Y-107245571D02*
X120688284Y-107197952D01*
X120688284Y-107197952D02*
X120878760Y-107197952D01*
X120878760Y-107197952D02*
X120973998Y-107245571D01*
X120973998Y-107245571D02*
X121021617Y-107340809D01*
X121021617Y-107340809D02*
X121021617Y-107436047D01*
X121021617Y-107436047D02*
X120545427Y-107531285D01*
X122212094Y-107340809D02*
X122973999Y-107340809D01*
X122973999Y-107626523D02*
X122212094Y-107626523D01*
X124164475Y-107817000D02*
X124307332Y-107864619D01*
X124307332Y-107864619D02*
X124545427Y-107864619D01*
X124545427Y-107864619D02*
X124640665Y-107817000D01*
X124640665Y-107817000D02*
X124688284Y-107769380D01*
X124688284Y-107769380D02*
X124735903Y-107674142D01*
X124735903Y-107674142D02*
X124735903Y-107578904D01*
X124735903Y-107578904D02*
X124688284Y-107483666D01*
X124688284Y-107483666D02*
X124640665Y-107436047D01*
X124640665Y-107436047D02*
X124545427Y-107388428D01*
X124545427Y-107388428D02*
X124354951Y-107340809D01*
X124354951Y-107340809D02*
X124259713Y-107293190D01*
X124259713Y-107293190D02*
X124212094Y-107245571D01*
X124212094Y-107245571D02*
X124164475Y-107150333D01*
X124164475Y-107150333D02*
X124164475Y-107055095D01*
X124164475Y-107055095D02*
X124212094Y-106959857D01*
X124212094Y-106959857D02*
X124259713Y-106912238D01*
X124259713Y-106912238D02*
X124354951Y-106864619D01*
X124354951Y-106864619D02*
X124593046Y-106864619D01*
X124593046Y-106864619D02*
X124735903Y-106912238D01*
X125164475Y-107864619D02*
X125164475Y-106864619D01*
X125259713Y-107483666D02*
X125545427Y-107864619D01*
X125545427Y-107197952D02*
X125164475Y-107578904D01*
X125973999Y-107864619D02*
X125973999Y-107197952D01*
X125973999Y-106864619D02*
X125926380Y-106912238D01*
X125926380Y-106912238D02*
X125973999Y-106959857D01*
X125973999Y-106959857D02*
X126021618Y-106912238D01*
X126021618Y-106912238D02*
X125973999Y-106864619D01*
X125973999Y-106864619D02*
X125973999Y-106959857D01*
X126593046Y-107864619D02*
X126497808Y-107817000D01*
X126497808Y-107817000D02*
X126450189Y-107721761D01*
X126450189Y-107721761D02*
X126450189Y-106864619D01*
X127116856Y-107864619D02*
X127021618Y-107817000D01*
X127021618Y-107817000D02*
X126973999Y-107721761D01*
X126973999Y-107721761D02*
X126973999Y-106864619D01*
X128259714Y-107864619D02*
X128259714Y-106864619D01*
X128688285Y-107817000D02*
X128783523Y-107864619D01*
X128783523Y-107864619D02*
X128973999Y-107864619D01*
X128973999Y-107864619D02*
X129069237Y-107817000D01*
X129069237Y-107817000D02*
X129116856Y-107721761D01*
X129116856Y-107721761D02*
X129116856Y-107674142D01*
X129116856Y-107674142D02*
X129069237Y-107578904D01*
X129069237Y-107578904D02*
X128973999Y-107531285D01*
X128973999Y-107531285D02*
X128831142Y-107531285D01*
X128831142Y-107531285D02*
X128735904Y-107483666D01*
X128735904Y-107483666D02*
X128688285Y-107388428D01*
X128688285Y-107388428D02*
X128688285Y-107340809D01*
X128688285Y-107340809D02*
X128735904Y-107245571D01*
X128735904Y-107245571D02*
X128831142Y-107197952D01*
X128831142Y-107197952D02*
X128973999Y-107197952D01*
X128973999Y-107197952D02*
X129069237Y-107245571D01*
X129497809Y-107817000D02*
X129593047Y-107864619D01*
X129593047Y-107864619D02*
X129783523Y-107864619D01*
X129783523Y-107864619D02*
X129878761Y-107817000D01*
X129878761Y-107817000D02*
X129926380Y-107721761D01*
X129926380Y-107721761D02*
X129926380Y-107674142D01*
X129926380Y-107674142D02*
X129878761Y-107578904D01*
X129878761Y-107578904D02*
X129783523Y-107531285D01*
X129783523Y-107531285D02*
X129640666Y-107531285D01*
X129640666Y-107531285D02*
X129545428Y-107483666D01*
X129545428Y-107483666D02*
X129497809Y-107388428D01*
X129497809Y-107388428D02*
X129497809Y-107340809D01*
X129497809Y-107340809D02*
X129545428Y-107245571D01*
X129545428Y-107245571D02*
X129640666Y-107197952D01*
X129640666Y-107197952D02*
X129783523Y-107197952D01*
X129783523Y-107197952D02*
X129878761Y-107245571D01*
X130783523Y-107197952D02*
X130783523Y-107864619D01*
X130354952Y-107197952D02*
X130354952Y-107721761D01*
X130354952Y-107721761D02*
X130402571Y-107817000D01*
X130402571Y-107817000D02*
X130497809Y-107864619D01*
X130497809Y-107864619D02*
X130640666Y-107864619D01*
X130640666Y-107864619D02*
X130735904Y-107817000D01*
X130735904Y-107817000D02*
X130783523Y-107769380D01*
X131640666Y-107817000D02*
X131545428Y-107864619D01*
X131545428Y-107864619D02*
X131354952Y-107864619D01*
X131354952Y-107864619D02*
X131259714Y-107817000D01*
X131259714Y-107817000D02*
X131212095Y-107721761D01*
X131212095Y-107721761D02*
X131212095Y-107340809D01*
X131212095Y-107340809D02*
X131259714Y-107245571D01*
X131259714Y-107245571D02*
X131354952Y-107197952D01*
X131354952Y-107197952D02*
X131545428Y-107197952D01*
X131545428Y-107197952D02*
X131640666Y-107245571D01*
X131640666Y-107245571D02*
X131688285Y-107340809D01*
X131688285Y-107340809D02*
X131688285Y-107436047D01*
X131688285Y-107436047D02*
X131212095Y-107531285D01*
D11*
X215205826Y-42272914D02*
X214705826Y-42272914D01*
X214705826Y-43058628D02*
X214705826Y-41558628D01*
X214705826Y-41558628D02*
X215420112Y-41558628D01*
X215920112Y-42630057D02*
X216634398Y-42630057D01*
X215777255Y-43058628D02*
X216277255Y-41558628D01*
X216277255Y-41558628D02*
X216777255Y-43058628D01*
X217277254Y-43058628D02*
X217277254Y-41558628D01*
X217277254Y-41558628D02*
X218134397Y-43058628D01*
X218134397Y-43058628D02*
X218134397Y-41558628D01*
X211379269Y-107987200D02*
X212522127Y-107987200D01*
X211950698Y-108558628D02*
X211950698Y-107415771D01*
X214022127Y-108558628D02*
X213164984Y-108558628D01*
X213593555Y-108558628D02*
X213593555Y-107058628D01*
X213593555Y-107058628D02*
X213450698Y-107272914D01*
X213450698Y-107272914D02*
X213307841Y-107415771D01*
X213307841Y-107415771D02*
X213164984Y-107487200D01*
X214593555Y-107201485D02*
X214664983Y-107130057D01*
X214664983Y-107130057D02*
X214807841Y-107058628D01*
X214807841Y-107058628D02*
X215164983Y-107058628D01*
X215164983Y-107058628D02*
X215307841Y-107130057D01*
X215307841Y-107130057D02*
X215379269Y-107201485D01*
X215379269Y-107201485D02*
X215450698Y-107344342D01*
X215450698Y-107344342D02*
X215450698Y-107487200D01*
X215450698Y-107487200D02*
X215379269Y-107701485D01*
X215379269Y-107701485D02*
X214522126Y-108558628D01*
X214522126Y-108558628D02*
X215450698Y-108558628D01*
X215879269Y-107058628D02*
X216379269Y-108558628D01*
X216379269Y-108558628D02*
X216879269Y-107058628D01*
X218522125Y-108558628D02*
X218522125Y-107058628D01*
X219236411Y-108558628D02*
X219236411Y-107058628D01*
X219236411Y-107058628D02*
X220093554Y-108558628D01*
X220093554Y-108558628D02*
X220093554Y-107058628D01*
X107238095Y-102754819D02*
X107238095Y-101754819D01*
X107238095Y-102231009D02*
X107809523Y-102231009D01*
X107809523Y-102754819D02*
X107809523Y-101754819D01*
X108714285Y-102088152D02*
X108714285Y-102754819D01*
X108476190Y-101707200D02*
X108238095Y-102421485D01*
X108238095Y-102421485D02*
X108857142Y-102421485D01*
X160901905Y-73399819D02*
X160901905Y-72399819D01*
X160901905Y-72399819D02*
X161140000Y-72399819D01*
X161140000Y-72399819D02*
X161282857Y-72447438D01*
X161282857Y-72447438D02*
X161378095Y-72542676D01*
X161378095Y-72542676D02*
X161425714Y-72637914D01*
X161425714Y-72637914D02*
X161473333Y-72828390D01*
X161473333Y-72828390D02*
X161473333Y-72971247D01*
X161473333Y-72971247D02*
X161425714Y-73161723D01*
X161425714Y-73161723D02*
X161378095Y-73256961D01*
X161378095Y-73256961D02*
X161282857Y-73352200D01*
X161282857Y-73352200D02*
X161140000Y-73399819D01*
X161140000Y-73399819D02*
X160901905Y-73399819D01*
X161806667Y-72399819D02*
X162473333Y-72399819D01*
X162473333Y-72399819D02*
X162044762Y-73399819D01*
X205954819Y-60602857D02*
X205478628Y-60936190D01*
X205954819Y-61174285D02*
X204954819Y-61174285D01*
X204954819Y-61174285D02*
X204954819Y-60793333D01*
X204954819Y-60793333D02*
X205002438Y-60698095D01*
X205002438Y-60698095D02*
X205050057Y-60650476D01*
X205050057Y-60650476D02*
X205145295Y-60602857D01*
X205145295Y-60602857D02*
X205288152Y-60602857D01*
X205288152Y-60602857D02*
X205383390Y-60650476D01*
X205383390Y-60650476D02*
X205431009Y-60698095D01*
X205431009Y-60698095D02*
X205478628Y-60793333D01*
X205478628Y-60793333D02*
X205478628Y-61174285D01*
X205954819Y-59650476D02*
X205954819Y-60221904D01*
X205954819Y-59936190D02*
X204954819Y-59936190D01*
X204954819Y-59936190D02*
X205097676Y-60031428D01*
X205097676Y-60031428D02*
X205192914Y-60126666D01*
X205192914Y-60126666D02*
X205240533Y-60221904D01*
X205383390Y-59079047D02*
X205335771Y-59174285D01*
X205335771Y-59174285D02*
X205288152Y-59221904D01*
X205288152Y-59221904D02*
X205192914Y-59269523D01*
X205192914Y-59269523D02*
X205145295Y-59269523D01*
X205145295Y-59269523D02*
X205050057Y-59221904D01*
X205050057Y-59221904D02*
X205002438Y-59174285D01*
X205002438Y-59174285D02*
X204954819Y-59079047D01*
X204954819Y-59079047D02*
X204954819Y-58888571D01*
X204954819Y-58888571D02*
X205002438Y-58793333D01*
X205002438Y-58793333D02*
X205050057Y-58745714D01*
X205050057Y-58745714D02*
X205145295Y-58698095D01*
X205145295Y-58698095D02*
X205192914Y-58698095D01*
X205192914Y-58698095D02*
X205288152Y-58745714D01*
X205288152Y-58745714D02*
X205335771Y-58793333D01*
X205335771Y-58793333D02*
X205383390Y-58888571D01*
X205383390Y-58888571D02*
X205383390Y-59079047D01*
X205383390Y-59079047D02*
X205431009Y-59174285D01*
X205431009Y-59174285D02*
X205478628Y-59221904D01*
X205478628Y-59221904D02*
X205573866Y-59269523D01*
X205573866Y-59269523D02*
X205764342Y-59269523D01*
X205764342Y-59269523D02*
X205859580Y-59221904D01*
X205859580Y-59221904D02*
X205907200Y-59174285D01*
X205907200Y-59174285D02*
X205954819Y-59079047D01*
X205954819Y-59079047D02*
X205954819Y-58888571D01*
X205954819Y-58888571D02*
X205907200Y-58793333D01*
X205907200Y-58793333D02*
X205859580Y-58745714D01*
X205859580Y-58745714D02*
X205764342Y-58698095D01*
X205764342Y-58698095D02*
X205573866Y-58698095D01*
X205573866Y-58698095D02*
X205478628Y-58745714D01*
X205478628Y-58745714D02*
X205431009Y-58793333D01*
X205431009Y-58793333D02*
X205383390Y-58888571D01*
X208454819Y-87222857D02*
X207978628Y-87556190D01*
X208454819Y-87794285D02*
X207454819Y-87794285D01*
X207454819Y-87794285D02*
X207454819Y-87413333D01*
X207454819Y-87413333D02*
X207502438Y-87318095D01*
X207502438Y-87318095D02*
X207550057Y-87270476D01*
X207550057Y-87270476D02*
X207645295Y-87222857D01*
X207645295Y-87222857D02*
X207788152Y-87222857D01*
X207788152Y-87222857D02*
X207883390Y-87270476D01*
X207883390Y-87270476D02*
X207931009Y-87318095D01*
X207931009Y-87318095D02*
X207978628Y-87413333D01*
X207978628Y-87413333D02*
X207978628Y-87794285D01*
X207550057Y-86841904D02*
X207502438Y-86794285D01*
X207502438Y-86794285D02*
X207454819Y-86699047D01*
X207454819Y-86699047D02*
X207454819Y-86460952D01*
X207454819Y-86460952D02*
X207502438Y-86365714D01*
X207502438Y-86365714D02*
X207550057Y-86318095D01*
X207550057Y-86318095D02*
X207645295Y-86270476D01*
X207645295Y-86270476D02*
X207740533Y-86270476D01*
X207740533Y-86270476D02*
X207883390Y-86318095D01*
X207883390Y-86318095D02*
X208454819Y-86889523D01*
X208454819Y-86889523D02*
X208454819Y-86270476D01*
X207454819Y-85651428D02*
X207454819Y-85556190D01*
X207454819Y-85556190D02*
X207502438Y-85460952D01*
X207502438Y-85460952D02*
X207550057Y-85413333D01*
X207550057Y-85413333D02*
X207645295Y-85365714D01*
X207645295Y-85365714D02*
X207835771Y-85318095D01*
X207835771Y-85318095D02*
X208073866Y-85318095D01*
X208073866Y-85318095D02*
X208264342Y-85365714D01*
X208264342Y-85365714D02*
X208359580Y-85413333D01*
X208359580Y-85413333D02*
X208407200Y-85460952D01*
X208407200Y-85460952D02*
X208454819Y-85556190D01*
X208454819Y-85556190D02*
X208454819Y-85651428D01*
X208454819Y-85651428D02*
X208407200Y-85746666D01*
X208407200Y-85746666D02*
X208359580Y-85794285D01*
X208359580Y-85794285D02*
X208264342Y-85841904D01*
X208264342Y-85841904D02*
X208073866Y-85889523D01*
X208073866Y-85889523D02*
X207835771Y-85889523D01*
X207835771Y-85889523D02*
X207645295Y-85841904D01*
X207645295Y-85841904D02*
X207550057Y-85794285D01*
X207550057Y-85794285D02*
X207502438Y-85746666D01*
X207502438Y-85746666D02*
X207454819Y-85651428D01*
X208454819Y-63102857D02*
X207978628Y-63436190D01*
X208454819Y-63674285D02*
X207454819Y-63674285D01*
X207454819Y-63674285D02*
X207454819Y-63293333D01*
X207454819Y-63293333D02*
X207502438Y-63198095D01*
X207502438Y-63198095D02*
X207550057Y-63150476D01*
X207550057Y-63150476D02*
X207645295Y-63102857D01*
X207645295Y-63102857D02*
X207788152Y-63102857D01*
X207788152Y-63102857D02*
X207883390Y-63150476D01*
X207883390Y-63150476D02*
X207931009Y-63198095D01*
X207931009Y-63198095D02*
X207978628Y-63293333D01*
X207978628Y-63293333D02*
X207978628Y-63674285D01*
X208454819Y-62150476D02*
X208454819Y-62721904D01*
X208454819Y-62436190D02*
X207454819Y-62436190D01*
X207454819Y-62436190D02*
X207597676Y-62531428D01*
X207597676Y-62531428D02*
X207692914Y-62626666D01*
X207692914Y-62626666D02*
X207740533Y-62721904D01*
X207454819Y-61293333D02*
X207454819Y-61483809D01*
X207454819Y-61483809D02*
X207502438Y-61579047D01*
X207502438Y-61579047D02*
X207550057Y-61626666D01*
X207550057Y-61626666D02*
X207692914Y-61721904D01*
X207692914Y-61721904D02*
X207883390Y-61769523D01*
X207883390Y-61769523D02*
X208264342Y-61769523D01*
X208264342Y-61769523D02*
X208359580Y-61721904D01*
X208359580Y-61721904D02*
X208407200Y-61674285D01*
X208407200Y-61674285D02*
X208454819Y-61579047D01*
X208454819Y-61579047D02*
X208454819Y-61388571D01*
X208454819Y-61388571D02*
X208407200Y-61293333D01*
X208407200Y-61293333D02*
X208359580Y-61245714D01*
X208359580Y-61245714D02*
X208264342Y-61198095D01*
X208264342Y-61198095D02*
X208026247Y-61198095D01*
X208026247Y-61198095D02*
X207931009Y-61245714D01*
X207931009Y-61245714D02*
X207883390Y-61293333D01*
X207883390Y-61293333D02*
X207835771Y-61388571D01*
X207835771Y-61388571D02*
X207835771Y-61579047D01*
X207835771Y-61579047D02*
X207883390Y-61674285D01*
X207883390Y-61674285D02*
X207931009Y-61721904D01*
X207931009Y-61721904D02*
X208026247Y-61769523D01*
X181019104Y-93554285D02*
X181019104Y-93078095D01*
X181304819Y-93649523D02*
X180304819Y-93316190D01*
X180304819Y-93316190D02*
X181304819Y-92982857D01*
X181304819Y-92125714D02*
X181304819Y-92697142D01*
X181304819Y-92411428D02*
X180304819Y-92411428D01*
X180304819Y-92411428D02*
X180447676Y-92506666D01*
X180447676Y-92506666D02*
X180542914Y-92601904D01*
X180542914Y-92601904D02*
X180590533Y-92697142D01*
X193501905Y-79794819D02*
X193501905Y-78794819D01*
X193501905Y-78794819D02*
X193740000Y-78794819D01*
X193740000Y-78794819D02*
X193882857Y-78842438D01*
X193882857Y-78842438D02*
X193978095Y-78937676D01*
X193978095Y-78937676D02*
X194025714Y-79032914D01*
X194025714Y-79032914D02*
X194073333Y-79223390D01*
X194073333Y-79223390D02*
X194073333Y-79366247D01*
X194073333Y-79366247D02*
X194025714Y-79556723D01*
X194025714Y-79556723D02*
X193978095Y-79651961D01*
X193978095Y-79651961D02*
X193882857Y-79747200D01*
X193882857Y-79747200D02*
X193740000Y-79794819D01*
X193740000Y-79794819D02*
X193501905Y-79794819D01*
X194930476Y-78794819D02*
X194740000Y-78794819D01*
X194740000Y-78794819D02*
X194644762Y-78842438D01*
X194644762Y-78842438D02*
X194597143Y-78890057D01*
X194597143Y-78890057D02*
X194501905Y-79032914D01*
X194501905Y-79032914D02*
X194454286Y-79223390D01*
X194454286Y-79223390D02*
X194454286Y-79604342D01*
X194454286Y-79604342D02*
X194501905Y-79699580D01*
X194501905Y-79699580D02*
X194549524Y-79747200D01*
X194549524Y-79747200D02*
X194644762Y-79794819D01*
X194644762Y-79794819D02*
X194835238Y-79794819D01*
X194835238Y-79794819D02*
X194930476Y-79747200D01*
X194930476Y-79747200D02*
X194978095Y-79699580D01*
X194978095Y-79699580D02*
X195025714Y-79604342D01*
X195025714Y-79604342D02*
X195025714Y-79366247D01*
X195025714Y-79366247D02*
X194978095Y-79271009D01*
X194978095Y-79271009D02*
X194930476Y-79223390D01*
X194930476Y-79223390D02*
X194835238Y-79175771D01*
X194835238Y-79175771D02*
X194644762Y-79175771D01*
X194644762Y-79175771D02*
X194549524Y-79223390D01*
X194549524Y-79223390D02*
X194501905Y-79271009D01*
X194501905Y-79271009D02*
X194454286Y-79366247D01*
X165685806Y-84294777D02*
X165352473Y-83818586D01*
X165114378Y-84294777D02*
X165114378Y-83294777D01*
X165114378Y-83294777D02*
X165495330Y-83294777D01*
X165495330Y-83294777D02*
X165590568Y-83342396D01*
X165590568Y-83342396D02*
X165638187Y-83390015D01*
X165638187Y-83390015D02*
X165685806Y-83485253D01*
X165685806Y-83485253D02*
X165685806Y-83628110D01*
X165685806Y-83628110D02*
X165638187Y-83723348D01*
X165638187Y-83723348D02*
X165590568Y-83770967D01*
X165590568Y-83770967D02*
X165495330Y-83818586D01*
X165495330Y-83818586D02*
X165114378Y-83818586D01*
X166638187Y-84294777D02*
X166066759Y-84294777D01*
X166352473Y-84294777D02*
X166352473Y-83294777D01*
X166352473Y-83294777D02*
X166257235Y-83437634D01*
X166257235Y-83437634D02*
X166161997Y-83532872D01*
X166161997Y-83532872D02*
X166066759Y-83580491D01*
X167257235Y-83294777D02*
X167352473Y-83294777D01*
X167352473Y-83294777D02*
X167447711Y-83342396D01*
X167447711Y-83342396D02*
X167495330Y-83390015D01*
X167495330Y-83390015D02*
X167542949Y-83485253D01*
X167542949Y-83485253D02*
X167590568Y-83675729D01*
X167590568Y-83675729D02*
X167590568Y-83913824D01*
X167590568Y-83913824D02*
X167542949Y-84104300D01*
X167542949Y-84104300D02*
X167495330Y-84199538D01*
X167495330Y-84199538D02*
X167447711Y-84247158D01*
X167447711Y-84247158D02*
X167352473Y-84294777D01*
X167352473Y-84294777D02*
X167257235Y-84294777D01*
X167257235Y-84294777D02*
X167161997Y-84247158D01*
X167161997Y-84247158D02*
X167114378Y-84199538D01*
X167114378Y-84199538D02*
X167066759Y-84104300D01*
X167066759Y-84104300D02*
X167019140Y-83913824D01*
X167019140Y-83913824D02*
X167019140Y-83675729D01*
X167019140Y-83675729D02*
X167066759Y-83485253D01*
X167066759Y-83485253D02*
X167114378Y-83390015D01*
X167114378Y-83390015D02*
X167161997Y-83342396D01*
X167161997Y-83342396D02*
X167257235Y-83294777D01*
X190511905Y-73439819D02*
X190511905Y-72439819D01*
X190511905Y-72439819D02*
X190750000Y-72439819D01*
X190750000Y-72439819D02*
X190892857Y-72487438D01*
X190892857Y-72487438D02*
X190988095Y-72582676D01*
X190988095Y-72582676D02*
X191035714Y-72677914D01*
X191035714Y-72677914D02*
X191083333Y-72868390D01*
X191083333Y-72868390D02*
X191083333Y-73011247D01*
X191083333Y-73011247D02*
X191035714Y-73201723D01*
X191035714Y-73201723D02*
X190988095Y-73296961D01*
X190988095Y-73296961D02*
X190892857Y-73392200D01*
X190892857Y-73392200D02*
X190750000Y-73439819D01*
X190750000Y-73439819D02*
X190511905Y-73439819D01*
X191464286Y-72535057D02*
X191511905Y-72487438D01*
X191511905Y-72487438D02*
X191607143Y-72439819D01*
X191607143Y-72439819D02*
X191845238Y-72439819D01*
X191845238Y-72439819D02*
X191940476Y-72487438D01*
X191940476Y-72487438D02*
X191988095Y-72535057D01*
X191988095Y-72535057D02*
X192035714Y-72630295D01*
X192035714Y-72630295D02*
X192035714Y-72725533D01*
X192035714Y-72725533D02*
X191988095Y-72868390D01*
X191988095Y-72868390D02*
X191416667Y-73439819D01*
X191416667Y-73439819D02*
X192035714Y-73439819D01*
X205954819Y-70602857D02*
X205478628Y-70936190D01*
X205954819Y-71174285D02*
X204954819Y-71174285D01*
X204954819Y-71174285D02*
X204954819Y-70793333D01*
X204954819Y-70793333D02*
X205002438Y-70698095D01*
X205002438Y-70698095D02*
X205050057Y-70650476D01*
X205050057Y-70650476D02*
X205145295Y-70602857D01*
X205145295Y-70602857D02*
X205288152Y-70602857D01*
X205288152Y-70602857D02*
X205383390Y-70650476D01*
X205383390Y-70650476D02*
X205431009Y-70698095D01*
X205431009Y-70698095D02*
X205478628Y-70793333D01*
X205478628Y-70793333D02*
X205478628Y-71174285D01*
X205954819Y-69650476D02*
X205954819Y-70221904D01*
X205954819Y-69936190D02*
X204954819Y-69936190D01*
X204954819Y-69936190D02*
X205097676Y-70031428D01*
X205097676Y-70031428D02*
X205192914Y-70126666D01*
X205192914Y-70126666D02*
X205240533Y-70221904D01*
X204954819Y-69317142D02*
X204954819Y-68650476D01*
X204954819Y-68650476D02*
X205954819Y-69079047D01*
X194583333Y-68439819D02*
X194250000Y-67963628D01*
X194011905Y-68439819D02*
X194011905Y-67439819D01*
X194011905Y-67439819D02*
X194392857Y-67439819D01*
X194392857Y-67439819D02*
X194488095Y-67487438D01*
X194488095Y-67487438D02*
X194535714Y-67535057D01*
X194535714Y-67535057D02*
X194583333Y-67630295D01*
X194583333Y-67630295D02*
X194583333Y-67773152D01*
X194583333Y-67773152D02*
X194535714Y-67868390D01*
X194535714Y-67868390D02*
X194488095Y-67916009D01*
X194488095Y-67916009D02*
X194392857Y-67963628D01*
X194392857Y-67963628D02*
X194011905Y-67963628D01*
X195154762Y-67868390D02*
X195059524Y-67820771D01*
X195059524Y-67820771D02*
X195011905Y-67773152D01*
X195011905Y-67773152D02*
X194964286Y-67677914D01*
X194964286Y-67677914D02*
X194964286Y-67630295D01*
X194964286Y-67630295D02*
X195011905Y-67535057D01*
X195011905Y-67535057D02*
X195059524Y-67487438D01*
X195059524Y-67487438D02*
X195154762Y-67439819D01*
X195154762Y-67439819D02*
X195345238Y-67439819D01*
X195345238Y-67439819D02*
X195440476Y-67487438D01*
X195440476Y-67487438D02*
X195488095Y-67535057D01*
X195488095Y-67535057D02*
X195535714Y-67630295D01*
X195535714Y-67630295D02*
X195535714Y-67677914D01*
X195535714Y-67677914D02*
X195488095Y-67773152D01*
X195488095Y-67773152D02*
X195440476Y-67820771D01*
X195440476Y-67820771D02*
X195345238Y-67868390D01*
X195345238Y-67868390D02*
X195154762Y-67868390D01*
X195154762Y-67868390D02*
X195059524Y-67916009D01*
X195059524Y-67916009D02*
X195011905Y-67963628D01*
X195011905Y-67963628D02*
X194964286Y-68058866D01*
X194964286Y-68058866D02*
X194964286Y-68249342D01*
X194964286Y-68249342D02*
X195011905Y-68344580D01*
X195011905Y-68344580D02*
X195059524Y-68392200D01*
X195059524Y-68392200D02*
X195154762Y-68439819D01*
X195154762Y-68439819D02*
X195345238Y-68439819D01*
X195345238Y-68439819D02*
X195440476Y-68392200D01*
X195440476Y-68392200D02*
X195488095Y-68344580D01*
X195488095Y-68344580D02*
X195535714Y-68249342D01*
X195535714Y-68249342D02*
X195535714Y-68058866D01*
X195535714Y-68058866D02*
X195488095Y-67963628D01*
X195488095Y-67963628D02*
X195440476Y-67916009D01*
X195440476Y-67916009D02*
X195345238Y-67868390D01*
X213476667Y-68907200D02*
X213619524Y-68954819D01*
X213619524Y-68954819D02*
X213857619Y-68954819D01*
X213857619Y-68954819D02*
X213952857Y-68907200D01*
X213952857Y-68907200D02*
X214000476Y-68859580D01*
X214000476Y-68859580D02*
X214048095Y-68764342D01*
X214048095Y-68764342D02*
X214048095Y-68669104D01*
X214048095Y-68669104D02*
X214000476Y-68573866D01*
X214000476Y-68573866D02*
X213952857Y-68526247D01*
X213952857Y-68526247D02*
X213857619Y-68478628D01*
X213857619Y-68478628D02*
X213667143Y-68431009D01*
X213667143Y-68431009D02*
X213571905Y-68383390D01*
X213571905Y-68383390D02*
X213524286Y-68335771D01*
X213524286Y-68335771D02*
X213476667Y-68240533D01*
X213476667Y-68240533D02*
X213476667Y-68145295D01*
X213476667Y-68145295D02*
X213524286Y-68050057D01*
X213524286Y-68050057D02*
X213571905Y-68002438D01*
X213571905Y-68002438D02*
X213667143Y-67954819D01*
X213667143Y-67954819D02*
X213905238Y-67954819D01*
X213905238Y-67954819D02*
X214048095Y-68002438D01*
X214381429Y-67954819D02*
X214619524Y-68954819D01*
X214619524Y-68954819D02*
X214810000Y-68240533D01*
X214810000Y-68240533D02*
X215000476Y-68954819D01*
X215000476Y-68954819D02*
X215238572Y-67954819D01*
X216143333Y-68954819D02*
X215571905Y-68954819D01*
X215857619Y-68954819D02*
X215857619Y-67954819D01*
X215857619Y-67954819D02*
X215762381Y-68097676D01*
X215762381Y-68097676D02*
X215667143Y-68192914D01*
X215667143Y-68192914D02*
X215571905Y-68240533D01*
X169497142Y-68439819D02*
X169163809Y-67963628D01*
X168925714Y-68439819D02*
X168925714Y-67439819D01*
X168925714Y-67439819D02*
X169306666Y-67439819D01*
X169306666Y-67439819D02*
X169401904Y-67487438D01*
X169401904Y-67487438D02*
X169449523Y-67535057D01*
X169449523Y-67535057D02*
X169497142Y-67630295D01*
X169497142Y-67630295D02*
X169497142Y-67773152D01*
X169497142Y-67773152D02*
X169449523Y-67868390D01*
X169449523Y-67868390D02*
X169401904Y-67916009D01*
X169401904Y-67916009D02*
X169306666Y-67963628D01*
X169306666Y-67963628D02*
X168925714Y-67963628D01*
X170449523Y-68439819D02*
X169878095Y-68439819D01*
X170163809Y-68439819D02*
X170163809Y-67439819D01*
X170163809Y-67439819D02*
X170068571Y-67582676D01*
X170068571Y-67582676D02*
X169973333Y-67677914D01*
X169973333Y-67677914D02*
X169878095Y-67725533D01*
X171306666Y-67773152D02*
X171306666Y-68439819D01*
X171068571Y-67392200D02*
X170830476Y-68106485D01*
X170830476Y-68106485D02*
X171449523Y-68106485D01*
X186011905Y-73439819D02*
X186011905Y-72439819D01*
X186011905Y-72439819D02*
X186250000Y-72439819D01*
X186250000Y-72439819D02*
X186392857Y-72487438D01*
X186392857Y-72487438D02*
X186488095Y-72582676D01*
X186488095Y-72582676D02*
X186535714Y-72677914D01*
X186535714Y-72677914D02*
X186583333Y-72868390D01*
X186583333Y-72868390D02*
X186583333Y-73011247D01*
X186583333Y-73011247D02*
X186535714Y-73201723D01*
X186535714Y-73201723D02*
X186488095Y-73296961D01*
X186488095Y-73296961D02*
X186392857Y-73392200D01*
X186392857Y-73392200D02*
X186250000Y-73439819D01*
X186250000Y-73439819D02*
X186011905Y-73439819D01*
X187535714Y-73439819D02*
X186964286Y-73439819D01*
X187250000Y-73439819D02*
X187250000Y-72439819D01*
X187250000Y-72439819D02*
X187154762Y-72582676D01*
X187154762Y-72582676D02*
X187059524Y-72677914D01*
X187059524Y-72677914D02*
X186964286Y-72725533D01*
X209307319Y-101333333D02*
X210021604Y-101333333D01*
X210021604Y-101333333D02*
X210164461Y-101380952D01*
X210164461Y-101380952D02*
X210259700Y-101476190D01*
X210259700Y-101476190D02*
X210307319Y-101619047D01*
X210307319Y-101619047D02*
X210307319Y-101714285D01*
X209307319Y-100952380D02*
X209307319Y-100333333D01*
X209307319Y-100333333D02*
X209688271Y-100666666D01*
X209688271Y-100666666D02*
X209688271Y-100523809D01*
X209688271Y-100523809D02*
X209735890Y-100428571D01*
X209735890Y-100428571D02*
X209783509Y-100380952D01*
X209783509Y-100380952D02*
X209878747Y-100333333D01*
X209878747Y-100333333D02*
X210116842Y-100333333D01*
X210116842Y-100333333D02*
X210212080Y-100380952D01*
X210212080Y-100380952D02*
X210259700Y-100428571D01*
X210259700Y-100428571D02*
X210307319Y-100523809D01*
X210307319Y-100523809D02*
X210307319Y-100809523D01*
X210307319Y-100809523D02*
X210259700Y-100904761D01*
X210259700Y-100904761D02*
X210212080Y-100952380D01*
X114074819Y-84603333D02*
X114789104Y-84603333D01*
X114789104Y-84603333D02*
X114931961Y-84650952D01*
X114931961Y-84650952D02*
X115027200Y-84746190D01*
X115027200Y-84746190D02*
X115074819Y-84889047D01*
X115074819Y-84889047D02*
X115074819Y-84984285D01*
X114503390Y-83984285D02*
X114455771Y-84079523D01*
X114455771Y-84079523D02*
X114408152Y-84127142D01*
X114408152Y-84127142D02*
X114312914Y-84174761D01*
X114312914Y-84174761D02*
X114265295Y-84174761D01*
X114265295Y-84174761D02*
X114170057Y-84127142D01*
X114170057Y-84127142D02*
X114122438Y-84079523D01*
X114122438Y-84079523D02*
X114074819Y-83984285D01*
X114074819Y-83984285D02*
X114074819Y-83793809D01*
X114074819Y-83793809D02*
X114122438Y-83698571D01*
X114122438Y-83698571D02*
X114170057Y-83650952D01*
X114170057Y-83650952D02*
X114265295Y-83603333D01*
X114265295Y-83603333D02*
X114312914Y-83603333D01*
X114312914Y-83603333D02*
X114408152Y-83650952D01*
X114408152Y-83650952D02*
X114455771Y-83698571D01*
X114455771Y-83698571D02*
X114503390Y-83793809D01*
X114503390Y-83793809D02*
X114503390Y-83984285D01*
X114503390Y-83984285D02*
X114551009Y-84079523D01*
X114551009Y-84079523D02*
X114598628Y-84127142D01*
X114598628Y-84127142D02*
X114693866Y-84174761D01*
X114693866Y-84174761D02*
X114884342Y-84174761D01*
X114884342Y-84174761D02*
X114979580Y-84127142D01*
X114979580Y-84127142D02*
X115027200Y-84079523D01*
X115027200Y-84079523D02*
X115074819Y-83984285D01*
X115074819Y-83984285D02*
X115074819Y-83793809D01*
X115074819Y-83793809D02*
X115027200Y-83698571D01*
X115027200Y-83698571D02*
X114979580Y-83650952D01*
X114979580Y-83650952D02*
X114884342Y-83603333D01*
X114884342Y-83603333D02*
X114693866Y-83603333D01*
X114693866Y-83603333D02*
X114598628Y-83650952D01*
X114598628Y-83650952D02*
X114551009Y-83698571D01*
X114551009Y-83698571D02*
X114503390Y-83793809D01*
X198001905Y-79794819D02*
X198001905Y-78794819D01*
X198001905Y-78794819D02*
X198240000Y-78794819D01*
X198240000Y-78794819D02*
X198382857Y-78842438D01*
X198382857Y-78842438D02*
X198478095Y-78937676D01*
X198478095Y-78937676D02*
X198525714Y-79032914D01*
X198525714Y-79032914D02*
X198573333Y-79223390D01*
X198573333Y-79223390D02*
X198573333Y-79366247D01*
X198573333Y-79366247D02*
X198525714Y-79556723D01*
X198525714Y-79556723D02*
X198478095Y-79651961D01*
X198478095Y-79651961D02*
X198382857Y-79747200D01*
X198382857Y-79747200D02*
X198240000Y-79794819D01*
X198240000Y-79794819D02*
X198001905Y-79794819D01*
X199478095Y-78794819D02*
X199001905Y-78794819D01*
X199001905Y-78794819D02*
X198954286Y-79271009D01*
X198954286Y-79271009D02*
X199001905Y-79223390D01*
X199001905Y-79223390D02*
X199097143Y-79175771D01*
X199097143Y-79175771D02*
X199335238Y-79175771D01*
X199335238Y-79175771D02*
X199430476Y-79223390D01*
X199430476Y-79223390D02*
X199478095Y-79271009D01*
X199478095Y-79271009D02*
X199525714Y-79366247D01*
X199525714Y-79366247D02*
X199525714Y-79604342D01*
X199525714Y-79604342D02*
X199478095Y-79699580D01*
X199478095Y-79699580D02*
X199430476Y-79747200D01*
X199430476Y-79747200D02*
X199335238Y-79794819D01*
X199335238Y-79794819D02*
X199097143Y-79794819D01*
X199097143Y-79794819D02*
X199001905Y-79747200D01*
X199001905Y-79747200D02*
X198954286Y-79699580D01*
X116490476Y-42904819D02*
X116490476Y-43619104D01*
X116490476Y-43619104D02*
X116442857Y-43761961D01*
X116442857Y-43761961D02*
X116347619Y-43857200D01*
X116347619Y-43857200D02*
X116204762Y-43904819D01*
X116204762Y-43904819D02*
X116109524Y-43904819D01*
X117490476Y-43904819D02*
X116919048Y-43904819D01*
X117204762Y-43904819D02*
X117204762Y-42904819D01*
X117204762Y-42904819D02*
X117109524Y-43047676D01*
X117109524Y-43047676D02*
X117014286Y-43142914D01*
X117014286Y-43142914D02*
X116919048Y-43190533D01*
X117823810Y-42904819D02*
X118442857Y-42904819D01*
X118442857Y-42904819D02*
X118109524Y-43285771D01*
X118109524Y-43285771D02*
X118252381Y-43285771D01*
X118252381Y-43285771D02*
X118347619Y-43333390D01*
X118347619Y-43333390D02*
X118395238Y-43381009D01*
X118395238Y-43381009D02*
X118442857Y-43476247D01*
X118442857Y-43476247D02*
X118442857Y-43714342D01*
X118442857Y-43714342D02*
X118395238Y-43809580D01*
X118395238Y-43809580D02*
X118347619Y-43857200D01*
X118347619Y-43857200D02*
X118252381Y-43904819D01*
X118252381Y-43904819D02*
X117966667Y-43904819D01*
X117966667Y-43904819D02*
X117871429Y-43857200D01*
X117871429Y-43857200D02*
X117823810Y-43809580D01*
X154159580Y-101666666D02*
X154207200Y-101714285D01*
X154207200Y-101714285D02*
X154254819Y-101857142D01*
X154254819Y-101857142D02*
X154254819Y-101952380D01*
X154254819Y-101952380D02*
X154207200Y-102095237D01*
X154207200Y-102095237D02*
X154111961Y-102190475D01*
X154111961Y-102190475D02*
X154016723Y-102238094D01*
X154016723Y-102238094D02*
X153826247Y-102285713D01*
X153826247Y-102285713D02*
X153683390Y-102285713D01*
X153683390Y-102285713D02*
X153492914Y-102238094D01*
X153492914Y-102238094D02*
X153397676Y-102190475D01*
X153397676Y-102190475D02*
X153302438Y-102095237D01*
X153302438Y-102095237D02*
X153254819Y-101952380D01*
X153254819Y-101952380D02*
X153254819Y-101857142D01*
X153254819Y-101857142D02*
X153302438Y-101714285D01*
X153302438Y-101714285D02*
X153350057Y-101666666D01*
X153683390Y-101095237D02*
X153635771Y-101190475D01*
X153635771Y-101190475D02*
X153588152Y-101238094D01*
X153588152Y-101238094D02*
X153492914Y-101285713D01*
X153492914Y-101285713D02*
X153445295Y-101285713D01*
X153445295Y-101285713D02*
X153350057Y-101238094D01*
X153350057Y-101238094D02*
X153302438Y-101190475D01*
X153302438Y-101190475D02*
X153254819Y-101095237D01*
X153254819Y-101095237D02*
X153254819Y-100904761D01*
X153254819Y-100904761D02*
X153302438Y-100809523D01*
X153302438Y-100809523D02*
X153350057Y-100761904D01*
X153350057Y-100761904D02*
X153445295Y-100714285D01*
X153445295Y-100714285D02*
X153492914Y-100714285D01*
X153492914Y-100714285D02*
X153588152Y-100761904D01*
X153588152Y-100761904D02*
X153635771Y-100809523D01*
X153635771Y-100809523D02*
X153683390Y-100904761D01*
X153683390Y-100904761D02*
X153683390Y-101095237D01*
X153683390Y-101095237D02*
X153731009Y-101190475D01*
X153731009Y-101190475D02*
X153778628Y-101238094D01*
X153778628Y-101238094D02*
X153873866Y-101285713D01*
X153873866Y-101285713D02*
X154064342Y-101285713D01*
X154064342Y-101285713D02*
X154159580Y-101238094D01*
X154159580Y-101238094D02*
X154207200Y-101190475D01*
X154207200Y-101190475D02*
X154254819Y-101095237D01*
X154254819Y-101095237D02*
X154254819Y-100904761D01*
X154254819Y-100904761D02*
X154207200Y-100809523D01*
X154207200Y-100809523D02*
X154159580Y-100761904D01*
X154159580Y-100761904D02*
X154064342Y-100714285D01*
X154064342Y-100714285D02*
X153873866Y-100714285D01*
X153873866Y-100714285D02*
X153778628Y-100761904D01*
X153778628Y-100761904D02*
X153731009Y-100809523D01*
X153731009Y-100809523D02*
X153683390Y-100904761D01*
X114074819Y-78103333D02*
X114789104Y-78103333D01*
X114789104Y-78103333D02*
X114931961Y-78150952D01*
X114931961Y-78150952D02*
X115027200Y-78246190D01*
X115027200Y-78246190D02*
X115074819Y-78389047D01*
X115074819Y-78389047D02*
X115074819Y-78484285D01*
X115074819Y-77579523D02*
X115074819Y-77389047D01*
X115074819Y-77389047D02*
X115027200Y-77293809D01*
X115027200Y-77293809D02*
X114979580Y-77246190D01*
X114979580Y-77246190D02*
X114836723Y-77150952D01*
X114836723Y-77150952D02*
X114646247Y-77103333D01*
X114646247Y-77103333D02*
X114265295Y-77103333D01*
X114265295Y-77103333D02*
X114170057Y-77150952D01*
X114170057Y-77150952D02*
X114122438Y-77198571D01*
X114122438Y-77198571D02*
X114074819Y-77293809D01*
X114074819Y-77293809D02*
X114074819Y-77484285D01*
X114074819Y-77484285D02*
X114122438Y-77579523D01*
X114122438Y-77579523D02*
X114170057Y-77627142D01*
X114170057Y-77627142D02*
X114265295Y-77674761D01*
X114265295Y-77674761D02*
X114503390Y-77674761D01*
X114503390Y-77674761D02*
X114598628Y-77627142D01*
X114598628Y-77627142D02*
X114646247Y-77579523D01*
X114646247Y-77579523D02*
X114693866Y-77484285D01*
X114693866Y-77484285D02*
X114693866Y-77293809D01*
X114693866Y-77293809D02*
X114646247Y-77198571D01*
X114646247Y-77198571D02*
X114598628Y-77150952D01*
X114598628Y-77150952D02*
X114503390Y-77103333D01*
X173621905Y-79564819D02*
X173621905Y-78564819D01*
X173621905Y-78564819D02*
X173860000Y-78564819D01*
X173860000Y-78564819D02*
X174002857Y-78612438D01*
X174002857Y-78612438D02*
X174098095Y-78707676D01*
X174098095Y-78707676D02*
X174145714Y-78802914D01*
X174145714Y-78802914D02*
X174193333Y-78993390D01*
X174193333Y-78993390D02*
X174193333Y-79136247D01*
X174193333Y-79136247D02*
X174145714Y-79326723D01*
X174145714Y-79326723D02*
X174098095Y-79421961D01*
X174098095Y-79421961D02*
X174002857Y-79517200D01*
X174002857Y-79517200D02*
X173860000Y-79564819D01*
X173860000Y-79564819D02*
X173621905Y-79564819D01*
X174526667Y-78564819D02*
X175145714Y-78564819D01*
X175145714Y-78564819D02*
X174812381Y-78945771D01*
X174812381Y-78945771D02*
X174955238Y-78945771D01*
X174955238Y-78945771D02*
X175050476Y-78993390D01*
X175050476Y-78993390D02*
X175098095Y-79041009D01*
X175098095Y-79041009D02*
X175145714Y-79136247D01*
X175145714Y-79136247D02*
X175145714Y-79374342D01*
X175145714Y-79374342D02*
X175098095Y-79469580D01*
X175098095Y-79469580D02*
X175050476Y-79517200D01*
X175050476Y-79517200D02*
X174955238Y-79564819D01*
X174955238Y-79564819D02*
X174669524Y-79564819D01*
X174669524Y-79564819D02*
X174574286Y-79517200D01*
X174574286Y-79517200D02*
X174526667Y-79469580D01*
X169497142Y-70939819D02*
X169163809Y-70463628D01*
X168925714Y-70939819D02*
X168925714Y-69939819D01*
X168925714Y-69939819D02*
X169306666Y-69939819D01*
X169306666Y-69939819D02*
X169401904Y-69987438D01*
X169401904Y-69987438D02*
X169449523Y-70035057D01*
X169449523Y-70035057D02*
X169497142Y-70130295D01*
X169497142Y-70130295D02*
X169497142Y-70273152D01*
X169497142Y-70273152D02*
X169449523Y-70368390D01*
X169449523Y-70368390D02*
X169401904Y-70416009D01*
X169401904Y-70416009D02*
X169306666Y-70463628D01*
X169306666Y-70463628D02*
X168925714Y-70463628D01*
X170449523Y-70939819D02*
X169878095Y-70939819D01*
X170163809Y-70939819D02*
X170163809Y-69939819D01*
X170163809Y-69939819D02*
X170068571Y-70082676D01*
X170068571Y-70082676D02*
X169973333Y-70177914D01*
X169973333Y-70177914D02*
X169878095Y-70225533D01*
X170782857Y-69939819D02*
X171401904Y-69939819D01*
X171401904Y-69939819D02*
X171068571Y-70320771D01*
X171068571Y-70320771D02*
X171211428Y-70320771D01*
X171211428Y-70320771D02*
X171306666Y-70368390D01*
X171306666Y-70368390D02*
X171354285Y-70416009D01*
X171354285Y-70416009D02*
X171401904Y-70511247D01*
X171401904Y-70511247D02*
X171401904Y-70749342D01*
X171401904Y-70749342D02*
X171354285Y-70844580D01*
X171354285Y-70844580D02*
X171306666Y-70892200D01*
X171306666Y-70892200D02*
X171211428Y-70939819D01*
X171211428Y-70939819D02*
X170925714Y-70939819D01*
X170925714Y-70939819D02*
X170830476Y-70892200D01*
X170830476Y-70892200D02*
X170782857Y-70844580D01*
X165171905Y-73209819D02*
X165171905Y-72209819D01*
X165171905Y-72209819D02*
X165410000Y-72209819D01*
X165410000Y-72209819D02*
X165552857Y-72257438D01*
X165552857Y-72257438D02*
X165648095Y-72352676D01*
X165648095Y-72352676D02*
X165695714Y-72447914D01*
X165695714Y-72447914D02*
X165743333Y-72638390D01*
X165743333Y-72638390D02*
X165743333Y-72781247D01*
X165743333Y-72781247D02*
X165695714Y-72971723D01*
X165695714Y-72971723D02*
X165648095Y-73066961D01*
X165648095Y-73066961D02*
X165552857Y-73162200D01*
X165552857Y-73162200D02*
X165410000Y-73209819D01*
X165410000Y-73209819D02*
X165171905Y-73209819D01*
X166314762Y-72638390D02*
X166219524Y-72590771D01*
X166219524Y-72590771D02*
X166171905Y-72543152D01*
X166171905Y-72543152D02*
X166124286Y-72447914D01*
X166124286Y-72447914D02*
X166124286Y-72400295D01*
X166124286Y-72400295D02*
X166171905Y-72305057D01*
X166171905Y-72305057D02*
X166219524Y-72257438D01*
X166219524Y-72257438D02*
X166314762Y-72209819D01*
X166314762Y-72209819D02*
X166505238Y-72209819D01*
X166505238Y-72209819D02*
X166600476Y-72257438D01*
X166600476Y-72257438D02*
X166648095Y-72305057D01*
X166648095Y-72305057D02*
X166695714Y-72400295D01*
X166695714Y-72400295D02*
X166695714Y-72447914D01*
X166695714Y-72447914D02*
X166648095Y-72543152D01*
X166648095Y-72543152D02*
X166600476Y-72590771D01*
X166600476Y-72590771D02*
X166505238Y-72638390D01*
X166505238Y-72638390D02*
X166314762Y-72638390D01*
X166314762Y-72638390D02*
X166219524Y-72686009D01*
X166219524Y-72686009D02*
X166171905Y-72733628D01*
X166171905Y-72733628D02*
X166124286Y-72828866D01*
X166124286Y-72828866D02*
X166124286Y-73019342D01*
X166124286Y-73019342D02*
X166171905Y-73114580D01*
X166171905Y-73114580D02*
X166219524Y-73162200D01*
X166219524Y-73162200D02*
X166314762Y-73209819D01*
X166314762Y-73209819D02*
X166505238Y-73209819D01*
X166505238Y-73209819D02*
X166600476Y-73162200D01*
X166600476Y-73162200D02*
X166648095Y-73114580D01*
X166648095Y-73114580D02*
X166695714Y-73019342D01*
X166695714Y-73019342D02*
X166695714Y-72828866D01*
X166695714Y-72828866D02*
X166648095Y-72733628D01*
X166648095Y-72733628D02*
X166600476Y-72686009D01*
X166600476Y-72686009D02*
X166505238Y-72638390D01*
X198433333Y-108699580D02*
X198385714Y-108747200D01*
X198385714Y-108747200D02*
X198242857Y-108794819D01*
X198242857Y-108794819D02*
X198147619Y-108794819D01*
X198147619Y-108794819D02*
X198004762Y-108747200D01*
X198004762Y-108747200D02*
X197909524Y-108651961D01*
X197909524Y-108651961D02*
X197861905Y-108556723D01*
X197861905Y-108556723D02*
X197814286Y-108366247D01*
X197814286Y-108366247D02*
X197814286Y-108223390D01*
X197814286Y-108223390D02*
X197861905Y-108032914D01*
X197861905Y-108032914D02*
X197909524Y-107937676D01*
X197909524Y-107937676D02*
X198004762Y-107842438D01*
X198004762Y-107842438D02*
X198147619Y-107794819D01*
X198147619Y-107794819D02*
X198242857Y-107794819D01*
X198242857Y-107794819D02*
X198385714Y-107842438D01*
X198385714Y-107842438D02*
X198433333Y-107890057D01*
X199290476Y-108128152D02*
X199290476Y-108794819D01*
X199052381Y-107747200D02*
X198814286Y-108461485D01*
X198814286Y-108461485D02*
X199433333Y-108461485D01*
X161833333Y-43844580D02*
X161785714Y-43892200D01*
X161785714Y-43892200D02*
X161642857Y-43939819D01*
X161642857Y-43939819D02*
X161547619Y-43939819D01*
X161547619Y-43939819D02*
X161404762Y-43892200D01*
X161404762Y-43892200D02*
X161309524Y-43796961D01*
X161309524Y-43796961D02*
X161261905Y-43701723D01*
X161261905Y-43701723D02*
X161214286Y-43511247D01*
X161214286Y-43511247D02*
X161214286Y-43368390D01*
X161214286Y-43368390D02*
X161261905Y-43177914D01*
X161261905Y-43177914D02*
X161309524Y-43082676D01*
X161309524Y-43082676D02*
X161404762Y-42987438D01*
X161404762Y-42987438D02*
X161547619Y-42939819D01*
X161547619Y-42939819D02*
X161642857Y-42939819D01*
X161642857Y-42939819D02*
X161785714Y-42987438D01*
X161785714Y-42987438D02*
X161833333Y-43035057D01*
X162690476Y-42939819D02*
X162500000Y-42939819D01*
X162500000Y-42939819D02*
X162404762Y-42987438D01*
X162404762Y-42987438D02*
X162357143Y-43035057D01*
X162357143Y-43035057D02*
X162261905Y-43177914D01*
X162261905Y-43177914D02*
X162214286Y-43368390D01*
X162214286Y-43368390D02*
X162214286Y-43749342D01*
X162214286Y-43749342D02*
X162261905Y-43844580D01*
X162261905Y-43844580D02*
X162309524Y-43892200D01*
X162309524Y-43892200D02*
X162404762Y-43939819D01*
X162404762Y-43939819D02*
X162595238Y-43939819D01*
X162595238Y-43939819D02*
X162690476Y-43892200D01*
X162690476Y-43892200D02*
X162738095Y-43844580D01*
X162738095Y-43844580D02*
X162785714Y-43749342D01*
X162785714Y-43749342D02*
X162785714Y-43511247D01*
X162785714Y-43511247D02*
X162738095Y-43416009D01*
X162738095Y-43416009D02*
X162690476Y-43368390D01*
X162690476Y-43368390D02*
X162595238Y-43320771D01*
X162595238Y-43320771D02*
X162404762Y-43320771D01*
X162404762Y-43320771D02*
X162309524Y-43368390D01*
X162309524Y-43368390D02*
X162261905Y-43416009D01*
X162261905Y-43416009D02*
X162214286Y-43511247D01*
X180333333Y-43859580D02*
X180285714Y-43907200D01*
X180285714Y-43907200D02*
X180142857Y-43954819D01*
X180142857Y-43954819D02*
X180047619Y-43954819D01*
X180047619Y-43954819D02*
X179904762Y-43907200D01*
X179904762Y-43907200D02*
X179809524Y-43811961D01*
X179809524Y-43811961D02*
X179761905Y-43716723D01*
X179761905Y-43716723D02*
X179714286Y-43526247D01*
X179714286Y-43526247D02*
X179714286Y-43383390D01*
X179714286Y-43383390D02*
X179761905Y-43192914D01*
X179761905Y-43192914D02*
X179809524Y-43097676D01*
X179809524Y-43097676D02*
X179904762Y-43002438D01*
X179904762Y-43002438D02*
X180047619Y-42954819D01*
X180047619Y-42954819D02*
X180142857Y-42954819D01*
X180142857Y-42954819D02*
X180285714Y-43002438D01*
X180285714Y-43002438D02*
X180333333Y-43050057D01*
X180714286Y-43050057D02*
X180761905Y-43002438D01*
X180761905Y-43002438D02*
X180857143Y-42954819D01*
X180857143Y-42954819D02*
X181095238Y-42954819D01*
X181095238Y-42954819D02*
X181190476Y-43002438D01*
X181190476Y-43002438D02*
X181238095Y-43050057D01*
X181238095Y-43050057D02*
X181285714Y-43145295D01*
X181285714Y-43145295D02*
X181285714Y-43240533D01*
X181285714Y-43240533D02*
X181238095Y-43383390D01*
X181238095Y-43383390D02*
X180666667Y-43954819D01*
X180666667Y-43954819D02*
X181285714Y-43954819D01*
X169121905Y-79554819D02*
X169121905Y-78554819D01*
X169121905Y-78554819D02*
X169360000Y-78554819D01*
X169360000Y-78554819D02*
X169502857Y-78602438D01*
X169502857Y-78602438D02*
X169598095Y-78697676D01*
X169598095Y-78697676D02*
X169645714Y-78792914D01*
X169645714Y-78792914D02*
X169693333Y-78983390D01*
X169693333Y-78983390D02*
X169693333Y-79126247D01*
X169693333Y-79126247D02*
X169645714Y-79316723D01*
X169645714Y-79316723D02*
X169598095Y-79411961D01*
X169598095Y-79411961D02*
X169502857Y-79507200D01*
X169502857Y-79507200D02*
X169360000Y-79554819D01*
X169360000Y-79554819D02*
X169121905Y-79554819D01*
X170550476Y-78888152D02*
X170550476Y-79554819D01*
X170312381Y-78507200D02*
X170074286Y-79221485D01*
X170074286Y-79221485D02*
X170693333Y-79221485D01*
X189677142Y-84294819D02*
X189343809Y-83818628D01*
X189105714Y-84294819D02*
X189105714Y-83294819D01*
X189105714Y-83294819D02*
X189486666Y-83294819D01*
X189486666Y-83294819D02*
X189581904Y-83342438D01*
X189581904Y-83342438D02*
X189629523Y-83390057D01*
X189629523Y-83390057D02*
X189677142Y-83485295D01*
X189677142Y-83485295D02*
X189677142Y-83628152D01*
X189677142Y-83628152D02*
X189629523Y-83723390D01*
X189629523Y-83723390D02*
X189581904Y-83771009D01*
X189581904Y-83771009D02*
X189486666Y-83818628D01*
X189486666Y-83818628D02*
X189105714Y-83818628D01*
X190629523Y-84294819D02*
X190058095Y-84294819D01*
X190343809Y-84294819D02*
X190343809Y-83294819D01*
X190343809Y-83294819D02*
X190248571Y-83437676D01*
X190248571Y-83437676D02*
X190153333Y-83532914D01*
X190153333Y-83532914D02*
X190058095Y-83580533D01*
X191010476Y-83390057D02*
X191058095Y-83342438D01*
X191058095Y-83342438D02*
X191153333Y-83294819D01*
X191153333Y-83294819D02*
X191391428Y-83294819D01*
X191391428Y-83294819D02*
X191486666Y-83342438D01*
X191486666Y-83342438D02*
X191534285Y-83390057D01*
X191534285Y-83390057D02*
X191581904Y-83485295D01*
X191581904Y-83485295D02*
X191581904Y-83580533D01*
X191581904Y-83580533D02*
X191534285Y-83723390D01*
X191534285Y-83723390D02*
X190962857Y-84294819D01*
X190962857Y-84294819D02*
X191581904Y-84294819D01*
X163666666Y-107801820D02*
X163666666Y-108516105D01*
X163666666Y-108516105D02*
X163619047Y-108658962D01*
X163619047Y-108658962D02*
X163523809Y-108754201D01*
X163523809Y-108754201D02*
X163380952Y-108801820D01*
X163380952Y-108801820D02*
X163285714Y-108801820D01*
X164619047Y-107801820D02*
X164142857Y-107801820D01*
X164142857Y-107801820D02*
X164095238Y-108278010D01*
X164095238Y-108278010D02*
X164142857Y-108230391D01*
X164142857Y-108230391D02*
X164238095Y-108182772D01*
X164238095Y-108182772D02*
X164476190Y-108182772D01*
X164476190Y-108182772D02*
X164571428Y-108230391D01*
X164571428Y-108230391D02*
X164619047Y-108278010D01*
X164619047Y-108278010D02*
X164666666Y-108373248D01*
X164666666Y-108373248D02*
X164666666Y-108611343D01*
X164666666Y-108611343D02*
X164619047Y-108706581D01*
X164619047Y-108706581D02*
X164571428Y-108754201D01*
X164571428Y-108754201D02*
X164476190Y-108801820D01*
X164476190Y-108801820D02*
X164238095Y-108801820D01*
X164238095Y-108801820D02*
X164142857Y-108754201D01*
X164142857Y-108754201D02*
X164095238Y-108706581D01*
X114074819Y-72079523D02*
X114789104Y-72079523D01*
X114789104Y-72079523D02*
X114931961Y-72127142D01*
X114931961Y-72127142D02*
X115027200Y-72222380D01*
X115027200Y-72222380D02*
X115074819Y-72365237D01*
X115074819Y-72365237D02*
X115074819Y-72460475D01*
X115074819Y-71079523D02*
X115074819Y-71650951D01*
X115074819Y-71365237D02*
X114074819Y-71365237D01*
X114074819Y-71365237D02*
X114217676Y-71460475D01*
X114217676Y-71460475D02*
X114312914Y-71555713D01*
X114312914Y-71555713D02*
X114360533Y-71650951D01*
X114074819Y-70460475D02*
X114074819Y-70365237D01*
X114074819Y-70365237D02*
X114122438Y-70269999D01*
X114122438Y-70269999D02*
X114170057Y-70222380D01*
X114170057Y-70222380D02*
X114265295Y-70174761D01*
X114265295Y-70174761D02*
X114455771Y-70127142D01*
X114455771Y-70127142D02*
X114693866Y-70127142D01*
X114693866Y-70127142D02*
X114884342Y-70174761D01*
X114884342Y-70174761D02*
X114979580Y-70222380D01*
X114979580Y-70222380D02*
X115027200Y-70269999D01*
X115027200Y-70269999D02*
X115074819Y-70365237D01*
X115074819Y-70365237D02*
X115074819Y-70460475D01*
X115074819Y-70460475D02*
X115027200Y-70555713D01*
X115027200Y-70555713D02*
X114979580Y-70603332D01*
X114979580Y-70603332D02*
X114884342Y-70650951D01*
X114884342Y-70650951D02*
X114693866Y-70698570D01*
X114693866Y-70698570D02*
X114455771Y-70698570D01*
X114455771Y-70698570D02*
X114265295Y-70650951D01*
X114265295Y-70650951D02*
X114170057Y-70603332D01*
X114170057Y-70603332D02*
X114122438Y-70555713D01*
X114122438Y-70555713D02*
X114074819Y-70460475D01*
X156879104Y-59689285D02*
X156879104Y-59213095D01*
X157164819Y-59784523D02*
X156164819Y-59451190D01*
X156164819Y-59451190D02*
X157164819Y-59117857D01*
X156498152Y-58355952D02*
X157164819Y-58355952D01*
X156117200Y-58594047D02*
X156831485Y-58832142D01*
X156831485Y-58832142D02*
X156831485Y-58213095D01*
X213476667Y-95407200D02*
X213619524Y-95454819D01*
X213619524Y-95454819D02*
X213857619Y-95454819D01*
X213857619Y-95454819D02*
X213952857Y-95407200D01*
X213952857Y-95407200D02*
X214000476Y-95359580D01*
X214000476Y-95359580D02*
X214048095Y-95264342D01*
X214048095Y-95264342D02*
X214048095Y-95169104D01*
X214048095Y-95169104D02*
X214000476Y-95073866D01*
X214000476Y-95073866D02*
X213952857Y-95026247D01*
X213952857Y-95026247D02*
X213857619Y-94978628D01*
X213857619Y-94978628D02*
X213667143Y-94931009D01*
X213667143Y-94931009D02*
X213571905Y-94883390D01*
X213571905Y-94883390D02*
X213524286Y-94835771D01*
X213524286Y-94835771D02*
X213476667Y-94740533D01*
X213476667Y-94740533D02*
X213476667Y-94645295D01*
X213476667Y-94645295D02*
X213524286Y-94550057D01*
X213524286Y-94550057D02*
X213571905Y-94502438D01*
X213571905Y-94502438D02*
X213667143Y-94454819D01*
X213667143Y-94454819D02*
X213905238Y-94454819D01*
X213905238Y-94454819D02*
X214048095Y-94502438D01*
X214381429Y-94454819D02*
X214619524Y-95454819D01*
X214619524Y-95454819D02*
X214810000Y-94740533D01*
X214810000Y-94740533D02*
X215000476Y-95454819D01*
X215000476Y-95454819D02*
X215238572Y-94454819D01*
X215571905Y-94550057D02*
X215619524Y-94502438D01*
X215619524Y-94502438D02*
X215714762Y-94454819D01*
X215714762Y-94454819D02*
X215952857Y-94454819D01*
X215952857Y-94454819D02*
X216048095Y-94502438D01*
X216048095Y-94502438D02*
X216095714Y-94550057D01*
X216095714Y-94550057D02*
X216143333Y-94645295D01*
X216143333Y-94645295D02*
X216143333Y-94740533D01*
X216143333Y-94740533D02*
X216095714Y-94883390D01*
X216095714Y-94883390D02*
X215524286Y-95454819D01*
X215524286Y-95454819D02*
X216143333Y-95454819D01*
X189597142Y-81794819D02*
X189263809Y-81318628D01*
X189025714Y-81794819D02*
X189025714Y-80794819D01*
X189025714Y-80794819D02*
X189406666Y-80794819D01*
X189406666Y-80794819D02*
X189501904Y-80842438D01*
X189501904Y-80842438D02*
X189549523Y-80890057D01*
X189549523Y-80890057D02*
X189597142Y-80985295D01*
X189597142Y-80985295D02*
X189597142Y-81128152D01*
X189597142Y-81128152D02*
X189549523Y-81223390D01*
X189549523Y-81223390D02*
X189501904Y-81271009D01*
X189501904Y-81271009D02*
X189406666Y-81318628D01*
X189406666Y-81318628D02*
X189025714Y-81318628D01*
X190549523Y-81794819D02*
X189978095Y-81794819D01*
X190263809Y-81794819D02*
X190263809Y-80794819D01*
X190263809Y-80794819D02*
X190168571Y-80937676D01*
X190168571Y-80937676D02*
X190073333Y-81032914D01*
X190073333Y-81032914D02*
X189978095Y-81080533D01*
X191501904Y-81794819D02*
X190930476Y-81794819D01*
X191216190Y-81794819D02*
X191216190Y-80794819D01*
X191216190Y-80794819D02*
X191120952Y-80937676D01*
X191120952Y-80937676D02*
X191025714Y-81032914D01*
X191025714Y-81032914D02*
X190930476Y-81080533D01*
X134238095Y-48214819D02*
X134238095Y-49024342D01*
X134238095Y-49024342D02*
X134285714Y-49119580D01*
X134285714Y-49119580D02*
X134333333Y-49167200D01*
X134333333Y-49167200D02*
X134428571Y-49214819D01*
X134428571Y-49214819D02*
X134619047Y-49214819D01*
X134619047Y-49214819D02*
X134714285Y-49167200D01*
X134714285Y-49167200D02*
X134761904Y-49119580D01*
X134761904Y-49119580D02*
X134809523Y-49024342D01*
X134809523Y-49024342D02*
X134809523Y-48214819D01*
X135809523Y-49214819D02*
X135238095Y-49214819D01*
X135523809Y-49214819D02*
X135523809Y-48214819D01*
X135523809Y-48214819D02*
X135428571Y-48357676D01*
X135428571Y-48357676D02*
X135333333Y-48452914D01*
X135333333Y-48452914D02*
X135238095Y-48500533D01*
D12*
X130223884Y-50648609D02*
X130557217Y-50648609D01*
X130700074Y-51172419D02*
X130223884Y-51172419D01*
X130223884Y-51172419D02*
X130223884Y-50172419D01*
X130223884Y-50172419D02*
X130700074Y-50172419D01*
X131081027Y-51124800D02*
X131223884Y-51172419D01*
X131223884Y-51172419D02*
X131461979Y-51172419D01*
X131461979Y-51172419D02*
X131557217Y-51124800D01*
X131557217Y-51124800D02*
X131604836Y-51077180D01*
X131604836Y-51077180D02*
X131652455Y-50981942D01*
X131652455Y-50981942D02*
X131652455Y-50886704D01*
X131652455Y-50886704D02*
X131604836Y-50791466D01*
X131604836Y-50791466D02*
X131557217Y-50743847D01*
X131557217Y-50743847D02*
X131461979Y-50696228D01*
X131461979Y-50696228D02*
X131271503Y-50648609D01*
X131271503Y-50648609D02*
X131176265Y-50600990D01*
X131176265Y-50600990D02*
X131128646Y-50553371D01*
X131128646Y-50553371D02*
X131081027Y-50458133D01*
X131081027Y-50458133D02*
X131081027Y-50362895D01*
X131081027Y-50362895D02*
X131128646Y-50267657D01*
X131128646Y-50267657D02*
X131176265Y-50220038D01*
X131176265Y-50220038D02*
X131271503Y-50172419D01*
X131271503Y-50172419D02*
X131509598Y-50172419D01*
X131509598Y-50172419D02*
X131652455Y-50220038D01*
X132081027Y-51172419D02*
X132081027Y-50172419D01*
X132081027Y-50172419D02*
X132461979Y-50172419D01*
X132461979Y-50172419D02*
X132557217Y-50220038D01*
X132557217Y-50220038D02*
X132604836Y-50267657D01*
X132604836Y-50267657D02*
X132652455Y-50362895D01*
X132652455Y-50362895D02*
X132652455Y-50505752D01*
X132652455Y-50505752D02*
X132604836Y-50600990D01*
X132604836Y-50600990D02*
X132557217Y-50648609D01*
X132557217Y-50648609D02*
X132461979Y-50696228D01*
X132461979Y-50696228D02*
X132081027Y-50696228D01*
X132985789Y-50172419D02*
X133604836Y-50172419D01*
X133604836Y-50172419D02*
X133271503Y-50553371D01*
X133271503Y-50553371D02*
X133414360Y-50553371D01*
X133414360Y-50553371D02*
X133509598Y-50600990D01*
X133509598Y-50600990D02*
X133557217Y-50648609D01*
X133557217Y-50648609D02*
X133604836Y-50743847D01*
X133604836Y-50743847D02*
X133604836Y-50981942D01*
X133604836Y-50981942D02*
X133557217Y-51077180D01*
X133557217Y-51077180D02*
X133509598Y-51124800D01*
X133509598Y-51124800D02*
X133414360Y-51172419D01*
X133414360Y-51172419D02*
X133128646Y-51172419D01*
X133128646Y-51172419D02*
X133033408Y-51124800D01*
X133033408Y-51124800D02*
X132985789Y-51077180D01*
X133985789Y-50267657D02*
X134033408Y-50220038D01*
X134033408Y-50220038D02*
X134128646Y-50172419D01*
X134128646Y-50172419D02*
X134366741Y-50172419D01*
X134366741Y-50172419D02*
X134461979Y-50220038D01*
X134461979Y-50220038D02*
X134509598Y-50267657D01*
X134509598Y-50267657D02*
X134557217Y-50362895D01*
X134557217Y-50362895D02*
X134557217Y-50458133D01*
X134557217Y-50458133D02*
X134509598Y-50600990D01*
X134509598Y-50600990D02*
X133938170Y-51172419D01*
X133938170Y-51172419D02*
X134557217Y-51172419D01*
X134985789Y-50791466D02*
X135747694Y-50791466D01*
X136223884Y-51172419D02*
X136223884Y-50505752D01*
X136223884Y-50600990D02*
X136271503Y-50553371D01*
X136271503Y-50553371D02*
X136366741Y-50505752D01*
X136366741Y-50505752D02*
X136509598Y-50505752D01*
X136509598Y-50505752D02*
X136604836Y-50553371D01*
X136604836Y-50553371D02*
X136652455Y-50648609D01*
X136652455Y-50648609D02*
X136652455Y-51172419D01*
X136652455Y-50648609D02*
X136700074Y-50553371D01*
X136700074Y-50553371D02*
X136795312Y-50505752D01*
X136795312Y-50505752D02*
X136938169Y-50505752D01*
X136938169Y-50505752D02*
X137033408Y-50553371D01*
X137033408Y-50553371D02*
X137081027Y-50648609D01*
X137081027Y-50648609D02*
X137081027Y-51172419D01*
X137461979Y-50505752D02*
X137700074Y-51172419D01*
X137938169Y-50505752D02*
X137700074Y-51172419D01*
X137700074Y-51172419D02*
X137604836Y-51410514D01*
X137604836Y-51410514D02*
X137557217Y-51458133D01*
X137557217Y-51458133D02*
X137461979Y-51505752D01*
X138271503Y-51124800D02*
X138366741Y-51172419D01*
X138366741Y-51172419D02*
X138557217Y-51172419D01*
X138557217Y-51172419D02*
X138652455Y-51124800D01*
X138652455Y-51124800D02*
X138700074Y-51029561D01*
X138700074Y-51029561D02*
X138700074Y-50981942D01*
X138700074Y-50981942D02*
X138652455Y-50886704D01*
X138652455Y-50886704D02*
X138557217Y-50839085D01*
X138557217Y-50839085D02*
X138414360Y-50839085D01*
X138414360Y-50839085D02*
X138319122Y-50791466D01*
X138319122Y-50791466D02*
X138271503Y-50696228D01*
X138271503Y-50696228D02*
X138271503Y-50648609D01*
X138271503Y-50648609D02*
X138319122Y-50553371D01*
X138319122Y-50553371D02*
X138414360Y-50505752D01*
X138414360Y-50505752D02*
X138557217Y-50505752D01*
X138557217Y-50505752D02*
X138652455Y-50553371D01*
X138985789Y-50505752D02*
X139366741Y-50505752D01*
X139128646Y-50172419D02*
X139128646Y-51029561D01*
X139128646Y-51029561D02*
X139176265Y-51124800D01*
X139176265Y-51124800D02*
X139271503Y-51172419D01*
X139271503Y-51172419D02*
X139366741Y-51172419D01*
X140081027Y-51124800D02*
X139985789Y-51172419D01*
X139985789Y-51172419D02*
X139795313Y-51172419D01*
X139795313Y-51172419D02*
X139700075Y-51124800D01*
X139700075Y-51124800D02*
X139652456Y-51029561D01*
X139652456Y-51029561D02*
X139652456Y-50648609D01*
X139652456Y-50648609D02*
X139700075Y-50553371D01*
X139700075Y-50553371D02*
X139795313Y-50505752D01*
X139795313Y-50505752D02*
X139985789Y-50505752D01*
X139985789Y-50505752D02*
X140081027Y-50553371D01*
X140081027Y-50553371D02*
X140128646Y-50648609D01*
X140128646Y-50648609D02*
X140128646Y-50743847D01*
X140128646Y-50743847D02*
X139652456Y-50839085D01*
X140557218Y-51172419D02*
X140557218Y-50505752D01*
X140557218Y-50696228D02*
X140604837Y-50600990D01*
X140604837Y-50600990D02*
X140652456Y-50553371D01*
X140652456Y-50553371D02*
X140747694Y-50505752D01*
X140747694Y-50505752D02*
X140842932Y-50505752D01*
X141081028Y-50505752D02*
X141319123Y-51172419D01*
X141557218Y-50505752D02*
X141319123Y-51172419D01*
X141319123Y-51172419D02*
X141223885Y-51410514D01*
X141223885Y-51410514D02*
X141176266Y-51458133D01*
X141176266Y-51458133D02*
X141081028Y-51505752D01*
D11*
X114074819Y-91103333D02*
X114789104Y-91103333D01*
X114789104Y-91103333D02*
X114931961Y-91150952D01*
X114931961Y-91150952D02*
X115027200Y-91246190D01*
X115027200Y-91246190D02*
X115074819Y-91389047D01*
X115074819Y-91389047D02*
X115074819Y-91484285D01*
X114074819Y-90722380D02*
X114074819Y-90055714D01*
X114074819Y-90055714D02*
X115074819Y-90484285D01*
X206833333Y-48359580D02*
X206785714Y-48407200D01*
X206785714Y-48407200D02*
X206642857Y-48454819D01*
X206642857Y-48454819D02*
X206547619Y-48454819D01*
X206547619Y-48454819D02*
X206404762Y-48407200D01*
X206404762Y-48407200D02*
X206309524Y-48311961D01*
X206309524Y-48311961D02*
X206261905Y-48216723D01*
X206261905Y-48216723D02*
X206214286Y-48026247D01*
X206214286Y-48026247D02*
X206214286Y-47883390D01*
X206214286Y-47883390D02*
X206261905Y-47692914D01*
X206261905Y-47692914D02*
X206309524Y-47597676D01*
X206309524Y-47597676D02*
X206404762Y-47502438D01*
X206404762Y-47502438D02*
X206547619Y-47454819D01*
X206547619Y-47454819D02*
X206642857Y-47454819D01*
X206642857Y-47454819D02*
X206785714Y-47502438D01*
X206785714Y-47502438D02*
X206833333Y-47550057D01*
X207309524Y-48454819D02*
X207500000Y-48454819D01*
X207500000Y-48454819D02*
X207595238Y-48407200D01*
X207595238Y-48407200D02*
X207642857Y-48359580D01*
X207642857Y-48359580D02*
X207738095Y-48216723D01*
X207738095Y-48216723D02*
X207785714Y-48026247D01*
X207785714Y-48026247D02*
X207785714Y-47645295D01*
X207785714Y-47645295D02*
X207738095Y-47550057D01*
X207738095Y-47550057D02*
X207690476Y-47502438D01*
X207690476Y-47502438D02*
X207595238Y-47454819D01*
X207595238Y-47454819D02*
X207404762Y-47454819D01*
X207404762Y-47454819D02*
X207309524Y-47502438D01*
X207309524Y-47502438D02*
X207261905Y-47550057D01*
X207261905Y-47550057D02*
X207214286Y-47645295D01*
X207214286Y-47645295D02*
X207214286Y-47883390D01*
X207214286Y-47883390D02*
X207261905Y-47978628D01*
X207261905Y-47978628D02*
X207309524Y-48026247D01*
X207309524Y-48026247D02*
X207404762Y-48073866D01*
X207404762Y-48073866D02*
X207595238Y-48073866D01*
X207595238Y-48073866D02*
X207690476Y-48026247D01*
X207690476Y-48026247D02*
X207738095Y-47978628D01*
X207738095Y-47978628D02*
X207785714Y-47883390D01*
X181489104Y-59689285D02*
X181489104Y-59213095D01*
X181774819Y-59784523D02*
X180774819Y-59451190D01*
X180774819Y-59451190D02*
X181774819Y-59117857D01*
X180870057Y-58832142D02*
X180822438Y-58784523D01*
X180822438Y-58784523D02*
X180774819Y-58689285D01*
X180774819Y-58689285D02*
X180774819Y-58451190D01*
X180774819Y-58451190D02*
X180822438Y-58355952D01*
X180822438Y-58355952D02*
X180870057Y-58308333D01*
X180870057Y-58308333D02*
X180965295Y-58260714D01*
X180965295Y-58260714D02*
X181060533Y-58260714D01*
X181060533Y-58260714D02*
X181203390Y-58308333D01*
X181203390Y-58308333D02*
X181774819Y-58879761D01*
X181774819Y-58879761D02*
X181774819Y-58260714D01*
X151990476Y-42904819D02*
X151990476Y-43619104D01*
X151990476Y-43619104D02*
X151942857Y-43761961D01*
X151942857Y-43761961D02*
X151847619Y-43857200D01*
X151847619Y-43857200D02*
X151704762Y-43904819D01*
X151704762Y-43904819D02*
X151609524Y-43904819D01*
X152990476Y-43904819D02*
X152419048Y-43904819D01*
X152704762Y-43904819D02*
X152704762Y-42904819D01*
X152704762Y-42904819D02*
X152609524Y-43047676D01*
X152609524Y-43047676D02*
X152514286Y-43142914D01*
X152514286Y-43142914D02*
X152419048Y-43190533D01*
X153371429Y-43000057D02*
X153419048Y-42952438D01*
X153419048Y-42952438D02*
X153514286Y-42904819D01*
X153514286Y-42904819D02*
X153752381Y-42904819D01*
X153752381Y-42904819D02*
X153847619Y-42952438D01*
X153847619Y-42952438D02*
X153895238Y-43000057D01*
X153895238Y-43000057D02*
X153942857Y-43095295D01*
X153942857Y-43095295D02*
X153942857Y-43190533D01*
X153942857Y-43190533D02*
X153895238Y-43333390D01*
X153895238Y-43333390D02*
X153323810Y-43904819D01*
X153323810Y-43904819D02*
X153942857Y-43904819D01*
X210454819Y-53642857D02*
X209978628Y-53976190D01*
X210454819Y-54214285D02*
X209454819Y-54214285D01*
X209454819Y-54214285D02*
X209454819Y-53833333D01*
X209454819Y-53833333D02*
X209502438Y-53738095D01*
X209502438Y-53738095D02*
X209550057Y-53690476D01*
X209550057Y-53690476D02*
X209645295Y-53642857D01*
X209645295Y-53642857D02*
X209788152Y-53642857D01*
X209788152Y-53642857D02*
X209883390Y-53690476D01*
X209883390Y-53690476D02*
X209931009Y-53738095D01*
X209931009Y-53738095D02*
X209978628Y-53833333D01*
X209978628Y-53833333D02*
X209978628Y-54214285D01*
X210454819Y-52690476D02*
X210454819Y-53261904D01*
X210454819Y-52976190D02*
X209454819Y-52976190D01*
X209454819Y-52976190D02*
X209597676Y-53071428D01*
X209597676Y-53071428D02*
X209692914Y-53166666D01*
X209692914Y-53166666D02*
X209740533Y-53261904D01*
X210454819Y-52214285D02*
X210454819Y-52023809D01*
X210454819Y-52023809D02*
X210407200Y-51928571D01*
X210407200Y-51928571D02*
X210359580Y-51880952D01*
X210359580Y-51880952D02*
X210216723Y-51785714D01*
X210216723Y-51785714D02*
X210026247Y-51738095D01*
X210026247Y-51738095D02*
X209645295Y-51738095D01*
X209645295Y-51738095D02*
X209550057Y-51785714D01*
X209550057Y-51785714D02*
X209502438Y-51833333D01*
X209502438Y-51833333D02*
X209454819Y-51928571D01*
X209454819Y-51928571D02*
X209454819Y-52119047D01*
X209454819Y-52119047D02*
X209502438Y-52214285D01*
X209502438Y-52214285D02*
X209550057Y-52261904D01*
X209550057Y-52261904D02*
X209645295Y-52309523D01*
X209645295Y-52309523D02*
X209883390Y-52309523D01*
X209883390Y-52309523D02*
X209978628Y-52261904D01*
X209978628Y-52261904D02*
X210026247Y-52214285D01*
X210026247Y-52214285D02*
X210073866Y-52119047D01*
X210073866Y-52119047D02*
X210073866Y-51928571D01*
X210073866Y-51928571D02*
X210026247Y-51833333D01*
X210026247Y-51833333D02*
X209978628Y-51785714D01*
X209978628Y-51785714D02*
X209883390Y-51738095D01*
X205994819Y-79762857D02*
X205518628Y-80096190D01*
X205994819Y-80334285D02*
X204994819Y-80334285D01*
X204994819Y-80334285D02*
X204994819Y-79953333D01*
X204994819Y-79953333D02*
X205042438Y-79858095D01*
X205042438Y-79858095D02*
X205090057Y-79810476D01*
X205090057Y-79810476D02*
X205185295Y-79762857D01*
X205185295Y-79762857D02*
X205328152Y-79762857D01*
X205328152Y-79762857D02*
X205423390Y-79810476D01*
X205423390Y-79810476D02*
X205471009Y-79858095D01*
X205471009Y-79858095D02*
X205518628Y-79953333D01*
X205518628Y-79953333D02*
X205518628Y-80334285D01*
X205090057Y-79381904D02*
X205042438Y-79334285D01*
X205042438Y-79334285D02*
X204994819Y-79239047D01*
X204994819Y-79239047D02*
X204994819Y-79000952D01*
X204994819Y-79000952D02*
X205042438Y-78905714D01*
X205042438Y-78905714D02*
X205090057Y-78858095D01*
X205090057Y-78858095D02*
X205185295Y-78810476D01*
X205185295Y-78810476D02*
X205280533Y-78810476D01*
X205280533Y-78810476D02*
X205423390Y-78858095D01*
X205423390Y-78858095D02*
X205994819Y-79429523D01*
X205994819Y-79429523D02*
X205994819Y-78810476D01*
X205994819Y-77858095D02*
X205994819Y-78429523D01*
X205994819Y-78143809D02*
X204994819Y-78143809D01*
X204994819Y-78143809D02*
X205137676Y-78239047D01*
X205137676Y-78239047D02*
X205232914Y-78334285D01*
X205232914Y-78334285D02*
X205280533Y-78429523D01*
X188396666Y-107774819D02*
X188396666Y-108489104D01*
X188396666Y-108489104D02*
X188349047Y-108631961D01*
X188349047Y-108631961D02*
X188253809Y-108727200D01*
X188253809Y-108727200D02*
X188110952Y-108774819D01*
X188110952Y-108774819D02*
X188015714Y-108774819D01*
X189301428Y-108108152D02*
X189301428Y-108774819D01*
X189063333Y-107727200D02*
X188825238Y-108441485D01*
X188825238Y-108441485D02*
X189444285Y-108441485D01*
X165738497Y-81809071D02*
X165405164Y-81332880D01*
X165167069Y-81809071D02*
X165167069Y-80809071D01*
X165167069Y-80809071D02*
X165548021Y-80809071D01*
X165548021Y-80809071D02*
X165643259Y-80856690D01*
X165643259Y-80856690D02*
X165690878Y-80904309D01*
X165690878Y-80904309D02*
X165738497Y-80999547D01*
X165738497Y-80999547D02*
X165738497Y-81142404D01*
X165738497Y-81142404D02*
X165690878Y-81237642D01*
X165690878Y-81237642D02*
X165643259Y-81285261D01*
X165643259Y-81285261D02*
X165548021Y-81332880D01*
X165548021Y-81332880D02*
X165167069Y-81332880D01*
X166214688Y-81809071D02*
X166405164Y-81809071D01*
X166405164Y-81809071D02*
X166500402Y-81761452D01*
X166500402Y-81761452D02*
X166548021Y-81713832D01*
X166548021Y-81713832D02*
X166643259Y-81570975D01*
X166643259Y-81570975D02*
X166690878Y-81380499D01*
X166690878Y-81380499D02*
X166690878Y-80999547D01*
X166690878Y-80999547D02*
X166643259Y-80904309D01*
X166643259Y-80904309D02*
X166595640Y-80856690D01*
X166595640Y-80856690D02*
X166500402Y-80809071D01*
X166500402Y-80809071D02*
X166309926Y-80809071D01*
X166309926Y-80809071D02*
X166214688Y-80856690D01*
X166214688Y-80856690D02*
X166167069Y-80904309D01*
X166167069Y-80904309D02*
X166119450Y-80999547D01*
X166119450Y-80999547D02*
X166119450Y-81237642D01*
X166119450Y-81237642D02*
X166167069Y-81332880D01*
X166167069Y-81332880D02*
X166214688Y-81380499D01*
X166214688Y-81380499D02*
X166309926Y-81428118D01*
X166309926Y-81428118D02*
X166500402Y-81428118D01*
X166500402Y-81428118D02*
X166595640Y-81380499D01*
X166595640Y-81380499D02*
X166643259Y-81332880D01*
X166643259Y-81332880D02*
X166690878Y-81237642D01*
X208738095Y-45454819D02*
X208738095Y-44454819D01*
X208738095Y-44931009D02*
X209309523Y-44931009D01*
X209309523Y-45454819D02*
X209309523Y-44454819D01*
X209738095Y-44550057D02*
X209785714Y-44502438D01*
X209785714Y-44502438D02*
X209880952Y-44454819D01*
X209880952Y-44454819D02*
X210119047Y-44454819D01*
X210119047Y-44454819D02*
X210214285Y-44502438D01*
X210214285Y-44502438D02*
X210261904Y-44550057D01*
X210261904Y-44550057D02*
X210309523Y-44645295D01*
X210309523Y-44645295D02*
X210309523Y-44740533D01*
X210309523Y-44740533D02*
X210261904Y-44883390D01*
X210261904Y-44883390D02*
X209690476Y-45454819D01*
X209690476Y-45454819D02*
X210309523Y-45454819D01*
X194583333Y-70939819D02*
X194250000Y-70463628D01*
X194011905Y-70939819D02*
X194011905Y-69939819D01*
X194011905Y-69939819D02*
X194392857Y-69939819D01*
X194392857Y-69939819D02*
X194488095Y-69987438D01*
X194488095Y-69987438D02*
X194535714Y-70035057D01*
X194535714Y-70035057D02*
X194583333Y-70130295D01*
X194583333Y-70130295D02*
X194583333Y-70273152D01*
X194583333Y-70273152D02*
X194535714Y-70368390D01*
X194535714Y-70368390D02*
X194488095Y-70416009D01*
X194488095Y-70416009D02*
X194392857Y-70463628D01*
X194392857Y-70463628D02*
X194011905Y-70463628D01*
X194916667Y-69939819D02*
X195583333Y-69939819D01*
X195583333Y-69939819D02*
X195154762Y-70939819D01*
X133764819Y-98309523D02*
X134479104Y-98309523D01*
X134479104Y-98309523D02*
X134621961Y-98357142D01*
X134621961Y-98357142D02*
X134717200Y-98452380D01*
X134717200Y-98452380D02*
X134764819Y-98595237D01*
X134764819Y-98595237D02*
X134764819Y-98690475D01*
X134764819Y-97309523D02*
X134764819Y-97880951D01*
X134764819Y-97595237D02*
X133764819Y-97595237D01*
X133764819Y-97595237D02*
X133907676Y-97690475D01*
X133907676Y-97690475D02*
X134002914Y-97785713D01*
X134002914Y-97785713D02*
X134050533Y-97880951D01*
X134764819Y-96357142D02*
X134764819Y-96928570D01*
X134764819Y-96642856D02*
X133764819Y-96642856D01*
X133764819Y-96642856D02*
X133907676Y-96738094D01*
X133907676Y-96738094D02*
X134002914Y-96833332D01*
X134002914Y-96833332D02*
X134050533Y-96928570D01*
X105738095Y-50454819D02*
X105738095Y-49454819D01*
X105738095Y-49931009D02*
X106309523Y-49931009D01*
X106309523Y-50454819D02*
X106309523Y-49454819D01*
X106690476Y-49454819D02*
X107309523Y-49454819D01*
X107309523Y-49454819D02*
X106976190Y-49835771D01*
X106976190Y-49835771D02*
X107119047Y-49835771D01*
X107119047Y-49835771D02*
X107214285Y-49883390D01*
X107214285Y-49883390D02*
X107261904Y-49931009D01*
X107261904Y-49931009D02*
X107309523Y-50026247D01*
X107309523Y-50026247D02*
X107309523Y-50264342D01*
X107309523Y-50264342D02*
X107261904Y-50359580D01*
X107261904Y-50359580D02*
X107214285Y-50407200D01*
X107214285Y-50407200D02*
X107119047Y-50454819D01*
X107119047Y-50454819D02*
X106833333Y-50454819D01*
X106833333Y-50454819D02*
X106738095Y-50407200D01*
X106738095Y-50407200D02*
X106690476Y-50359580D01*
X195896666Y-42959819D02*
X195896666Y-43674104D01*
X195896666Y-43674104D02*
X195849047Y-43816961D01*
X195849047Y-43816961D02*
X195753809Y-43912200D01*
X195753809Y-43912200D02*
X195610952Y-43959819D01*
X195610952Y-43959819D02*
X195515714Y-43959819D01*
X196325238Y-43055057D02*
X196372857Y-43007438D01*
X196372857Y-43007438D02*
X196468095Y-42959819D01*
X196468095Y-42959819D02*
X196706190Y-42959819D01*
X196706190Y-42959819D02*
X196801428Y-43007438D01*
X196801428Y-43007438D02*
X196849047Y-43055057D01*
X196849047Y-43055057D02*
X196896666Y-43150295D01*
X196896666Y-43150295D02*
X196896666Y-43245533D01*
X196896666Y-43245533D02*
X196849047Y-43388390D01*
X196849047Y-43388390D02*
X196277619Y-43959819D01*
X196277619Y-43959819D02*
X196896666Y-43959819D01*
X205994819Y-89762857D02*
X205518628Y-90096190D01*
X205994819Y-90334285D02*
X204994819Y-90334285D01*
X204994819Y-90334285D02*
X204994819Y-89953333D01*
X204994819Y-89953333D02*
X205042438Y-89858095D01*
X205042438Y-89858095D02*
X205090057Y-89810476D01*
X205090057Y-89810476D02*
X205185295Y-89762857D01*
X205185295Y-89762857D02*
X205328152Y-89762857D01*
X205328152Y-89762857D02*
X205423390Y-89810476D01*
X205423390Y-89810476D02*
X205471009Y-89858095D01*
X205471009Y-89858095D02*
X205518628Y-89953333D01*
X205518628Y-89953333D02*
X205518628Y-90334285D01*
X205090057Y-89381904D02*
X205042438Y-89334285D01*
X205042438Y-89334285D02*
X204994819Y-89239047D01*
X204994819Y-89239047D02*
X204994819Y-89000952D01*
X204994819Y-89000952D02*
X205042438Y-88905714D01*
X205042438Y-88905714D02*
X205090057Y-88858095D01*
X205090057Y-88858095D02*
X205185295Y-88810476D01*
X205185295Y-88810476D02*
X205280533Y-88810476D01*
X205280533Y-88810476D02*
X205423390Y-88858095D01*
X205423390Y-88858095D02*
X205994819Y-89429523D01*
X205994819Y-89429523D02*
X205994819Y-88810476D01*
X204994819Y-88477142D02*
X204994819Y-87858095D01*
X204994819Y-87858095D02*
X205375771Y-88191428D01*
X205375771Y-88191428D02*
X205375771Y-88048571D01*
X205375771Y-88048571D02*
X205423390Y-87953333D01*
X205423390Y-87953333D02*
X205471009Y-87905714D01*
X205471009Y-87905714D02*
X205566247Y-87858095D01*
X205566247Y-87858095D02*
X205804342Y-87858095D01*
X205804342Y-87858095D02*
X205899580Y-87905714D01*
X205899580Y-87905714D02*
X205947200Y-87953333D01*
X205947200Y-87953333D02*
X205994819Y-88048571D01*
X205994819Y-88048571D02*
X205994819Y-88334285D01*
X205994819Y-88334285D02*
X205947200Y-88429523D01*
X205947200Y-88429523D02*
X205899580Y-88477142D01*
X186083333Y-43844580D02*
X186035714Y-43892200D01*
X186035714Y-43892200D02*
X185892857Y-43939819D01*
X185892857Y-43939819D02*
X185797619Y-43939819D01*
X185797619Y-43939819D02*
X185654762Y-43892200D01*
X185654762Y-43892200D02*
X185559524Y-43796961D01*
X185559524Y-43796961D02*
X185511905Y-43701723D01*
X185511905Y-43701723D02*
X185464286Y-43511247D01*
X185464286Y-43511247D02*
X185464286Y-43368390D01*
X185464286Y-43368390D02*
X185511905Y-43177914D01*
X185511905Y-43177914D02*
X185559524Y-43082676D01*
X185559524Y-43082676D02*
X185654762Y-42987438D01*
X185654762Y-42987438D02*
X185797619Y-42939819D01*
X185797619Y-42939819D02*
X185892857Y-42939819D01*
X185892857Y-42939819D02*
X186035714Y-42987438D01*
X186035714Y-42987438D02*
X186083333Y-43035057D01*
X186416667Y-42939819D02*
X187035714Y-42939819D01*
X187035714Y-42939819D02*
X186702381Y-43320771D01*
X186702381Y-43320771D02*
X186845238Y-43320771D01*
X186845238Y-43320771D02*
X186940476Y-43368390D01*
X186940476Y-43368390D02*
X186988095Y-43416009D01*
X186988095Y-43416009D02*
X187035714Y-43511247D01*
X187035714Y-43511247D02*
X187035714Y-43749342D01*
X187035714Y-43749342D02*
X186988095Y-43844580D01*
X186988095Y-43844580D02*
X186940476Y-43892200D01*
X186940476Y-43892200D02*
X186845238Y-43939819D01*
X186845238Y-43939819D02*
X186559524Y-43939819D01*
X186559524Y-43939819D02*
X186464286Y-43892200D01*
X186464286Y-43892200D02*
X186416667Y-43844580D01*
X114454819Y-52666666D02*
X113978628Y-52999999D01*
X114454819Y-53238094D02*
X113454819Y-53238094D01*
X113454819Y-53238094D02*
X113454819Y-52857142D01*
X113454819Y-52857142D02*
X113502438Y-52761904D01*
X113502438Y-52761904D02*
X113550057Y-52714285D01*
X113550057Y-52714285D02*
X113645295Y-52666666D01*
X113645295Y-52666666D02*
X113788152Y-52666666D01*
X113788152Y-52666666D02*
X113883390Y-52714285D01*
X113883390Y-52714285D02*
X113931009Y-52761904D01*
X113931009Y-52761904D02*
X113978628Y-52857142D01*
X113978628Y-52857142D02*
X113978628Y-53238094D01*
X113788152Y-51809523D02*
X114454819Y-51809523D01*
X113407200Y-52047618D02*
X114121485Y-52285713D01*
X114121485Y-52285713D02*
X114121485Y-51666666D01*
X111954819Y-67166666D02*
X111478628Y-67499999D01*
X111954819Y-67738094D02*
X110954819Y-67738094D01*
X110954819Y-67738094D02*
X110954819Y-67357142D01*
X110954819Y-67357142D02*
X111002438Y-67261904D01*
X111002438Y-67261904D02*
X111050057Y-67214285D01*
X111050057Y-67214285D02*
X111145295Y-67166666D01*
X111145295Y-67166666D02*
X111288152Y-67166666D01*
X111288152Y-67166666D02*
X111383390Y-67214285D01*
X111383390Y-67214285D02*
X111431009Y-67261904D01*
X111431009Y-67261904D02*
X111478628Y-67357142D01*
X111478628Y-67357142D02*
X111478628Y-67738094D01*
X110954819Y-66261904D02*
X110954819Y-66738094D01*
X110954819Y-66738094D02*
X111431009Y-66785713D01*
X111431009Y-66785713D02*
X111383390Y-66738094D01*
X111383390Y-66738094D02*
X111335771Y-66642856D01*
X111335771Y-66642856D02*
X111335771Y-66404761D01*
X111335771Y-66404761D02*
X111383390Y-66309523D01*
X111383390Y-66309523D02*
X111431009Y-66261904D01*
X111431009Y-66261904D02*
X111526247Y-66214285D01*
X111526247Y-66214285D02*
X111764342Y-66214285D01*
X111764342Y-66214285D02*
X111859580Y-66261904D01*
X111859580Y-66261904D02*
X111907200Y-66309523D01*
X111907200Y-66309523D02*
X111954819Y-66404761D01*
X111954819Y-66404761D02*
X111954819Y-66642856D01*
X111954819Y-66642856D02*
X111907200Y-66738094D01*
X111907200Y-66738094D02*
X111859580Y-66785713D01*
X208454819Y-97222857D02*
X207978628Y-97556190D01*
X208454819Y-97794285D02*
X207454819Y-97794285D01*
X207454819Y-97794285D02*
X207454819Y-97413333D01*
X207454819Y-97413333D02*
X207502438Y-97318095D01*
X207502438Y-97318095D02*
X207550057Y-97270476D01*
X207550057Y-97270476D02*
X207645295Y-97222857D01*
X207645295Y-97222857D02*
X207788152Y-97222857D01*
X207788152Y-97222857D02*
X207883390Y-97270476D01*
X207883390Y-97270476D02*
X207931009Y-97318095D01*
X207931009Y-97318095D02*
X207978628Y-97413333D01*
X207978628Y-97413333D02*
X207978628Y-97794285D01*
X207550057Y-96841904D02*
X207502438Y-96794285D01*
X207502438Y-96794285D02*
X207454819Y-96699047D01*
X207454819Y-96699047D02*
X207454819Y-96460952D01*
X207454819Y-96460952D02*
X207502438Y-96365714D01*
X207502438Y-96365714D02*
X207550057Y-96318095D01*
X207550057Y-96318095D02*
X207645295Y-96270476D01*
X207645295Y-96270476D02*
X207740533Y-96270476D01*
X207740533Y-96270476D02*
X207883390Y-96318095D01*
X207883390Y-96318095D02*
X208454819Y-96889523D01*
X208454819Y-96889523D02*
X208454819Y-96270476D01*
X207550057Y-95889523D02*
X207502438Y-95841904D01*
X207502438Y-95841904D02*
X207454819Y-95746666D01*
X207454819Y-95746666D02*
X207454819Y-95508571D01*
X207454819Y-95508571D02*
X207502438Y-95413333D01*
X207502438Y-95413333D02*
X207550057Y-95365714D01*
X207550057Y-95365714D02*
X207645295Y-95318095D01*
X207645295Y-95318095D02*
X207740533Y-95318095D01*
X207740533Y-95318095D02*
X207883390Y-95365714D01*
X207883390Y-95365714D02*
X208454819Y-95937142D01*
X208454819Y-95937142D02*
X208454819Y-95318095D01*
X173823333Y-108699580D02*
X173775714Y-108747200D01*
X173775714Y-108747200D02*
X173632857Y-108794819D01*
X173632857Y-108794819D02*
X173537619Y-108794819D01*
X173537619Y-108794819D02*
X173394762Y-108747200D01*
X173394762Y-108747200D02*
X173299524Y-108651961D01*
X173299524Y-108651961D02*
X173251905Y-108556723D01*
X173251905Y-108556723D02*
X173204286Y-108366247D01*
X173204286Y-108366247D02*
X173204286Y-108223390D01*
X173204286Y-108223390D02*
X173251905Y-108032914D01*
X173251905Y-108032914D02*
X173299524Y-107937676D01*
X173299524Y-107937676D02*
X173394762Y-107842438D01*
X173394762Y-107842438D02*
X173537619Y-107794819D01*
X173537619Y-107794819D02*
X173632857Y-107794819D01*
X173632857Y-107794819D02*
X173775714Y-107842438D01*
X173775714Y-107842438D02*
X173823333Y-107890057D01*
X174728095Y-107794819D02*
X174251905Y-107794819D01*
X174251905Y-107794819D02*
X174204286Y-108271009D01*
X174204286Y-108271009D02*
X174251905Y-108223390D01*
X174251905Y-108223390D02*
X174347143Y-108175771D01*
X174347143Y-108175771D02*
X174585238Y-108175771D01*
X174585238Y-108175771D02*
X174680476Y-108223390D01*
X174680476Y-108223390D02*
X174728095Y-108271009D01*
X174728095Y-108271009D02*
X174775714Y-108366247D01*
X174775714Y-108366247D02*
X174775714Y-108604342D01*
X174775714Y-108604342D02*
X174728095Y-108699580D01*
X174728095Y-108699580D02*
X174680476Y-108747200D01*
X174680476Y-108747200D02*
X174585238Y-108794819D01*
X174585238Y-108794819D02*
X174347143Y-108794819D01*
X174347143Y-108794819D02*
X174251905Y-108747200D01*
X174251905Y-108747200D02*
X174204286Y-108699580D01*
X179833333Y-104859580D02*
X179785714Y-104907200D01*
X179785714Y-104907200D02*
X179642857Y-104954819D01*
X179642857Y-104954819D02*
X179547619Y-104954819D01*
X179547619Y-104954819D02*
X179404762Y-104907200D01*
X179404762Y-104907200D02*
X179309524Y-104811961D01*
X179309524Y-104811961D02*
X179261905Y-104716723D01*
X179261905Y-104716723D02*
X179214286Y-104526247D01*
X179214286Y-104526247D02*
X179214286Y-104383390D01*
X179214286Y-104383390D02*
X179261905Y-104192914D01*
X179261905Y-104192914D02*
X179309524Y-104097676D01*
X179309524Y-104097676D02*
X179404762Y-104002438D01*
X179404762Y-104002438D02*
X179547619Y-103954819D01*
X179547619Y-103954819D02*
X179642857Y-103954819D01*
X179642857Y-103954819D02*
X179785714Y-104002438D01*
X179785714Y-104002438D02*
X179833333Y-104050057D01*
X180166667Y-103954819D02*
X180833333Y-103954819D01*
X180833333Y-103954819D02*
X180404762Y-104954819D01*
X209634819Y-75309523D02*
X210349104Y-75309523D01*
X210349104Y-75309523D02*
X210491961Y-75357142D01*
X210491961Y-75357142D02*
X210587200Y-75452380D01*
X210587200Y-75452380D02*
X210634819Y-75595237D01*
X210634819Y-75595237D02*
X210634819Y-75690475D01*
X210634819Y-74309523D02*
X210634819Y-74880951D01*
X210634819Y-74595237D02*
X209634819Y-74595237D01*
X209634819Y-74595237D02*
X209777676Y-74690475D01*
X209777676Y-74690475D02*
X209872914Y-74785713D01*
X209872914Y-74785713D02*
X209920533Y-74880951D01*
X209968152Y-73452380D02*
X210634819Y-73452380D01*
X209587200Y-73690475D02*
X210301485Y-73928570D01*
X210301485Y-73928570D02*
X210301485Y-73309523D01*
X205738095Y-102754819D02*
X205738095Y-101754819D01*
X205738095Y-102231009D02*
X206309523Y-102231009D01*
X206309523Y-102754819D02*
X206309523Y-101754819D01*
X207309523Y-102754819D02*
X206738095Y-102754819D01*
X207023809Y-102754819D02*
X207023809Y-101754819D01*
X207023809Y-101754819D02*
X206928571Y-101897676D01*
X206928571Y-101897676D02*
X206833333Y-101992914D01*
X206833333Y-101992914D02*
X206738095Y-102040533D01*
X157059104Y-93554285D02*
X157059104Y-93078095D01*
X157344819Y-93649523D02*
X156344819Y-93316190D01*
X156344819Y-93316190D02*
X157344819Y-92982857D01*
X156344819Y-92744761D02*
X156344819Y-92125714D01*
X156344819Y-92125714D02*
X156725771Y-92459047D01*
X156725771Y-92459047D02*
X156725771Y-92316190D01*
X156725771Y-92316190D02*
X156773390Y-92220952D01*
X156773390Y-92220952D02*
X156821009Y-92173333D01*
X156821009Y-92173333D02*
X156916247Y-92125714D01*
X156916247Y-92125714D02*
X157154342Y-92125714D01*
X157154342Y-92125714D02*
X157249580Y-92173333D01*
X157249580Y-92173333D02*
X157297200Y-92220952D01*
X157297200Y-92220952D02*
X157344819Y-92316190D01*
X157344819Y-92316190D02*
X157344819Y-92601904D01*
X157344819Y-92601904D02*
X157297200Y-92697142D01*
X157297200Y-92697142D02*
X157249580Y-92744761D01*
X209807319Y-47833333D02*
X210521604Y-47833333D01*
X210521604Y-47833333D02*
X210664461Y-47880952D01*
X210664461Y-47880952D02*
X210759700Y-47976190D01*
X210759700Y-47976190D02*
X210807319Y-48119047D01*
X210807319Y-48119047D02*
X210807319Y-48214285D01*
X210807319Y-46833333D02*
X210807319Y-47404761D01*
X210807319Y-47119047D02*
X209807319Y-47119047D01*
X209807319Y-47119047D02*
X209950176Y-47214285D01*
X209950176Y-47214285D02*
X210045414Y-47309523D01*
X210045414Y-47309523D02*
X210093033Y-47404761D01*
X114454819Y-67166666D02*
X113978628Y-67499999D01*
X114454819Y-67738094D02*
X113454819Y-67738094D01*
X113454819Y-67738094D02*
X113454819Y-67357142D01*
X113454819Y-67357142D02*
X113502438Y-67261904D01*
X113502438Y-67261904D02*
X113550057Y-67214285D01*
X113550057Y-67214285D02*
X113645295Y-67166666D01*
X113645295Y-67166666D02*
X113788152Y-67166666D01*
X113788152Y-67166666D02*
X113883390Y-67214285D01*
X113883390Y-67214285D02*
X113931009Y-67261904D01*
X113931009Y-67261904D02*
X113978628Y-67357142D01*
X113978628Y-67357142D02*
X113978628Y-67738094D01*
X113454819Y-66309523D02*
X113454819Y-66499999D01*
X113454819Y-66499999D02*
X113502438Y-66595237D01*
X113502438Y-66595237D02*
X113550057Y-66642856D01*
X113550057Y-66642856D02*
X113692914Y-66738094D01*
X113692914Y-66738094D02*
X113883390Y-66785713D01*
X113883390Y-66785713D02*
X114264342Y-66785713D01*
X114264342Y-66785713D02*
X114359580Y-66738094D01*
X114359580Y-66738094D02*
X114407200Y-66690475D01*
X114407200Y-66690475D02*
X114454819Y-66595237D01*
X114454819Y-66595237D02*
X114454819Y-66404761D01*
X114454819Y-66404761D02*
X114407200Y-66309523D01*
X114407200Y-66309523D02*
X114359580Y-66261904D01*
X114359580Y-66261904D02*
X114264342Y-66214285D01*
X114264342Y-66214285D02*
X114026247Y-66214285D01*
X114026247Y-66214285D02*
X113931009Y-66261904D01*
X113931009Y-66261904D02*
X113883390Y-66309523D01*
X113883390Y-66309523D02*
X113835771Y-66404761D01*
X113835771Y-66404761D02*
X113835771Y-66595237D01*
X113835771Y-66595237D02*
X113883390Y-66690475D01*
X113883390Y-66690475D02*
X113931009Y-66738094D01*
X113931009Y-66738094D02*
X114026247Y-66785713D01*
X171896666Y-42959819D02*
X171896666Y-43674104D01*
X171896666Y-43674104D02*
X171849047Y-43816961D01*
X171849047Y-43816961D02*
X171753809Y-43912200D01*
X171753809Y-43912200D02*
X171610952Y-43959819D01*
X171610952Y-43959819D02*
X171515714Y-43959819D01*
X172801428Y-42959819D02*
X172610952Y-42959819D01*
X172610952Y-42959819D02*
X172515714Y-43007438D01*
X172515714Y-43007438D02*
X172468095Y-43055057D01*
X172468095Y-43055057D02*
X172372857Y-43197914D01*
X172372857Y-43197914D02*
X172325238Y-43388390D01*
X172325238Y-43388390D02*
X172325238Y-43769342D01*
X172325238Y-43769342D02*
X172372857Y-43864580D01*
X172372857Y-43864580D02*
X172420476Y-43912200D01*
X172420476Y-43912200D02*
X172515714Y-43959819D01*
X172515714Y-43959819D02*
X172706190Y-43959819D01*
X172706190Y-43959819D02*
X172801428Y-43912200D01*
X172801428Y-43912200D02*
X172849047Y-43864580D01*
X172849047Y-43864580D02*
X172896666Y-43769342D01*
X172896666Y-43769342D02*
X172896666Y-43531247D01*
X172896666Y-43531247D02*
X172849047Y-43436009D01*
X172849047Y-43436009D02*
X172801428Y-43388390D01*
X172801428Y-43388390D02*
X172706190Y-43340771D01*
X172706190Y-43340771D02*
X172515714Y-43340771D01*
X172515714Y-43340771D02*
X172420476Y-43388390D01*
X172420476Y-43388390D02*
X172372857Y-43436009D01*
X172372857Y-43436009D02*
X172325238Y-43531247D01*
D13*
%TO.C,D7*%
X160560000Y-67925000D02*
X160404000Y-67925000D01*
X162876000Y-67925000D02*
X162720000Y-67925000D01*
X160559939Y-71156397D02*
G75*
G02*
X160404484Y-67925000I1080061J1671397D01*
G01*
X160559951Y-70525910D02*
G75*
G02*
X160560000Y-68444039I1080049J1040910D01*
G01*
X162720000Y-68444039D02*
G75*
G02*
X162720049Y-70525910I-1080000J-1040961D01*
G01*
X162875516Y-67925000D02*
G75*
G02*
X162720061Y-71156397I-1235516J-1560000D01*
G01*
%TO.C,R18*%
X204580000Y-53040000D02*
X204580000Y-56880000D01*
X206420000Y-53040000D02*
X206420000Y-56880000D01*
%TO.C,R20*%
X207080000Y-83500000D02*
X207080000Y-79660000D01*
X208920000Y-83500000D02*
X208920000Y-79660000D01*
%TO.C,R16*%
X207080000Y-65540000D02*
X207080000Y-69380000D01*
X208920000Y-65540000D02*
X208920000Y-69380000D01*
%TO.C,A1*%
X182060000Y-85100000D02*
X182060000Y-100600000D01*
X182060000Y-100600000D02*
X202640000Y-100600000D01*
X199970000Y-85100000D02*
X182060000Y-85100000D01*
X199970000Y-87770000D02*
X182060000Y-87770000D01*
X199970000Y-87770000D02*
X199970000Y-85100000D01*
X202640000Y-85100000D02*
X201240000Y-85100000D01*
X202640000Y-86500000D02*
X202640000Y-85100000D01*
X202640000Y-87770000D02*
X199970000Y-87770000D01*
X202640000Y-97930000D02*
X182060000Y-97930000D01*
X202640000Y-100600000D02*
X202640000Y-87770000D01*
%TO.C,D6*%
X193160000Y-80780000D02*
X193004000Y-80780000D01*
X195476000Y-80780000D02*
X195320000Y-80780000D01*
X193159939Y-84011397D02*
G75*
G02*
X193004484Y-80780000I1080061J1671397D01*
G01*
X193159951Y-83380910D02*
G75*
G02*
X193160000Y-81299039I1080049J1040910D01*
G01*
X195320000Y-81299039D02*
G75*
G02*
X195320049Y-83380910I-1080000J-1040961D01*
G01*
X195475516Y-80780000D02*
G75*
G02*
X195320061Y-84011397I-1235516J-1560000D01*
G01*
%TO.C,R10*%
X163248664Y-82873616D02*
X159408664Y-82873616D01*
X163248664Y-84713616D02*
X159408664Y-84713616D01*
%TO.C,D2*%
X190014000Y-71045000D02*
X190170000Y-71045000D01*
X192330000Y-71045000D02*
X192486000Y-71045000D01*
X190014484Y-71045000D02*
G75*
G02*
X190169939Y-67813603I1235516J1560000D01*
G01*
X190170000Y-70525961D02*
G75*
G02*
X190169951Y-68444090I1080000J1040961D01*
G01*
X192330049Y-68444090D02*
G75*
G02*
X192330000Y-70525961I-1080049J-1040910D01*
G01*
X192330061Y-67813603D02*
G75*
G02*
X192485516Y-71045000I-1080061J-1671397D01*
G01*
%TO.C,R17*%
X204580000Y-63080000D02*
X204580000Y-66920000D01*
X206420000Y-63080000D02*
X206420000Y-66920000D01*
%TO.C,R8*%
X197830000Y-67065000D02*
X201670000Y-67065000D01*
X197830000Y-68905000D02*
X201670000Y-68905000D01*
%TO.C,SW1*%
X209860000Y-67500000D02*
X209860000Y-55040000D01*
X215486667Y-58095000D02*
X215486667Y-56825000D01*
X215486667Y-60635000D02*
X215486667Y-59365000D01*
X215486667Y-63175000D02*
X215486667Y-61905000D01*
X215486667Y-65715000D02*
X215486667Y-64445000D01*
X219760000Y-55040000D02*
X209860000Y-55040000D01*
X219760000Y-67500000D02*
X209860000Y-67500000D01*
X219760000Y-67500000D02*
X219760000Y-55040000D01*
X220000000Y-67740000D02*
X218617000Y-67740000D01*
X220000000Y-67740000D02*
X220000000Y-66357000D01*
X216840000Y-58095000D02*
X212780000Y-58095000D01*
X212780000Y-56825000D01*
X216840000Y-56825000D01*
X216840000Y-58095000D01*
X216840000Y-58095000D02*
X215486667Y-58095000D01*
X215486667Y-56825000D01*
X216840000Y-56825000D01*
X216840000Y-58095000D01*
G36*
X216840000Y-58095000D02*
G01*
X215486667Y-58095000D01*
X215486667Y-56825000D01*
X216840000Y-56825000D01*
X216840000Y-58095000D01*
G37*
X216840000Y-60635000D02*
X212780000Y-60635000D01*
X212780000Y-59365000D01*
X216840000Y-59365000D01*
X216840000Y-60635000D01*
X216840000Y-60635000D02*
X215486667Y-60635000D01*
X215486667Y-59365000D01*
X216840000Y-59365000D01*
X216840000Y-60635000D01*
G36*
X216840000Y-60635000D02*
G01*
X215486667Y-60635000D01*
X215486667Y-59365000D01*
X216840000Y-59365000D01*
X216840000Y-60635000D01*
G37*
X216840000Y-63175000D02*
X212780000Y-63175000D01*
X212780000Y-61905000D01*
X216840000Y-61905000D01*
X216840000Y-63175000D01*
X216840000Y-63175000D02*
X215486667Y-63175000D01*
X215486667Y-61905000D01*
X216840000Y-61905000D01*
X216840000Y-63175000D01*
G36*
X216840000Y-63175000D02*
G01*
X215486667Y-63175000D01*
X215486667Y-61905000D01*
X216840000Y-61905000D01*
X216840000Y-63175000D01*
G37*
X216840000Y-65715000D02*
X212780000Y-65715000D01*
X212780000Y-64445000D01*
X216840000Y-64445000D01*
X216840000Y-65715000D01*
X216840000Y-65715000D02*
X215486667Y-65715000D01*
X215486667Y-64445000D01*
X216840000Y-64445000D01*
X216840000Y-65715000D01*
G36*
X216840000Y-65715000D02*
G01*
X215486667Y-65715000D01*
X215486667Y-64445000D01*
X216840000Y-64445000D01*
X216840000Y-65715000D01*
G37*
%TO.C,R14*%
X173220000Y-67065000D02*
X177060000Y-67065000D01*
X173220000Y-68905000D02*
X177060000Y-68905000D01*
%TO.C,D1*%
X185670000Y-67925000D02*
X185514000Y-67925000D01*
X187986000Y-67925000D02*
X187830000Y-67925000D01*
X185669939Y-71156397D02*
G75*
G02*
X185514484Y-67925000I1080061J1671397D01*
G01*
X185669951Y-70525910D02*
G75*
G02*
X185670000Y-68444039I1080049J1040910D01*
G01*
X187830000Y-68444039D02*
G75*
G02*
X187830049Y-70525910I-1080000J-1040961D01*
G01*
X187985516Y-67925000D02*
G75*
G02*
X187830061Y-71156397I-1235516J-1560000D01*
G01*
%TO.C,J3*%
X210852500Y-95880000D02*
X220892500Y-95880000D01*
X210852500Y-106120000D02*
X210852500Y-95880000D01*
X210852500Y-106120000D02*
X220892500Y-106120000D01*
X213872500Y-106120000D02*
X213872500Y-95880000D01*
X218772500Y-106120000D02*
X218772500Y-95880000D01*
X220272500Y-106120000D02*
X220272500Y-95880000D01*
X220892500Y-103200000D02*
X220892500Y-95880000D01*
X220892500Y-106120000D02*
X220892500Y-103800000D01*
X221502500Y-103940000D02*
X220892500Y-103500000D01*
X221502500Y-103060000D01*
X221502500Y-103940000D01*
G36*
X221502500Y-103940000D02*
G01*
X220892500Y-103500000D01*
X221502500Y-103060000D01*
X221502500Y-103940000D01*
G37*
%TO.C,J8*%
X107510000Y-81620000D02*
X107510000Y-86920000D01*
X107510000Y-83000000D02*
X108510000Y-83000000D01*
X107510000Y-83250000D02*
X108510000Y-83250000D01*
X107510000Y-85290000D02*
X108510000Y-85290000D01*
X107510000Y-86920000D02*
X113530000Y-86920000D01*
X108510000Y-83000000D02*
X108510000Y-85540000D01*
X108510000Y-83000000D02*
X109040000Y-83250000D01*
X108510000Y-85540000D02*
X107510000Y-85540000D01*
X109040000Y-83250000D02*
X109040000Y-85290000D01*
X109040000Y-85290000D02*
X108510000Y-85540000D01*
X112500000Y-81330000D02*
X108500000Y-81330000D01*
X112930000Y-82200000D02*
X112930000Y-83800000D01*
X112930000Y-83800000D02*
X113530000Y-83800000D01*
X112930000Y-84740000D02*
X112930000Y-86340000D01*
X112930000Y-86340000D02*
X113530000Y-86340000D01*
X113530000Y-81620000D02*
X107510000Y-81620000D01*
X113530000Y-82200000D02*
X112930000Y-82200000D01*
X113530000Y-84740000D02*
X112930000Y-84740000D01*
X113530000Y-86920000D02*
X113530000Y-81620000D01*
%TO.C,D5*%
X197504000Y-83900000D02*
X197660000Y-83900000D01*
X199820000Y-83900000D02*
X199976000Y-83900000D01*
X197504484Y-83900000D02*
G75*
G02*
X197659939Y-80668603I1235516J1560000D01*
G01*
X197660000Y-83380961D02*
G75*
G02*
X197659951Y-81299090I1080000J1040961D01*
G01*
X199820049Y-81299090D02*
G75*
G02*
X199820000Y-83380961I-1080049J-1040910D01*
G01*
X199820061Y-80668603D02*
G75*
G02*
X199975516Y-83900000I-1080061J-1671397D01*
G01*
%TO.C,J13*%
X115970000Y-47490000D02*
X115970000Y-83110000D01*
X115970000Y-47490000D02*
X118630000Y-47490000D01*
X115970000Y-83110000D02*
X118630000Y-83110000D01*
X117300000Y-44890000D02*
X118630000Y-44890000D01*
X118630000Y-44890000D02*
X118630000Y-46220000D01*
X118630000Y-47490000D02*
X118630000Y-83110000D01*
%TO.C,C8*%
X154930000Y-103770000D02*
X154930000Y-99230000D01*
X157014000Y-99230000D02*
X157070000Y-99230000D01*
X157014000Y-103770000D02*
X157070000Y-103770000D01*
X157070000Y-103770000D02*
X157070000Y-99230000D01*
%TO.C,J9*%
X107510000Y-75120000D02*
X107510000Y-80420000D01*
X107510000Y-76500000D02*
X108510000Y-76500000D01*
X107510000Y-76750000D02*
X108510000Y-76750000D01*
X107510000Y-78790000D02*
X108510000Y-78790000D01*
X107510000Y-80420000D02*
X113530000Y-80420000D01*
X108510000Y-76500000D02*
X108510000Y-79040000D01*
X108510000Y-76500000D02*
X109040000Y-76750000D01*
X108510000Y-79040000D02*
X107510000Y-79040000D01*
X109040000Y-76750000D02*
X109040000Y-78790000D01*
X109040000Y-78790000D02*
X108510000Y-79040000D01*
X112500000Y-74830000D02*
X108500000Y-74830000D01*
X112930000Y-75700000D02*
X112930000Y-77300000D01*
X112930000Y-77300000D02*
X113530000Y-77300000D01*
X112930000Y-78240000D02*
X112930000Y-79840000D01*
X112930000Y-79840000D02*
X113530000Y-79840000D01*
X113530000Y-75120000D02*
X107510000Y-75120000D01*
X113530000Y-75700000D02*
X112930000Y-75700000D01*
X113530000Y-78240000D02*
X112930000Y-78240000D01*
X113530000Y-80420000D02*
X113530000Y-75120000D01*
%TO.C,D3*%
X173354000Y-83900000D02*
X173510000Y-83900000D01*
X175670000Y-83900000D02*
X175826000Y-83900000D01*
X173354484Y-83900000D02*
G75*
G02*
X173509939Y-80668603I1235516J1560000D01*
G01*
X173510000Y-83380961D02*
G75*
G02*
X173509951Y-81299090I1080000J1040961D01*
G01*
X175670049Y-81299090D02*
G75*
G02*
X175670000Y-83380961I-1080049J-1040910D01*
G01*
X175670061Y-80668603D02*
G75*
G02*
X175825516Y-83900000I-1080061J-1671397D01*
G01*
%TO.C,R13*%
X173220000Y-69565000D02*
X177060000Y-69565000D01*
X173220000Y-71405000D02*
X177060000Y-71405000D01*
%TO.C,D8*%
X164904000Y-71045000D02*
X165060000Y-71045000D01*
X167220000Y-71045000D02*
X167376000Y-71045000D01*
X164904484Y-71045000D02*
G75*
G02*
X165059939Y-67813603I1235516J1560000D01*
G01*
X165060000Y-70525961D02*
G75*
G02*
X165059951Y-68444090I1080000J1040961D01*
G01*
X167220049Y-68444090D02*
G75*
G02*
X167220000Y-70525961I-1080049J-1040910D01*
G01*
X167220061Y-67813603D02*
G75*
G02*
X167375516Y-71045000I-1080061J-1671397D01*
G01*
%TO.C,C4*%
X202720000Y-105340000D02*
G75*
G02*
X194480000Y-105340000I-4120000J0D01*
G01*
X194480000Y-105340000D02*
G75*
G02*
X202720000Y-105340000I4120000J0D01*
G01*
%TO.C,C6*%
X166120000Y-46625000D02*
G75*
G02*
X157880000Y-46625000I-4120000J0D01*
G01*
X157880000Y-46625000D02*
G75*
G02*
X166120000Y-46625000I4120000J0D01*
G01*
%TO.C,C2*%
X179430000Y-47230000D02*
X179430000Y-51770000D01*
X179486000Y-47230000D02*
X179430000Y-47230000D01*
X179486000Y-51770000D02*
X179430000Y-51770000D01*
X181570000Y-47230000D02*
X181570000Y-51770000D01*
%TO.C,D4*%
X169010000Y-80780000D02*
X168854000Y-80780000D01*
X171326000Y-80780000D02*
X171170000Y-80780000D01*
X169009939Y-84011397D02*
G75*
G02*
X168854484Y-80780000I1080061J1671397D01*
G01*
X169009951Y-83380910D02*
G75*
G02*
X169010000Y-81299039I1080049J1040910D01*
G01*
X171170000Y-81299039D02*
G75*
G02*
X171170049Y-83380910I-1080000J-1040961D01*
G01*
X171325516Y-80780000D02*
G75*
G02*
X171170061Y-84011397I-1235516J-1560000D01*
G01*
%TO.C,R12*%
X187160000Y-82920000D02*
X183320000Y-82920000D01*
X187160000Y-84760000D02*
X183320000Y-84760000D01*
%TO.C,J5*%
X158810000Y-101237001D02*
X158810000Y-107257001D01*
X158810000Y-107257001D02*
X169190000Y-107257001D01*
X159390000Y-106657001D02*
X159390000Y-107257001D01*
X160190000Y-102237001D02*
X160190000Y-101237001D01*
X160440000Y-101237001D02*
X160440000Y-102237001D01*
X160440000Y-102767001D02*
X160190000Y-102237001D01*
X160990000Y-106657001D02*
X159390000Y-106657001D01*
X160990000Y-107257001D02*
X160990000Y-106657001D01*
X161930000Y-106657001D02*
X161930000Y-107257001D01*
X163530000Y-106657001D02*
X161930000Y-106657001D01*
X163530000Y-107257001D02*
X163530000Y-106657001D01*
X164470000Y-106657001D02*
X164470000Y-107257001D01*
X166070000Y-106657001D02*
X164470000Y-106657001D01*
X166070000Y-107257001D02*
X166070000Y-106657001D01*
X167010000Y-106657001D02*
X167010000Y-107257001D01*
X167560000Y-101237001D02*
X167560000Y-102237001D01*
X167560000Y-102767001D02*
X160440000Y-102767001D01*
X167810000Y-101237001D02*
X167810000Y-102237001D01*
X167810000Y-102237001D02*
X160190000Y-102237001D01*
X167810000Y-102237001D02*
X167560000Y-102767001D01*
X168610000Y-106657001D02*
X167010000Y-106657001D01*
X168610000Y-107257001D02*
X168610000Y-106657001D01*
X169190000Y-101237001D02*
X158810000Y-101237001D01*
X169190000Y-107257001D02*
X169190000Y-101237001D01*
X169480000Y-106227001D02*
X169480000Y-102227001D01*
%TO.C,J10*%
X107510000Y-68620000D02*
X107510000Y-73920000D01*
X107510000Y-70000000D02*
X108510000Y-70000000D01*
X107510000Y-70250000D02*
X108510000Y-70250000D01*
X107510000Y-72290000D02*
X108510000Y-72290000D01*
X107510000Y-73920000D02*
X113530000Y-73920000D01*
X108510000Y-70000000D02*
X108510000Y-72540000D01*
X108510000Y-70000000D02*
X109040000Y-70250000D01*
X108510000Y-72540000D02*
X107510000Y-72540000D01*
X109040000Y-70250000D02*
X109040000Y-72290000D01*
X109040000Y-72290000D02*
X108510000Y-72540000D01*
X112500000Y-68330000D02*
X108500000Y-68330000D01*
X112930000Y-69200000D02*
X112930000Y-70800000D01*
X112930000Y-70800000D02*
X113530000Y-70800000D01*
X112930000Y-71740000D02*
X112930000Y-73340000D01*
X112930000Y-73340000D02*
X113530000Y-73340000D01*
X113530000Y-68620000D02*
X107510000Y-68620000D01*
X113530000Y-69200000D02*
X112930000Y-69200000D01*
X113530000Y-71740000D02*
X112930000Y-71740000D01*
X113530000Y-73920000D02*
X113530000Y-68620000D01*
%TO.C,A4*%
X157850000Y-51225000D02*
X157850000Y-64055000D01*
X157850000Y-53895000D02*
X178430000Y-53895000D01*
X157850000Y-64055000D02*
X160520000Y-64055000D01*
X157850000Y-65325000D02*
X157850000Y-66725000D01*
X157850000Y-66725000D02*
X159250000Y-66725000D01*
X160520000Y-64055000D02*
X160520000Y-66725000D01*
X160520000Y-64055000D02*
X178430000Y-64055000D01*
X160520000Y-66725000D02*
X178430000Y-66725000D01*
X178430000Y-51225000D02*
X157850000Y-51225000D01*
X178430000Y-66725000D02*
X178430000Y-51225000D01*
%TO.C,SW2*%
X209860000Y-94000000D02*
X209860000Y-81540000D01*
X215486667Y-84595000D02*
X215486667Y-83325000D01*
X215486667Y-87135000D02*
X215486667Y-85865000D01*
X215486667Y-89675000D02*
X215486667Y-88405000D01*
X215486667Y-92215000D02*
X215486667Y-90945000D01*
X219760000Y-81540000D02*
X209860000Y-81540000D01*
X219760000Y-94000000D02*
X209860000Y-94000000D01*
X219760000Y-94000000D02*
X219760000Y-81540000D01*
X220000000Y-94240000D02*
X218617000Y-94240000D01*
X220000000Y-94240000D02*
X220000000Y-92857000D01*
X216840000Y-84595000D02*
X212780000Y-84595000D01*
X212780000Y-83325000D01*
X216840000Y-83325000D01*
X216840000Y-84595000D01*
X216840000Y-84595000D02*
X215486667Y-84595000D01*
X215486667Y-83325000D01*
X216840000Y-83325000D01*
X216840000Y-84595000D01*
G36*
X216840000Y-84595000D02*
G01*
X215486667Y-84595000D01*
X215486667Y-83325000D01*
X216840000Y-83325000D01*
X216840000Y-84595000D01*
G37*
X216840000Y-87135000D02*
X212780000Y-87135000D01*
X212780000Y-85865000D01*
X216840000Y-85865000D01*
X216840000Y-87135000D01*
X216840000Y-87135000D02*
X215486667Y-87135000D01*
X215486667Y-85865000D01*
X216840000Y-85865000D01*
X216840000Y-87135000D01*
G36*
X216840000Y-87135000D02*
G01*
X215486667Y-87135000D01*
X215486667Y-85865000D01*
X216840000Y-85865000D01*
X216840000Y-87135000D01*
G37*
X216840000Y-89675000D02*
X212780000Y-89675000D01*
X212780000Y-88405000D01*
X216840000Y-88405000D01*
X216840000Y-89675000D01*
X216840000Y-89675000D02*
X215486667Y-89675000D01*
X215486667Y-88405000D01*
X216840000Y-88405000D01*
X216840000Y-89675000D01*
G36*
X216840000Y-89675000D02*
G01*
X215486667Y-89675000D01*
X215486667Y-88405000D01*
X216840000Y-88405000D01*
X216840000Y-89675000D01*
G37*
X216840000Y-92215000D02*
X212780000Y-92215000D01*
X212780000Y-90945000D01*
X216840000Y-90945000D01*
X216840000Y-92215000D01*
X216840000Y-92215000D02*
X215486667Y-92215000D01*
X215486667Y-90945000D01*
X216840000Y-90945000D01*
X216840000Y-92215000D01*
G36*
X216840000Y-92215000D02*
G01*
X215486667Y-92215000D01*
X215486667Y-90945000D01*
X216840000Y-90945000D01*
X216840000Y-92215000D01*
G37*
%TO.C,R11*%
X187160000Y-80420000D02*
X183320000Y-80420000D01*
X187160000Y-82260000D02*
X183320000Y-82260000D01*
%TO.C,U1*%
X120970000Y-47490000D02*
X120970000Y-83110000D01*
X120970000Y-47490000D02*
X123630000Y-47490000D01*
X120970000Y-83110000D02*
X123630000Y-83110000D01*
X122300000Y-44890000D02*
X123630000Y-44890000D01*
X123630000Y-44890000D02*
X123630000Y-46220000D01*
X123630000Y-47490000D02*
X123630000Y-83110000D01*
D12*
X124840000Y-44442000D02*
X124840000Y-46982000D01*
X124840000Y-46982000D02*
X127380000Y-46982000D01*
X127380000Y-44442000D02*
X129920000Y-44442000D01*
X127380000Y-46982000D02*
X127380000Y-44442000D01*
X129920000Y-44442000D02*
X129920000Y-46982000D01*
X129920000Y-46982000D02*
X132460000Y-46982000D01*
X132460000Y-44442000D02*
X135000000Y-44442000D01*
X132460000Y-46982000D02*
X132460000Y-44442000D01*
X135000000Y-44442000D02*
X135000000Y-46982000D01*
X135000000Y-46982000D02*
X135000000Y-44442000D01*
X137540000Y-44442000D02*
X140080000Y-44442000D01*
X137540000Y-46982000D02*
X135000000Y-46982000D01*
X137540000Y-46982000D02*
X137540000Y-44442000D01*
X140080000Y-44442000D02*
X140080000Y-46982000D01*
X140080000Y-46982000D02*
X142620000Y-46982000D01*
X142620000Y-44442000D02*
X145160000Y-44442000D01*
X142620000Y-46982000D02*
X142620000Y-44442000D01*
X145160000Y-46982000D02*
X145160000Y-44442000D01*
D13*
X146370000Y-47490000D02*
X146370000Y-83110000D01*
X146370000Y-47490000D02*
X149030000Y-47490000D01*
X146370000Y-83110000D02*
X149030000Y-83110000D01*
X147700000Y-44890000D02*
X149030000Y-44890000D01*
X149030000Y-44890000D02*
X149030000Y-46220000D01*
X149030000Y-47490000D02*
X149030000Y-83110000D01*
D12*
X119760000Y-43680000D02*
X150240000Y-43680000D01*
X150240000Y-84320000D01*
X119760000Y-84320000D01*
X119760000Y-43680000D01*
D13*
%TO.C,J7*%
X107510000Y-88120000D02*
X107510000Y-93420000D01*
X107510000Y-89500000D02*
X108510000Y-89500000D01*
X107510000Y-89750000D02*
X108510000Y-89750000D01*
X107510000Y-91790000D02*
X108510000Y-91790000D01*
X107510000Y-93420000D02*
X113530000Y-93420000D01*
X108510000Y-89500000D02*
X108510000Y-92040000D01*
X108510000Y-89500000D02*
X109040000Y-89750000D01*
X108510000Y-92040000D02*
X107510000Y-92040000D01*
X109040000Y-89750000D02*
X109040000Y-91790000D01*
X109040000Y-91790000D02*
X108510000Y-92040000D01*
X112500000Y-87830000D02*
X108500000Y-87830000D01*
X112930000Y-88700000D02*
X112930000Y-90300000D01*
X112930000Y-90300000D02*
X113530000Y-90300000D01*
X112930000Y-91240000D02*
X112930000Y-92840000D01*
X112930000Y-92840000D02*
X113530000Y-92840000D01*
X113530000Y-88120000D02*
X107510000Y-88120000D01*
X113530000Y-88700000D02*
X112930000Y-88700000D01*
X113530000Y-91240000D02*
X112930000Y-91240000D01*
X113530000Y-93420000D02*
X113530000Y-88120000D01*
%TO.C,C9*%
X204730000Y-48986000D02*
X204730000Y-48930000D01*
X209270000Y-48930000D02*
X204730000Y-48930000D01*
X209270000Y-48986000D02*
X209270000Y-48930000D01*
X209270000Y-51070000D02*
X204730000Y-51070000D01*
%TO.C,A2*%
X182460000Y-51225000D02*
X182460000Y-64055000D01*
X182460000Y-53895000D02*
X203040000Y-53895000D01*
X182460000Y-64055000D02*
X185130000Y-64055000D01*
X182460000Y-65325000D02*
X182460000Y-66725000D01*
X182460000Y-66725000D02*
X183860000Y-66725000D01*
X185130000Y-64055000D02*
X185130000Y-66725000D01*
X185130000Y-64055000D02*
X203040000Y-64055000D01*
X185130000Y-66725000D02*
X203040000Y-66725000D01*
X203040000Y-51225000D02*
X182460000Y-51225000D01*
X203040000Y-66725000D02*
X203040000Y-51225000D01*
%TO.C,J12*%
X151470000Y-47490000D02*
X151470000Y-83110000D01*
X151470000Y-47490000D02*
X154130000Y-47490000D01*
X151470000Y-83110000D02*
X154130000Y-83110000D01*
X152800000Y-44890000D02*
X154130000Y-44890000D01*
X154130000Y-44890000D02*
X154130000Y-46220000D01*
X154130000Y-47490000D02*
X154130000Y-83110000D01*
%TO.C,R19*%
X207080000Y-55540000D02*
X207080000Y-59380000D01*
X208920000Y-55540000D02*
X208920000Y-59380000D01*
%TO.C,R3*%
X110580000Y-54420000D02*
X110580000Y-50580000D01*
X112420000Y-54420000D02*
X112420000Y-50580000D01*
%TO.C,R21*%
X204580000Y-86000000D02*
X204580000Y-82160000D01*
X206420000Y-86000000D02*
X206420000Y-82160000D01*
%TO.C,J4*%
X183540000Y-101210000D02*
X183540000Y-107230000D01*
X183540000Y-107230000D02*
X193920000Y-107230000D01*
X184120000Y-106630000D02*
X184120000Y-107230000D01*
X184920000Y-102210000D02*
X184920000Y-101210000D01*
X185170000Y-101210000D02*
X185170000Y-102210000D01*
X185170000Y-102740000D02*
X184920000Y-102210000D01*
X185720000Y-106630000D02*
X184120000Y-106630000D01*
X185720000Y-107230000D02*
X185720000Y-106630000D01*
X186660000Y-106630000D02*
X186660000Y-107230000D01*
X188260000Y-106630000D02*
X186660000Y-106630000D01*
X188260000Y-107230000D02*
X188260000Y-106630000D01*
X189200000Y-106630000D02*
X189200000Y-107230000D01*
X190800000Y-106630000D02*
X189200000Y-106630000D01*
X190800000Y-107230000D02*
X190800000Y-106630000D01*
X191740000Y-106630000D02*
X191740000Y-107230000D01*
X192290000Y-101210000D02*
X192290000Y-102210000D01*
X192290000Y-102740000D02*
X185170000Y-102740000D01*
X192540000Y-101210000D02*
X192540000Y-102210000D01*
X192540000Y-102210000D02*
X184920000Y-102210000D01*
X192540000Y-102210000D02*
X192290000Y-102740000D01*
X193340000Y-106630000D02*
X191740000Y-106630000D01*
X193340000Y-107230000D02*
X193340000Y-106630000D01*
X193920000Y-101210000D02*
X183540000Y-101210000D01*
X193920000Y-107230000D02*
X193920000Y-101210000D01*
X194210000Y-106200000D02*
X194210000Y-102200000D01*
%TO.C,R9*%
X163245164Y-80434252D02*
X159405164Y-80434252D01*
X163245164Y-82274252D02*
X159405164Y-82274252D01*
%TO.C,R7*%
X197830000Y-69565000D02*
X201670000Y-69565000D01*
X197830000Y-71405000D02*
X201670000Y-71405000D01*
%TO.C,J11*%
X117510000Y-96170000D02*
X117510000Y-98830000D01*
X130270000Y-96170000D02*
X117510000Y-96170000D01*
X130270000Y-96170000D02*
X130270000Y-98830000D01*
X130270000Y-98830000D02*
X117510000Y-98830000D01*
X132870000Y-97500000D02*
X132870000Y-98830000D01*
X132870000Y-98830000D02*
X131540000Y-98830000D01*
%TO.C,J2*%
X190750000Y-45625000D02*
X190750000Y-49625000D01*
X191040000Y-44595000D02*
X191040000Y-50615000D01*
X191040000Y-50615000D02*
X201420000Y-50615000D01*
X191620000Y-44595000D02*
X191620000Y-45195000D01*
X191620000Y-45195000D02*
X193220000Y-45195000D01*
X192420000Y-49615000D02*
X192670000Y-49085000D01*
X192420000Y-49615000D02*
X200040000Y-49615000D01*
X192420000Y-50615000D02*
X192420000Y-49615000D01*
X192670000Y-49085000D02*
X199790000Y-49085000D01*
X192670000Y-50615000D02*
X192670000Y-49615000D01*
X193220000Y-45195000D02*
X193220000Y-44595000D01*
X194160000Y-44595000D02*
X194160000Y-45195000D01*
X194160000Y-45195000D02*
X195760000Y-45195000D01*
X195760000Y-45195000D02*
X195760000Y-44595000D01*
X196700000Y-44595000D02*
X196700000Y-45195000D01*
X196700000Y-45195000D02*
X198300000Y-45195000D01*
X198300000Y-45195000D02*
X198300000Y-44595000D01*
X199240000Y-44595000D02*
X199240000Y-45195000D01*
X199240000Y-45195000D02*
X200840000Y-45195000D01*
X199790000Y-49085000D02*
X200040000Y-49615000D01*
X199790000Y-50615000D02*
X199790000Y-49615000D01*
X200040000Y-49615000D02*
X200040000Y-50615000D01*
X200840000Y-45195000D02*
X200840000Y-44595000D01*
X201420000Y-44595000D02*
X191040000Y-44595000D01*
X201420000Y-50615000D02*
X201420000Y-44595000D01*
%TO.C,R23*%
X204580000Y-96000000D02*
X204580000Y-92160000D01*
X206420000Y-96000000D02*
X206420000Y-92160000D01*
%TO.C,C3*%
X190370000Y-46485000D02*
G75*
G02*
X182130000Y-46485000I-4120000J0D01*
G01*
X182130000Y-46485000D02*
G75*
G02*
X190370000Y-46485000I4120000J0D01*
G01*
%TO.C,R4*%
X113080000Y-54420000D02*
X113080000Y-50580000D01*
X114920000Y-54420000D02*
X114920000Y-50580000D01*
%TO.C,R5*%
X110580000Y-63920000D02*
X110580000Y-60080000D01*
X112420000Y-63920000D02*
X112420000Y-60080000D01*
%TO.C,R22*%
X207080000Y-93500000D02*
X207080000Y-89660000D01*
X208920000Y-93500000D02*
X208920000Y-89660000D01*
%TO.C,C5*%
X178110000Y-105340000D02*
G75*
G02*
X169870000Y-105340000I-4120000J0D01*
G01*
X169870000Y-105340000D02*
G75*
G02*
X178110000Y-105340000I4120000J0D01*
G01*
%TO.C,C7*%
X178930000Y-102270000D02*
X178930000Y-97730000D01*
X181014000Y-97730000D02*
X181070000Y-97730000D01*
X181014000Y-102270000D02*
X181070000Y-102270000D01*
X181070000Y-102270000D02*
X181070000Y-97730000D01*
%TO.C,J14*%
X211180000Y-69380000D02*
X221220000Y-69380000D01*
X211180000Y-79620000D02*
X211180000Y-69380000D01*
X211180000Y-79620000D02*
X221220000Y-79620000D01*
X214200000Y-79620000D02*
X214200000Y-69380000D01*
X219100000Y-79620000D02*
X219100000Y-69380000D01*
X220600000Y-79620000D02*
X220600000Y-69380000D01*
X221220000Y-76700000D02*
X221220000Y-69380000D01*
X221220000Y-79620000D02*
X221220000Y-77300000D01*
X221830000Y-77440000D02*
X221220000Y-77000000D01*
X221830000Y-76560000D01*
X221830000Y-77440000D01*
G36*
X221830000Y-77440000D02*
G01*
X221220000Y-77000000D01*
X221830000Y-76560000D01*
X221830000Y-77440000D01*
G37*
%TO.C,A3*%
X157820000Y-85100000D02*
X157820000Y-100600000D01*
X157820000Y-100600000D02*
X178400000Y-100600000D01*
X175730000Y-85100000D02*
X157820000Y-85100000D01*
X175730000Y-87770000D02*
X157820000Y-87770000D01*
X175730000Y-87770000D02*
X175730000Y-85100000D01*
X178400000Y-85100000D02*
X177000000Y-85100000D01*
X178400000Y-86500000D02*
X178400000Y-85100000D01*
X178400000Y-87770000D02*
X175730000Y-87770000D01*
X178400000Y-97930000D02*
X157820000Y-97930000D01*
X178400000Y-100600000D02*
X178400000Y-87770000D01*
%TO.C,J1*%
X211352500Y-43880000D02*
X221392500Y-43880000D01*
X211352500Y-54120000D02*
X211352500Y-43880000D01*
X211352500Y-54120000D02*
X221392500Y-54120000D01*
X214372500Y-54120000D02*
X214372500Y-43880000D01*
X219272500Y-54120000D02*
X219272500Y-43880000D01*
X220772500Y-54120000D02*
X220772500Y-43880000D01*
X221392500Y-51200000D02*
X221392500Y-43880000D01*
X221392500Y-54120000D02*
X221392500Y-51800000D01*
X222002500Y-51940000D02*
X221392500Y-51500000D01*
X222002500Y-51060000D01*
X222002500Y-51940000D01*
G36*
X222002500Y-51940000D02*
G01*
X221392500Y-51500000D01*
X222002500Y-51060000D01*
X222002500Y-51940000D01*
G37*
%TO.C,R6*%
X113080000Y-63920000D02*
X113080000Y-60080000D01*
X114920000Y-63920000D02*
X114920000Y-60080000D01*
%TO.C,J6*%
X166750000Y-45625000D02*
X166750000Y-49625000D01*
X167040000Y-44595000D02*
X167040000Y-50615000D01*
X167040000Y-50615000D02*
X177420000Y-50615000D01*
X167620000Y-44595000D02*
X167620000Y-45195000D01*
X167620000Y-45195000D02*
X169220000Y-45195000D01*
X168420000Y-49615000D02*
X168670000Y-49085000D01*
X168420000Y-49615000D02*
X176040000Y-49615000D01*
X168420000Y-50615000D02*
X168420000Y-49615000D01*
X168670000Y-49085000D02*
X175790000Y-49085000D01*
X168670000Y-50615000D02*
X168670000Y-49615000D01*
X169220000Y-45195000D02*
X169220000Y-44595000D01*
X170160000Y-44595000D02*
X170160000Y-45195000D01*
X170160000Y-45195000D02*
X171760000Y-45195000D01*
X171760000Y-45195000D02*
X171760000Y-44595000D01*
X172700000Y-44595000D02*
X172700000Y-45195000D01*
X172700000Y-45195000D02*
X174300000Y-45195000D01*
X174300000Y-45195000D02*
X174300000Y-44595000D01*
X175240000Y-44595000D02*
X175240000Y-45195000D01*
X175240000Y-45195000D02*
X176840000Y-45195000D01*
X175790000Y-49085000D02*
X176040000Y-49615000D01*
X175790000Y-50615000D02*
X175790000Y-49615000D01*
X176040000Y-49615000D02*
X176040000Y-50615000D01*
X176840000Y-45195000D02*
X176840000Y-44595000D01*
X177420000Y-44595000D02*
X167040000Y-44595000D01*
X177420000Y-50615000D02*
X177420000Y-44595000D01*
%TD*%
%LPC*%
D14*
%TO.C,H4*%
X108000000Y-106500000D03*
%TD*%
D15*
%TO.C,D7*%
X161640000Y-68215000D03*
D16*
X161640000Y-70755000D03*
%TD*%
D17*
%TO.C,R18*%
X205500000Y-52420000D03*
D18*
X205500000Y-57500000D03*
%TD*%
D17*
%TO.C,R20*%
X208000000Y-84120000D03*
D18*
X208000000Y-79040000D03*
%TD*%
D17*
%TO.C,R16*%
X208000000Y-64920000D03*
D18*
X208000000Y-70000000D03*
%TD*%
D19*
%TO.C,A1*%
X201240000Y-86500000D03*
D20*
X198700000Y-86500000D03*
X196160000Y-86500000D03*
X193620000Y-86500000D03*
X191080000Y-86500000D03*
X188540000Y-86500000D03*
X186000000Y-86500000D03*
X183460000Y-86500000D03*
X183460000Y-99200000D03*
X186000000Y-99200000D03*
X188540000Y-99200000D03*
X191080000Y-99200000D03*
X193620000Y-99200000D03*
X196160000Y-99200000D03*
X198700000Y-99200000D03*
X201240000Y-99200000D03*
%TD*%
D15*
%TO.C,D6*%
X194240000Y-81070000D03*
D16*
X194240000Y-83610000D03*
%TD*%
D17*
%TO.C,R10*%
X163868664Y-83793616D03*
D18*
X158788664Y-83793616D03*
%TD*%
D15*
%TO.C,D2*%
X191250000Y-70755000D03*
D16*
X191250000Y-68215000D03*
%TD*%
D17*
%TO.C,R17*%
X205500000Y-62460000D03*
D18*
X205500000Y-67540000D03*
%TD*%
D17*
%TO.C,R8*%
X197210000Y-67985000D03*
D18*
X202290000Y-67985000D03*
%TD*%
D21*
%TO.C,SW1*%
X218620000Y-65080000D03*
D22*
X218620000Y-62540000D03*
X218620000Y-60000000D03*
X218620000Y-57460000D03*
X211000000Y-57460000D03*
X211000000Y-60000000D03*
X211000000Y-62540000D03*
X211000000Y-65080000D03*
%TD*%
D17*
%TO.C,R14*%
X172600000Y-67985000D03*
D18*
X177680000Y-67985000D03*
%TD*%
D15*
%TO.C,D1*%
X186750000Y-68215000D03*
D16*
X186750000Y-70755000D03*
%TD*%
D23*
%TO.C,J3*%
X216172500Y-103500000D03*
D24*
X216172500Y-98500000D03*
%TD*%
D25*
%TO.C,J8*%
X110500000Y-83000000D03*
D26*
X110500000Y-85540000D03*
%TD*%
D15*
%TO.C,D5*%
X198740000Y-83610000D03*
D16*
X198740000Y-81070000D03*
%TD*%
D27*
%TO.C,J13*%
X117300000Y-46220000D03*
D28*
X117300000Y-48760000D03*
X117300000Y-51300000D03*
X117300000Y-53840000D03*
X117300000Y-56380000D03*
X117300000Y-58920000D03*
X117300000Y-61460000D03*
X117300000Y-64000000D03*
X117300000Y-66540000D03*
X117300000Y-69080000D03*
X117300000Y-71620000D03*
X117300000Y-74160000D03*
X117300000Y-76700000D03*
X117300000Y-79240000D03*
X117300000Y-81780000D03*
%TD*%
D22*
%TO.C,C8*%
X156000000Y-104000000D03*
X156000000Y-99000000D03*
%TD*%
D25*
%TO.C,J9*%
X110500000Y-76500000D03*
D26*
X110500000Y-79040000D03*
%TD*%
D15*
%TO.C,D3*%
X174590000Y-83610000D03*
D16*
X174590000Y-81070000D03*
%TD*%
D17*
%TO.C,R13*%
X172600000Y-70485000D03*
D18*
X177680000Y-70485000D03*
%TD*%
D15*
%TO.C,D8*%
X166140000Y-70755000D03*
D16*
X166140000Y-68215000D03*
%TD*%
D22*
%TO.C,C4*%
X200350000Y-105340000D03*
X196850000Y-105340000D03*
%TD*%
%TO.C,C6*%
X160250000Y-46625000D03*
X163750000Y-46625000D03*
%TD*%
%TO.C,C2*%
X180500000Y-47000000D03*
X180500000Y-52000000D03*
%TD*%
D15*
%TO.C,D4*%
X170090000Y-81070000D03*
D16*
X170090000Y-83610000D03*
%TD*%
D17*
%TO.C,R12*%
X187780000Y-83840000D03*
D18*
X182700000Y-83840000D03*
%TD*%
D29*
%TO.C,J5*%
X167810000Y-104227001D03*
D30*
X165270000Y-104227001D03*
X162730000Y-104227001D03*
X160190000Y-104227001D03*
%TD*%
D25*
%TO.C,J10*%
X110500000Y-70000000D03*
D26*
X110500000Y-72540000D03*
%TD*%
D19*
%TO.C,A4*%
X159250000Y-65325000D03*
D20*
X161790000Y-65325000D03*
X164330000Y-65325000D03*
X166870000Y-65325000D03*
X169410000Y-65325000D03*
X171950000Y-65325000D03*
X174490000Y-65325000D03*
X177030000Y-65325000D03*
X177030000Y-52625000D03*
X174490000Y-52625000D03*
X171950000Y-52625000D03*
X169410000Y-52625000D03*
X166870000Y-52625000D03*
X164330000Y-52625000D03*
X161790000Y-52625000D03*
X159250000Y-52625000D03*
%TD*%
D21*
%TO.C,SW2*%
X218620000Y-91580000D03*
D22*
X218620000Y-89040000D03*
X218620000Y-86500000D03*
X218620000Y-83960000D03*
X211000000Y-83960000D03*
X211000000Y-86500000D03*
X211000000Y-89040000D03*
X211000000Y-91580000D03*
%TD*%
D17*
%TO.C,R11*%
X187780000Y-81340000D03*
D18*
X182700000Y-81340000D03*
%TD*%
D27*
%TO.C,U1*%
X122300000Y-46220000D03*
D28*
X122300000Y-48760000D03*
X122300000Y-51300000D03*
X122300000Y-53840000D03*
X122300000Y-56380000D03*
X122300000Y-58920000D03*
X122300000Y-61460000D03*
X122300000Y-64000000D03*
X122300000Y-66540000D03*
X122300000Y-69080000D03*
X122300000Y-71620000D03*
X122300000Y-74160000D03*
X122300000Y-76700000D03*
X122300000Y-79240000D03*
X122300000Y-81780000D03*
X147700000Y-81780000D03*
X147700000Y-79240000D03*
X147700000Y-76700000D03*
X147700000Y-74160000D03*
X147700000Y-71620000D03*
X147700000Y-69080000D03*
X147700000Y-66540000D03*
X147700000Y-64000000D03*
X147700000Y-61460000D03*
X147700000Y-58920000D03*
X147700000Y-56380000D03*
X147700000Y-53840000D03*
X147700000Y-51300000D03*
X147700000Y-48760000D03*
D27*
X147700000Y-46220000D03*
%TD*%
D25*
%TO.C,J7*%
X110500000Y-89500000D03*
D26*
X110500000Y-92040000D03*
%TD*%
D22*
%TO.C,C9*%
X209500000Y-50000000D03*
X204500000Y-50000000D03*
%TD*%
D19*
%TO.C,A2*%
X183860000Y-65325000D03*
D20*
X186400000Y-65325000D03*
X188940000Y-65325000D03*
X191480000Y-65325000D03*
X194020000Y-65325000D03*
X196560000Y-65325000D03*
X199100000Y-65325000D03*
X201640000Y-65325000D03*
X201640000Y-52625000D03*
X199100000Y-52625000D03*
X196560000Y-52625000D03*
X194020000Y-52625000D03*
X191480000Y-52625000D03*
X188940000Y-52625000D03*
X186400000Y-52625000D03*
X183860000Y-52625000D03*
%TD*%
D27*
%TO.C,J12*%
X152800000Y-46220000D03*
D28*
X152800000Y-48760000D03*
X152800000Y-51300000D03*
X152800000Y-53840000D03*
X152800000Y-56380000D03*
X152800000Y-58920000D03*
X152800000Y-61460000D03*
X152800000Y-64000000D03*
X152800000Y-66540000D03*
X152800000Y-69080000D03*
X152800000Y-71620000D03*
X152800000Y-74160000D03*
X152800000Y-76700000D03*
X152800000Y-79240000D03*
X152800000Y-81780000D03*
%TD*%
D17*
%TO.C,R19*%
X208000000Y-54920000D03*
D18*
X208000000Y-60000000D03*
%TD*%
D17*
%TO.C,R3*%
X111500000Y-55040000D03*
D18*
X111500000Y-49960000D03*
%TD*%
D17*
%TO.C,R21*%
X205500000Y-86620000D03*
D18*
X205500000Y-81540000D03*
%TD*%
D29*
%TO.C,J4*%
X192540000Y-104200000D03*
D30*
X190000000Y-104200000D03*
X187460000Y-104200000D03*
X184920000Y-104200000D03*
%TD*%
D17*
%TO.C,R9*%
X163865164Y-81354252D03*
D18*
X158785164Y-81354252D03*
%TD*%
D14*
%TO.C,H2*%
X206500000Y-45000000D03*
%TD*%
D17*
%TO.C,R7*%
X197210000Y-70485000D03*
D18*
X202290000Y-70485000D03*
%TD*%
D27*
%TO.C,J11*%
X131540000Y-97500000D03*
D22*
X129000000Y-97500000D03*
X126460000Y-97500000D03*
X123920000Y-97500000D03*
X121380000Y-97500000D03*
X118840000Y-97500000D03*
%TD*%
D14*
%TO.C,H3*%
X108000000Y-45000000D03*
%TD*%
D31*
%TO.C,J2*%
X192420000Y-47625000D03*
D30*
X194960000Y-47625000D03*
X197500000Y-47625000D03*
X200040000Y-47625000D03*
%TD*%
D17*
%TO.C,R23*%
X205500000Y-96620000D03*
D18*
X205500000Y-91540000D03*
%TD*%
D22*
%TO.C,C3*%
X184500000Y-46485000D03*
X188000000Y-46485000D03*
%TD*%
D17*
%TO.C,R4*%
X114000000Y-55040000D03*
D18*
X114000000Y-49960000D03*
%TD*%
D17*
%TO.C,R5*%
X111500000Y-64540000D03*
D18*
X111500000Y-59460000D03*
%TD*%
D17*
%TO.C,R22*%
X208000000Y-94120000D03*
D18*
X208000000Y-89040000D03*
%TD*%
D22*
%TO.C,C5*%
X175740000Y-105340000D03*
X172240000Y-105340000D03*
%TD*%
%TO.C,C7*%
X180000000Y-102500000D03*
X180000000Y-97500000D03*
%TD*%
D23*
%TO.C,J14*%
X216500000Y-77000000D03*
D24*
X216500000Y-72000000D03*
%TD*%
D14*
%TO.C,H1*%
X206500000Y-106500000D03*
%TD*%
D19*
%TO.C,A3*%
X177000000Y-86500000D03*
D20*
X174460000Y-86500000D03*
X171920000Y-86500000D03*
X169380000Y-86500000D03*
X166840000Y-86500000D03*
X164300000Y-86500000D03*
X161760000Y-86500000D03*
X159220000Y-86500000D03*
X159220000Y-99200000D03*
X161760000Y-99200000D03*
X164300000Y-99200000D03*
X166840000Y-99200000D03*
X169380000Y-99200000D03*
X171920000Y-99200000D03*
X174460000Y-99200000D03*
X177000000Y-99200000D03*
%TD*%
D23*
%TO.C,J1*%
X216672500Y-51500000D03*
D24*
X216672500Y-46500000D03*
%TD*%
D17*
%TO.C,R6*%
X114000000Y-64540000D03*
D18*
X114000000Y-59460000D03*
%TD*%
D31*
%TO.C,J6*%
X168420000Y-47625000D03*
D30*
X170960000Y-47625000D03*
X173500000Y-47625000D03*
X176040000Y-47625000D03*
%TD*%
%LPD*%
M02*
