M48
; DRILL file {KiCad 9.0.1} date 2025-04-10T10:55:45+0200
; FORMAT={-:-/ absolute / metric / decimal}
; #@! TF.CreationDate,2025-04-10T10:55:45+02:00
; #@! TF.GenerationSoftware,Kicad,Pcbnew,9.0.1
; #@! TF.FileFunction,Plated,1,2,PTH
FMAT,2
METRIC
; #@! TA.AperFunction,Plated,PTH,ComponentDrill
T1C0.700
; #@! TA.AperFunction,Plated,PTH,ComponentDrill
T2C0.800
; #@! TA.AperFunction,Plated,PTH,ComponentDrill
T3C0.900
; #@! TA.AperFunction,Plated,PTH,ComponentDrill
T4C1.000
; #@! TA.AperFunction,Plated,PTH,ComponentDrill
T5C1.190
; #@! TA.AperFunction,Plated,PTH,ComponentDrill
T6C1.300
%
G90
G05
T1
X111.5Y-49.96
X111.5Y-55.04
X111.5Y-59.46
X111.5Y-64.54
X114.0Y-49.96
X114.0Y-55.04
X114.0Y-59.46
X114.0Y-64.54
X158.785Y-81.354
X158.789Y-83.794
X163.865Y-81.354
X163.869Y-83.794
X172.6Y-67.985
X172.6Y-70.485
X177.68Y-67.985
X177.68Y-70.485
X182.7Y-81.34
X182.7Y-83.84
X187.78Y-81.34
X187.78Y-83.84
X197.21Y-67.985
X197.21Y-70.485
X202.29Y-67.985
X202.29Y-70.485
X205.5Y-52.42
X205.5Y-57.5
X205.5Y-62.46
X205.5Y-67.54
X205.5Y-81.54
X205.5Y-86.62
X205.5Y-91.54
X205.5Y-96.62
X208.0Y-54.92
X208.0Y-60.0
X208.0Y-64.92
X208.0Y-70.0
X208.0Y-79.04
X208.0Y-84.12
X208.0Y-89.04
X208.0Y-94.12
T2
X156.0Y-99.0
X156.0Y-104.0
X159.22Y-86.5
X159.22Y-99.2
X159.25Y-52.625
X159.25Y-65.325
X160.25Y-46.625
X161.76Y-86.5
X161.76Y-99.2
X161.79Y-52.625
X161.79Y-65.325
X163.75Y-46.625
X164.3Y-86.5
X164.3Y-99.2
X164.33Y-52.625
X164.33Y-65.325
X166.84Y-86.5
X166.84Y-99.2
X166.87Y-52.625
X166.87Y-65.325
X169.38Y-86.5
X169.38Y-99.2
X169.41Y-52.625
X169.41Y-65.325
X171.92Y-86.5
X171.92Y-99.2
X171.95Y-52.625
X171.95Y-65.325
X172.24Y-105.34
X174.46Y-86.5
X174.46Y-99.2
X174.49Y-52.625
X174.49Y-65.325
X175.74Y-105.34
X177.0Y-86.5
X177.0Y-99.2
X177.03Y-52.625
X177.03Y-65.325
X180.0Y-97.5
X180.0Y-102.5
X180.5Y-47.0
X180.5Y-52.0
X183.46Y-86.5
X183.46Y-99.2
X183.86Y-52.625
X183.86Y-65.325
X184.5Y-46.485
X186.0Y-86.5
X186.0Y-99.2
X186.4Y-52.625
X186.4Y-65.325
X188.0Y-46.485
X188.54Y-86.5
X188.54Y-99.2
X188.94Y-52.625
X188.94Y-65.325
X191.08Y-86.5
X191.08Y-99.2
X191.48Y-52.625
X191.48Y-65.325
X193.62Y-86.5
X193.62Y-99.2
X194.02Y-52.625
X194.02Y-65.325
X196.16Y-86.5
X196.16Y-99.2
X196.56Y-52.625
X196.56Y-65.325
X196.85Y-105.34
X198.7Y-86.5
X198.7Y-99.2
X199.1Y-52.625
X199.1Y-65.325
X200.35Y-105.34
X201.24Y-86.5
X201.24Y-99.2
X201.64Y-52.625
X201.64Y-65.325
X204.5Y-50.0
X209.5Y-50.0
X211.0Y-57.46
X211.0Y-60.0
X211.0Y-62.54
X211.0Y-65.08
X211.0Y-83.96
X211.0Y-86.5
X211.0Y-89.04
X211.0Y-91.58
X218.62Y-57.46
X218.62Y-60.0
X218.62Y-62.54
X218.62Y-65.08
X218.62Y-83.96
X218.62Y-86.5
X218.62Y-89.04
X218.62Y-91.58
T3
X161.64Y-68.215
X161.64Y-70.755
X166.14Y-68.215
X166.14Y-70.755
X170.09Y-81.07
X170.09Y-83.61
X174.59Y-81.07
X174.59Y-83.61
X186.75Y-68.215
X186.75Y-70.755
X191.25Y-68.215
X191.25Y-70.755
X194.24Y-81.07
X194.24Y-83.61
X198.74Y-81.07
X198.74Y-83.61
T4
X117.3Y-46.22
X117.3Y-48.76
X117.3Y-51.3
X117.3Y-53.84
X117.3Y-56.38
X117.3Y-58.92
X117.3Y-61.46
X117.3Y-64.0
X117.3Y-66.54
X117.3Y-69.08
X117.3Y-71.62
X117.3Y-74.16
X117.3Y-76.7
X117.3Y-79.24
X117.3Y-81.78
X118.84Y-97.5
X121.38Y-97.5
X122.3Y-46.22
X122.3Y-48.76
X122.3Y-51.3
X122.3Y-53.84
X122.3Y-56.38
X122.3Y-58.92
X122.3Y-61.46
X122.3Y-64.0
X122.3Y-66.54
X122.3Y-69.08
X122.3Y-71.62
X122.3Y-74.16
X122.3Y-76.7
X122.3Y-79.24
X122.3Y-81.78
X123.92Y-97.5
X126.46Y-97.5
X129.0Y-97.5
X131.54Y-97.5
X147.7Y-46.22
X147.7Y-48.76
X147.7Y-51.3
X147.7Y-53.84
X147.7Y-56.38
X147.7Y-58.92
X147.7Y-61.46
X147.7Y-64.0
X147.7Y-66.54
X147.7Y-69.08
X147.7Y-71.62
X147.7Y-74.16
X147.7Y-76.7
X147.7Y-79.24
X147.7Y-81.78
X152.8Y-46.22
X152.8Y-48.76
X152.8Y-51.3
X152.8Y-53.84
X152.8Y-56.38
X152.8Y-58.92
X152.8Y-61.46
X152.8Y-64.0
X152.8Y-66.54
X152.8Y-69.08
X152.8Y-71.62
X152.8Y-74.16
X152.8Y-76.7
X152.8Y-79.24
X152.8Y-81.78
T5
X110.5Y-70.0
X110.5Y-72.54
X110.5Y-76.5
X110.5Y-79.04
X110.5Y-83.0
X110.5Y-85.54
X110.5Y-89.5
X110.5Y-92.04
X160.19Y-104.227
X162.73Y-104.227
X165.27Y-104.227
X167.81Y-104.227
X168.42Y-47.625
X170.96Y-47.625
X173.5Y-47.625
X176.04Y-47.625
X184.92Y-104.2
X187.46Y-104.2
X190.0Y-104.2
X192.42Y-47.625
X192.54Y-104.2
X194.96Y-47.625
X197.5Y-47.625
X200.04Y-47.625
T6
X216.172Y-98.5
X216.172Y-103.5
X216.5Y-72.0
X216.5Y-77.0
X216.672Y-46.5
X216.672Y-51.5
M30
